<svg width="400" height="400" viewBox="0 0 400 400" fill="none" xmlns="http://www.w3.org/2000/svg">
<path fill-rule="evenodd" clip-rule="evenodd" d="M174.68 170.92C174.4 171.46 173.58 176.92 176.8 176.92C177.362 176.921 177.906 176.72 178.333 176.352C178.759 175.985 179.038 175.477 179.12 174.92C179.8 168.8 175.8 168.82 174.68 170.92ZM203.68 170.84C203.86 172.96 204.1 174.84 206.22 174.84C206.782 174.841 207.326 174.64 207.753 174.272C208.179 173.905 208.458 173.397 208.54 172.84C208.583 171.553 208.442 170.267 208.12 169.02C206.96 166.88 203.38 167.4 203.68 170.84ZM189.68 190.16C190.3 190.16 195.68 189.9 196.94 188.92C197.32 188.64 197.28 188.1 197.28 187.6C197.16 181.927 196.612 176.271 195.64 170.68C195.64 170.38 195.38 170.32 195.22 170.36C195.06 170.4 194.98 170.68 195 171.16C195 172.8 194.86 173.36 195.44 182.54C195.82 188.54 195.66 186.86 195.78 187.86C193.904 188.547 191.979 189.089 190.02 189.48C188.72 189.76 189.64 190.16 189.68 190.16ZM196 204C194.516 204.795 192.88 205.266 191.2 205.38C191.115 205.38 191.034 205.414 190.974 205.474C190.914 205.534 190.88 205.615 190.88 205.7C190.88 205.785 190.914 205.866 190.974 205.926C191.034 205.986 191.115 206.02 191.2 206.02C192.139 206.358 193.143 206.48 194.136 206.376C195.13 206.272 196.086 205.946 196.936 205.421C197.786 204.896 198.506 204.187 199.043 203.345C199.581 202.503 199.921 201.551 200.04 200.56C200.05 200.519 200.053 200.477 200.047 200.435C200.041 200.394 200.027 200.354 200.006 200.317C199.984 200.281 199.956 200.249 199.922 200.224C199.889 200.199 199.851 200.181 199.81 200.17C199.769 200.159 199.727 200.157 199.685 200.163C199.643 200.169 199.603 200.183 199.567 200.204C199.531 200.226 199.499 200.254 199.474 200.287C199.449 200.321 199.43 200.359 199.42 200.4C198.61 201.875 197.432 203.116 196 204ZM106.36 49.76C111.5 66.94 129.68 66.1 131.8 67.38C131.8 67.58 135.96 83.6 137.64 85.8C138.58 87.02 140.84 86.54 142.34 86.26C145.86 85.56 149.94 85.34 152.92 82.96C153.68 82.34 153.24 79.82 153.04 78.96C152.403 75.3639 151.521 71.8156 150.4 68.34C149.959 67.2914 149.585 66.2159 149.28 65.12C150.66 63.8974 152.161 62.8185 153.76 61.9C156.399 60.1023 158.746 57.9101 160.72 55.4C164.539 49.8055 166.265 43.0446 165.596 36.3041C164.926 29.5637 161.904 23.2743 157.06 18.54C142.24 4 115.44 8.74 106.74 27.08C103.76 33.44 104.34 43.08 106.36 49.76ZM152 82C149.34 84.14 145.42 84.42 142 85.12C141.08 85.32 138.9 85.86 138.32 85.12C137.188 83.4865 136.374 81.6546 135.92 79.72C141.1 78.9899 146.168 77.6055 151 75.6C151.654 77.6708 151.991 79.8285 152 82ZM150.78 74.78C145.669 75.7324 140.651 77.1242 135.78 78.94C135.263 76.6188 134.595 74.3339 133.78 72.1C138.947 71.5588 144.015 70.307 148.84 68.38C149.647 70.4942 150.315 72.6588 150.84 74.86L150.78 74.78ZM108 27.7C116.38 10.38 142 6 156 19.7C160.55 24.1632 163.397 30.0769 164.047 36.4174C164.697 42.758 163.11 49.1263 159.56 54.42C156.1 59.3 149.1 62.66 148.02 64.42C147.64 65.04 148.34 66.62 148.78 67.74C146.5 68.18 144 68.72 141.76 69.22C141.16 66.48 138.36 55.42 137.32 52.82C136.92 51.78 136.56 51.86 135.5 52.16C129.66 52.16 123.24 50.68 121.18 45.18C120.931 44.5353 120.756 43.8643 120.66 43.18C120.38 40.3 122.66 36.94 125.18 37.18C124.82 39.38 125.18 43.58 127.06 44.84C128.94 46.1 131.06 44.1 131.06 42.3C130.953 41.002 130.531 39.7496 129.831 38.6517C129.13 37.5538 128.172 36.6436 127.04 36C127.354 35.286 127.82 34.6489 128.405 34.1329C128.99 33.6169 129.681 33.2344 130.429 33.0118C131.176 32.7892 131.963 32.7318 132.736 32.8438C133.508 32.9557 134.246 33.2342 134.9 33.66C133.32 36.74 134.9 43.8 137.7 42.14C140.5 40.48 139.58 36.4 137.84 34.14C137 33.04 136.82 33.34 137.24 33.02C140.5 30.64 144.2 33.4 145.76 37.02C148 42 143.2 48.14 140.16 50C140.086 50.0451 140.032 50.1178 140.012 50.2022C139.991 50.2866 140.005 50.3757 140.05 50.45C140.095 50.5243 140.168 50.5776 140.252 50.5982C140.336 50.6188 140.426 50.6051 140.5 50.56C144.22 48.38 148.92 41.96 146.78 36.56C144.64 31.16 139.26 29.08 135.86 32.3C135.004 31.7126 134.027 31.3247 133.001 31.1651C131.975 31.0054 130.926 31.0779 129.932 31.3773C128.938 31.6767 128.024 32.1953 127.257 32.895C126.489 33.5946 125.889 34.4575 125.5 35.42C121.78 34.94 118.64 39.28 119.06 43.22C119.286 44.9614 119.944 46.6186 120.975 48.0404C122.005 49.4622 123.375 50.6034 124.96 51.36C126.84 52.26 133.52 53.9 136.16 53.14C137.08 55.14 140.42 66.88 141.02 69.34C132.14 71.34 133.94 72.28 133.5 70.98C132.98 69.36 132.66 66.98 132.22 66.82C121.18 64.32 111.22 62.48 107.5 49.38C105.68 43.04 105.2 33.64 108 27.7ZM126.56 37.58C127.318 38.1177 127.951 38.8122 128.417 39.6162C128.883 40.4202 129.17 41.3151 129.26 42.24C129.26 42.78 128.04 44.24 127.26 42.64C126.663 41.0244 126.45 39.2919 126.64 37.58H126.56ZM136 34.52C137.6 36.08 138.6 39.72 136.86 40.78C136.257 39.8676 135.866 38.8314 135.717 37.7479C135.569 36.6643 135.665 35.5612 136 34.52ZM75.9998 110.86C84.1398 108.32 93.9998 110.52 97.7998 119.52C104.38 134.76 86.9798 142.52 87.1598 143.32C87.5598 145.32 88.2798 148.82 88.5798 150.84C88.6037 151.01 88.694 151.163 88.8309 151.266C88.9678 151.369 89.1401 151.414 89.3098 151.39C89.4796 151.366 89.6329 151.276 89.736 151.139C89.8392 151.002 89.8837 150.83 89.8598 150.66C89.6198 148.66 89.3598 145.78 89.0798 143.7C91.9076 142.566 94.5242 140.963 96.8198 138.96C110.94 122.3 95.1798 101.28 75.0398 107.86C71.8508 108.79 69.0302 110.689 66.9695 113.295C64.9088 115.9 63.7101 119.082 63.5398 122.4C62.8998 130.28 69.1798 137.08 79.3198 136.2C79.4727 136.173 79.6111 136.093 79.7109 135.974C79.8107 135.855 79.8654 135.705 79.8654 135.55C79.8654 135.395 79.8107 135.245 79.7109 135.126C79.6111 135.007 79.4727 134.927 79.3198 134.9C70.3198 135.36 65.4998 128.9 66.3598 122.7C66.559 119.976 67.5907 117.38 69.315 115.262C71.0394 113.144 73.373 111.607 75.9998 110.86ZM225.38 58.68C225.55 58.7251 225.73 58.7009 225.882 58.6128C226.034 58.5246 226.145 58.3797 226.19 58.21C226.235 58.0403 226.211 57.8596 226.123 57.7077C226.034 57.5558 225.89 57.4451 225.72 57.4C217.06 54.96 214.56 47.3 217.36 41.68C218.45 39.17 220.286 37.0561 222.619 35.625C224.952 34.1939 227.668 33.5149 230.4 33.68C245.44 34.06 252.04 47.9 246.4 57.78C242.66 64.54 237.66 66.36 231.26 67.2C231.058 67.2284 230.87 67.3218 230.726 67.4662C230.582 67.6105 230.488 67.7979 230.46 68C230.24 69.84 229.76 73.46 229.4 75.56C229.365 75.7271 229.399 75.901 229.492 76.0435C229.586 76.1861 229.733 76.2855 229.9 76.32C230.067 76.3545 230.241 76.3212 230.383 76.2274C230.526 76.1336 230.625 75.9871 230.66 75.82C231.12 73.66 231.74 71.12 232.16 68.98C235.198 68.8166 238.187 68.1404 241 66.98C247.78 62.98 251.9 56.66 251.36 48.66C250.1 29.88 222.7 23.16 214.82 40.66C211.76 47.78 215.48 56.44 225.38 58.68ZM336.5 152.52C336.271 148.813 334.948 145.256 332.7 142.3C330.537 139.866 327.898 137.901 324.947 136.525C321.996 135.149 318.795 134.392 315.54 134.3C312.227 134.146 308.948 135.026 306.157 136.818C303.365 138.609 301.2 141.224 299.96 144.3C296.82 151.56 300.6 160.02 310.46 162.42C310.548 162.46 310.643 162.479 310.74 162.478C310.836 162.477 310.931 162.454 311.018 162.413C311.104 162.371 311.181 162.31 311.242 162.236C311.303 162.161 311.347 162.074 311.37 161.981C311.394 161.887 311.397 161.79 311.379 161.695C311.361 161.6 311.323 161.511 311.266 161.433C311.21 161.354 311.137 161.289 311.053 161.242C310.969 161.195 310.876 161.167 310.78 161.16C302.18 158.56 299.62 151.16 302.44 145.44C303.53 142.93 305.366 140.816 307.699 139.385C310.032 137.954 312.748 137.275 315.48 137.44C318.254 137.517 320.983 138.156 323.503 139.318C326.022 140.48 328.28 142.141 330.14 144.2C332.013 146.645 333.126 149.587 333.34 152.66C334.76 170.3 315.76 170.36 315.58 171.76C315.34 173.76 314.9 177.28 314.52 179.32C314.485 179.487 314.519 179.661 314.612 179.804C314.706 179.946 314.853 180.046 315.02 180.08C315.187 180.114 315.361 180.081 315.503 179.987C315.646 179.894 315.745 179.747 315.78 179.58C316.26 177.44 316.86 174.88 317.28 172.74C320.324 172.569 323.318 171.893 326.14 170.74C332.82 166.82 337.04 160.6 336.5 152.52ZM97.4798 166C98.3398 162.44 95.7598 158.7 93.1998 159C91.5395 158.82 89.8676 158.774 88.1998 158.86C83.8598 159.9 81.8198 165.58 85.8998 168.36C90.5798 171.48 96.6398 169.32 97.4798 166ZM94.3798 165.6C93.6696 166.193 92.7996 166.562 91.8798 166.66C86.4398 167.42 85.2798 162.66 88.9398 161.1L93.2398 160.3C95.0998 160.46 95.5198 164.44 94.3798 165.5V165.6ZM227.74 83.2C223.08 81.5 218.04 86.76 221.34 91.2C224.64 95.64 231.18 95.64 233.06 92.68C234.94 89.72 233.8 85.24 231.28 84.68C231.06 84.58 229.32 83.78 227.74 83.2ZM230.26 91.2C229.365 91.5045 228.407 91.5724 227.478 91.3972C226.55 91.2219 225.682 90.8095 224.96 90.2C224.369 89.7756 223.883 89.2214 223.54 88.58C222.96 86.96 225.04 85.3 226.56 85.2L230.88 85.82C232.56 86.72 231.72 90.64 230.26 91.26V91.2ZM316.34 188.56C315.94 188.38 313.88 187.52 312.82 187.12C308.14 185.42 303.12 190.68 306.42 195.12C309.72 199.56 316.24 199.56 318.14 196.6C320.04 193.64 318.88 189.12 316.34 188.56ZM315.32 195.18C314.425 195.483 313.467 195.549 312.539 195.374C311.611 195.199 310.743 194.788 310.02 194.18C309.434 193.742 308.95 193.183 308.6 192.54C308.04 190.94 310.1 189.28 311.62 189.18L315.94 189.8C317.62 190.64 316.78 194.54 315.32 195.18Z" fill="#194770"/>
<path fill-rule="evenodd" clip-rule="evenodd" d="M300 298.88C296 279.2 280.44 248.88 261.76 241.14L258 233.28C257.973 233.223 257.934 233.172 257.886 233.132C257.838 233.091 257.781 233.061 257.721 233.044C257.66 233.027 257.596 233.023 257.534 233.033C257.472 233.042 257.412 233.065 257.36 233.1L253.36 235.68C252.089 227.191 248.21 219.307 242.26 213.12C246.42 206.7 253.08 204.74 259.96 204.44C265.66 204.2 269.86 203.86 273.16 198.98C279.7 189.34 278.16 179.94 270.48 170.98C258.78 157.34 254.18 161.42 248.48 153.88C237.64 139.72 235.18 118.78 219.22 107.88C198.82 94.06 187.82 105.2 183.54 108.64C177.28 104.84 163.32 106.16 157.32 111.3C152.22 115.66 145.46 121.3 142.84 127.6C137.26 140.9 137.86 156.64 129.7 168.7C127.7 171.7 124.28 173.72 121.86 176.56C118.538 180.725 115.712 185.262 113.44 190.08C110.48 195.68 108.22 201.9 110.92 207.7C114.54 215.46 122.64 222.86 131.28 222.3C136.28 221.96 142.9 218.96 147.6 220.94C150.4 222.1 151.48 224.8 153.6 227.06C158.4 232.4 169.6 234.02 175.8 230.32C168.98 239 158.58 238.7 140.44 248.7C112.6 264.02 102.44 281.42 99.4596 299.24C98.3197 304.784 97.4785 310.386 96.9396 316.02C95.2196 345.08 104.04 381.92 132.64 388.02C140.48 389.7 149.46 390.78 157.22 388.84C171.92 385.18 189.46 375.28 202.34 367.24C208.34 363.5 230.54 348.52 240.86 346.56C241.481 351.898 242.826 357.126 244.86 362.1C253.12 379.08 266.34 389.12 284.86 384.76C296.86 381.94 300.28 369.16 300.6 356.92C306.62 344 301.84 308.28 300 298.88ZM230.8 205.24C234.36 205.9 236.8 209.24 239.44 211.96C246.42 218.94 251.22 226.42 252.66 235.96C246.88 239.64 243.12 241.96 243.04 242.08C242.96 242.2 240.18 235.12 238.5 234.26C235.986 233.012 233.706 231.341 231.76 229.32C230.26 227.66 228.42 224.74 228.66 222.54C229.723 221.974 230.883 221.615 232.08 221.48V220.24C225.9 220.42 223.78 226.06 223.22 227.32C222.82 228.22 222.26 229.12 220.98 228.98C219.7 228.84 219.24 227.36 219.72 226.04C220.2 224.72 221.36 218.92 229.54 217.66C229.642 217.646 229.741 217.611 229.83 217.558C229.919 217.506 229.997 217.436 230.059 217.354C230.121 217.271 230.166 217.177 230.192 217.077C230.218 216.977 230.224 216.872 230.21 216.77C230.195 216.668 230.161 216.569 230.108 216.48C230.056 216.391 229.986 216.313 229.903 216.251C229.821 216.188 229.727 216.143 229.626 216.117C229.526 216.091 229.422 216.086 229.32 216.1C227.608 216.318 225.948 216.839 224.42 217.64C223.045 218.311 221.826 219.26 220.838 220.427C219.85 221.594 219.115 222.954 218.68 224.42C217.72 227.16 214.36 225.94 215.16 223.58C215.965 221.284 217.162 219.146 218.7 217.26C220.407 215.633 222.457 214.409 224.7 213.68C226.46 212.96 227.96 213.3 228.36 212.72C228.76 212.14 227.82 210.2 227.34 209.62C224.76 206.54 217.34 209.2 214.5 205.76C212.68 203.5 216.5 203.42 218.04 203.22C222.36 202.74 226.46 204.42 230.8 205.24ZM238.14 254.8C232.422 256.663 226.59 258.153 220.68 259.26C222.68 247.88 224.04 238.12 223.84 234.58C228.5 235.48 233.84 236.12 239.68 237.08C241.26 239.7 242.12 241.9 242.5 242.52L238.62 244.98C238.42 245.24 238.46 244.16 238.14 254.8ZM216.42 312.58C217.305 316.42 217.933 320.316 218.3 324.24C210.1 323.72 203.84 323.82 200.76 323.7C200.88 318.08 200.94 316.34 201.04 315.16C206.087 313.881 211.231 313.018 216.42 312.58ZM184.96 263.32C196.306 263.401 207.637 262.477 218.82 260.56C215.26 279.76 209.84 302.84 207.28 307.46C201.4 291.42 202 291.36 184.96 263.32ZM208.96 307.2C212.2 299.94 217.12 278.28 220.4 260.24C226.37 259.121 232.256 257.598 238.02 255.68C237.4 277.28 237.22 304.24 238.52 325.9C234.72 325.56 229.2 325.08 223.84 324.66C223.5 321.42 222.16 310.14 221.02 307.18C220.72 306.38 220.36 306.06 219.02 306.02C215.675 306.166 212.346 306.561 209.06 307.2H208.96ZM216.1 230.9C214.074 229.716 212.456 227.944 211.46 225.82C212.386 226.21 213.351 226.499 214.34 226.68C214.715 227.102 215.198 227.413 215.738 227.579C216.278 227.745 216.852 227.759 217.4 227.62C218.3 227.34 217.72 227.22 218.2 228.48C218.384 228.988 218.694 229.44 219.102 229.794C219.509 230.149 220.001 230.393 220.529 230.505C221.057 230.617 221.605 230.593 222.121 230.435C222.638 230.276 223.105 229.989 223.48 229.6C224.26 228.9 224.32 228.06 225.26 226.26C226.18 226.08 227.08 225.84 227.96 225.58C230.34 231.82 237.8 234.84 238.32 235.3C229.54 234 221.76 233.18 216.2 230.9H216.1ZM177.76 228.5C182.56 222.94 181.58 218.96 176.64 215.02C166.64 207.18 167.88 209.28 163.68 200.52C158.74 186.3 163 163.9 166.66 149.32C167.66 145.32 174.48 141.04 179.44 141.68C186.32 142.56 183.44 146.18 189.32 148.24C190.34 148.538 191.396 148.7 192.46 148.72C192.523 148.74 192.589 148.747 192.655 148.741C192.721 148.735 192.784 148.716 192.843 148.685C192.901 148.655 192.953 148.613 192.996 148.562C193.038 148.512 193.07 148.453 193.09 148.39C193.109 148.327 193.116 148.261 193.11 148.195C193.105 148.129 193.086 148.065 193.055 148.007C193.024 147.948 192.983 147.896 192.932 147.854C192.881 147.812 192.823 147.78 192.76 147.76C189.64 145.889 186.765 143.639 184.2 141.06C185.42 136.08 188.52 133.36 194.34 133.32C198.34 133.32 201.5 136.36 204.34 138.96C207.78 142.1 211.48 150.58 211.2 155.24C210.567 160.64 211.833 166.091 214.78 170.66C216.78 174.14 220.54 177.16 222.78 180.1C224.02 181.74 223.3 189.06 222.58 192.28C221.64 195.1 219.64 200.48 219.18 201.7C210.82 202 211.18 206.48 215.18 208.4C211.44 212.88 202.3 217.86 208.84 224.14C210.24 227.08 212.48 231.1 215.48 232.32C217.608 233.183 219.811 233.852 222.06 234.32C222.5 237.42 221.06 247.68 218.86 259.62C207.381 261.529 195.755 262.406 184.12 262.24C176.9 250.42 169.72 239.22 167.9 237.42C171.94 235.366 175.374 232.291 177.86 228.5H177.76ZM164.12 239.04C168.12 237.54 166.12 237.8 167.08 238.54C168.04 239.28 174.64 249.74 182.3 262.16C173.22 262.02 163 261.34 159.14 260.9C160.3 259.98 157.3 244.18 156.14 242.18C159.04 241.02 161.72 240 164.22 239.04H164.12ZM154.66 242.8C156.304 248.689 157.422 254.713 158 260.8C149.37 259.563 140.904 257.37 132.76 254.26C139.739 249.796 147.101 245.961 154.76 242.8H154.66ZM156.48 387.4C148.98 389.28 140.2 388.18 132.64 386.56C120.82 384.02 112.64 376.12 107.32 366C98.8596 350 96.3396 326.22 98.9196 309.56C99.4396 306.22 100.1 302.92 100.66 299.56C103.84 280.5 115.42 266.14 131.58 255.28C147.44 261.1 158.1 263.14 183.02 263.28C200.28 291.28 200.66 294.08 205.6 307.78C204.08 308.06 197.04 309.48 195.84 310.46C195.36 310.84 195.36 311.6 195.84 323.62C177.64 323.98 159.84 326.82 143.1 337.62C141.1 323.2 143.4 318.84 148.06 310.58C155.38 297.6 154.06 295.2 149.44 287.82C148.678 286.824 148.133 285.679 147.84 284.46C147.84 283.98 145.84 283.32 148.66 288.28C152.66 295.56 153.74 297.28 146.66 309.78C141.48 318.94 139.36 323.64 142.48 338.04C141.08 338.98 139.48 340.04 137.94 341.28C135.587 342.937 133.379 344.79 131.34 346.82C131.3 346.897 131.292 346.986 131.319 347.069C131.345 347.151 131.403 347.22 131.48 347.26C131.557 347.3 131.646 347.307 131.729 347.281C131.811 347.255 131.88 347.197 131.92 347.12C132.54 346.02 142.88 339.12 145.66 337.7C161.18 329.88 178.34 323.12 206.44 324.98C206.086 336.87 207.316 348.755 210.1 360.32C195.66 369.44 175.14 382.76 156.58 387.4H156.48ZM211.34 359.52C208.77 348.241 207.635 336.683 207.96 325.12C238.32 327.12 228.8 326.48 238.6 327.12C238.96 332.96 239.5 339.3 240.3 345.12C232.46 346.58 218.36 355.18 211.44 359.52H211.34ZM284.02 383.32C266.36 387.5 253.82 377.86 245.86 361.54C237.06 343.54 238.52 265.36 239.02 245.44L257.3 234.12C281.98 287.42 284.94 292.46 290.48 310.12C297.64 332.62 307.08 378 284.12 383.32H284.02ZM300.14 352.72C299.676 342.01 298.026 331.386 295.22 321.04C288.88 296.38 282.02 284.02 263.04 244.12L263.6 243.82C280.36 252.78 294.56 280.6 298.28 299.18C300.32 308.88 304.22 340.6 300.24 352.72H300.14Z" fill="#194770"/>
</svg>
