<svg width="400" height="400" viewBox="0 0 400 400" fill="none" xmlns="http://www.w3.org/2000/svg">
<path d="M228 79.64C214.98 71.02 203.76 82.56 203.76 82.56C201.36 78.56 193.4 79.84 193.4 79.84C177.58 82.5 178.9 94.74 179.92 97.2C180.94 99.66 188.96 102.6 188.96 102.6C192.12 102.6 200.54 92.24 200.54 92.24C202.54 106.24 212.88 106.38 212.88 106.38C222.017 106.009 230.811 102.8 238.04 97.2C238.04 97.2 241.06 88.26 228 79.64ZM197.02 125.26C197.02 125.06 196.62 125.1 196.66 125.26C196.66 126.52 195.18 130.72 195.4 131.48C195.74 132.7 198.2 132.96 199.16 132.66C199.229 132.642 199.29 132.602 199.333 132.546C199.377 132.49 199.401 132.421 199.401 132.35C199.401 132.279 199.377 132.21 199.333 132.154C199.29 132.098 199.229 132.058 199.16 132.04C198.7 132.04 196.3 131.58 196.2 130.96C196.641 129.088 196.915 127.181 197.02 125.26ZM205.6 120C205.685 121.303 205.852 122.599 206.1 123.88C206.138 123.926 206.185 123.963 206.238 123.989C206.292 124.014 206.351 124.027 206.41 124.027C206.469 124.027 206.528 124.014 206.582 123.989C206.635 123.963 206.683 123.926 206.72 123.88C206.788 122.518 206.577 121.157 206.1 119.88C206 119.64 205.6 119.76 205.6 120ZM188.5 120.62C188.178 122.136 188.303 123.714 188.86 125.16C189.02 125.46 189.62 125.36 189.58 124.96C189.58 124.24 189.06 121.38 189.06 120.66C189.06 120.36 188.56 120.32 188.5 120.62ZM190 113.84C188.229 114.726 186.662 115.973 185.4 117.5C185.16 117.76 185.52 118.12 185.76 117.86C186.54 117.14 189.64 114.9 190.26 114.34C190.44 114.14 190.24 113.72 190 113.84ZM209.42 116.48C208.599 115.277 207.445 114.339 206.1 113.78C205.76 113.62 205.44 114.14 205.8 114.34C206.945 115.073 208.005 115.932 208.96 116.9C209.16 117.04 209.58 116.8 209.42 116.48ZM212.94 142.52C214.32 140.88 213.92 138.08 213.26 136.14C213.245 136.091 213.215 136.047 213.173 136.016C213.132 135.985 213.082 135.969 213.03 135.969C212.978 135.969 212.928 135.985 212.887 136.016C212.845 136.047 212.815 136.091 212.8 136.14C212.8 136.14 211.88 140.94 204.98 142.14C204.84 142.14 204.78 142.4 204.98 142.4C206.633 142.413 208.258 141.965 209.671 141.107C211.084 140.248 212.23 139.013 212.98 137.54C213.318 139.138 213.215 140.797 212.68 142.34C212.58 142.46 212.84 142.62 212.94 142.52ZM211.66 108C212.18 108 212.02 107.12 211.66 107.12C203.768 107.273 195.906 106.103 188.4 103.66C188.35 103.651 188.299 103.66 188.255 103.684C188.21 103.709 188.176 103.748 188.157 103.795C188.139 103.842 188.136 103.894 188.152 103.942C188.167 103.99 188.198 104.032 188.24 104.06C191.62 106 202.68 108.58 211.66 108Z" fill="#194770"/>
<path d="M328.88 271.42C326.126 259.959 322.247 248.799 317.3 238.1C318.98 237.02 320.82 235.74 322.46 234.62C322.66 234.46 314.96 219 310.78 211.66C307.007 204.497 302.736 197.606 298 191.04C289.703 180.269 279.006 171.585 266.76 165.68C260.449 162.605 253.767 160.36 246.88 159C250.88 156 257.72 147.8 245.08 132.56C245.08 132.56 259.08 119.44 238.64 98.12C231.82 103.874 223.222 107.095 214.3 107.24C214.3 107.24 225.02 114.3 222.3 119.24C215.14 132.24 222.08 132.64 222.76 130.92C222.76 130.92 219.7 131.84 221.08 128.62C221.583 127.64 222.321 126.799 223.229 126.175C224.136 125.55 225.185 125.16 226.28 125.04C226.28 125.04 226 117.2 232 118.58C238 119.96 233.16 128.22 233.16 128.22C233.16 128.22 221.02 148.08 228.68 161.08C227.899 161.823 227.226 162.671 226.68 163.6C222.32 168.36 207.36 182.1 207.32 182.06C200.847 176.07 194.874 169.562 189.46 162.6C191.46 162.1 193.46 161.7 195.62 161.38C195.78 161.38 195.96 161.38 195.94 161.16C195.58 157.94 195.5 150.84 195.26 150.74C188.1 148.74 184.4 141.28 182.72 134.74C180.94 127.64 181.14 120.74 181.08 113.46C181.4 105.96 185.98 103.6 185.98 103.6C183.621 102.996 181.522 101.642 180 99.74C175.26 105.74 179.54 111.44 181.02 113.06C179.955 121.111 180.637 129.297 183.02 137.06C184.86 143.24 188.22 149.3 194.76 151.24C194.76 151.24 195.44 157.24 195.52 160.5C181.7 162.5 162.3 171.26 153.88 177.78C148.35 182.137 143.18 186.933 138.42 192.12C134.28 196.62 130.42 201.92 129.24 208.12C129.24 208.32 129.4 208.38 129.54 208.22C130.44 207.14 134.62 198.02 139.36 193.06C144.133 187.676 149.359 182.711 154.98 178.22C162.786 173.014 171.186 168.757 180 165.54C175.86 172 180.3 184 185.8 186C197.42 190.26 204.72 186.4 206.5 184C205.043 192.446 204.374 201.01 204.5 209.58C204.236 213.584 204.377 217.604 204.92 221.58C205.32 223.58 208.34 224.12 210.12 223.42C210.38 223.42 210.28 222.9 210.12 222.96C204.56 224.08 205.26 216.96 205.22 213.42C205.22 210.1 205.22 206.72 205.32 203.42C205.58 196.78 207.44 183.24 207.44 183.02C207.44 182.8 209.8 191.4 219.94 187.6C220.16 188.899 220.585 190.155 221.2 191.32C221.2 191.32 207.2 198.36 217.2 215.46C214.188 218.384 212.395 222.34 212.179 226.532C211.964 230.724 213.343 234.843 216.04 238.06C217.885 239.842 220.049 241.26 222.42 242.24C225.32 243.12 225.38 248.12 222.16 247.1C222.513 247.489 222.957 247.785 223.452 247.962C223.947 248.139 224.478 248.191 224.998 248.114C225.518 248.037 226.011 247.833 226.433 247.52C226.856 247.207 227.195 246.795 227.42 246.32C229.72 242.66 225.42 239.28 225.42 239.28C224.547 238.4 224.017 237.238 223.926 236.002C223.834 234.767 224.187 233.539 224.92 232.54C227.46 228.72 231.3 223.52 224.26 215.3C224.26 215.3 239.98 210.36 234.1 195.3C234.1 195.3 246.24 192.34 240.84 178.46C240.84 178.46 251.92 175.76 244.84 160.2C244.84 160.2 245 160.2 245.96 159.54C258.86 162.48 269.22 166.54 279.74 174.68C285.267 178.734 290.289 183.434 294.7 188.68C299.445 194.782 303.711 201.241 307.46 208C312 216 317.64 225.82 321.3 234.24C305.845 244.02 289.816 252.863 273.3 260.72C265.3 246.22 257.92 230.24 257.3 213.4C256.9 198.96 262.36 185.94 274.6 178.04C274.72 178.04 274.6 177.84 274.6 177.88C262.2 183.88 256.34 199.06 256.24 212.12C256.14 229.68 264.4 246.88 272.72 261.94C272.88 262.24 275.12 260.92 276.08 260.56C276.893 262.982 277.938 265.319 279.2 267.54C273.08 268.82 248.32 272.24 242.26 273.32C240.88 272.531 239.276 272.226 237.703 272.455C236.13 272.683 234.679 273.431 233.58 274.58C227.36 275.48 224.08 267.04 217.04 271.88C214 273.98 201.58 290.98 207.76 289.18C210.62 287.559 213.302 285.642 215.76 283.46C214.82 288.18 217.76 291.92 220.04 289.08C220.04 290.48 222.98 291.72 225 288.78C225.881 289.276 226.856 289.58 227.862 289.673C228.869 289.767 229.883 289.646 230.84 289.32C231.467 289.106 232.059 288.802 232.6 288.42L243.82 293.56C260.36 302.66 281.44 302.56 299.82 301.74C308 301.38 316.92 300.1 323 294.04C325.793 291.062 327.795 287.431 328.822 283.479C329.849 279.527 329.869 275.381 328.88 271.42ZM186.66 185.06C181.84 183.34 177.02 173.84 180.96 165.26C183.585 164.343 186.255 163.562 188.96 162.92C193.248 170.841 199.432 177.575 206.96 182.52C204.12 185.88 192.68 187.24 186.66 185.06ZM237.8 131.84C237.8 131.64 238.1 131.84 238.1 131.84C238.46 135.3 238.66 139.04 241.12 141.84C241.36 142.14 240.96 142.5 240.66 142.3C238 140.26 237.28 134.96 237.8 131.84ZM219.8 186.96C214.8 188.8 210.8 187.74 207.6 182.56C211.28 181.1 221.34 171.16 225.92 165.54C224.872 168.49 224.872 171.71 225.92 174.66C225.92 174.66 219.06 179.7 219.78 186.96H219.8ZM231.34 195.48C229.154 196.459 227.13 197.768 225.34 199.36C225.597 200.688 225.542 202.057 225.18 203.36C225.164 203.414 225.132 203.462 225.087 203.496C225.041 203.53 224.986 203.549 224.93 203.549C224.873 203.549 224.819 203.53 224.773 203.496C224.728 203.462 224.695 203.414 224.68 203.36C224.87 200.48 224.268 197.603 222.94 195.04C222.94 194.78 223.14 194.54 223.34 194.74C224.306 195.947 224.99 197.354 225.34 198.86C226.87 196.966 228.977 195.625 231.34 195.04C231.46 195.02 231.52 195.38 231.32 195.48H231.34ZM235.12 182.68C233.098 183.461 231.204 184.54 229.5 185.88C229.634 187.277 229.477 188.686 229.04 190.02C229.04 190.068 229.021 190.114 228.987 190.147C228.954 190.181 228.908 190.2 228.86 190.2C228.812 190.2 228.766 190.181 228.733 190.147C228.699 190.114 228.68 190.068 228.68 190.02C228.52 188.44 228.68 186.82 228.52 185.18C228.284 183.364 227.896 181.571 227.36 179.82C227.36 179.56 227.66 179.42 227.76 179.62C228.583 181.401 229.135 183.296 229.4 185.24C230.886 183.74 232.753 182.675 234.8 182.16C235.2 182 235.44 182.56 235.1 182.68H235.12ZM240.12 166.68C237.907 167.808 235.883 169.272 234.12 171.02C234.375 172.191 234.529 173.382 234.58 174.58C234.58 174.675 234.542 174.767 234.475 174.835C234.407 174.902 234.315 174.94 234.22 174.94C234.125 174.94 234.033 174.902 233.965 174.835C233.898 174.767 233.86 174.675 233.86 174.58C233.709 170.801 232.66 167.113 230.8 163.82C230.8 163.62 230.96 163.46 231.12 163.66C232.55 165.726 233.569 168.048 234.12 170.5C235.672 168.532 237.754 167.047 240.12 166.22C240.12 166.22 240.3 166.5 240.1 166.6L240.12 166.68ZM241.44 148.4C240.457 148.604 239.536 149.035 238.751 149.661C237.965 150.286 237.338 151.088 236.92 152C237.932 153.401 238.646 154.993 239.02 156.68C239.04 156.759 239.031 156.842 238.994 156.915C238.958 156.988 238.897 157.045 238.822 157.077C238.747 157.108 238.663 157.111 238.586 157.086C238.508 157.061 238.442 157.009 238.4 156.94C237.084 153.308 234.836 150.087 231.88 147.6C231.846 147.573 231.823 147.534 231.817 147.491C231.812 147.448 231.823 147.404 231.85 147.37C231.877 147.336 231.916 147.313 231.959 147.307C232.002 147.302 232.046 147.313 232.08 147.34C233.819 148.413 235.328 149.82 236.52 151.48C236.926 150.508 237.569 149.653 238.39 148.993C239.211 148.333 240.184 147.888 241.22 147.7C241.62 147.62 241.82 148.28 241.42 148.32L241.44 148.4ZM235.32 288.94C234.443 288.361 233.495 287.898 232.5 287.56C232.456 287.529 232.404 287.512 232.35 287.512C232.296 287.512 232.244 287.529 232.2 287.56C231.283 288.485 230.1 289.1 228.816 289.319C227.532 289.538 226.211 289.349 225.04 288.78C225.78 287.46 225.42 286.9 225.26 287.26C224.2 290.54 221.26 291.26 220.5 288.52C220.74 288.12 220.66 287.6 220.82 287.2C220.98 286.8 220.66 287 220.6 287.1C220 288.7 219.76 288.68 219.32 288.96C216.62 290.52 215.32 285.94 216.38 283.06L217.2 282.3C217.54 281.94 216.98 281.38 216.62 281.74C214.262 284.075 211.668 286.16 208.88 287.96C208.56 288.18 207.86 288.78 207.44 288.78C204.9 288.78 209.44 283.16 210.1 282.1C212.76 278.1 216.42 269.96 222.5 271.22C226.5 272.1 229.28 275.82 233.68 275.06C231.9 277.64 233.04 281.72 237.4 282.76L237.8 289.96C236.942 289.651 236.107 289.284 235.3 288.86L235.32 288.94ZM240.26 282.1C232.88 283.24 230.78 274.82 237.26 273.38C245.58 272.76 245.78 281.2 240.24 282L240.26 282.1ZM328.76 279.86C328.327 284.448 326.529 288.802 323.6 292.36C317.84 299.26 308.6 300.84 300.08 301.24C291.216 301.73 282.33 301.63 273.48 300.94C263.338 300.254 253.426 297.598 244.3 293.12L243.08 281.9C243.693 281.412 244.181 280.785 244.503 280.07C244.825 279.356 244.971 278.574 244.93 277.792C244.889 277.009 244.662 276.248 244.267 275.571C243.872 274.894 243.321 274.321 242.66 273.9C251.02 273.9 271.4 270.2 279.62 268.44C279.71 268.396 279.79 268.335 279.855 268.259C279.92 268.183 279.97 268.095 280 268C279.64 266.82 277.08 262 276.58 260.54C283.92 257.58 310.58 242.54 316.78 238.54C320.672 247.459 324.012 256.61 326.78 265.94C328.325 270.382 328.991 275.083 328.74 279.78L328.76 279.86Z" fill="#194770"/>
<path d="M239.78 279.02C239.351 277.559 238.718 276.165 237.9 274.88C237.9 274.88 237.7 274.88 237.7 274.98C238.036 276.277 238.533 277.527 239.18 278.7C238.208 278.315 237.195 278.046 236.16 277.9C235.9 277.9 235.8 278.26 236.16 278.3C237.266 278.694 238.395 279.021 239.54 279.28C239.54 279.28 239.84 279.12 239.78 279.02ZM238.46 274.52C238.76 274.52 238.86 274.02 238.46 273.96C238.06 273.9 238 274.58 238.46 274.52ZM242.7 277.58C242.626 277.606 242.564 277.658 242.526 277.727C242.488 277.796 242.477 277.876 242.494 277.952C242.512 278.029 242.556 278.096 242.62 278.142C242.684 278.188 242.762 278.208 242.84 278.2C242.893 278.196 242.944 278.179 242.989 278.151C243.034 278.123 243.072 278.085 243.1 278.04C243.135 277.982 243.151 277.914 243.145 277.847C243.139 277.779 243.112 277.715 243.068 277.664C243.023 277.613 242.964 277.577 242.898 277.562C242.831 277.547 242.762 277.553 242.7 277.58ZM239.68 280.6C239.12 280.86 239.68 281.32 239.84 281.26C240 281.2 240.3 281.26 240.3 281C240.3 280.74 240 280.44 239.68 280.6ZM234.12 277.18C233.72 277.18 233.96 277.74 234.12 277.8C234.156 277.839 234.199 277.87 234.247 277.891C234.295 277.912 234.347 277.923 234.4 277.923C234.453 277.923 234.505 277.912 234.553 277.891C234.601 277.87 234.644 277.839 234.68 277.8C234.74 277.44 234.42 277.02 234.12 277.18ZM231.78 290.8C220.8 290.8 209.78 290.8 198.86 291C189.58 269.72 163.8 214.2 160.34 207.82H160.18C124.18 209.4 88.3199 209.46 52.3599 209.3C52.307 209.301 52.2557 209.319 52.2128 209.35C52.17 209.381 52.1378 209.425 52.1204 209.475C52.103 209.525 52.1013 209.579 52.1155 209.63C52.1297 209.681 52.1592 209.726 52.1999 209.76C54.1999 214.4 79.9199 267.14 79.9799 267.16C79.7199 268.48 79.4799 269.48 79.1399 270.8C78.4356 272.969 77.9728 275.209 77.7599 277.48C77.7376 279.316 78.1245 281.133 78.8925 282.801C79.6605 284.468 80.7904 285.944 82.1999 287.12C84.7479 289.162 87.9882 290.137 91.2399 289.84C92.0626 292.397 93.0858 294.884 94.2999 297.28C94.3999 297.44 224.18 296.1 234.54 296.06C233.904 294.172 232.973 292.396 231.78 290.8ZM160.12 208.32C162.42 214 197.02 288 198.36 290.96H196C193 284.58 161.1 215.3 157.42 208.46L160.12 208.32ZM90.1199 289.12C88.176 289.164 86.2518 288.724 84.5199 287.84C82.9571 286.98 81.6236 285.757 80.6317 284.275C79.6398 282.792 79.0184 281.093 78.8199 279.32C78.3599 273.48 81.4799 263.42 81.5399 263.2C81.8399 262.1 82.5399 262.34 82.9399 263.2C83.8937 266.214 84.3728 269.359 84.3599 272.52C84.3599 272.72 84.7199 272.84 84.7199 272.84C87.9799 272.42 92.0199 271.86 95.0799 273.4C97.5199 274.66 96.0799 276.4 94.2399 277C92.4178 277.534 90.5371 277.843 88.6399 277.92C87.5799 278.18 88.1799 278.6 88.4399 278.6C89.3599 278.6 94.7199 277.72 94.7199 277.72C95.1199 277.72 95.8399 278.44 96.0399 278.74C96.2565 279.02 96.3948 279.353 96.4405 279.705C96.4862 280.056 96.4376 280.414 96.2999 280.74C95.3799 283.28 91.1999 283.14 89.8799 283.6C89.8304 283.615 89.7869 283.645 89.756 283.687C89.7252 283.728 89.7085 283.778 89.7085 283.83C89.7085 283.882 89.7252 283.932 89.756 283.973C89.7869 284.015 89.8304 284.045 89.8799 284.06C91.3634 284.083 92.8372 283.818 94.2199 283.28C96.2199 284.76 94.8799 287.28 93.4999 288.18C92.5178 288.847 91.3457 289.177 90.1599 289.12H90.1199ZM91.5599 289.68C92.2161 289.577 92.851 289.367 93.4399 289.06C95.4399 288.04 96.5599 284.62 94.6599 283.06C95.608 282.692 96.3803 281.977 96.8199 281.06C97.2199 280.08 96.5999 277.8 95.4799 277.44C96.8599 276.88 97.7799 276 97.4799 274.68C96.2399 270.68 88.1399 271.88 85.1799 272.44C85.142 270.588 84.9547 268.742 84.6199 266.92C84.5279 265.291 84.0331 263.711 83.1799 262.32C81.9799 260.96 81.3599 261.6 80.9999 262.82C80.8005 263.643 80.6535 264.478 80.5599 265.32C75.0599 255.2 56.3199 214.56 53.5599 210.18C88.3599 210.84 122.22 210.38 156.98 208.64C159.84 215.58 191.68 283.84 194.64 290.64C170.64 290.84 102.84 291.42 92.6399 291.84C92.1799 290.84 91.9999 290.52 91.5999 289.68H91.5599ZM94.6399 296.14C94.1384 294.943 93.5709 293.774 92.9399 292.64C110.8 292.94 221.32 291.52 231.68 291.46C232.196 292.733 232.811 293.963 233.52 295.14C197.38 295.3 104.8 295.74 94.6799 296.14H94.6399Z" fill="#194770"/>
<path d="M118.8 242.32C118.096 241.965 117.317 241.783 116.529 241.792C115.74 241.8 114.966 241.998 114.27 242.369C113.574 242.739 112.977 243.272 112.53 243.921C112.083 244.57 111.798 245.318 111.7 246.1C111.401 247.403 111.575 248.77 112.19 249.957C112.806 251.144 113.823 252.073 115.06 252.58C115.749 252.908 116.503 253.077 117.266 253.074C118.029 253.072 118.782 252.898 119.469 252.566C120.156 252.234 120.76 251.752 121.236 251.156C121.712 250.559 122.049 249.864 122.22 249.12C122.652 247.765 122.537 246.293 121.897 245.022C121.258 243.751 120.146 242.781 118.8 242.32ZM120.64 139.26C129.68 136.04 150.64 130.98 150.64 130.98C148.84 125.14 136.32 37.6801 136.12 37.6801C127.64 38.8001 118.38 42.9001 110.36 45.6801C102.66 48.3801 95 51.3401 87.5 54.7001C72.1699 61.3865 57.6278 69.7508 44.14 79.6401C36.84 85.1001 27.18 91.9801 22.14 99.6401C20.86 101.64 30.46 154.28 40.92 197.3C40.92 197.3 63.58 174.16 76.92 164.7C90.66 155.02 104.72 144.88 120.64 139.26ZM131.34 46.4801C131.9 48.0001 131.5 49.0801 130.68 49.5801C130.407 49.7664 130.097 49.8902 129.771 49.9425C129.445 49.9948 129.111 49.9744 128.794 49.8827C128.476 49.7909 128.183 49.6301 127.935 49.4119C127.688 49.1936 127.491 48.9232 127.36 48.6201C126.34 46.3601 130 44.1801 131.34 46.4801ZM124.92 48.3601C125.25 48.8773 125.366 49.5027 125.243 50.1038C125.119 50.705 124.767 51.2345 124.26 51.5801C123.986 51.7659 123.674 51.8887 123.347 51.9396C123.02 51.9905 122.686 51.9684 122.368 51.8746C122.051 51.7809 121.758 51.618 121.511 51.3976C121.264 51.1772 121.069 50.9048 120.94 50.6001C120.761 50.0861 120.768 49.5256 120.961 49.0165C121.153 48.5075 121.519 48.0823 121.993 47.8154C122.467 47.5484 123.02 47.4567 123.555 47.5563C124.09 47.6559 124.573 47.9404 124.92 48.3601ZM117.92 50.3601C118.222 50.8848 118.322 51.502 118.2 52.0951C118.078 52.6882 117.744 53.2164 117.26 53.5801C116.984 53.7532 116.674 53.8641 116.35 53.905C116.027 53.9458 115.699 53.9157 115.389 53.8167C115.078 53.7177 114.793 53.5522 114.553 53.3317C114.314 53.1112 114.125 52.841 114 52.5401C113.807 52.0214 113.806 51.4509 113.997 50.9316C114.188 50.4123 114.558 49.9783 115.041 49.708C115.524 49.4377 116.087 49.3487 116.63 49.4573C117.173 49.5659 117.658 49.8648 118 50.3001L117.92 50.3601ZM39.64 88.3601C44.0006 84.7173 48.6046 81.3762 53.42 78.3601C58.52 74.9001 63.78 71.58 69.14 68.5201C74.5 65.4601 80.22 62.5201 85.88 59.6801C88.9 58.2601 91.88 56.8801 94.96 55.5601C96.8 54.7801 99.36 53.0001 101.4 53.0001C103.44 53.0001 104.96 57.0001 103.64 58.5201C103.08 59.1801 89.36 65.5601 89.24 65.6601C76.2222 72.4309 63.662 80.0472 51.64 88.4601C49.14 90.2001 46.68 92.0401 44.24 93.8801C43.32 94.6001 41.48 96.3801 40.1 95.8801C37.36 95.0601 38 89.8401 39.64 88.3601ZM41.64 194.06C38.12 178.18 28 124.6 26.38 113.72C32.3326 108.114 38.7712 103.047 45.62 98.5801C52.56 93.5801 59.4 88.5801 66.44 83.6801C79.8524 74.3433 94.4124 66.7743 109.76 61.1601C118.508 58.0649 127.463 55.5921 136.56 53.7601C139.82 77.2001 146.56 117.3 148.8 129.2C132.52 133.06 116 137.82 101.34 146.18C87.0143 154.422 73.4713 163.955 60.88 174.66C53.8793 180.481 47.4501 186.957 41.68 194L41.64 194.06Z" fill="#194770"/>
<path d="M104 83.88C104.92 84.02 109.16 84.54 110.38 84.8C110.68 84.8 110.94 84.38 110.58 84.24C108.707 83.3719 106.623 83.0662 104.58 83.36C106.155 81.325 107.317 79.0013 108 76.52C108 76.38 107.8 76.28 107.74 76.52C107.12 77.7 104.48 82.34 103.96 83.56C104 83.52 103.84 83.88 104 83.88ZM114.96 83.88C115.797 79.5735 116.279 75.2054 116.4 70.82C116.4 70.6 116.04 70.56 115.98 70.82C115.231 75.1435 114.703 79.5025 114.4 83.88C114.46 84 114.92 84.18 114.96 83.88ZM125.58 74.8C124.76 76.8 124.16 78.8 123.58 80.8C123.48 81.1 123.94 81.22 124.04 80.8C124.807 78.8184 125.461 76.7952 126 74.74C126.029 74.7156 126.053 74.685 126.069 74.6504C126.085 74.6159 126.094 74.5781 126.094 74.54C126.094 74.5018 126.085 74.4641 126.069 74.4295C126.053 74.3949 126.029 74.3644 126 74.34C124.343 73.5957 122.594 73.0777 120.8 72.8C120.66 72.8 120.6 73 120.8 73.06C122.322 73.8186 123.926 74.4024 125.58 74.8ZM101.18 125.42C101.79 128.636 102.735 131.78 104 134.8C109.82 132.66 115.66 129.34 121.28 126.8C121.16 126.06 120.38 123.68 120.02 122.2C119.736 120.6 119.294 119.032 118.7 117.52C115.84 118.48 109.88 121.24 109.66 121.34C109.617 120.364 109.429 119.4 109.1 118.48C111.76 117.2 114.42 115.84 117.1 114.6C116.967 112.968 116.645 111.357 116.14 109.8C115.858 108.194 115.463 106.61 114.96 105.06C112 106 106.14 108.68 106 108.72C105.852 107.98 105.651 107.252 105.4 106.54C108.04 105.26 110.8 103.82 113.4 102.66C113.144 101.157 112.783 99.6729 112.32 98.22C114.326 97.125 116.389 96.137 118.5 95.26C118.509 95.2448 118.513 95.2275 118.513 95.21C118.513 95.1924 118.509 95.1752 118.5 95.16C118.708 96.6555 119.002 98.1379 119.38 99.6C119.392 99.6324 119.411 99.6616 119.436 99.6852C119.461 99.7088 119.491 99.7262 119.525 99.7359C119.558 99.7457 119.593 99.7475 119.626 99.7412C119.66 99.735 119.692 99.7208 119.72 99.7C124.895 98.2569 129.928 96.3492 134.76 94H134.86C134.98 94 135.02 93.9 135.02 93.8C134.66 90.84 134.42 87.8 133.8 84.88C133.76 84.8589 133.715 84.848 133.67 84.848C133.625 84.848 133.58 84.8589 133.54 84.88C128.308 86.3468 123.193 88.2054 118.24 90.44V90.74C118.24 92.12 118.5 93.56 118.7 94.98C118.687 94.9667 118.671 94.9561 118.654 94.9489C118.637 94.9417 118.618 94.9379 118.6 94.9379C118.581 94.9379 118.563 94.9417 118.546 94.9489C118.528 94.9561 118.513 94.9667 118.5 94.98C116.322 95.7714 114.232 96.7833 112.26 98C111.994 96.4587 111.565 94.9502 110.98 93.5C105.035 95.7864 99.2254 98.4106 93.5798 101.36C93.7558 103.059 94.1112 104.735 94.6398 106.36C91.7408 107.622 89.0448 109.307 86.6398 111.36C86.3386 109.546 85.9109 107.755 85.3598 106H85.0598C80.4044 108.899 75.911 112.05 71.5998 115.44V115.64C71.8134 117.58 72.1542 119.504 72.6199 121.4C72.6199 121.4 66.6198 125.7 63.7998 127.78C63.3398 125.38 62.8798 122.94 62.5198 120.48C62.5198 120.34 62.3598 120.14 62.2198 120.24C58.6398 122.84 55.2798 125.74 51.7998 128.5C51.3398 126.5 50.8398 124.5 50.3198 122.5C53.6798 119.9 57.0598 117.3 60.4198 114.76C60.4496 114.734 60.4735 114.701 60.4898 114.665C60.5062 114.629 60.5146 114.59 60.5146 114.55C60.5146 114.51 60.5062 114.471 60.4898 114.435C60.4735 114.399 60.4496 114.366 60.4198 114.34C59.1998 109.8 58.4198 105.2 57.6198 100.62C57.6198 100.46 57.4598 100.26 57.3198 100.36C53.6398 103.02 38.7398 114.54 35.1598 117.7C35.1405 117.733 35.1304 117.771 35.1304 117.81C35.1304 117.849 35.1405 117.887 35.1598 117.92C35.7127 122.368 36.6019 126.767 37.8198 131.08C37.8198 131.08 38.0198 131.44 38.1198 131.34C42.1198 128.64 46.1198 125.72 49.9198 122.76C50.2432 124.798 50.7383 126.805 51.3998 128.76C47.6598 131.66 43.6398 134.36 40.1198 137.48C40.1065 137.493 40.096 137.509 40.0888 137.526C40.0815 137.543 40.0778 137.561 40.0778 137.58C40.0778 137.599 40.0815 137.617 40.0888 137.634C40.096 137.651 40.1065 137.667 40.1198 137.68C40.6679 142.133 41.5503 146.539 42.7598 150.86C42.7598 150.86 42.9798 151.2 43.0798 151.1C50.7198 146 57.9998 140 65.3198 134.54C65.3492 134.516 65.3729 134.485 65.3891 134.45C65.4053 134.416 65.4137 134.378 65.4137 134.34C65.4137 134.302 65.4053 134.264 65.3891 134.229C65.3729 134.195 65.3492 134.164 65.3198 134.14C64.7598 132.14 64.3398 130.14 63.8798 128.14C66.95 126.168 69.9017 124.018 72.7198 121.7C72.9598 122.92 73.2798 124.1 73.5398 125.32C73.5398 125.32 73.6798 125.52 73.7798 125.48C78.4198 122.52 82.7598 119.14 87.4198 116.24C87.4198 116.24 87.6199 116.08 87.6199 115.94C87.2999 114.5 87.0999 113.02 86.7999 111.54C89.3999 109.76 92.0599 108.12 94.7999 106.54C95.1999 107.88 95.6999 109.14 96.1599 110.38C96.1599 110.38 96.2798 110.52 96.3198 110.38C99.2798 109.3 102.18 107.92 105.1 106.54C105.209 107.302 105.432 108.043 105.76 108.74C102.864 109.908 100.04 111.243 97.2999 112.74C97.7215 115.941 98.597 119.066 99.8998 122.02C99.8998 122.02 99.8998 122.18 100.06 122.12C102.978 121.013 105.836 119.751 108.62 118.34C108.74 119.299 109.017 120.231 109.44 121.1C106.64 122.6 101.18 125.42 101.18 125.42ZM118.44 90.72C123.403 88.6345 128.477 86.825 133.64 85.3C133.745 88.178 134.053 91.045 134.56 93.88C134.56 93.88 124.92 97.7 120 99.64C119.641 96.6407 119.12 93.6631 118.44 90.72ZM38.5398 130.38C37.5198 126.22 36.7798 122.04 35.8998 117.88C39.5198 115.64 53.5798 104.6 56.9198 101.52C57.4653 105.956 58.2666 110.357 59.3198 114.7C52.3198 119.8 44.9598 124.64 38.5398 130.38ZM64.2198 134.66C57.0152 139.508 50.0783 144.742 43.4398 150.34C42.4198 146.16 41.6798 142 40.7998 137.84C44.4198 135.58 58.4798 124.56 61.8198 121.46C62.2198 125.88 64.2198 134.6 64.2198 134.66ZM86.9598 116C82.3507 118.733 77.9398 121.787 73.7598 125.14C73.2745 122.056 72.6067 119.004 71.7598 116C71.7598 116 80.7398 109.84 85.0798 106.72C85.361 109.873 85.9916 112.986 86.9598 116ZM96.5398 110C95.7198 106.98 95.1198 104.52 94.1398 101.56C96.8998 100.54 107.74 95.68 110.7 94.24C111.258 97.0122 112.041 99.7345 113.04 102.38C107.41 104.583 101.902 107.087 96.5398 109.88V110ZM100.24 122C99.4198 119 98.6598 116.18 97.6998 113.22C100.5 112.16 111.54 107.36 114.5 105.92C115.038 108.628 115.747 111.3 116.62 113.92C111.1 116.56 105.56 118.9 100.24 122ZM118.64 118.22C119.057 121.041 119.727 123.819 120.64 126.52C120.64 126.52 109.5 131.22 104.2 134.34C103.38 131.32 102.82 128.7 101.84 125.74C104.64 124.68 115.68 119.64 118.64 118.22ZM360.94 210.9C358.752 227.89 350.761 243.603 338.32 255.38C338.08 255.64 338.48 256 338.74 255.8C360.74 235.98 362.06 211.2 361.48 210.66C361.24 210.42 360.94 210.78 360.94 210.9ZM359.4 247.08C358.74 251.08 350.52 265.08 347.62 267.68C347.46 267.84 347.62 268.1 347.82 268C352.5 264.26 359.94 251.62 359.6 247.08C359.66 246.96 359.4 246.92 359.4 247.08ZM363.54 225.84C362.836 226.517 362.341 227.382 362.114 228.332C361.887 229.282 361.937 230.278 362.26 231.2C364.14 235.48 370.84 230.64 368.68 227.2C368.448 226.757 368.127 226.366 367.736 226.054C367.345 225.742 366.893 225.514 366.41 225.386C365.926 225.258 365.421 225.233 364.927 225.311C364.433 225.389 363.96 225.569 363.54 225.84ZM367.06 231.3C366.793 231.628 366.45 231.887 366.06 232.052C365.671 232.218 365.247 232.286 364.825 232.25C364.403 232.215 363.996 232.077 363.64 231.849C363.284 231.62 362.988 231.308 362.78 230.94C362.578 230.31 362.509 229.646 362.577 228.988C362.646 228.33 362.851 227.694 363.18 227.12C363.453 226.694 363.833 226.347 364.281 226.113C364.73 225.88 365.232 225.767 365.737 225.787C366.243 225.808 366.734 225.96 367.162 226.229C367.591 226.497 367.942 226.874 368.18 227.32C368.94 228.5 368 230.24 367.06 231.3ZM293.42 317.64C290.109 316.36 286.478 316.164 283.049 317.081C279.62 317.998 276.57 319.979 274.34 322.74C269.84 328.46 270.04 336.88 273.36 343.12C276.68 349.36 285.36 351.02 291.64 349.12C294.805 348.237 297.66 346.483 299.877 344.058C302.094 341.632 303.585 338.632 304.18 335.4C304.747 331.649 303.98 327.817 302.014 324.572C300.048 321.328 297.007 318.875 293.42 317.64ZM302.96 336.72C301.874 340.611 299.428 343.983 296.065 346.222C292.703 348.461 288.649 349.418 284.64 348.92C282.449 348.744 280.331 348.051 278.46 346.896C276.589 345.742 275.019 344.16 273.88 342.28C271.825 338.173 271.246 333.484 272.24 329C274.48 320.04 283.84 315.64 293.06 318.44C296.755 319.614 299.851 322.174 301.697 325.583C303.543 328.992 303.996 332.984 302.96 336.72Z" fill="#194770"/>
<path d="M283.62 343.16C283.133 343.081 282.674 342.88 282.286 342.576C281.898 342.272 281.593 341.874 281.4 341.42C281.15 341.06 280.979 340.651 280.9 340.22C280.821 339.789 280.834 339.345 280.94 338.92C280.953 337.606 280.764 336.297 280.38 335.04C280.12 334.34 279.7 333.62 279.1 333.46C279.385 333.271 279.628 333.023 279.81 332.734C279.993 332.444 280.112 332.119 280.16 331.78C280.208 330.668 280.128 329.554 279.92 328.46C279.797 327.881 279.826 327.28 280.005 326.715C280.183 326.151 280.506 325.643 280.94 325.24C281.381 325.029 281.854 324.894 282.34 324.84C282.56 324.84 282.5 324.48 282.34 324.48C281.739 324.427 281.136 324.554 280.609 324.846C280.081 325.139 279.653 325.582 279.38 326.12C278.62 328.12 280.6 332.9 277.9 333.36C277.64 333.36 277.7 333.72 277.9 333.82C280.7 334.28 279.42 340.04 280.14 341.68C280.492 342.29 281 342.797 281.611 343.148C282.222 343.499 282.915 343.683 283.62 343.68C283.88 343.72 283.88 343.26 283.62 343.16ZM296.68 332.7C294.08 332.44 295.56 327.24 294.68 325.56C294.398 325.03 293.957 324.601 293.419 324.336C292.88 324.07 292.272 323.981 291.68 324.08C291.632 324.08 291.586 324.099 291.553 324.133C291.519 324.166 291.5 324.212 291.5 324.26C291.5 324.308 291.519 324.354 291.553 324.387C291.586 324.421 291.632 324.44 291.68 324.44C292.069 324.471 292.452 324.552 292.82 324.68C293.338 324.957 293.759 325.384 294.031 325.905C294.302 326.426 294.41 327.017 294.34 327.6C294.34 328.62 294.14 329.6 294.34 330.66C294.356 331.101 294.481 331.531 294.704 331.912C294.928 332.292 295.242 332.611 295.62 332.84C294.9 333.1 294.6 334.02 294.4 334.84C294.132 336.013 294.045 337.22 294.14 338.42C294.282 339.193 294.177 339.99 293.84 340.7C293.28 342.18 293.06 342.24 291.74 342.7C291.706 342.709 291.674 342.725 291.646 342.747C291.618 342.768 291.594 342.795 291.577 342.826C291.541 342.888 291.531 342.961 291.55 343.03C291.568 343.099 291.614 343.158 291.676 343.193C291.737 343.229 291.811 343.239 291.88 343.22C292.604 343.177 293.301 342.928 293.889 342.503C294.477 342.078 294.932 341.494 295.2 340.82C295.56 339.24 294.04 333 296.84 333.1C297 333.16 296.94 332.76 296.68 332.7ZM53.6799 341.02C50.8799 341.02 49.9599 343.42 49.9599 345.3C49.9433 346.388 50.3519 347.44 51.0989 348.232C51.8459 349.024 52.8724 349.493 53.9599 349.54C55.0267 349.393 56.0091 348.88 56.7389 348.088C57.4687 347.296 57.9004 346.275 57.9599 345.2C57.9868 344.635 57.8937 344.071 57.6867 343.545C57.4798 343.019 57.1637 342.543 56.7592 342.148C56.3548 341.753 55.8713 341.448 55.3405 341.254C54.8097 341.06 54.2438 340.98 53.6799 341.02ZM54.6999 348.88C49.7999 350.3 49.0399 341.28 53.6199 341.42C54.5019 341.329 55.3857 341.573 56.0968 342.102C56.8078 342.632 57.2943 343.409 57.4599 344.28C57.545 345.24 57.3238 346.202 56.8279 347.029C56.332 347.855 55.5871 348.503 54.6999 348.88ZM27.9999 192.78C21.0799 201.2 18.3799 212.2 17.9999 222.82C17.6399 234.6 19.7599 248.2 25.5799 258.7C25.6064 258.748 25.6508 258.783 25.7034 258.798C25.7559 258.813 25.8122 258.807 25.8599 258.78C25.9077 258.753 25.9429 258.709 25.9579 258.657C25.9729 258.604 25.9664 258.548 25.9399 258.5C21.1057 247.669 18.9122 235.844 19.5399 224C19.7999 212.84 21.6799 202 27.9999 192.78ZM31.7399 220.8C31.7399 220.752 31.721 220.706 31.6872 220.673C31.6534 220.639 31.6077 220.62 31.5599 220.62C31.5122 220.62 31.4664 220.639 31.4326 220.673C31.3989 220.706 31.3799 220.752 31.3799 220.8C30.0377 227.325 30.6213 234.1 33.0599 240.3C33.0599 240.54 33.5799 240.44 33.5199 240.2C31.7233 233.901 31.1196 227.321 31.7399 220.8ZM220.8 64C226.98 64.2 235.6 61.4 238.26 55.26C239.476 52.0106 239.615 48.4564 238.657 45.1217C237.7 41.7871 235.695 38.8486 232.94 36.74C228.1 32.92 220.2 32.1 215.08 35.58C212.27 37.6726 210.15 40.5589 208.995 43.8669C207.84 47.1749 207.703 50.753 208.6 54.14C209.285 56.8862 210.847 59.3343 213.048 61.1135C215.25 62.8927 217.971 63.906 220.8 64ZM211.1 40.72C212.144 38.8454 213.63 37.2537 215.428 36.0827C217.226 34.9118 219.283 34.1969 221.42 34C225.389 33.6481 229.349 34.7733 232.54 37.16C237.74 42.06 241.02 50.38 236.82 56.76C234.58 60.18 230.24 61.76 226.46 62.76C224.569 63.4025 222.566 63.6523 220.575 63.4942C218.584 63.336 216.646 62.7731 214.88 61.84C207.84 57.34 207.18 47.34 211.1 40.7V40.72Z" fill="#194770"/>
<path d="M214.42 56.88C214.98 56.88 217.24 56.62 217.8 56.62C218.36 56.62 218.16 56.02 217.8 55.96C216.77 55.888 215.736 55.9895 214.74 56.26C214.619 52.1915 214.225 48.1356 213.56 44.12C214.74 44.12 215.9 43.86 217.02 43.72C217.34 43.72 217.28 43.1 217.02 43.16C215.8 43.3 214.52 43.46 213.3 43.72C213.08 43.72 213.8 52.4 214.16 56.38C214.12 56.48 214.28 56.88 214.42 56.88ZM220.34 57.64C223.4 52.5 223.86 46.32 226.22 40.9C226.36 40.56 225.9 40.3 225.76 40.6C224.68 43.2 220.96 54.44 220.04 57.5C220.031 57.5197 220.026 57.541 220.025 57.5628C220.024 57.5845 220.027 57.6062 220.034 57.6266C220.042 57.647 220.053 57.6658 220.068 57.6818C220.083 57.6978 220.1 57.7108 220.12 57.72C220.14 57.7292 220.161 57.7344 220.183 57.7354C220.204 57.7363 220.226 57.733 220.246 57.7256C220.267 57.7182 220.286 57.7068 220.302 57.6921C220.318 57.6774 220.331 57.6597 220.34 57.64ZM228 54.9C229.421 55.1 230.87 54.9206 232.2 54.38C232.248 54.3626 232.29 54.334 232.325 54.2968C232.359 54.2596 232.384 54.2147 232.398 54.1659C232.412 54.117 232.413 54.0656 232.403 54.0159C232.393 53.9663 232.372 53.9197 232.34 53.88C232.316 49.6976 232.082 45.519 231.64 41.36C231.64 41.26 231.32 41.16 231.22 41.16C230.123 41.3421 229.046 41.6232 228 42C227.969 42.0114 227.943 42.0319 227.924 42.0587C227.906 42.0855 227.896 42.1174 227.896 42.15C227.896 42.1827 227.906 42.2146 227.924 42.2414C227.943 42.2682 227.969 42.2887 228 42.3C229.087 42.1961 230.16 41.9748 231.2 41.64C231.023 45.7324 231.177 49.8324 231.66 53.9C231.1 54.04 228.56 54.4 227.88 54.6C227.857 54.625 227.842 54.6558 227.836 54.6889C227.831 54.722 227.834 54.7562 227.847 54.7874C227.859 54.8186 227.88 54.8457 227.907 54.8656C227.934 54.8856 227.966 54.8975 228 54.9ZM138.6 26.36C143.74 24.02 169.72 18.36 206.6 20.04C206.86 20.04 206.9 19.58 206.6 19.58C171.04 16.42 143.4 23.36 138.44 26.12C138.24 26.22 138.44 26.46 138.6 26.36ZM186.92 49.74C179.12 47.44 169.88 48.56 162.28 51.16C162.235 51.174 162.196 51.2019 162.168 51.2397C162.14 51.2775 162.126 51.3231 162.126 51.37C162.126 51.4169 162.14 51.4626 162.168 51.5004C162.196 51.5381 162.235 51.566 162.28 51.58C170.242 49.4091 178.579 48.9861 186.72 50.34C187.22 50.4 187.28 49.84 186.92 49.74ZM134.86 17.7C135.304 17.2254 135.642 16.6616 135.851 16.0463C136.061 15.4309 136.137 14.778 136.074 14.131C136.012 13.484 135.813 12.8577 135.489 12.2937C135.166 11.7297 134.727 11.241 134.2 10.86C133.107 10.1024 131.763 9.79786 130.45 10.0104C129.137 10.223 127.958 10.9362 127.16 12C126.524 13.0229 126.278 14.2401 126.465 15.4297C126.652 16.6192 127.261 17.7018 128.18 18.48C129.17 19.2613 130.429 19.6179 131.681 19.4717C132.934 19.3254 134.077 18.6883 134.86 17.7ZM128 11.82C129.44 9.82002 132.56 10.34 134 11.42C134.45 11.8142 134.811 12.3001 135.058 12.8451C135.305 13.3901 135.433 13.9816 135.433 14.58C135.433 15.1785 135.305 15.77 135.058 16.315C134.811 16.86 134.45 17.3458 134 17.74C133.586 18.1333 133.093 18.4334 132.554 18.6202C132.014 18.807 131.441 18.8763 130.873 18.8232C130.304 18.7702 129.754 18.5961 129.258 18.3127C128.763 18.0292 128.334 17.643 128 17.18C127.406 16.4127 127.084 15.4701 127.084 14.5C127.084 13.5299 127.406 12.5873 128 11.82ZM364.26 180.48C364.26 180.48 364.66 180.98 364.7 180.68C367.2 168.18 382.06 106.84 381.96 106.68C356.912 83.2827 326.795 65.9926 293.96 56.16C284.52 53.36 274.36 50.8 264.46 51.36C264.26 51.36 259.78 107.5 258.86 118.82C258.88 120.3 327.2 136.98 364.26 180.48ZM374.26 106.9C374.651 106.686 375.096 106.592 375.54 106.63C375.984 106.668 376.407 106.837 376.755 107.115C377.104 107.393 377.362 107.768 377.498 108.192C377.634 108.616 377.642 109.071 377.52 109.5C376.66 113.12 371.64 108.68 374.16 106.9H374.26ZM368.9 101.78C370.42 100.72 372.62 102.04 372.16 104.4C371.34 108 366.3 103.62 368.8 101.78H368.9ZM363.38 97.46C363.767 97.2104 364.223 97.0886 364.683 97.1118C365.143 97.1349 365.584 97.3019 365.944 97.589C366.304 97.8762 366.565 98.2692 366.69 98.7125C366.815 99.1558 366.797 99.6271 366.64 100.06C365.74 103.68 360.78 99.24 363.28 97.46H363.38ZM264.24 63.62C272.96 65.1 281.58 66.98 290.24 69.08C297.623 70.8195 304.89 73.0171 312 75.66C328.042 81.7375 343.171 89.995 356.96 100.2C364.467 105.88 371.8 111.787 378.96 117.92C376.96 126.54 366.72 167.72 364.32 179.92C327.04 138.14 271.4 122.8 259.5 118.52C260.46 107.4 263.66 70.82 264.24 63.62Z" fill="#194770"/>
<path d="M270.16 105.52C270.16 105.66 270.16 105.66 270.3 105.52C271.68 102.26 275.46 100.98 278.68 100.58C279.08 100.58 279.14 99.86 278.68 99.86C275.5 100 270.92 102.14 270.16 105.52ZM282.24 100.56C283.338 100.802 284.352 101.331 285.178 102.094C286.003 102.856 286.612 103.825 286.94 104.9C287.1 105.42 287.9 105.2 287.76 104.7C287.41 103.496 286.699 102.427 285.723 101.641C284.746 100.854 283.551 100.386 282.3 100.3C282.14 100.3 282.1 100.52 282.24 100.56ZM288.58 111.44C288.839 109.88 288.716 108.281 288.22 106.78C288.22 106.58 287.8 106.58 287.8 106.78C288.293 109.137 287.841 111.594 286.54 113.62C286.513 113.673 286.502 113.732 286.507 113.791C286.512 113.851 286.533 113.907 286.568 113.955C286.603 114.003 286.651 114.04 286.706 114.062C286.761 114.084 286.822 114.09 286.88 114.08C288 114 288.36 112.3 288.58 111.44ZM284.84 115.2C279.02 118.48 270.84 114.7 270.2 107.96C270.2 107.76 269.84 107.7 269.84 107.96C268.68 115.6 279.84 119.34 285.26 115.96C285.62 115.56 285.26 114.96 284.84 115.2ZM299.18 115.66C299.18 115.78 299.18 115.82 299.34 115.66C300.246 113.817 301.757 112.342 303.62 111.48C304.784 110.946 306.069 110.729 307.344 110.852C308.619 110.975 309.839 111.433 310.88 112.18C311.24 112.54 311.74 111.98 311.38 111.62C307.82 108.26 300 110.72 299.18 115.66ZM302.36 124.7C301.418 123.973 300.66 123.035 300.146 121.962C299.632 120.888 299.377 119.71 299.4 118.52C299.4 118.38 299.18 118.32 299.14 118.52C297.8 124.64 304.7 128.1 309.8 126.22C314.3 124.58 316.38 117.6 313.22 113.82C312.96 113.56 312.46 114.08 312.76 114.44C315.66 117.96 313.48 124.28 309.3 125.6C308.143 125.928 306.931 126.017 305.738 125.863C304.545 125.708 303.396 125.312 302.36 124.7ZM330 122C330.56 122.1 330.82 121.24 330.26 121.14C328.497 120.938 326.718 121.343 325.216 122.288C323.714 123.234 322.58 124.663 322 126.34C321.706 127.031 321.57 127.78 321.601 128.53C321.633 129.281 321.831 130.015 322.181 130.68C322.532 131.344 323.026 131.922 323.627 132.372C324.229 132.822 324.923 133.132 325.66 133.28C325.706 133.279 325.751 133.263 325.788 133.235C325.824 133.207 325.851 133.168 325.864 133.123C325.878 133.079 325.877 133.032 325.862 132.988C325.846 132.944 325.818 132.907 325.78 132.88C319.4 129.86 323.84 121.08 330 122ZM329.8 133.48C329.6 133.22 329.1 134.24 329.3 134.4C331.54 135.92 335.88 133.48 336.84 131.34C337.385 129.782 337.402 128.088 336.889 126.52C336.375 124.951 335.36 123.595 334 122.66C333.964 122.645 333.924 122.642 333.885 122.65C333.847 122.658 333.812 122.677 333.784 122.704C333.757 122.732 333.738 122.767 333.73 122.806C333.722 122.844 333.725 122.884 333.74 122.92C341.04 133.22 330.52 134.4 329.8 133.48ZM353.38 118.22C353.9 118.48 354.36 117.7 353.84 117.46C350.68 115.78 338.94 108.62 335.72 107.8C335.52 107.8 335.36 107.96 335.58 108.06C338.68 109.6 350.26 116.68 353.38 118.22ZM346.34 131.38C346.14 131.38 345.98 131.54 346.18 131.7C350.402 134.554 354.819 137.107 359.4 139.34C359.486 139.371 359.58 139.371 359.665 139.339C359.75 139.307 359.821 139.245 359.865 139.165C359.908 139.085 359.922 138.992 359.903 138.903C359.883 138.814 359.833 138.735 359.76 138.68C355.457 135.947 350.973 133.508 346.34 131.38ZM343.78 135C343.54 135 343.38 135.32 343.58 135.46C344.823 136.23 346.17 136.816 347.58 137.2C347.618 137.193 347.654 137.176 347.684 137.152C347.714 137.128 347.738 137.097 347.754 137.062C347.77 137.026 347.777 136.988 347.774 136.949C347.772 136.911 347.76 136.873 347.74 136.84C346.524 136.023 345.188 135.402 343.78 135ZM352.2 138.98C351.9 138.98 351.7 139.4 351.96 139.56C352.98 140.06 356.64 142.2 357.62 142.52C357.688 142.541 357.761 142.541 357.828 142.519C357.896 142.496 357.954 142.454 357.996 142.396C358.038 142.339 358.061 142.27 358.062 142.199C358.063 142.128 358.041 142.058 358 142C356.2 140.756 354.252 139.741 352.2 138.98ZM341.64 140.26C341.28 140.12 340.98 140.62 341.34 140.78C342.539 141.538 343.82 142.155 345.16 142.62C345.22 142.619 345.278 142.601 345.328 142.566C345.377 142.532 345.415 142.484 345.436 142.428C345.458 142.372 345.462 142.311 345.448 142.252C345.435 142.194 345.404 142.141 345.36 142.1C344.189 141.356 342.942 140.74 341.64 140.26ZM350.16 145.36C351.416 146.226 352.756 146.963 354.16 147.56C354.212 147.556 354.262 147.539 354.306 147.51C354.35 147.482 354.386 147.444 354.411 147.399C354.437 147.353 354.451 147.302 354.453 147.25C354.454 147.198 354.443 147.147 354.42 147.1C353.208 146.204 351.908 145.434 350.54 144.8C350.16 144.6 349.8 145.16 350.16 145.36ZM323.68 102C324.04 102.14 324.34 101.68 323.98 101.48C320.38 99.4413 316.545 97.8495 312.56 96.74C312.36 96.74 312.26 96.94 312.46 97.04C316.293 98.4737 320.04 100.13 323.68 102ZM276.48 84.54C283.289 86.3953 289.97 88.6935 296.48 91.42C296.544 91.4401 296.613 91.4379 296.676 91.414C296.739 91.3901 296.792 91.3457 296.827 91.288C296.861 91.2303 296.875 91.1627 296.867 91.0959C296.859 91.0292 296.828 90.9673 296.78 90.92C290.667 87.0769 283.717 84.7649 276.52 84.18C276.496 84.1774 276.472 84.1795 276.45 84.1861C276.427 84.1927 276.405 84.2038 276.387 84.2186C276.368 84.2335 276.353 84.2518 276.341 84.2727C276.33 84.2935 276.323 84.3164 276.32 84.34C276.317 84.3637 276.319 84.3876 276.326 84.4104C276.333 84.4333 276.344 84.4546 276.359 84.4732C276.373 84.4917 276.392 84.5072 276.413 84.5187C276.433 84.5301 276.456 84.5374 276.48 84.54ZM284.9 78C279.238 75.9586 273.37 74.5435 267.4 73.78C267.369 73.7914 267.343 73.8119 267.324 73.8387C267.306 73.8655 267.296 73.8974 267.296 73.93C267.296 73.9627 267.306 73.9946 267.324 74.0214C267.343 74.0482 267.369 74.0687 267.4 74.08C273.12 75.76 278.98 76.98 284.76 78.62C284.838 78.6282 284.916 78.6075 284.98 78.5619C285.044 78.5162 285.088 78.4487 285.106 78.3723C285.123 78.2958 285.112 78.2157 285.074 78.147C285.036 78.0784 284.974 78.0261 284.9 78ZM297.3 81.88C302.1 83.52 306.84 85.16 311.54 87.04C311.84 87.2 312 86.64 311.54 86.48C306.871 84.5925 302.096 82.9765 297.24 81.64C297.2 81.58 297.1 81.84 297.3 81.88ZM330.46 95.2C330.534 95.2425 330.622 95.2537 330.705 95.2312C330.787 95.2087 330.858 95.1543 330.9 95.08C330.942 95.0058 330.954 94.9177 330.931 94.8352C330.909 94.7527 330.854 94.6825 330.78 94.64C326.968 92.4212 322.949 90.5792 318.78 89.14C318.62 89.14 318.56 89.34 318.78 89.38C322.826 90.9965 326.733 92.9431 330.46 95.2ZM346.84 103.52C346.863 103.545 346.891 103.565 346.923 103.578C346.955 103.59 346.99 103.595 347.024 103.592C347.058 103.588 347.091 103.577 347.12 103.559C347.149 103.541 347.173 103.517 347.191 103.487C347.209 103.458 347.22 103.425 347.223 103.391C347.225 103.357 347.22 103.323 347.208 103.291C347.195 103.259 347.175 103.231 347.149 103.208C347.124 103.185 347.093 103.169 347.06 103.16C343.857 101.017 340.454 99.1889 336.9 97.7C336.74 97.6 336.6 97.86 336.74 97.92C340.22 99.6 343.48 101.64 346.84 103.52ZM351.64 106.84C357.1 108.84 361.24 113.06 366.4 115.62C366.43 115.639 366.464 115.651 366.5 115.656C366.535 115.66 366.571 115.658 366.605 115.649C366.639 115.639 366.671 115.623 366.699 115.6C366.727 115.578 366.749 115.55 366.766 115.518C366.782 115.487 366.792 115.452 366.795 115.417C366.797 115.381 366.792 115.345 366.781 115.312C366.769 115.278 366.75 115.247 366.726 115.221C366.702 115.195 366.673 115.174 366.64 115.16C361.7 112.3 357.32 108.06 351.74 106.44C351.5 106.34 351.4 106.74 351.64 106.84ZM226.72 321.68C213.4 323.68 200.14 326.06 186.72 327.4C180.079 328.127 173.389 328.294 166.72 327.9C159.925 327.338 153.176 326.316 146.52 324.84C134 322.34 121.66 320 110.68 313.16C100.232 306.699 90.3198 299.409 81.04 291.36C70.72 282.54 52.4 262.58 52.4 262.58H52.26C62.62 317.28 74.26 342.9 74.44 342.96C79.96 352.96 122.72 404.6 225.66 386.08C225.724 386.066 225.784 386.036 225.834 385.993C225.883 385.95 225.922 385.895 225.946 385.834C225.969 385.773 225.978 385.707 225.97 385.641C225.962 385.576 225.938 385.514 225.9 385.46C225.5 374.96 227.08 326.68 227.28 322.34C227.299 322.258 227.298 322.173 227.278 322.091C227.259 322.01 227.22 321.934 227.166 321.87C227.111 321.806 227.043 321.755 226.965 321.722C226.888 321.689 226.804 321.675 226.72 321.68ZM209.22 331.12C209.415 330.347 209.899 329.677 210.572 329.249C211.245 328.822 212.057 328.668 212.84 328.82C213.792 329.032 214.628 329.599 215.178 330.405C215.728 331.211 215.95 332.196 215.8 333.16C215.7 333.606 215.506 334.025 215.231 334.39C214.955 334.755 214.605 335.056 214.203 335.274C213.801 335.492 213.358 335.621 212.902 335.654C212.446 335.686 211.988 335.62 211.56 335.46C210.71 335.143 210.004 334.529 209.574 333.73C209.143 332.932 209.017 332.004 209.22 331.12ZM195.4 333.56C195.487 333.172 195.65 332.806 195.88 332.481C196.109 332.156 196.4 331.88 196.737 331.668C197.073 331.457 197.448 331.313 197.84 331.247C198.231 331.18 198.633 331.191 199.02 331.28C199.975 331.483 200.815 332.044 201.369 332.847C201.923 333.651 202.149 334.636 202 335.6C201.913 336.057 201.727 336.49 201.455 336.868C201.184 337.246 200.833 337.561 200.427 337.789C200.022 338.018 199.571 338.155 199.107 338.191C198.643 338.228 198.176 338.162 197.74 338C196.852 337.706 196.112 337.079 195.676 336.251C195.239 335.424 195.141 334.459 195.4 333.56ZM182.84 335.1C182.923 334.709 183.083 334.339 183.31 334.011C183.538 333.682 183.829 333.403 184.166 333.189C184.503 332.974 184.88 332.83 185.274 332.763C185.668 332.696 186.071 332.709 186.46 332.8C187.412 333.012 188.248 333.579 188.798 334.385C189.348 335.191 189.57 336.176 189.42 337.14C189.316 337.585 189.12 338.002 188.845 338.366C188.569 338.731 188.22 339.033 187.821 339.253C187.421 339.474 186.979 339.608 186.524 339.647C186.069 339.686 185.611 339.629 185.18 339.48C184.314 339.174 183.593 338.555 183.16 337.744C182.727 336.934 182.613 335.99 182.84 335.1ZM224.14 383.1C211.718 386.157 198.917 387.39 186.14 386.76C173.72 386.56 154.5 385.02 142.6 381.44C130.7 377.86 115.72 373.8 105.2 367.44C85.2 355.44 77.2 340.28 77.2 340.28C70.4942 324.477 65.0571 308.166 60.94 291.5C67.26 299.98 72.56 304.52 80 311.86C88.8214 320.626 99.3535 327.482 110.94 332C135.184 341.454 161.219 345.429 187.18 343.64C193.9 343.276 200.585 342.42 207.18 341.08C213.3 339.76 218.46 338.14 224.48 336.4C223.478 351.921 223.364 367.486 224.14 383.02V383.1ZM288.92 80.4C289.027 80.4027 289.133 80.384 289.232 80.345C289.332 80.306 289.422 80.2475 289.499 80.1729C289.575 80.0984 289.636 80.0093 289.677 79.9109C289.719 79.8125 289.74 79.7068 289.74 79.6C289.735 79.3841 289.647 79.1785 289.494 79.0258C289.342 78.8731 289.136 78.7851 288.92 78.78C288.727 78.8104 288.551 78.9088 288.424 79.0573C288.297 79.2057 288.228 79.3947 288.228 79.59C288.228 79.7854 288.297 79.9743 288.424 80.1228C288.551 80.2713 288.727 80.3696 288.92 80.4Z" fill="#194770"/>
<path d="M303.62 94.18C303.62 94.424 303.717 94.658 303.889 94.8305C304.062 95.0031 304.296 95.1 304.54 95.1C304.784 95.1 305.018 95.0031 305.19 94.8305C305.363 94.658 305.46 94.424 305.46 94.18C305.46 93.936 305.363 93.702 305.19 93.5295C305.018 93.3569 304.784 93.26 304.54 93.26C304.296 93.26 304.062 93.3569 303.889 93.5295C303.717 93.702 303.62 93.936 303.62 94.18Z" fill="#194770"/>
<path d="M330.12 105.46C330.12 105.731 330.227 105.99 330.419 106.181C330.61 106.373 330.869 106.48 331.14 106.48C331.41 106.48 331.67 106.373 331.861 106.181C332.052 105.99 332.16 105.731 332.16 105.46C332.16 105.19 332.052 104.93 331.861 104.739C331.67 104.548 331.41 104.44 331.14 104.44C330.869 104.44 330.61 104.548 330.419 104.739C330.227 104.93 330.12 105.19 330.12 105.46Z" fill="#194770"/>
<path d="M360.38 123.02C360.38 123.141 360.404 123.26 360.45 123.372C360.496 123.484 360.564 123.585 360.649 123.671C360.735 123.756 360.836 123.824 360.948 123.87C361.059 123.916 361.179 123.94 361.3 123.94C361.421 123.94 361.54 123.916 361.652 123.87C361.764 123.824 361.865 123.756 361.95 123.671C362.036 123.585 362.104 123.484 362.15 123.372C362.196 123.26 362.22 123.141 362.22 123.02C362.22 122.899 362.196 122.78 362.15 122.668C362.104 122.556 362.036 122.455 361.95 122.369C361.865 122.284 361.764 122.216 361.652 122.17C361.54 122.124 361.421 122.1 361.3 122.1C361.179 122.1 361.059 122.124 360.948 122.17C360.836 122.216 360.735 122.284 360.649 122.369C360.564 122.455 360.496 122.556 360.45 122.668C360.404 122.78 360.38 122.899 360.38 123.02Z" fill="#194770"/>
<path d="M208.72 215.84C208.434 215.84 208.159 215.954 207.956 216.156C207.754 216.359 207.64 216.634 207.64 216.92C207.675 217.179 207.803 217.416 208 217.587C208.197 217.759 208.449 217.853 208.71 217.853C208.971 217.853 209.223 217.759 209.42 217.587C209.617 217.416 209.744 217.179 209.78 216.92C209.78 216.637 209.669 216.365 209.471 216.163C209.272 215.961 209.003 215.845 208.72 215.84ZM207.18 204.86C207.18 205.101 207.251 205.337 207.386 205.538C207.52 205.739 207.71 205.895 207.933 205.987C208.156 206.08 208.401 206.104 208.638 206.057C208.875 206.01 209.092 205.893 209.263 205.723C209.433 205.552 209.549 205.335 209.596 205.098C209.644 204.861 209.619 204.616 209.527 204.393C209.435 204.17 209.278 203.98 209.078 203.846C208.877 203.712 208.641 203.64 208.4 203.64C208.078 203.645 207.771 203.775 207.543 204.003C207.315 204.231 207.185 204.538 207.18 204.86ZM209.42 194.82C209.715 194.815 209.997 194.695 210.206 194.486C210.415 194.277 210.535 193.996 210.54 193.7C210.54 193.403 210.422 193.118 210.212 192.908C210.002 192.698 209.717 192.58 209.42 192.58C209.125 192.585 208.843 192.705 208.634 192.914C208.425 193.123 208.305 193.405 208.3 193.7C208.305 193.996 208.425 194.277 208.634 194.486C208.843 194.695 209.125 194.815 209.42 194.82Z" fill="#194770"/>
</svg>
