<svg width="400" height="400" viewBox="0 0 400 400" fill="none" xmlns="http://www.w3.org/2000/svg">
<path d="M148.48 74.72H148.72C148.668 74.364 148.542 74.0231 148.349 73.7197C148.156 73.4163 147.901 73.1573 147.6 72.96C147.4 72.82 147.12 73.06 147.3 73.26C147.8 73.66 148 74.24 148.48 74.72ZM145.8 71.52C145.63 71.9574 145.63 72.4425 145.8 72.88C145.8 72.9118 145.813 72.9423 145.835 72.9648C145.858 72.9873 145.888 73 145.92 73C145.952 73 145.982 72.9873 146.005 72.9648C146.027 72.9423 146.04 72.9118 146.04 72.88C146.04 71.86 146.24 71.8 146.72 71.56C146.745 71.5461 146.766 71.5258 146.78 71.5012C146.795 71.4766 146.802 71.4485 146.802 71.42C146.802 71.3914 146.795 71.3633 146.78 71.3387C146.766 71.3141 146.745 71.2938 146.72 71.28C146.38 71 146 71.24 145.8 71.52Z" fill="#194770"/>
<path d="M83.72 86.32C83.72 86.824 83.9201 87.3072 84.2765 87.6636C84.6328 88.0199 85.1161 88.22 85.62 88.22C86.1239 88.22 86.6072 88.0199 86.9635 87.6636C87.3198 87.3072 87.52 86.824 87.52 86.32C87.52 85.8161 87.3198 85.3329 86.9635 84.9765C86.6072 84.6202 86.1239 84.42 85.62 84.42C85.1161 84.42 84.6328 84.6202 84.2765 84.9765C83.9201 85.3329 83.72 85.8161 83.72 86.32Z" fill="#194770"/>
<path d="M217.04 134.76C215.7 137.32 214.24 140 212.82 142.52C211.4 145.04 208.32 149.38 208.36 149.46C208.769 149.993 209.301 150.418 209.911 150.7C210.52 150.982 211.189 151.113 211.86 151.08C212.48 150.88 212.88 150.14 213.26 149.66C214.42 148.1 218.26 141.32 219.14 139.66C219.48 138.94 220.2 137.92 220.06 137.04C219.92 136.16 217.14 134.58 217.04 134.76ZM213.66 148.3C213.08 149.22 211.86 150.58 210.6 150.54C209.96 150.54 209.4 149.78 208.92 149.4C212.138 144.906 215.02 140.18 217.54 135.26C217.992 135.417 218.398 135.681 218.726 136.029C219.053 136.377 219.291 136.8 219.42 137.26C219.16 139.16 214.28 147.28 213.66 148.3ZM161.28 128.98C161.28 128.98 161.04 128.98 161.08 129.08C163.08 134.76 173.86 156.26 177.64 160.24C177.74 160.24 177.94 160.24 177.84 160.1C174.62 155.38 164 134.48 161.28 128.98ZM166.52 134.16C166.72 133.88 166.82 133.38 166.52 133.16C166.22 132.94 165.8 132.98 165.64 133.16C165.48 133.34 166 134.82 166.52 134.16ZM171.66 144.9C172.2 144.36 171.94 143.4 171.4 143.44C171.212 143.488 171.049 143.605 170.945 143.769C170.841 143.932 170.803 144.13 170.84 144.32C170.9 144.82 171.3 145.28 171.66 144.9ZM177.84 154.96C177.4 154.96 177.08 155.34 177.48 156.06C178.24 157.4 179.52 155.2 177.84 154.96ZM162.36 126C162.474 125.879 162.551 125.729 162.583 125.566C162.615 125.403 162.6 125.235 162.54 125.08C162.501 124.984 162.439 124.9 162.36 124.834C162.28 124.768 162.186 124.723 162.084 124.703C161.983 124.683 161.878 124.689 161.78 124.72C161.681 124.751 161.592 124.806 161.52 124.88C160.98 125.4 161.82 126.4 162.36 126ZM55.44 186.5L53.64 161.6C50.2 162.04 50.2 159.6 50.2 159.6L50 156.4C49.9 154.4 53.26 154.4 53.26 154.4V133.5C44.62 133.26 41.42 135.5 38.4 143.12C35.38 150.74 38 189.7 38 189.7C43.3307 186.822 49.4347 185.702 55.44 186.5ZM93.28 23.48C93.62 23.48 93.82 23.08 93.54 22.94C87.26 19.94 80.28 25.8 81.26 32.4C81.6514 34.3474 82.3252 36.2273 83.26 37.98C83.8889 39.2496 84.2327 40.6414 84.2673 42.0579C84.3018 43.4743 84.0263 44.8812 83.46 46.18C81.18 51.28 75.92 53.12 70.94 54.58C70.68 54.68 70.74 55.08 70.94 55.02C77.54 54.34 85.06 49.92 85.16 42.5C85.16 38.28 81.72 35.02 81.82 30.86C82.12 24.74 88 22 93.28 23.48ZM169.78 20.62C168.2 18.78 166 16.72 167.3 14C168.02 12.5 170.5 10.32 172.2 10.6C172.231 10.6205 172.266 10.6335 172.303 10.6381C172.34 10.6426 172.377 10.6386 172.412 10.6262C172.447 10.6139 172.479 10.5936 172.505 10.5669C172.531 10.5403 172.55 10.508 172.561 10.4726C172.572 10.4373 172.575 10.3998 172.57 10.3631C172.564 10.3264 172.55 10.2916 172.528 10.2613C172.507 10.231 172.479 10.2061 172.446 10.1885C172.413 10.1709 172.377 10.1612 172.34 10.16C170.56 9.58 168.62 11.1 167.4 12.36C166.736 13.0039 166.276 13.8286 166.077 14.7318C165.878 15.6349 165.948 16.5766 166.28 17.44C167.34 20.4 170.28 22.1 171.24 25.26C171.72 26.96 172.3 30.16 171.38 31.76C170.16 33.76 166.96 34.2 164.88 34.2C164.48 34.2 164.38 34.82 164.88 34.88C166.009 35.1542 167.186 35.1651 168.32 34.9119C169.454 34.6588 170.515 34.1483 171.42 33.42C173.42 31.76 173.08 29.42 172.78 27.1C172.482 24.6794 171.433 22.4131 169.78 20.62ZM52.82 82.24C52.48 81.96 51.88 82.34 52.18 82.78C52.6342 83.541 52.8856 84.4058 52.9101 85.2917C52.9346 86.1776 52.7314 87.055 52.32 87.84C51.8 89.24 51.26 90.64 49.56 91.14C47.56 91.7 43.56 89.96 39.02 92C36.6104 93.0689 34.6049 94.8791 33.2955 97.167C31.9861 99.4548 31.4411 102.101 31.74 104.72C31.74 104.92 32.08 104.96 32.08 104.72C31.9884 103.107 32.2186 101.492 32.7572 99.969C33.2958 98.4459 34.132 97.0452 35.2171 95.8484C36.3023 94.6516 37.6146 93.6827 39.0778 92.9979C40.541 92.3132 42.1258 91.9264 43.74 91.86C47.16 91.86 51.2 94.1 53.24 88.42C54 86.48 54.64 83.82 52.82 82.24ZM26.46 204C23.54 204.2 20.98 206.96 19.56 209.34C17.56 212.54 20.1 214.82 21.9 217.34C23.7 219.86 24.9 223.2 22.62 225.74C21.42 227.1 19.46 227.52 18.1 228.74C17.82 228.98 18.1 229.42 18.5 229.22C20.5 228.06 23.1 227.48 24.28 225.22C24.7236 224.231 24.9395 223.155 24.9118 222.072C24.8841 220.988 24.6135 219.925 24.12 218.96C22.72 215.8 18.64 213.24 20.78 209.54C22.62 206.38 28.54 202.4 30.48 207.7C30.4995 207.783 30.5467 207.858 30.6139 207.911C30.681 207.964 30.7642 207.993 30.85 207.993C30.9357 207.993 31.0189 207.964 31.0861 207.911C31.1532 207.858 31.2004 207.783 31.22 207.7C31.1585 207.141 30.9855 206.6 30.7111 206.109C30.4367 205.619 30.0666 205.188 29.6227 204.843C29.1788 204.498 28.6701 204.246 28.1268 204.101C27.5836 203.956 27.0167 203.922 26.46 204ZM257 102.14C255.627 101.559 254.468 100.565 253.683 99.2972C252.898 98.029 252.527 96.5484 252.62 95.06C252.615 94.9668 252.577 94.8784 252.513 94.8101C252.45 94.7419 252.364 94.698 252.271 94.6861C252.179 94.6743 252.085 94.6951 252.006 94.7452C251.927 94.7952 251.869 94.8712 251.84 94.96C251.573 96.248 251.663 97.5846 252.1 98.8253C252.537 100.066 253.304 101.164 254.32 102C256.94 104.28 260.2 103.42 263.2 104.52C263.6 104.68 263.94 104.1 263.6 103.86C261.74 102.1 259.18 102.96 257 102.14ZM279.8 38.32C279.94 34.32 282.14 30.56 278.98 27.22C277.616 25.9003 275.838 25.0919 273.947 24.9316C272.055 24.7713 270.167 25.2687 268.6 26.34C268.4 26.44 268.6 26.78 268.74 26.72C272.52 25.18 277.86 25.08 279.52 29.74C280.68 33.14 278.3 36.38 278.68 39.74C279.14 43.74 283.16 45.18 284.56 47.84C285.96 50.5 283.74 52.94 281.16 53.52C281.066 53.5606 280.989 53.6312 280.94 53.7207C280.891 53.8102 280.873 53.9135 280.889 54.0143C280.905 54.1151 280.954 54.2077 281.028 54.2775C281.103 54.3474 281.198 54.3904 281.3 54.4C282.036 54.3978 282.761 54.2299 283.423 53.9088C284.085 53.5878 284.667 53.1218 285.124 52.5454C285.581 51.969 285.903 51.2971 286.065 50.5795C286.227 49.8618 286.225 49.1169 286.06 48.4C285.04 44.2 279.64 43.28 279.8 38.32ZM249.56 217.12C247.18 218.1 244.52 219.46 242.04 218.1C241.598 217.872 241.21 217.551 240.902 217.159C240.595 216.767 240.376 216.314 240.261 215.83C240.145 215.346 240.135 214.842 240.231 214.354C240.328 213.865 240.529 213.404 240.82 213C241.46 211.94 242.38 211.34 243.06 210.38C245.06 207.56 242.34 204.8 241.06 202.38C241.06 202.18 240.62 202.38 240.72 202.52C241.203 203.597 241.771 204.634 242.42 205.62C242.839 206.359 243.042 207.2 243.007 208.049C242.972 208.897 242.699 209.719 242.22 210.42C241.84 210.96 241.2 211.44 240.76 211.98C240.198 212.62 239.817 213.399 239.655 214.235C239.493 215.072 239.557 215.936 239.84 216.74C241.64 220.74 246.92 219.16 249.84 217.52C250 217.46 249.86 217.02 249.56 217.12ZM361.54 242.84C359.92 243.8 358.08 245.32 356.1 244.7C354.12 244.08 354.1 241.78 353.66 240.12C353.22 238.46 352.66 236.98 350.8 236.54C349.7 236.24 347.16 236.1 346.38 237.32C346.255 237.497 346.177 237.703 346.154 237.919C346.131 238.135 346.163 238.353 346.247 238.552C346.33 238.752 346.464 238.928 346.634 239.062C346.804 239.196 347.006 239.285 347.22 239.32C347.092 239.167 347.001 238.986 346.955 238.791C346.909 238.596 346.91 238.394 346.956 238.199C347.003 238.005 347.095 237.824 347.224 237.671C347.353 237.519 347.516 237.398 347.7 237.32C348.392 237.1 349.126 237.047 349.842 237.166C350.558 237.284 351.236 237.57 351.82 238C353.3 239.16 352.52 243.02 354.54 244.84C356.56 246.66 359.98 245.14 361.82 243.44C361.859 243.422 361.895 243.396 361.924 243.364C361.953 243.332 361.976 243.294 361.991 243.253C362.006 243.212 362.013 243.169 362.011 243.125C362.009 243.082 361.998 243.039 361.98 243C361.962 242.961 361.936 242.925 361.904 242.896C361.872 242.866 361.834 242.844 361.793 242.829C361.752 242.814 361.709 242.807 361.665 242.809C361.622 242.811 361.579 242.822 361.54 242.84ZM294.9 292.36C294.9 292.06 294.36 292.1 294.42 292.36C294.72 303.4 316.42 299.08 317.18 311.48C317.42 315.9 316.74 320.8 311.98 322.3C311.887 322.321 311.803 322.373 311.743 322.447C311.684 322.522 311.651 322.614 311.651 322.71C311.651 322.806 311.684 322.898 311.743 322.973C311.803 323.047 311.887 323.099 311.98 323.12C319.16 323.12 319.54 310.7 316.58 306.44C311.64 299 297.32 302 294.9 292.36ZM178.6 358C179.9 355.52 178.6 353.4 177.4 351.16C176.96 350.44 175.6 347.92 174.48 349.28C174.3 349.52 174.58 349.76 174.78 349.56C175.84 348.74 178.36 355 178.36 355.56C178.36 357.56 176.36 358.94 175.64 360.64C174.62 363.08 177.1 365.84 175.64 367.78C173.64 370.64 174.24 375.1 178.4 375.4C178.84 375.4 178.88 374.82 178.4 374.68C177.827 374.549 177.293 374.285 176.84 373.91C176.387 373.535 176.029 373.059 175.794 372.52C175.558 371.981 175.453 371.395 175.485 370.808C175.517 370.221 175.687 369.65 175.98 369.14C176.56 368.16 177.48 367.34 177.62 366.18C177.702 365.472 177.517 364.759 177.1 364.18C176.607 363.56 176.338 362.792 176.338 362C176.338 361.208 176.607 360.44 177.1 359.82C177.68 359.18 178.26 358.64 178.6 358ZM101.58 287.36C89.58 283.36 79.58 299.56 92.56 310.5C94.94 312.5 98.56 315.3 96.88 318.86C94.88 323.22 89.22 321.76 88.14 317.54C88.14 317.24 87.56 317.3 87.6 317.54C87.6467 318.454 87.9258 319.34 88.4107 320.116C88.8956 320.892 89.5703 321.532 90.3712 321.974C91.172 322.417 92.0725 322.647 92.9874 322.645C93.9023 322.642 94.8015 322.407 95.6 321.96C99.6 319.58 98.82 315.02 96.1 312.1C94 310 91.34 308.52 89.7 306C88.1019 303.502 87.3385 300.56 87.52 297.6C87.6631 295.984 88.162 294.42 88.9809 293.019C89.7997 291.618 90.9182 290.416 92.2562 289.499C93.5943 288.581 95.1187 287.971 96.7203 287.712C98.3218 287.453 99.9609 287.551 101.52 288C101.78 288 102 287.5 101.58 287.36Z" fill="#194770"/>
<path d="M331.06 58.52L328.14 56C328.14 56 295.76 116.34 253.16 150.26L258.02 157.06C258.02 157.06 278.88 158.86 282.28 159.24C282.56 163.36 285.1 210.1 250.78 256.12C237.82 265.52 218.6 262.36 203.62 256.82L197.14 210.2C197.14 210.2 233.6 211.32 232.62 187.2C232.34 180.2 230.94 165.74 224.18 163.98C223.287 161.266 222 158.699 220.36 156.36C228.72 152.8 235.2 146.72 236.22 138.76C236.22 138.62 236.22 138.56 236.08 138.56C231.48 136.56 216.08 131.6 207.2 122.16C205.168 119.91 202.924 117.861 200.5 116.04C203.729 114.622 206.816 112.901 209.72 110.9C221.28 103.6 225.52 96.24 228.84 83.28C230.54 76.74 232.1 69.98 230.5 63.28C228.608 62.3168 226.642 61.5076 224.62 60.86L222.96 60.42C222.577 58.2755 222.483 56.0894 222.68 53.92C222.82 51.68 222.82 49.92 225.64 49.26C226.764 49.2214 227.887 49.3357 228.98 49.6C229.088 49.6821 229.175 49.788 229.235 49.9094C229.295 50.0308 229.327 50.1645 229.327 50.3C229.327 50.4355 229.295 50.5691 229.235 50.6906C229.175 50.812 229.088 50.9179 228.98 51C228.68 51.28 226.64 52.8 226.4 53.48C226.4 53.48 226.4 53.68 226.6 53.62L226.8 53.48C228.592 56.169 230.708 58.6274 233.1 60.8L231.1 62.6L231.74 67.84C232.876 68.9797 234.092 70.0358 235.38 71C235.413 71.0295 235.456 71.0458 235.5 71.0458C235.544 71.0458 235.587 71.0295 235.62 71C239.98 66.86 247.94 57.3 247.94 57.3L246 54L240.66 53.6L238.28 56.42C237.222 55.2708 236.101 54.1824 234.92 53.16C236.16 52.06 237.7 49.92 236.62 48.66C236.428 48.4299 236.157 48.2812 235.859 48.2441C235.562 48.2069 235.262 48.2841 235.02 48.46C235.165 48.1876 235.219 47.8764 235.176 47.571C235.133 47.2656 234.994 46.9817 234.78 46.76C234.02 45.96 232.64 46.66 231.72 47.3C232.74 44.6 230.8 43.6 228.48 45.94C228.228 46.1859 228.006 46.4612 227.82 46.76C226.8 43.62 230.96 41.82 228.32 33.9C228.872 34.5621 229.651 34.9944 230.505 35.1123C231.359 35.2301 232.226 35.025 232.936 34.5371C233.647 34.0492 234.15 33.3137 234.347 32.4745C234.543 31.6353 234.42 30.7528 234 30C234 29.7 233.36 29.8 233.52 30.14C233.785 30.7583 233.822 31.4505 233.624 32.0935C233.426 32.7364 233.007 33.2883 232.44 33.6508C231.874 34.0134 231.197 34.163 230.53 34.0731C229.863 33.9832 229.25 33.6596 228.8 33.16C228.246 32.4945 227.879 31.6943 227.734 30.8406C227.59 29.9869 227.675 29.1103 227.98 28.3C228.744 26.4642 229.689 24.7089 230.8 23.06C231.82 21.06 232.64 18.64 230.8 17.06C227.8 14.42 220.66 16.72 220.56 20.88C220.04 20.26 219.14 19.22 218.56 18.7C218.282 18.3602 217.915 18.1041 217.5 17.96C215.1 17.24 210 20.26 208.2 21.52C205.203 23.745 202.453 26.2863 200 29.1C197.788 31.432 196.205 34.2881 195.4 37.4C195.258 38.3645 195.398 39.3494 195.802 40.2365C196.207 41.1235 196.859 41.8748 197.68 42.4C193.5 41.72 190.54 48.4 192.4 51.78C193.56 53.9 196.22 53.52 198.22 52.94C200.063 52.1775 201.98 51.6078 203.94 51.24C204.71 51.1295 205.495 51.1944 206.236 51.4299C206.977 51.6654 207.655 52.0654 208.22 52.6C208.733 53.0932 209.043 53.7599 209.091 54.4698C209.138 55.1797 208.92 55.8818 208.477 56.4391C208.035 56.9964 207.401 57.3688 206.699 57.4836C205.997 57.5984 205.277 57.4474 204.68 57.06C204.38 56.92 204.14 57.36 204.42 57.5C208.42 59.98 212.06 54.9 208.42 51.62C208.562 51.7076 208.709 51.7877 208.86 51.86C210.692 52.8672 212.775 53.3255 214.86 53.18C217.9 52.86 220.7 49.18 223.72 49.78C222.18 51.04 222.36 53.6 222.3 55.46C222.177 57.123 222.305 58.7952 222.68 60.42C221.715 60.3322 220.745 60.3322 219.78 60.42C218.74 61.08 213.04 69.42 208.68 77.58C207.024 80.5105 205.632 83.5826 204.52 86.76C197.84 85.84 190.84 87.32 184.34 88.76C177.698 90.0075 171.271 92.2103 165.26 95.3C164.74 94.92 162.72 93.3 162.12 92.74C162.862 92.2618 163.455 91.5841 163.83 90.7847C164.205 89.9853 164.347 89.0965 164.24 88.22C163.302 85.1761 161.601 82.4224 159.3 80.22C159.114 80.025 158.891 79.8695 158.643 79.763C158.396 79.6564 158.129 79.601 157.86 79.6C157.68 77.94 159.06 77.44 158.9 76.36C158.74 75.28 157.7 75.1 156.9 74.86C156.146 74.7296 155.429 74.4413 154.795 74.0139C154.16 73.5864 153.624 73.0296 153.22 72.38C151.72 70.38 150.08 66.12 146.4 64.64C147.18 60.64 141.36 57.78 137.98 58.64C135.22 59.3062 132.666 60.6384 130.54 62.52C131.725 61.8768 133.092 61.6514 134.42 61.88C132.14 64.32 128.84 65 126.42 67.18C124.19 69.4201 122.817 72.3715 122.54 75.52C121.96 80.34 125.98 87.52 122.96 93.14C123.64 92.62 124.28 92.08 124.96 91.54C125.06 93.54 125.2 95.54 125.3 97.54C125.68 96.76 126.12 96 126.52 95.22C127.62 97.44 128.74 99.72 129.86 101.96C130.4 101.24 130.88 100.46 131.42 99.72L132.28 100.94C132.62 100.22 132.96 99.44 133.3 98.7C133.761 98.883 134.162 99.1885 134.462 99.5832C134.762 99.978 134.948 100.447 135 100.94C135.858 99.7112 136.532 98.3636 137 96.94C138.24 99.1 139.62 101.22 140.84 103.36C140.359 105.541 140.11 107.767 140.1 110C132.318 117.966 127.905 128.624 127.78 139.76C125.18 138 121.58 135.84 116 132.96C104 126.76 98 142.1 98 142.1L111.1 150.54C113.501 148.955 116.263 148.003 119.13 147.772C121.998 147.542 124.877 148.039 127.5 149.22C127.496 151.069 127.793 152.906 128.38 154.66C118.76 154.66 99.36 157.18 99.36 157.18V158.34C98.74 158.34 97.36 156.74 96.8 155.74C95.44 153.4 93.34 154.68 92.1 155.74C91.862 153.685 91.0667 151.735 89.8 150.1C87.853 149.121 85.6271 148.845 83.5 149.32C83.7031 145.975 83.5084 142.619 82.92 139.32C81.06 134.46 80.38 130.34 67.52 129.96C54.66 129.58 55 130.44 55 131.06V154.56C55 154.56 61 153.5 61.32 155.88C61.5548 156.967 61.5548 158.092 61.32 159.18C61.32 159.18 61.8 161.84 55 161.5L57.2 186.64C58.9047 187.61 60.8075 188.181 62.7649 188.309C64.7223 188.438 66.6833 188.12 68.5 187.38C76.5 184.44 82.34 187.06 80.84 187.66C78.6116 188.512 76.3173 189.181 73.98 189.66C64.2 192.18 58.1 194.16 51.8 194.16C47.94 194.16 40.2 193.18 38.5 189.7C38.494 189.677 38.4829 189.655 38.4676 189.637C38.4522 189.619 38.433 189.604 38.4113 189.595C38.3896 189.585 38.366 189.58 38.3422 189.58C38.3184 189.581 38.2949 189.587 38.2736 189.597C38.2523 189.608 38.2337 189.623 38.219 189.642C38.2044 189.661 38.1941 189.683 38.1889 189.706C38.1838 189.729 38.1839 189.753 38.1893 189.776C38.1947 189.8 38.2052 189.821 38.22 189.84C39.38 192.96 44.82 194.02 47.68 194.46C56.48 195.8 65.68 192.46 74.42 190.14C76.42 189.6 79.76 189.32 81.46 187.9C81.46 187.9 82.18 178.34 82.72 169.12C86.72 170.38 91.04 169.74 92.14 165.72C94.5343 166.033 96.9684 165.801 99.26 165.04C99.26 165.82 99.42 167.42 99.46 167.48C99.5 167.54 117.56 178 128.32 178.44C135.66 178.74 148.76 178.68 152.16 170.44C154.294 173.807 156.796 176.926 159.62 179.74C155.78 181.12 118.32 195.74 123.62 217.32C123.78 217.98 123.96 218.62 124.14 219.32C95.1 213.32 64.76 222.22 44.94 240.04C37.793 245.81 31.8705 252.95 27.52 261.04C-5.47998 346.12 73.52 390 73.52 390L101.66 379.08L101.8 376C83.42 368.76 69.98 353.18 62.7 334.88C53.9 312.88 58.36 293.7 68.16 272.02C72.44 262.6 80.16 250.8 84.84 246.4C89.5875 250.68 93.7801 255.538 97.32 260.86C124.68 299.54 158.86 305.4 177.1 305.4C214.709 309.326 252.445 299.258 283.1 277.12C309.72 257.4 335.56 225.5 348.44 193.58C352.833 181.664 356.303 169.428 358.82 156.98C362.82 156.64 381.56 154.16 381.56 154.12C381.56 154.08 382 153.78 381.94 153.64C364.9 122.14 331.06 58.56 331.06 58.52ZM245.74 54.2C245.74 54.2 247.34 56.76 247.74 57.26C243.49 61.461 239.483 65.9016 235.74 70.56C234.693 69.4986 233.562 68.5222 232.36 67.64L245.74 54.2ZM238.12 56.92C238.317 57.4408 238.357 58.0079 238.237 58.5514C238.116 59.095 237.839 59.5915 237.44 59.98C236.952 60.466 236.334 60.8016 235.66 60.947C234.987 61.0923 234.285 61.0413 233.64 60.8C232.78 59.56 228.32 54.8 227.1 53.34C227.92 52.72 229.24 51.62 229.48 51.34C229.543 51.6402 229.706 51.9104 229.942 52.1064C230.178 52.3025 230.473 52.413 230.78 52.42C231.3 52.4446 231.81 52.2652 232.2 51.92C232 52.7 231.86 53.92 232.96 53.92C233.573 53.883 234.157 53.6438 234.62 53.24C235.44 54.24 237.58 56.42 238.12 56.92ZM234.86 48.72C235.4 48.22 236.26 48.82 236.42 49.34C236.462 49.7572 236.393 50.178 236.22 50.56C235.94 51.1383 235.583 51.6765 235.16 52.16C233.78 53.68 232.1 54.16 232.48 51.78C233.381 50.8486 234.179 49.8227 234.86 48.72ZM234.56 47.16C235.2 48 234.04 49.16 233.6 49.88C231.76 52.88 229.6 51.68 229.6 51.18C229.651 51.1026 229.698 51.0225 229.74 50.94C229.859 50.7028 229.896 50.4328 229.846 50.1722C229.795 49.9116 229.659 49.6752 229.46 49.5C230.331 49.1444 231.042 48.483 231.46 47.64C232.34 47.2 233.88 46.24 234.56 47.16ZM228.7 46C230.84 43.86 232.7 45.02 230.98 47.7C230.567 48.3658 229.959 48.8892 229.24 49.2C229.14 49.2 228.22 49.02 227.82 48.96C227.82 48.8 227.18 47.76 228.7 46ZM230.5 21.2C229.54 24.3 226.76 26.64 226.76 29.94C225.187 26.9456 223.296 24.1293 221.12 21.54C222 15.72 232.48 14.72 230.5 21.24V21.2ZM196 37.7C196.077 36.5237 196.369 35.3715 196.86 34.3C200.315 28.8834 204.866 24.2506 210.22 20.7C212.22 19.5 219.14 16 218.22 20.96C217.5 24.96 213.66 30.42 209.64 33.92C206.621 36.5066 203.168 38.538 199.44 39.92C195.16 41.44 196 38.48 196 37.7ZM197.68 52C189.92 53.74 192.44 42.54 198.66 43.16C201.31 45.7941 204.094 48.2907 207 50.64C203.84 49.44 200.74 51.38 197.68 52ZM215.5 52.4C213.462 52.7868 211.353 52.4916 209.5 51.56C205.28 49.56 197.66 41.3 196.92 40.72C197.874 40.7778 198.83 40.6277 199.72 40.28C202.324 39.3474 204.798 38.0837 207.08 36.52C216.26 30.52 219.54 20.8 218.76 19.42C221.82 23.78 225.38 27.42 227.32 32.5C231.02 42.26 225.68 43.28 227.62 47.12C227.488 47.4051 227.419 47.7156 227.419 48.03C227.419 48.3443 227.488 48.6549 227.62 48.94C226.543 48.8041 225.45 48.9416 224.44 49.34C221.04 48 218.78 51.68 215.5 52.46V52.4ZM204.76 87.1C204.86 87.1 213.02 69.96 219.82 60.78C223.319 60.8651 226.747 61.7839 229.82 63.46C231.44 70.1 229.82 76.7 228.22 83.26C224.62 97.8 219.42 103.84 209.3 110.48C200.34 116.34 198.38 116.38 192.84 117.28C195.316 117.448 197.796 117.03 200.08 116.06C213.68 128.4 211.66 129.02 235.66 138.88C234.702 143.008 232.52 146.751 229.4 149.62C226.384 151.968 223.164 154.043 219.78 155.82C211.737 156.836 203.572 155.539 196.24 152.08C192.267 148.483 189.163 144.031 187.16 139.06C184.28 132 184 116.46 184 116.52C182.3 115.26 176 114.8 174.4 115.24C176.611 110.831 178.258 106.161 179.3 101.34C179.3 101.04 179.42 100.88 179.16 100.68C175.464 97.3018 170.606 95.4818 165.6 95.6C177.872 89.9344 191.244 87.0522 204.76 87.16V87.1ZM174.1 115.6C174.1 115.28 181.46 115.28 183.52 116.66C182.816 124.672 184.065 132.736 187.16 140.16C188.279 142.753 189.746 145.182 191.52 147.38C192.566 148.882 193.751 150.281 195.06 151.56C182.4 145.22 177.06 134.9 170.32 120.64C165.56 110.54 165.6 96 165.6 96C170.474 96.2033 175.149 97.9864 178.92 101.08C177.544 105.973 175.901 110.786 174 115.5C173.86 115.64 174 115.74 174.1 115.6ZM182.1 141.46C186.623 146.957 192.461 151.224 199.072 153.863C205.684 156.503 212.855 157.431 219.92 156.56C219.92 156.56 222.62 161.76 223.64 163.98C221.16 163.98 189.3 163.4 171.34 173.46C167.048 169.29 163.31 164.585 160.22 159.46C157.36 154.477 154.828 149.313 152.64 144C164.1 133.32 156.96 114.16 156.96 114.16C155.94 115.52 153.18 115.08 153.18 115.08C153.76 126.92 150.16 133.32 149.06 135.08C144.72 125.82 144 118.64 142.4 112C144.332 113.223 146.094 114.696 147.64 116.38C147.84 116.62 148.28 116.18 148.28 116.14C148.397 113.582 148.698 111.035 149.18 108.52C149.228 109.498 149.576 110.438 150.177 111.211C150.778 111.984 151.604 112.553 152.54 112.84C152.91 113.008 153.31 113.099 153.716 113.106C154.123 113.112 154.526 113.036 154.901 112.88C155.276 112.724 155.615 112.493 155.897 112.2C156.179 111.908 156.398 111.561 156.54 111.18C157.103 110.086 157.384 108.87 157.36 107.64C157.36 107.64 159.78 109.98 161 111C161.58 111.48 164.34 103 165 99C164.42 112.62 173.56 131.1 182 141.46H182.1ZM155.7 152.58C153.56 150.58 151.58 148.58 149.48 146.46C150.502 145.782 151.466 145.019 152.36 144.18C153.249 147.064 154.366 149.873 155.7 152.58ZM161.82 92.9C162.768 94.0643 163.896 95.0703 165.16 95.88C165.16 95.88 162.84 105.6 161.16 110.4C159.191 108.379 157.086 106.494 154.86 104.76C156.799 101.531 158.229 98.0236 159.1 94.36C160.077 94.017 160.994 93.5245 161.82 92.9ZM158.18 83.7C158.214 83.6775 158.254 83.665 158.295 83.664C158.336 83.6631 158.377 83.6735 158.412 83.6944C158.448 83.7152 158.476 83.7454 158.495 83.7818C158.514 83.8181 158.523 83.859 158.52 83.9C158.436 84.1802 158.287 84.4367 158.086 84.6487C157.884 84.8607 157.636 85.0222 157.36 85.12C157.059 85.1852 156.748 85.1886 156.445 85.1302C156.143 85.0718 155.855 84.9526 155.6 84.78C156.087 84.8359 156.579 84.766 157.031 84.5769C157.483 84.3878 157.878 84.0858 158.18 83.7ZM139.2 78.76C139.3 78.76 139.44 78.66 139.34 78.56C139.27 78.4818 139.189 78.4144 139.1 78.36C137.4 74.72 140.66 70.9 143.28 68.66C144.598 67.7003 145.6 66.3707 146.16 64.84C151.06 67.74 152 73.34 154.88 74.84C155.46 75.12 156.18 75.12 156.76 75.42C159.12 76.56 156.76 78.2 156.92 79.6C153.14 80 153.1 85.18 152.64 86.48C152.18 87.78 150.64 90.86 145.94 87.36C143.778 86.0403 142.069 84.0941 141.04 81.78C141.04 81.78 140.88 81.44 140.8 81.58C140.582 81.8511 140.303 82.0668 139.986 82.2091C139.668 82.3515 139.321 82.4166 138.974 82.399C138.627 82.3815 138.288 82.2818 137.987 82.1081C137.685 81.9344 137.429 81.6917 137.24 81.4C136.34 79.82 137.5 78 139.2 78.76ZM136.62 95.26C136.34 93.38 134.9 91.26 136.28 89.44C137 88.56 138.48 88 140.76 88.94C142.26 91.76 144.4 95.4 146 96C150.322 97.0499 154.877 96.5399 158.86 94.56C157.727 98.0334 156.246 101.384 154.44 104.56C154.44 104.74 154.74 105.04 154.84 105.12C152.936 105.464 151.108 106.141 149.44 107.12C149.56 106.22 150.04 106.72 144.26 104C143.208 103.418 142.085 102.975 140.92 102.68C139.675 100.102 138.237 97.6221 136.62 95.26ZM140.86 103.08C143.62 104.04 149 106.9 149.06 106.9C148.093 109.64 147.645 112.536 147.74 115.44C145.444 113.283 142.923 111.379 140.22 109.76C140.725 107.571 140.94 105.325 140.86 103.08ZM140.16 110.1C140.677 110.711 141.269 111.255 141.92 111.72C143.006 119.942 145.311 127.957 148.76 135.5C147.518 137.207 146.089 138.77 144.5 140.16C143.76 139.66 139.84 136.28 138.5 135.06C139.485 132.182 140.28 129.242 140.88 126.26C140.88 126.12 135.96 123.86 134.88 123.34C135.551 118.567 137.362 114.025 140.16 110.1ZM138.82 111.46C137.816 113.011 136.984 114.668 136.34 116.4C135.569 118.635 134.981 120.93 134.58 123.26V123.5C135.526 124.261 136.577 124.881 137.7 125.34C138.576 125.836 139.529 126.181 140.52 126.36C139.598 129.076 138.85 131.849 138.28 134.66C138.261 134.826 138.261 134.994 138.28 135.16C139.808 137.328 141.753 139.171 144 140.58C141.78 142.515 138.945 143.599 136 143.64C132 143.52 130.66 141.64 128 139.76C127.74 129.14 132.36 119.66 138.82 111.46ZM89.8 167.46C87.8 169.3 85.08 168.52 82.7 168.1C83.04 162.1 83.28 155.68 83.38 150.38C86.84 150.38 88.94 149.88 90.18 152.7C90.18 152.9 90.8 155.02 91 155.88C90.74 155.38 89.92 155.26 89.16 155.24C88.293 155.103 87.4055 155.18 86.5755 155.466C85.7455 155.752 84.9985 156.238 84.4 156.88C84.2531 157.069 84.1555 157.291 84.116 157.527C84.0764 157.763 84.0963 158.005 84.1737 158.231C84.2511 158.457 84.3836 158.66 84.5593 158.823C84.735 158.985 84.9483 159.101 85.18 159.16C85.4349 159.245 85.6955 159.312 85.96 159.36C85.5518 159.595 85.2397 159.967 85.0787 160.41C84.9178 160.852 84.9182 161.338 85.08 161.78C85.1995 161.992 85.37 162.171 85.5761 162.3C85.7822 162.429 86.0173 162.505 86.26 162.52C85.66 163 85.28 163.62 85.82 164.4C87.3909 165.213 89.1312 165.645 90.9 165.66C90.7109 166.369 90.3304 167.013 89.8 167.52V167.46ZM88.68 162.08C85.52 162.8 84.4 161.2 86.4 159.46C87.172 159.501 87.945 159.399 88.68 159.16C89.1904 159.149 89.6986 159.23 90.18 159.4C92.12 160.48 89.56 162 88.68 162.14V162.08ZM88.34 164.46C87.7799 164.582 87.2001 164.582 86.64 164.46C85.52 163.98 86.26 163.2 86.64 162.66C87.4743 162.725 88.3136 162.643 89.12 162.42C89.6032 162.259 90.061 162.03 90.48 161.74C91.62 162.32 90.68 164.3 88.34 164.52V164.46ZM90.24 158.34C86.24 159.5 83.58 158.86 85.04 156.88C85.4115 156.457 85.8659 156.114 86.375 155.873C86.8841 155.632 87.4371 155.499 88 155.48C89.02 155.48 91 155.24 90.86 156.88C90.5762 157.352 90.3671 157.864 90.24 158.4V158.34ZM90.98 165.36C90.06 165.24 89.14 165.14 88.2 164.98C88.513 164.959 88.8221 164.898 89.12 164.8C89.886 164.533 90.5734 164.079 91.12 163.48C91.1492 164.13 91.1022 164.781 90.98 165.42V165.36ZM99.26 164.74C98.2 164.74 95.26 165.36 93.78 165.48C93.2471 165.51 92.7129 165.51 92.18 165.48C92.5013 163.575 92.3642 161.621 91.78 159.78C92.3353 159.773 92.8896 159.733 93.44 159.66C92.12 160.58 93.14 162.66 94.16 163.44C94.3 163.44 94.5 163.44 94.4 163.26C93.68 162.14 92.86 160.98 94.02 159.8C94.12 159.7 94.02 159.28 94.02 159.28C93.38 159.28 92.7 159.46 92.02 159.28C88.56 158.86 93.02 153.98 95.56 154.88C96.54 155.24 96.64 155.96 97.18 156.66C97.7565 157.503 98.533 158.19 99.44 158.66C99.3 160.68 99.2 162.76 99.26 164.8V164.74ZM140.12 177.18C123.88 179.62 113.82 174.64 99.62 167.18C99.96 163.84 99.4 160.74 99.8 157.4C109.5 156.52 119.16 155.26 128.92 155.26C128.972 155.262 129.024 155.249 129.069 155.224C129.114 155.198 129.151 155.16 129.176 155.114C129.201 155.069 129.213 155.017 129.21 154.965C129.207 154.913 129.19 154.863 129.16 154.82C129.16 154.82 128.38 150.16 128.32 149.58C132.921 151.091 137.862 151.23 142.54 149.98C142.54 149.98 143.42 153.12 143.72 153.98C145.81 159.608 148.542 164.977 151.86 169.98C149.64 174.66 144.92 176.5 140.12 177.24V177.18ZM144.5 154.46C144.2 153.68 143.2 149.74 143.16 149.7C145.19 148.986 147.108 147.989 148.86 146.74C151.081 149.125 153.467 151.35 156 153.4C159.769 160.955 164.771 167.829 170.8 173.74C167.397 175.601 164.457 178.205 162.2 181.36C154.18 172.16 149.16 166 144.5 154.52V154.46ZM158.62 222.06L165.26 220.22C165.26 220.22 151.66 191.4 160.32 180.22C160.82 180.7 161.32 181.22 161.84 181.66C160.566 183.732 159.718 186.038 159.347 188.442C158.976 190.846 159.089 193.3 159.68 195.66C163.325 211.581 168.295 227.168 174.54 242.26C169.98 239.62 165.44 236.94 160.86 234.26L158.62 222.06ZM68 267.6C62.6 278.72 57.86 290.42 56.16 302.74C51.86 334.24 72.84 365.58 100.56 376.9L74.56 387.08C-2.13998 335.4 32.56 263.32 32.56 263.32C32.56 263.32 52.18 218.68 83.58 245.32C76.34 250.76 72 259.46 68 267.6ZM101.1 257.16C80.78 230 63.2 229.64 50.28 236.64C60.7471 228.772 72.7772 223.236 85.5619 220.403C98.3465 217.571 111.589 217.509 124.4 220.22C130.84 242.5 149.48 270 149.48 270L151.24 269.76C151.52 270.94 151.82 272.1 152.16 273.26C150.16 278.8 139.68 280.64 139.68 280.64C138.9 281.66 140.66 283.02 140.66 283.02C145.12 284.18 147.88 283.54 152.2 283.7C153.329 283.827 154.469 283.594 155.457 283.033C156.445 282.473 157.23 281.614 157.7 280.58L159.4 280.44L159.68 282.78C164.78 282.62 166.14 281.18 166.14 281.18V280.74C165.4 275.92 162.5 278.06 163.28 268.06L166.82 267.58L161.06 235.7C165.74 238.36 170.4 241.12 175.06 243.82C180.22 256.42 184.44 264.86 184.44 264.86L188.18 263.8C188.557 265.234 189.059 266.633 189.68 267.98C188.7 274.08 178.9 278.84 178.9 278.84C178.42 280.16 180.6 281.02 180.6 281.02C185.6 280.92 188.32 279.42 192.88 278.3C194.092 278.112 195.212 277.541 196.076 276.67C196.94 275.799 197.502 274.674 197.68 273.46L199.44 272.82L200.4 275.2C205.7 273.5 206.66 271.62 206.66 271.62C204.962 270.198 203.583 268.433 202.615 266.441C201.646 264.448 201.109 262.274 201.04 260.06L203.94 259.24L203.78 258C217.78 263.1 236.4 266.34 249.04 258.6C203.32 316.7 142 311.66 101.1 257.16ZM151.82 269.58L162.74 268.04C162.64 270.26 162.44 272.46 162.26 274.58C158.52 277.2 154.64 274.58 153.08 273.52C152.64 272.2 152.2 270.9 151.82 269.58ZM200.88 265.58C197.34 269.26 192.34 267.86 190.54 267.22C189.96 265.92 189.44 264.66 188.94 263.34L200.44 260.04C200.64 262 200.74 263.82 200.88 265.66V265.58ZM356.44 154.88C355.76 160.08 352.44 192.08 324.7 230.3C290.5 277.56 246.7 303.6 192.56 303.5C198.201 302.012 203.691 300.004 208.96 297.5C290 260.8 287.72 159.02 287.72 159.02C287.72 159.02 260.64 156.4 258.5 156.74C263.98 152.14 316.78 107.8 330.28 61.12C346.78 92.56 362.66 121.22 379.5 152.48C376.54 152.52 360.32 154.2 356.44 154.96V154.88Z" fill="#194770"/>
<path d="M215.64 41.14L217.38 45.32L218.36 40.66L223.3 40.46L219.42 37.9L219.92 33.9L217.04 36.34L213.46 34.1L214.66 38.18L211.8 40.66L215.64 41.14Z" fill="#194770"/>
<path d="M83.72 86.32C83.72 86.824 83.9201 87.3072 84.2765 87.6636C84.6328 88.0199 85.1161 88.22 85.62 88.22C86.1239 88.22 86.6072 88.0199 86.9635 87.6636C87.3198 87.3072 87.52 86.824 87.52 86.32C87.52 85.8161 87.3198 85.3329 86.9635 84.9765C86.6072 84.6202 86.1239 84.42 85.62 84.42C85.1161 84.42 84.6328 84.6202 84.2765 84.9765C83.9201 85.3329 83.72 85.8161 83.72 86.32Z" fill="#194770"/>
<path d="M104.06 42.02C104.06 42.5239 104.26 43.0072 104.617 43.3635C104.973 43.7198 105.456 43.92 105.96 43.92C106.464 43.92 106.947 43.7198 107.304 43.3635C107.66 43.0072 107.86 42.5239 107.86 42.02C107.86 41.5161 107.66 41.0328 107.304 40.6765C106.947 40.3202 106.464 40.12 105.96 40.12C105.456 40.12 104.973 40.3202 104.617 40.6765C104.26 41.0328 104.06 41.5161 104.06 42.02Z" fill="#194770"/>
<path d="M291.88 15.72C292.244 15.72 292.6 15.8279 292.902 16.0301C293.205 16.2322 293.441 16.5196 293.58 16.8558C293.719 17.192 293.756 17.562 293.685 17.9189C293.614 18.2759 293.438 18.6037 293.181 18.861C292.924 19.1184 292.596 19.2936 292.239 19.3646C291.882 19.4356 291.512 19.3992 291.176 19.2599C290.84 19.1206 290.552 18.8848 290.35 18.5822C290.148 18.2796 290.04 17.9239 290.04 17.56C290.045 17.0736 290.241 16.6086 290.585 16.2646C290.929 15.9207 291.394 15.7252 291.88 15.72Z" fill="#194770"/>
<path d="M260.14 185.24C260.14 185.728 260.334 186.196 260.679 186.541C261.024 186.886 261.492 187.08 261.98 187.08C262.468 187.08 262.936 186.886 263.281 186.541C263.626 186.196 263.82 185.728 263.82 185.24C263.82 184.752 263.626 184.284 263.281 183.939C262.936 183.594 262.468 183.4 261.98 183.4C261.492 183.4 261.024 183.594 260.679 183.939C260.334 184.284 260.14 184.752 260.14 185.24Z" fill="#194770"/>
<path d="M95.48 278.48C95.48 278.968 95.6738 279.436 96.0189 279.781C96.364 280.126 96.832 280.32 97.32 280.32C97.808 280.32 98.276 280.126 98.6211 279.781C98.9661 279.436 99.16 278.968 99.16 278.48C99.16 277.992 98.9661 277.524 98.6211 277.179C98.276 276.834 97.808 276.64 97.32 276.64C96.832 276.64 96.364 276.834 96.0189 277.179C95.6738 277.524 95.48 277.992 95.48 278.48Z" fill="#194770"/>
<path d="M204.44 321.08C204.44 321.568 204.634 322.036 204.979 322.381C205.324 322.726 205.792 322.92 206.28 322.92C206.768 322.92 207.236 322.726 207.581 322.381C207.926 322.036 208.12 321.568 208.12 321.08C208.12 320.592 207.926 320.124 207.581 319.779C207.236 319.434 206.768 319.24 206.28 319.24C205.792 319.24 205.324 319.434 204.979 319.779C204.634 320.124 204.44 320.592 204.44 321.08Z" fill="#194770"/>
<path d="M311.16 346.32C311.523 346.324 311.877 346.435 312.177 346.64C312.477 346.844 312.709 347.133 312.846 347.47C312.982 347.806 313.015 348.175 312.942 348.531C312.869 348.887 312.692 349.213 312.434 349.468C312.176 349.723 311.848 349.897 311.492 349.966C311.135 350.035 310.766 349.998 310.431 349.858C310.096 349.718 309.81 349.482 309.609 349.18C309.408 348.878 309.3 348.523 309.3 348.16C309.3 347.917 309.348 347.676 309.442 347.451C309.536 347.227 309.673 347.023 309.846 346.852C310.019 346.681 310.224 346.545 310.45 346.454C310.675 346.363 310.917 346.317 311.16 346.32Z" fill="#194770"/>
</svg>
