<svg xmlns="http://www.w3.org/2000/svg" viewBox="0 0 400 400" height="400" width="400" id="Post-It-2--Streamline-Milano.svg"><desc>POST IT 2 Streamline Illustration: https://streamlinehq.com</desc><g><path d="M389.878 253.284c-1.538 -1.318 6.8 1.63 -131.146 -42.34a9.576 9.576 0 0 0 -4.352 -0.758 5.676 5.676 0 0 0 1.032 -3.328V58.776a5.862 5.862 0 0 0 -3.29 -5.2c-0.492 -3.68 -7.6 -6.728 -10.97 -6L13.72 97.154a5.888 5.888 0 0 0 -4.72 5.764v161.562c0 3.3 4.55 6.898 7.83 7.814a5.936 5.936 0 0 0 3.9 3.43 1.924 1.924 0 0 0 -0.252 1.358c-0.248 1.846 -0.426 7.242 1.254 8.08l131.57 65.46a18.838 18.838 0 0 0 14.93 0.68l220.096 -86.56c1.618 -0.72 2.256 -3.542 2.494 -5.16 0.12 -0.814 0.634 -4.946 -0.944 -6.298ZM34.486 133.568C101.646 119.764 171.6 100.706 238.2 85.2v116.4L34.486 258.378ZM238.2 83.156C171.418 98.678 101.812 117.668 34.486 131.526v-17.148L238.2 69.8Zm19.832 129.656L387.6 254.12a1.186 1.186 0 0 1 0.266 2.068c-2.272 0.966 -17.534 6.6 -220.578 83.898a16.464 16.464 0 0 1 -13.13 -0.622l-131.4 -62.548c-0.092 -0.094 183.112 -50.144 229.568 -64.328a8.4 8.4 0 0 1 5.696 0.224ZM11 264.48V102.918a3.888 3.888 0 0 1 3.126 -3.8l227.448 -49.584a10.6 10.6 0 0 1 8.178 3.436c-0.886 -0.266 12.28 -0.744 -228.856 49.62A5.736 5.736 0 0 0 16.4 108.354v161.666a11.8 11.8 0 0 1 -2.4 -1.4 6.672 6.672 0 0 1 -3 -4.14Z" fill="#194770" stroke-width="1"></path><path d="m246.74 219.814 -194.18 56.318a1 1 0 0 0 -0.128 1.872l66.6 30.16a11.708 11.708 0 0 0 3.292 -0.862c7.048 -2.338 38.772 -13.108 195.012 -62.962a1 1 0 0 0 0 -1.904c-58.752 -18.97 -70.358 -22.698 -70.596 -22.622Zm0.262 2 12.6 4.068c-34.03 9.286 -182.666 53.512 -191.256 57.022l-12.6 -5.618Zm29.472 9.52c-39.214 11.514 -191.152 58.926 -191.352 59.066l-14.072 -6.274c36.722 -11.982 168.2 -50.786 191.446 -56.942a1.022 1.022 0 0 0 0.4 -0.22Zm17.77 5.738c-36.03 10.374 -192.4 60.142 -192.896 60.552l-13.504 -6.024c23 -7.06 146.924 -45.972 191.42 -59a1 1 0 0 0 0.4 -0.236ZM119.218 305.6 104 298.8c48.238 -15.51 168.126 -53.51 193.676 -60.622l16.098 5.2Z" fill="#194770" stroke-width="1"></path><path d="M296.72 280.936c-35.776 -12.982 -33.644 -12.34 -34.128 -12.2 -2.06 0.65 -50.47 15.882 -51.768 16.314a1 1 0 0 0 -0.062 1.874c36.416 14.872 34.322 14.122 34.85 13.934l51.098 -18.048a1 1 0 0 0 0.01 -1.874Zm-51.416 17.918 -31.228 -12.73c9.984 -3.158 45.034 -14.186 48.8 -15.37l30.546 11.108Z" fill="#194770" stroke-width="1"></path><path d="M53.18 192.552a1 1 0 0 0 1.228 0.7c42.278 -11.624 53.254 -14.22 56.154 -15.152 0.588 -0.19 1.288 -0.362 1.334 -1.426 0.68 -15.862 1.302 -29.382 2.112 -43.49a1.184 1.184 0 0 0 -1.888 -1.43s-41.72 10.564 -58.212 14.552a1 1 0 0 0 -0.758 1.076c-0.018 0.16 -0.026 44.97 0.03 45.17Zm54.702 -57.662 4.084 -1.034q-0.152 2.718 -0.3 5.412l-4.182 1.124a26.384 26.384 0 0 1 0.398 -5.502Zm3.67 6.48c-0.6 11.138 -1.098 22.268 -1.638 34.866 -18.322 4.834 -37.216 9.918 -54.77 14.74V156.524Zm-56.4 13.084v-6.4c14.816 -3.588 29.762 -7.358 44.316 -11.042v5.526Zm50.632 -19.03a26.638 26.638 0 0 0 -0.268 5.498l-4.048 1.088v-5.494Z" fill="#194770" stroke-width="1"></path><path d="M116.368 176.73c52.734 -13.624 49.852 -13.038 50.124 -13.018a1 1 0 0 0 1.068 -0.924c2.454 -33.856 3.704 -42.1 3.868 -44.432 0.046 -0.652 0.074 -1.28 -0.832 -1.428 -0.326 -0.024 -51.9 13.31 -52.694 13.258a0.986 0.986 0 0 0 -1.046 0.952c-0.652 13.92 -1.304 28.272 -1.956 43.93 -0.03 0.684 0.5 1.912 1.468 1.662Zm52.956 -57.474q-0.256 2.342 -0.492 4.638l-2.786 0.746c0.026 -1.562 0.2 -3.04 0.372 -4.624Zm-5.28 5.92 -3.984 1.066c0.156 -1.554 0.292 -3.058 0.322 -4.662l3.964 -1.024a40.23 40.23 0 0 0 -0.302 4.62Zm-6.032 1.452c-0.026 0.256 -12.262 3.416 -39.444 10.724q0.124 -2.646 0.246 -5.268c12.98 -3.244 26.29 -6.572 39.554 -9.984 -0.054 1.524 -0.202 2.992 -0.356 4.528Zm7.614 35.184 -48.702 12.706c0.516 -12.354 1.032 -23.902 1.548 -35.07l50.142 -13.426c-1.256 12.476 -2.138 24.092 -2.988 35.79Z" fill="#194770" stroke-width="1"></path><path d="M110.618 183.936c-9.54 2.786 -46.884 13.548 -55.752 16.14a1 1 0 0 0 -1.722 0.692c0 19.56 0.218 12.428 0.218 38.488 0 0.98 -0.028 1.868 1 1.868 1.728 0 11.496 -2.412 55.918 -14.384a1.726 1.726 0 0 0 0.958 -1.4c0 -39.926 0.502 -36.758 0.432 -39.82a1 1 0 0 0 -1.052 -1.584Zm-55.448 24.954c14.556 -3.56 39.494 -10.774 54.282 -15.11 -0.2 9.73 -0.2 19.858 -0.2 31.17 -17.372 4.682 -47.926 12.91 -53.884 14.048 -0.01 -10.13 -0.14 -20.042 -0.198 -30.108Zm49.458 -21.128 -0.376 5.456 -2.438 0.71 0.458 -5.482Zm5.026 -1.462q-0.09 2.68 -0.156 5.382l-3.2 0.938 0.376 -5.452Zm-9.438 2.742 -0.456 5.482c-19.828 5.756 -35.082 9.964 -44.6 12.308q0 -2.382 -0.014 -4.752c14.144 -4.14 30.054 -8.68 45.07 -13.038Z" fill="#194770" stroke-width="1"></path><path d="M223.132 103.458c-4.6 0.872 7.78 -2.2 -48.562 12.242a1 1 0 0 0 -1.4 0.842s-2.366 31.374 -3.478 44.348c-0.074 0.846 1.254 1.52 1.648 1.52 0.8 0 39.864 -10.624 50.28 -13.516a1 1 0 0 0 0.71 -0.748c0.436 -0.508 -0.096 2.316 2.63 -44.082a1 1 0 0 0 -1.828 -0.606Zm-5 3.336a18.278 18.278 0 0 0 0 3.872c-0.972 0.266 -2.028 0.558 -3.156 0.872l0.31 -4.024Zm1.966 3.336a15.308 15.308 0 0 1 0.128 -3.87l2.638 -0.674 -0.228 3.866c-0.712 0.188 -1.562 0.416 -2.528 0.678Zm-6.852 -2.1a21.2 21.2 0 0 0 -0.256 4.062c-1.358 0.378 -25.25 7.038 -38.276 10.52l0.376 -4.982c12.572 -3.23 25.31 -6.356 38.166 -9.6Zm-38.682 16.694c13.294 -3.546 45.028 -12.4 47.958 -13.17 -0.718 12.164 -1.39 23.77 -1.928 35.55 -15.022 4.17 -31.446 8.6 -48.836 13.166 1.042 -12.126 1.938 -24.016 2.806 -35.546Z" fill="#194770" stroke-width="1"></path><path d="M220.4 154.2c-16.276 3.746 -33.252 8.226 -49.322 12.552a1.01 1.01 0 0 0 -0.446 0.26 1 1 0 0 0 -1.378 0.852c-0.958 13.422 -1.812 26.728 -2.61 40.678a10.78 10.78 0 0 0 1.65 2.144c0.544 0 36.958 -10.484 51.184 -14.85a1 1 0 0 0 1.35 -0.92c0.268 -16.502 0.536 -24.328 1.304 -39.978a1 1 0 0 0 -1.732 -0.738Zm-1.556 39.738c-13.958 4.284 -31.694 9.352 -50.2 14.6 0.642 -11.2 1.318 -21.98 2.056 -32.742 20.538 -6.076 38.284 -11.04 49.098 -13.738 -0.448 10.626 -0.762 21.124 -0.946 31.878Zm1.218 -37.6q-0.086 1.83 -0.17 3.652 -1.4 0.348 -2.97 0.748l0.378 -3.756q1.39 -0.334 2.77 -0.654Zm-5.034 4.89q-1.738 0.45 -3.632 0.954l0.504 -3.912q1.674 -0.4 3.34 -0.8c-0.314 3.212 -0.402 3.368 -0.204 3.748Zm-5.2 -2.454 -0.518 3.968c-10.29 2.766 -23.632 6.56 -38.458 10.94q0.17 -2.48 0.348 -4.966c0.884 0.114 11.294 -3.276 38.634 -9.952Z" fill="#194770" stroke-width="1"></path><path d="M166.864 169.914c0.896 -0.978 -0.536 -2.2 -1.534 -1.498 -16.908 4.46 -35.966 10.028 -49.71 14a1 1 0 0 0 -0.722 0.954c-0.074 2.144 -1.08 25.268 -1.304 40.436 -0.014 0.96 1.876 1.45 2.086 1.45 0.504 0 24.93 -6.938 47.664 -13.08a1 1 0 0 0 0.304 -1.79c1.552 -18.708 2.324 -28.032 3.216 -40.472Zm-10.032 7.814a23.076 23.076 0 0 1 0.474 -5.088q1.644 -0.45 3.28 -0.89c-0.298 1.694 -0.46 3.382 -0.6 5.038Zm5.898 -6.552 2.08 -0.554q-0.174 2.388 -0.358 4.836l-2.4 0.716a44.5 44.5 0 0 1 0.678 -4.998Zm-7.566 2.05a24.776 24.776 0 0 0 -0.314 5.092c-12.6 3.752 -25.6 7.626 -38.178 11.274q0.106 -2.748 0.2 -5.46c12.704 -3.682 25.782 -7.474 38.292 -10.906Zm-39.562 50c0.174 -11.116 0.58 -21 0.988 -31.538 39 -11.302 43.038 -12.722 47.702 -14.104 -0.788 10.336 -1.698 21.366 -2.638 32.658a0.934 0.934 0 0 0 0.02 0.3c-15.43 4.186 -30.848 8.5 -46.074 12.694Z" fill="#194770" stroke-width="1"></path><path d="M72.176 165.652a194.182 194.182 0 0 0 22.076 -6.12 1 1 0 1 0 -0.632 -1.896 192.268 192.268 0 0 1 -21.848 6.058 1 1 0 0 0 0.4 1.958Z" fill="#194770" stroke-width="1"></path><path d="M66.462 174.78a1 1 0 0 0 1.268 0.624c10.852 -3.69 22.118 -7 33.012 -10.2a1 1 0 0 0 -0.564 -1.918c-10.914 3.21 -22.2 6.53 -33.092 10.234a1 1 0 0 0 -0.624 1.26Z" fill="#194770" stroke-width="1"></path><path d="M135.904 145.668c0.724 0 6.42 -2.654 16.324 -5.03a1 1 0 1 0 -0.468 -1.944 138.358 138.358 0 0 0 -16.2 5.038 1 1 0 0 0 0.344 1.936Z" fill="#194770" stroke-width="1"></path><path d="M160.36 144.218a1 1 0 0 0 -1.2 -0.74c-8.258 1.974 -19.116 4.7 -29.874 8.286a1 1 0 0 0 0.316 1.948c0.892 0 6.422 -2.646 30.022 -8.29a1 1 0 0 0 0.736 -1.204Z" fill="#194770" stroke-width="1"></path><path d="m154.774 152.618 -25.44 6.958a1 1 0 1 0 0.528 1.93l25.44 -6.958a1 1 0 0 0 -0.528 -1.93Z" fill="#194770" stroke-width="1"></path><path d="M189.612 134.8a66.822 66.822 0 0 1 14.916 -3.922 1 1 0 1 0 -0.258 -1.982 60.286 60.286 0 0 0 -15.036 3.978 1 1 0 0 0 0.378 1.926Z" fill="#194770" stroke-width="1"></path><path d="M182.784 144.088a1 1 0 0 0 1.248 0.666l27.18 -8.262a1 1 0 0 0 -0.582 -1.914l-27.18 8.262a1 1 0 0 0 -0.666 1.248Z" fill="#194770" stroke-width="1"></path><path d="M184.176 183.286a124.632 124.632 0 0 1 21.024 -5.23 1 1 0 0 0 -0.298 -1.978 114.384 114.384 0 0 0 -21.062 5.266 1 1 0 0 0 0.336 1.942Z" fill="#194770" stroke-width="1"></path><path d="M183.74 188.504c0.2 0 -0.922 0.248 13.932 -3.288a1 1 0 1 0 -0.464 -1.946l-13.698 3.26a1 1 0 0 0 0.23 1.974Z" fill="#194770" stroke-width="1"></path><path d="M180.8 195.07a1 1 0 0 0 1.158 0.812 148.54 148.54 0 0 0 25.616 -7 1 1 0 0 0 -0.692 -1.878 146.426 146.426 0 0 1 -25.268 6.912 1 1 0 0 0 -0.814 1.154Z" fill="#194770" stroke-width="1"></path><path d="M133.076 200.898c0.422 0 0.898 -0.448 15.296 -4.826a1 1 0 1 0 -0.584 -1.914c-4.914 1.496 -10 3.042 -15.04 4.8a1 1 0 0 0 0.328 1.94Z" fill="#194770" stroke-width="1"></path><path d="M152.174 198.496c-7.972 2.1 -15.956 4.452 -24.4 7.2a1 1 0 1 0 0.618 1.902c8.414 -2.728 16.364 -5.07 24.3 -7.16a1 1 0 0 0 -0.51 -1.934Z" fill="#194770" stroke-width="1"></path><path d="M73.932 212.64a176.764 176.764 0 0 1 19.298 -4.8 1 1 0 0 0 -0.328 -1.974 148 148 0 0 0 -19.268 4.816 1 1 0 0 0 0.298 1.958Z" fill="#194770" stroke-width="1"></path><path d="M98.104 211.744a266.468 266.468 0 0 0 -31.646 7.856 1 1 0 0 0 0.6 1.908 264.262 264.262 0 0 1 31.412 -7.8 1 1 0 0 0 -0.362 -1.968Z" fill="#194770" stroke-width="1"></path><path d="M91.936 219.372c-5.65 1.522 -11.518 3.044 -17.386 4.566a1 1 0 1 0 0.502 1.934c5.874 -1.522 11.748 -3.046 17.4 -4.568a1 1 0 1 0 -0.52 -1.932Z" fill="#194770" stroke-width="1"></path><path d="M311.722 110.306c1.43 -0.318 1.886 -0.662 3.076 0.19a11.132 11.132 0 0 1 3.634 6.954 34.962 34.962 0 0 1 0.15 5.268c-0.064 3.274 0.026 10.414 -0.362 19.076a40.528 40.528 0 0 0 -16.89 5.044c-3.8 2.112 -7.124 6.216 -6.348 10.696 0.412 11.848 1.7 37.58 1.7 37.58a19.816 19.816 0 0 0 1.212 6.572 20.084 20.084 0 0 0 12.11 9.6c13.2 3.724 25 3.838 33.538 -7.168a11.77 11.77 0 0 0 1.884 -6.274c1.172 -9.234 3.714 -33.148 4.122 -36.872 4.152 -11.466 -11.272 -18.6 -23.57 -19.042 -0.082 -8.646 0.256 -19 0.446 -29.96 0.172 -9.784 3.868 -12.144 7.282 -14.226a29.694 29.694 0 0 0 13.34 -17.038 39.916 39.916 0 0 0 0.66 -19.852 1.144 1.144 0 0 0 -0.074 -0.2 1 1 0 0 0 -1.272 -0.848 57.824 57.824 0 0 0 -17.294 8.378 25.388 25.388 0 0 0 -9.742 14.28c-1.222 4.718 1.266 11.256 1.718 16.222a113.568 113.568 0 0 1 0.074 14.93 20.432 20.432 0 0 0 -3.498 -5.2 10.8 10.8 0 0 1 -2.2 -5.456 11.712 11.712 0 0 0 -6.622 -8.538 30.736 30.736 0 0 0 -10.066 -2.918l-12.83 -2.174a1 1 0 0 0 -1.166 1.026 21.74 21.74 0 0 0 26.988 19.95Zm-9.422 38.28a38.528 38.528 0 0 1 15.822 -4.78q-0.082 1.492 -0.172 2.902a28.536 28.536 0 0 0 -13.092 4.7 17.496 17.496 0 0 0 -4.784 5 7.16 7.16 0 0 0 -0.922 5.428 10.902 10.902 0 0 1 -2.256 -5.736 9.786 9.786 0 0 1 5.404 -7.514Zm41.134 49.138a9.934 9.934 0 0 1 -1.528 5.258 24 24 0 0 1 -5.2 5c-6.55 4.292 -15.032 4.53 -26.164 1.39a18.046 18.046 0 0 1 -10.828 -8.482 17.732 17.732 0 0 1 -1.036 -5.82s-1.124 -22.446 -1.516 -32.558c2.686 3.88 8.758 6.764 12.878 8.134 11.702 3.018 29.456 2.432 37.288 -7.8 -0.328 2.98 -2.716 25.54 -3.894 34.878Zm2.414 -36.23c0.476 -5.8 -6.528 -13.582 -19.8 -14.576q-0.03 -1.45 -0.052 -2.98c7.346 0.302 18.382 3.64 21.422 9.926 1.056 2.172 1.248 3.862 -1.57 7.63Zm-25.024 -42.162a1 1 0 0 0 2 -0.082c0.692 -16.324 2.148 -31.154 15.08 -47.554a1 1 0 0 0 -1.57 -1.238 70.118 70.118 0 0 0 -13.312 27.886c-0.48 -4.92 -2.812 -11.312 -1.758 -15.38a23.416 23.416 0 0 1 8.968 -13.154 56.826 56.826 0 0 1 15.694 -7.784 38.24 38.24 0 0 1 -0.8 18.124 27.736 27.736 0 0 1 -10.92 14.914c-4.036 2.8 -9.564 4.426 -9.78 16.878 -0.33 18.95 -0.62 36.178 0.096 45.84a8.04 8.04 0 0 0 -5.59 -0.678c1.716 -12.258 1.474 -26 1.65 -34.346a40.6 40.6 0 0 0 -0.104 -5.03q0.206 0.792 0.346 1.604Zm-22.4 -25.86a28.874 28.874 0 0 1 9.486 2.742 9.6 9.6 0 0 1 5.516 7.02 11.846 11.846 0 0 0 1.086 3.878 79.754 79.754 0 0 0 -23.01 -13.178 1 1 0 1 0 -0.694 1.878 77.746 77.746 0 0 1 21.71 12.258 19.212 19.212 0 0 1 -6.558 0.8 19.572 19.572 0 0 1 -19.152 -17.372Z" fill="#194770" stroke-width="1"></path></g></svg>