<svg width="400" height="400" viewBox="0 0 400 400" fill="none" xmlns="http://www.w3.org/2000/svg">
<path fill-rule="evenodd" clip-rule="evenodd" d="M381.34 340.58C376.389 343.448 371.608 346.6 367.02 350.02C366.14 349.2 363.2 346.32 361.02 344.14C365.3 337.52 365.44 336.84 365.14 336.24C361.3 328.54 304.64 272.24 267.14 266.48C268.48 259.92 272.56 239.82 271.84 234.66C271.824 234.305 271.727 233.959 271.558 233.647C271.388 233.335 271.149 233.066 270.86 232.86C257.353 231.221 243.74 230.612 230.14 231.04C230.3 218.72 230.36 195.52 230.34 173.04C236.491 172.838 242.613 172.108 248.64 170.86C249.189 170.763 249.677 170.454 250 170C250.34 169.32 250.34 152.58 248 152.48C246.7 152.48 238.6 152.9 230.16 153.62C230.02 113.62 229.88 115.06 229.52 114.7C229.361 114.582 229.168 114.518 228.97 114.518C228.772 114.518 228.579 114.582 228.42 114.7L226.88 115.74C227 40.6 226.88 45.1 226.54 44.76C226.2 44.42 225.3 44.08 165.7 44.64C161 40.54 130.88 14.64 124.7 14.22C120.2 14 100.18 30.84 84 45.8C72.12 46.04 61.32 46.32 52.6 46.62C52.0503 42.2926 50.2501 38.2196 47.42 34.9C45.8658 33.096 43.9501 31.6386 41.7967 30.6222C39.6434 29.6059 37.3006 29.0532 34.92 29C29.4389 28.6077 24.0171 30.341 19.78 33.84C17.6907 35.612 15.9995 37.8055 14.8173 40.2768C13.635 42.7481 12.9885 45.4414 12.92 48.18C13.3 57.8 18.4 64.64 28.14 66.66C27.3 80 26.52 98.98 25.84 118C22.9533 116.096 19.9395 114.392 16.82 112.9C16.2 112.64 15.38 112.34 14.82 112.8C14 114 10.14 241.48 10 241.8C9.86 242.12 10 242.52 10.16 242.64C10.32 242.76 77 242.28 77.24 242.26C75.3585 252.712 75.9128 263.457 78.86 273.66C82.68 285.84 85.42 295.44 98.02 297.5L100.54 297.9C103.58 302.12 105.22 304.76 112.34 306.64C100.92 329.2 110.62 360.86 139.7 365.5C157.229 368.099 175.133 365.192 190.94 357.18C205.992 349.633 219.434 339.234 230.52 326.56C227.836 322.126 225.897 317.281 224.78 312.22C224.751 312.172 224.733 312.119 224.727 312.063C224.722 312.007 224.728 311.951 224.747 311.898C224.765 311.846 224.795 311.798 224.834 311.758C224.873 311.718 224.921 311.687 224.973 311.668C225.025 311.648 225.082 311.64 225.137 311.645C225.193 311.65 225.247 311.667 225.295 311.695C225.344 311.723 225.385 311.761 225.417 311.807C225.449 311.853 225.471 311.905 225.48 311.96C228.14 317.32 253.98 368.52 259.48 370.98C261.922 371.205 264.384 370.905 266.7 370.1C272.04 384.1 266.42 370.24 272.12 384.1C272.295 384.46 272.573 384.76 272.92 384.96C277.32 387.68 306.78 383.58 308.66 382.32C311.98 380.1 308.96 376.78 305.26 375.32C301.56 373.86 296.94 370.76 286.58 370.18C286.44 369.3 286.12 366.7 285.8 364.18C289.166 363.056 292.442 361.679 295.6 360.06C295.821 359.947 296.007 359.775 296.138 359.563C296.268 359.352 296.338 359.109 296.34 358.86C296.24 356.86 254.76 256.64 229.66 254.2C212.18 252.52 193.12 261.82 178.92 272.2C179.96 267.42 185.7 241.9 187.82 237.5C214.918 232.495 242.597 231.431 270 234.34C271.4 237.4 266.6 262.7 266 266.34C260.659 265.482 255.184 266.22 250.26 268.46C271.74 292.8 287.34 334.36 288.46 336.34C305.36 345.7 341.38 367.18 345.6 366.5C346.38 366.38 346.18 366.4 349.6 361.3C351.4 362.4 362.62 368.96 364.36 369.94C364.857 370.101 365.387 370.131 365.899 370.025C366.411 369.92 366.887 369.684 367.28 369.34C373.38 365.52 389.28 345.66 389.78 343.34C390.84 340.52 388 336.66 381.34 340.58ZM300.42 373.7C300.506 373.669 300.6 373.669 300.685 373.701C300.77 373.733 300.841 373.795 300.885 373.875C300.928 373.955 300.942 374.048 300.923 374.137C300.903 374.226 300.853 374.305 300.78 374.36C300.58 374.56 297.64 378.62 297.54 378.82C297.553 378.876 297.553 378.934 297.541 378.99C297.528 379.046 297.503 379.098 297.468 379.143C297.432 379.188 297.387 379.224 297.335 379.249C297.284 379.274 297.227 379.287 297.17 379.287C297.113 379.287 297.056 379.274 297.005 379.249C296.953 379.224 296.908 379.188 296.872 379.143C296.837 379.098 296.812 379.046 296.799 378.99C296.787 378.934 296.787 378.876 296.8 378.82C296.619 377.663 296.896 376.482 297.571 375.526C298.247 374.57 299.269 373.915 300.42 373.7ZM290.42 377.9C290.338 376.646 290.661 375.398 291.34 374.34C291.937 373.212 292.915 372.333 294.1 371.86C294.133 371.816 294.175 371.779 294.224 371.753C294.272 371.726 294.326 371.711 294.381 371.707C294.436 371.704 294.491 371.713 294.543 371.732C294.594 371.752 294.64 371.783 294.679 371.823C294.717 371.863 294.746 371.91 294.764 371.963C294.782 372.015 294.789 372.07 294.783 372.125C294.777 372.18 294.76 372.233 294.732 372.281C294.704 372.328 294.665 372.369 294.62 372.4C293.563 374.367 292.401 376.277 291.14 378.12C291.097 378.174 291.041 378.216 290.976 378.24C290.912 378.264 290.842 378.271 290.774 378.258C290.706 378.246 290.643 378.215 290.591 378.17C290.539 378.124 290.501 378.066 290.48 378L290.42 377.9ZM284.84 364.42C285.02 366.9 285.22 369.42 285.34 370.42C281.78 373.86 275.06 375.22 270.1 375.48C269.22 373.48 268.34 371.48 267.64 369.86C272.82 368.56 279.38 366.42 284.9 364.42H284.84ZM248.26 169.14C241.014 170.585 233.649 171.355 226.26 171.44C225.31 166.318 224.682 161.141 224.38 155.94C227.949 158.847 231.704 161.52 235.62 163.94C236.52 164.44 236.9 164.58 237.62 164.2C241.175 161.738 244.477 158.931 247.48 155.82C247.993 160.242 248.253 164.689 248.26 169.14ZM246.26 154.42C245.02 155.66 243.72 156.88 242.5 157.98C235.68 164.1 238.12 163.66 231.46 159.52C228.46 157.66 225.24 155.52 224.44 155.02C237.78 154.86 241.08 154.6 246.34 154.42H246.26ZM124.68 15.8C129.66 16.1 160 41.44 163.82 44.66C138.82 44.9 110.14 45.28 85.82 45.76C102 31.48 121.2 15.62 124.68 15.8ZM26.84 56C26.7122 55.9955 26.5906 55.944 26.4984 55.8555C26.4061 55.7669 26.3498 55.6475 26.34 55.52C25.7944 50.1975 25.848 44.8306 26.5 39.52C26.5409 39.2918 26.6482 39.0806 26.8084 38.913C26.9687 38.7453 27.1747 38.6286 27.4009 38.5774C27.6271 38.5262 27.8633 38.5427 28.0802 38.625C28.297 38.7073 28.4847 38.8517 28.62 39.04C29.66 40.18 34.62 49.04 36.62 52.46C37.76 40.46 37.26 39.82 38.1 39.86C38.1631 39.8626 38.225 39.8776 38.2822 39.9041C38.3395 39.9306 38.391 39.9682 38.4337 40.0146C38.4764 40.0611 38.5096 40.1155 38.5312 40.1748C38.5529 40.234 38.5627 40.297 38.56 40.36C38.56 44.36 39.24 53.66 38.32 55.88C37.96 56.74 36.88 56.9 36.1 55.88C34.74 54.22 30.58 46.72 28.2 42.7C26.8 53.32 28 56 26.84 56ZM42 65.12C127.12 65.28 206.9 64.94 213.18 64.98C213.18 68.06 213.18 78.86 213.06 81.72C212.86 81.72 37.5 82.92 36.56 82.88C36.56 81.04 37.08 71.16 37.28 66.88C38.9205 66.4922 40.5061 65.901 42 65.12ZM29.42 66.9C31.7542 67.3243 34.1458 67.3243 36.48 66.9C35.84 84.04 35.8 83.36 36.2 83.42C36.2 83.84 211.8 83.42 213.86 83.18C214.56 83.18 214.6 82.38 214.64 81.72C214.84 78.76 214.86 68.38 214.78 65.16C214.78 64.34 214.78 63.44 214.02 63.3C211.78 62.96 76.44 63.88 43.58 64.14C46.3069 62.4183 48.5556 60.0367 50.1183 57.2156C51.6809 54.3945 52.5069 51.225 52.52 48C101.46 46.44 216.52 45.52 225.26 46C225.26 49.8 225.38 83.6 225.38 116.72L214.4 124.08V94.94C214.392 94.7563 214.319 94.5813 214.195 94.4459C214.071 94.3105 213.902 94.2234 213.72 94.2C211.72 93.9 24.78 94.96 36.66 94.9C36.5078 94.905 36.3631 94.9677 36.2554 95.0754C36.1477 95.1832 36.085 95.3278 36.08 95.48C36.08 95.92 35.94 109.16 35.78 124.36C32.5 122.22 29.5 120.36 26.88 118.64C27.62 99.48 28.5 80.26 29.34 66.9H29.42ZM165.52 131.28C165.877 130.221 165.919 129.082 165.64 128C170.98 128 176.32 127.88 181.64 127.8C182.18 127.8 182.18 127.32 181.64 127.32H165.44C164.571 124.79 163.175 122.472 161.344 120.521C159.514 118.57 157.29 117.029 154.82 116C149.872 114.081 144.532 113.394 139.26 114C135.34 114.264 131.579 115.654 128.429 118.002C125.278 120.351 122.873 123.558 121.5 127.24C86.08 127.24 64.02 127.58 64.62 127.56C64.08 127.56 64.08 128.06 64.62 128.06C83.9 128.06 102.62 128.2 121.12 128.18C119.609 132.211 119.134 136.558 119.74 140.82C114.22 144.28 104.4 152.46 92.8 162.82C74.8 150.82 52.8 135.54 36.8 125.08C37.04 110.7 37.26 97.94 37.3 96.18C112.08 96.18 205.78 95.84 212.88 95.86V125.24C200.68 133.38 183.2 144.96 166.88 155.56C168.034 147.456 167.572 139.204 165.52 131.28ZM160.14 173.46L157.3 179.58C156 181.72 154.58 184 153.82 185.24C149.82 182.64 139.62 174.32 136.82 172.04L137.48 160.42C137.865 158.505 137.973 156.545 137.8 154.6C137.8 154.26 137.64 154.1 137.36 153.9C135.379 152.443 134.005 150.307 133.5 147.9C133.377 147.146 133.536 146.373 133.945 145.728C134.354 145.083 134.986 144.61 135.72 144.4C139.02 143.12 139.26 149.44 141.4 149.28C143.54 149.12 142.34 143.84 141.84 141.8C141.34 139.76 140.08 136 140.64 135.58C142.04 134.46 145.3 137.36 149.26 136.62C153.68 135.8 159.26 133.88 160.98 129.78C161.801 130.61 162.762 131.287 163.82 131.78C165.7 138.78 167.42 156.8 162 161.48C157.58 165.34 157.06 159.3 160.14 173.46ZM154.14 211.46C154.14 211.66 154.5 201.98 154.56 198.76C155.66 198.58 157.46 198.12 158.56 197.8C161.02 201.64 163.46 206.16 165.8 209.8C165.4 211.98 164.3 216.96 162.46 218.24C163 218 162.68 220 154.16 211.44L154.14 211.46ZM145.26 195.8C145.446 195.956 145.673 196.056 145.914 196.088C146.155 196.119 146.4 196.082 146.62 195.98C147.04 195.66 148.12 194.76 149.34 193.62C150.358 195.41 151.565 197.086 152.94 198.62C152.94 201.44 153.16 200 153.38 211.18C146.74 204 138.14 193.28 132 185.48C137.3 189.66 142.94 194 145.28 195.78L145.26 195.8ZM127.52 179.66L125.06 176.4C128.545 175.077 132.139 174.06 135.8 173.36C141.257 178.284 147.008 182.872 153.02 187.1C150.945 189.655 148.591 191.97 146 194C142.86 191.56 133.2 184.1 127.54 179.64L127.52 179.66ZM150.6 192.46C152.051 191.118 153.352 189.623 154.48 188C156.186 189.11 157.956 190.118 159.78 191.02L158.74 195.8C157.159 196.247 155.557 196.614 153.94 196.9C153.08 196 151.66 194 150.6 192.46ZM160.32 197.06C160.5 196.72 161.3 192.2 161.36 191.82C162.149 192.254 163.022 192.513 163.92 192.58C166.5 192.18 169.64 182.58 170.88 178.18C170.1 185.12 168.22 201.32 167.1 208.18C165.06 204.96 162.76 200.8 160.32 197.06ZM162.32 190.16C160.139 189.201 158.028 188.091 156 186.84L162 174.28C164.659 175.024 167.265 175.946 169.8 177.04C168.401 181.529 166.565 185.869 164.32 190C163.56 191.08 164 190.86 162.26 190.16H162.32ZM16 114C21.62 115.62 62.1 143.78 91.72 163.8C60.26 191.8 16.72 234.44 10.78 240.98C11.16 228.76 15.1 123.24 16 114ZM10.66 242C28.66 223.36 100.66 155.2 120.08 142.44C121.26 146.56 123.76 148.22 124.08 149.22C125.476 153.764 128.091 157.838 131.64 161C132.916 161.832 134.381 162.327 135.9 162.44L135.22 171.62C100.24 178.54 82.78 209.62 77.4 241.26C40.14 241.68 10.66 242 10.66 242ZM113.16 306C106.18 304.18 104.52 301.86 101.82 298C109.48 299.16 117.32 300.12 125.1 300.68L142.2 298.06C136.5 299.72 127.48 302.2 113.16 306ZM157.46 291.22C152.7 295.56 154.88 294.9 147.74 296.14C144.14 296.76 137.48 297.9 125.14 299.94C116.28 299.2 107.14 297.94 98.22 296.34C86.22 294.24 83.82 284.88 80.22 273.16C73.58 251.28 80 214.88 107.04 186.36C116.04 196.72 120.22 210.22 121.76 223.1C123.94 241.38 120.8 258.5 118.34 263.84C118.34 263.84 118.24 265.18 119.36 265.14C145.36 264.42 158.7 269.26 170.98 278.78C170.14 279.68 175.1 275.2 157.46 291.3V291.22ZM187.22 235.58C186.959 235.641 186.726 235.789 186.56 236C184.56 238.5 177.58 270.18 176.76 274C175.24 275.2 173.54 276.6 172.08 277.9C156.7 265.64 140.08 262.22 120.58 263.34C123 256.72 125.74 240.36 123.68 222.96C122.1 209.68 117.68 195.82 108.44 185.16C110.988 183.346 113.661 181.715 116.44 180.28C124.44 189.88 154.34 225.28 164.14 229.88C169.92 232.58 172.7 220.56 173.78 214.28C175.3 205.32 177.18 190.94 178.36 181.44C182.23 183.637 185.874 186.209 189.24 189.12C189.255 204.384 190.667 219.614 193.46 234.62C191.32 234.94 189.28 235.3 187.22 235.66V235.58ZM195.22 234.24C192.515 219.646 191.11 204.842 191.02 190C203.68 198.26 214.28 216.74 219.62 231.62C211.2 232.16 203.38 233.06 195.2 234.32L195.22 234.24ZM228.54 231C226.2 231 223.84 231.22 221.5 231.36C212.74 203.14 187.24 180.42 164.56 173.04C164.34 173.04 164.74 173.32 161.36 170.1L160.18 164.66C161.714 164.108 163.083 163.176 164.161 161.952C165.238 160.729 165.987 159.252 166.34 157.66C193.98 139.66 225.16 118.78 228.34 116.66C228.46 120.38 228.58 135.38 228.64 153.72L224.06 154.16C223.997 154.15 223.932 154.156 223.87 154.175C223.809 154.195 223.753 154.228 223.707 154.272C223.661 154.317 223.625 154.371 223.603 154.431C223.581 154.492 223.573 154.556 223.58 154.62C223.58 154.96 223.88 168.24 224.74 171.6C224.82 172.055 225.07 172.463 225.44 172.74C226.502 173.023 227.603 173.131 228.7 173.06C228.7 195.52 228.68 218.74 228.52 231.08L228.54 231ZM357.48 364.42C354.64 362.92 351.7 361.38 350.1 360.42C354.9 353.24 358.22 348.26 360.48 344.78C362.58 347.02 365.32 349.98 366.26 350.92C365.56 355.84 361.32 361.1 357.46 364.5L357.48 364.42ZM374.88 353.66C374.048 352.722 373.53 351.547 373.4 350.3C373.153 349.048 373.366 347.748 374 346.64C374.029 346.555 374.087 346.483 374.164 346.436C374.241 346.39 374.332 346.372 374.421 346.387C374.51 346.401 374.59 346.446 374.649 346.515C374.707 346.583 374.74 346.67 374.74 346.76C375.238 348.94 375.519 351.164 375.58 353.4C375.602 353.447 375.615 353.499 375.618 353.551C375.62 353.603 375.612 353.655 375.595 353.704C375.577 353.754 375.55 353.799 375.515 353.838C375.48 353.876 375.437 353.908 375.39 353.93C375.343 353.952 375.292 353.965 375.239 353.968C375.187 353.97 375.135 353.962 375.086 353.945C375.036 353.927 374.991 353.9 374.952 353.865C374.914 353.83 374.882 353.787 374.86 353.74L374.88 353.66ZM380.34 350.38C379.515 349.575 379.027 348.487 378.975 347.335C378.923 346.184 379.311 345.056 380.06 344.18C380.111 344.11 380.185 344.059 380.269 344.036C380.353 344.013 380.442 344.02 380.521 344.055C380.601 344.09 380.666 344.151 380.706 344.229C380.746 344.306 380.758 344.395 380.74 344.48C380.6 345.78 381.48 352.42 380.32 350.46L380.34 350.38Z" fill="#194770"/>
<path fill-rule="evenodd" clip-rule="evenodd" d="M182.14 111.32C113.38 111.1 64.14 111.64 65.08 111.64C64.54 111.64 64.54 112.12 65.08 112.12C105.08 112.36 141.94 112.38 182.14 111.82C182.68 111.82 182.7 111.32 182.14 111.32ZM305.84 156.6C308.36 156.9 309.06 157.9 309.7 157.9C309.905 157.901 310.105 157.836 310.269 157.713C310.434 157.59 310.553 157.417 310.61 157.22C310.667 157.023 310.657 156.812 310.583 156.621C310.509 156.43 310.375 156.268 310.2 156.16C308.939 155.393 307.527 154.908 306.06 154.74C305.825 154.733 305.596 154.814 305.417 154.967C305.239 155.121 305.125 155.336 305.097 155.569C305.07 155.803 305.131 156.038 305.268 156.229C305.406 156.42 305.61 156.552 305.84 156.6ZM290.36 136C290.437 136.232 290.601 136.426 290.818 136.539C291.036 136.652 291.288 136.675 291.523 136.605C291.757 136.535 291.955 136.376 292.074 136.162C292.193 135.948 292.224 135.696 292.16 135.46C291.719 134.111 291.1 132.826 290.32 131.64C290.257 131.535 290.173 131.444 290.074 131.372C289.975 131.3 289.862 131.249 289.743 131.221C289.624 131.193 289.5 131.189 289.38 131.21C289.259 131.23 289.143 131.274 289.04 131.34C288.935 131.405 288.843 131.491 288.771 131.592C288.699 131.693 288.647 131.807 288.619 131.928C288.592 132.048 288.588 132.174 288.609 132.296C288.629 132.418 288.674 132.535 288.74 132.64C289.422 133.686 289.966 134.815 290.36 136ZM308.34 172.86C309.839 172.685 311.284 172.194 312.58 171.42C312.792 171.287 312.943 171.076 312.999 170.832C313.056 170.588 313.013 170.332 312.88 170.12C312.747 169.908 312.536 169.757 312.292 169.701C312.048 169.645 311.792 169.687 311.58 169.82C310.549 170.448 309.397 170.85 308.2 171C307.976 171.046 307.776 171.172 307.638 171.354C307.499 171.537 307.433 171.763 307.45 171.992C307.467 172.22 307.567 172.434 307.731 172.594C307.895 172.754 308.111 172.849 308.34 172.86ZM285.6 128C285.782 127.998 285.96 127.944 286.112 127.843C286.264 127.742 286.383 127.599 286.455 127.432C286.527 127.264 286.549 127.08 286.518 126.9C286.487 126.72 286.404 126.554 286.28 126.42C285.38 125.44 284.4 124.42 283.4 123.56C283.217 123.39 282.974 123.3 282.725 123.31C282.475 123.319 282.24 123.427 282.07 123.61C281.9 123.793 281.81 124.036 281.82 124.285C281.829 124.535 281.937 124.77 282.12 124.94C285.04 127.68 284.9 128 285.6 128ZM314.12 165.24C314.12 165.489 314.219 165.728 314.395 165.905C314.572 166.081 314.811 166.18 315.06 166.18C315.309 166.18 315.548 166.081 315.725 165.905C315.901 165.728 316 165.489 316 165.24C316.07 163.723 315.687 162.219 314.9 160.92C314.775 160.703 314.569 160.544 314.328 160.478C314.086 160.412 313.828 160.445 313.61 160.57C313.393 160.695 313.234 160.901 313.168 161.143C313.102 161.385 313.135 161.643 313.26 161.86C313.895 162.868 314.196 164.051 314.12 165.24ZM289.1 187.56C289.862 186.33 290.404 184.976 290.7 183.56C290.726 183.439 290.729 183.314 290.707 183.193C290.685 183.071 290.639 182.955 290.572 182.851C290.505 182.747 290.418 182.657 290.317 182.587C290.215 182.516 290.101 182.466 289.98 182.44C289.736 182.387 289.481 182.433 289.271 182.568C289.061 182.703 288.913 182.916 288.86 183.16C288.612 184.356 288.158 185.499 287.52 186.54C287.385 186.75 287.338 187.004 287.391 187.248C287.443 187.492 287.591 187.705 287.8 187.84C288.01 187.975 288.264 188.022 288.508 187.969C288.752 187.917 288.965 187.77 289.1 187.56ZM291.32 161.54C290.503 163.131 289.866 164.808 289.42 166.54C289.367 166.784 289.413 167.039 289.548 167.249C289.683 167.459 289.896 167.607 290.14 167.66C290.384 167.713 290.639 167.667 290.849 167.532C291.059 167.397 291.207 167.184 291.26 166.94C291.415 166.197 291.649 165.473 291.96 164.78C292.28 165.3 292.66 165.82 293.06 166.36C293.135 166.459 293.228 166.541 293.335 166.604C293.442 166.666 293.56 166.707 293.683 166.723C293.805 166.74 293.93 166.733 294.05 166.701C294.169 166.67 294.282 166.615 294.38 166.54C294.479 166.465 294.561 166.372 294.624 166.265C294.686 166.158 294.727 166.04 294.743 165.917C294.76 165.795 294.753 165.67 294.721 165.55C294.69 165.431 294.635 165.319 294.56 165.22C293.784 164.218 293.114 163.139 292.56 162C292.51 161.887 292.439 161.785 292.349 161.701C292.259 161.616 292.153 161.55 292.038 161.507C291.922 161.464 291.799 161.445 291.675 161.451C291.552 161.456 291.431 161.487 291.32 161.54ZM297.54 169.7C297.473 169.804 297.427 169.92 297.405 170.041C297.383 170.163 297.385 170.287 297.411 170.408C297.437 170.529 297.486 170.643 297.556 170.745C297.627 170.846 297.716 170.933 297.82 171C299.119 171.779 300.549 172.314 302.04 172.58C302.273 172.582 302.499 172.497 302.673 172.342C302.847 172.187 302.957 171.972 302.982 171.741C303.007 171.509 302.945 171.276 302.808 171.087C302.671 170.899 302.468 170.768 302.24 170.72C301.04 170.475 299.891 170.029 298.84 169.4C298.735 169.334 298.618 169.289 298.496 169.269C298.374 169.248 298.248 169.252 298.128 169.279C298.007 169.307 297.893 169.359 297.792 169.431C297.691 169.503 297.605 169.595 297.54 169.7ZM290.8 142C290.7 143.4 290.52 144.82 290.38 146C290.366 146.238 290.443 146.472 290.595 146.655C290.746 146.838 290.962 146.957 291.198 146.987C291.434 147.018 291.673 146.958 291.866 146.819C292.06 146.68 292.193 146.473 292.24 146.24C292.4 145.14 292.58 143.68 292.66 142.24C292.668 142.117 292.652 141.993 292.612 141.876C292.572 141.758 292.51 141.65 292.428 141.557C292.346 141.464 292.247 141.389 292.136 141.334C292.024 141.28 291.904 141.248 291.78 141.24C291.553 141.23 291.33 141.301 291.151 141.441C290.971 141.58 290.847 141.778 290.8 142ZM234.16 223.5C233.939 223.385 233.682 223.36 233.443 223.431C233.204 223.502 233.002 223.663 232.88 223.88C232.17 224.917 231.724 226.112 231.58 227.36C231.566 227.544 231.589 227.729 231.647 227.904C231.705 228.079 231.797 228.241 231.918 228.38C232.039 228.52 232.186 228.634 232.351 228.716C232.516 228.798 232.696 228.847 232.88 228.86C233.073 228.859 233.26 228.799 233.418 228.688C233.575 228.577 233.694 228.421 233.76 228.24C233.825 228.059 233.833 227.862 233.783 227.676C233.733 227.49 233.628 227.324 233.48 227.2C233.708 226.347 234.058 225.532 234.52 224.78C234.583 224.673 234.624 224.554 234.64 224.431C234.656 224.308 234.647 224.183 234.614 224.063C234.58 223.944 234.522 223.832 234.444 223.735C234.366 223.638 234.27 223.558 234.16 223.5ZM245.88 207.46C244.96 208.32 244.02 209.3 243.04 210.36C242.916 210.494 242.833 210.66 242.802 210.84C242.771 211.02 242.793 211.204 242.865 211.372C242.937 211.539 243.056 211.682 243.208 211.783C243.36 211.884 243.538 211.938 243.72 211.94C244.42 211.94 244.32 211.56 247.18 208.82C247.353 208.644 247.451 208.407 247.451 208.16C247.451 207.913 247.353 207.676 247.18 207.5C247.013 207.322 246.782 207.218 246.538 207.211C246.295 207.203 246.058 207.293 245.88 207.46ZM290 172.12C289.877 172.125 289.755 172.155 289.643 172.207C289.531 172.259 289.43 172.332 289.347 172.423C289.263 172.514 289.198 172.621 289.156 172.737C289.114 172.853 289.095 172.977 289.1 173.1C289.1 174.5 289.24 175.74 289.28 177.1C289.28 177.349 289.379 177.588 289.555 177.765C289.732 177.941 289.971 178.04 290.22 178.04C290.469 178.04 290.708 177.941 290.885 177.765C291.061 177.588 291.16 177.349 291.16 177.1C291.16 175.84 291.02 174.34 290.96 173.1C290.966 172.972 290.945 172.843 290.899 172.723C290.853 172.603 290.782 172.494 290.692 172.402C290.602 172.31 290.495 172.238 290.375 172.189C290.256 172.141 290.129 172.117 290 172.12ZM290.58 151.32C290.458 151.306 290.334 151.317 290.215 151.352C290.097 151.387 289.987 151.446 289.892 151.524C289.797 151.602 289.719 151.699 289.662 151.808C289.605 151.918 289.57 152.037 289.56 152.16C289.408 153.528 289.355 154.905 289.4 156.28C289.4 156.529 289.499 156.768 289.675 156.945C289.852 157.121 290.091 157.22 290.34 157.22C290.589 157.22 290.828 157.121 291.005 156.945C291.181 156.768 291.28 156.529 291.28 156.28C291.245 154.992 291.292 153.702 291.42 152.42C291.446 152.292 291.444 152.159 291.415 152.031C291.385 151.904 291.329 151.784 291.249 151.68C291.17 151.575 291.069 151.49 290.954 151.428C290.838 151.366 290.711 151.329 290.58 151.32ZM238.86 215.24C238 216.32 237.18 217.4 236.42 218.46C236.322 218.6 236.263 218.765 236.252 218.936C236.24 219.106 236.275 219.277 236.353 219.43C236.431 219.582 236.55 219.71 236.696 219.8C236.841 219.89 237.009 219.938 237.18 219.94C237.88 219.94 237.68 219.74 240.34 216.42C240.497 216.224 240.569 215.973 240.54 215.724C240.512 215.475 240.386 215.247 240.19 215.09C239.994 214.934 239.743 214.861 239.494 214.89C239.245 214.918 239.017 215.044 238.86 215.24ZM296.8 159.42C297.847 158.694 298.967 158.077 300.14 157.58C300.371 157.482 300.553 157.296 300.647 157.064C300.741 156.831 300.738 156.571 300.64 156.34C300.542 156.109 300.356 155.927 300.124 155.833C299.891 155.739 299.631 155.742 299.4 155.84C298.121 156.379 296.901 157.05 295.76 157.84C295.656 157.908 295.567 157.996 295.497 158.099C295.428 158.202 295.379 158.318 295.354 158.439C295.329 158.561 295.328 158.686 295.351 158.808C295.375 158.93 295.422 159.046 295.49 159.15C295.558 159.254 295.646 159.343 295.749 159.413C295.852 159.483 295.967 159.531 296.089 159.556C296.211 159.581 296.336 159.582 296.458 159.559C296.58 159.536 296.696 159.488 296.8 159.42ZM254.78 201.66C253.484 202.135 252.232 202.724 251.04 203.42C250.848 203.555 250.713 203.758 250.662 203.988C250.612 204.217 250.649 204.458 250.767 204.661C250.885 204.865 251.075 205.016 251.3 205.087C251.524 205.157 251.767 205.14 251.98 205.04C253.096 204.404 254.259 203.856 255.46 203.4C255.664 203.292 255.822 203.113 255.903 202.897C255.983 202.68 255.982 202.441 255.897 202.226C255.813 202.011 255.653 201.834 255.447 201.73C255.241 201.625 255.003 201.601 254.78 201.66ZM260.9 199.68C260.662 199.724 260.451 199.859 260.309 200.055C260.168 200.251 260.108 200.495 260.141 200.734C260.175 200.974 260.299 201.191 260.489 201.342C260.679 201.492 260.919 201.563 261.16 201.54C261.3 201.54 260.92 201.54 265.16 200.48C265.28 200.448 265.392 200.392 265.49 200.316C265.588 200.24 265.67 200.145 265.732 200.038C265.793 199.93 265.832 199.811 265.848 199.688C265.863 199.564 265.853 199.44 265.82 199.32C265.79 199.201 265.736 199.089 265.662 198.991C265.588 198.893 265.495 198.811 265.389 198.75C265.283 198.688 265.165 198.649 265.044 198.633C264.922 198.618 264.798 198.627 264.68 198.66L260.9 199.68ZM281.1 194.66C282.29 193.964 283.433 193.189 284.52 192.34C284.716 192.186 284.843 191.961 284.873 191.713C284.903 191.466 284.834 191.216 284.68 191.02C284.526 190.824 284.301 190.697 284.053 190.667C283.806 190.637 283.556 190.706 283.36 190.86C282.343 191.657 281.274 192.386 280.16 193.04C279.968 193.175 279.833 193.378 279.782 193.607C279.732 193.837 279.769 194.078 279.887 194.281C280.005 194.485 280.195 194.636 280.42 194.707C280.644 194.777 280.887 194.76 281.1 194.66ZM274.56 195.68C273.42 196.12 272.2 196.54 270.84 196.96C270.623 197.025 270.437 197.167 270.317 197.358C270.196 197.549 270.148 197.778 270.182 198.002C270.216 198.225 270.33 198.429 270.502 198.576C270.674 198.723 270.894 198.802 271.12 198.8C272.518 198.418 273.894 197.958 275.24 197.42C275.368 197.386 275.487 197.325 275.59 197.242C275.693 197.159 275.777 197.055 275.837 196.937C275.896 196.819 275.931 196.689 275.937 196.557C275.943 196.425 275.922 196.293 275.874 196.17C275.826 196.046 275.752 195.935 275.658 195.842C275.563 195.749 275.45 195.677 275.326 195.631C275.202 195.585 275.07 195.565 274.938 195.574C274.806 195.582 274.677 195.618 274.56 195.68ZM327.56 219.52C328.22 219.38 328.46 218.9 328.82 218.02C329.82 215.56 333.3 204.6 333.14 203.02C333.128 202.83 333.062 202.648 332.948 202.495C332.834 202.342 332.679 202.226 332.5 202.16C330.12 201.1 314.32 196.66 309.38 195.34C309.324 195.307 309.261 195.287 309.195 195.284C309.13 195.281 309.065 195.293 309.006 195.321C308.947 195.349 308.895 195.39 308.856 195.442C308.816 195.495 308.79 195.556 308.78 195.62C306.876 200.984 305.28 206.453 304 212C303.914 212.451 304.007 212.917 304.26 213.3C305.72 214.92 324.98 220.12 327.56 219.52ZM330.24 203.32C326.732 204.928 323.124 206.311 319.44 207.46C317.66 207.94 310.66 197.8 309.58 196.26C322 200.72 325.2 201.64 330.24 203.32ZM309.16 197.08C311.496 201.033 314.082 204.834 316.9 208.46C317.58 209.24 317.9 209.54 318.76 209.44C322.954 208.375 327.033 206.901 330.94 205.04C329.85 209.359 328.514 213.613 326.94 217.78C319.656 216.614 312.498 214.766 305.56 212.26C306.455 207.133 307.658 202.064 309.16 197.08ZM149.1 144.32C148.851 144.32 148.612 144.419 148.435 144.595C148.259 144.772 148.16 145.011 148.16 145.26V146.84C148.16 147.089 148.259 147.328 148.435 147.505C148.612 147.681 148.851 147.78 149.1 147.78C149.349 147.78 149.588 147.681 149.765 147.505C149.941 147.328 150.04 147.089 150.04 146.84V145.26C150.04 145.011 149.941 144.772 149.765 144.595C149.588 144.419 149.349 144.32 149.1 144.32ZM158.82 151.58C158.598 148.981 157.776 146.468 156.42 144.24C156.409 144.185 156.385 144.132 156.35 144.087C156.316 144.042 156.272 144.005 156.222 143.98C156.171 143.954 156.116 143.939 156.059 143.938C156.003 143.936 155.946 143.947 155.895 143.97C155.843 143.993 155.797 144.027 155.76 144.07C155.723 144.113 155.696 144.163 155.681 144.218C155.666 144.273 155.664 144.33 155.674 144.386C155.684 144.441 155.707 144.494 155.74 144.54C155.94 145.46 155.74 145.26 156.62 149.6C156.76 150.3 156.9 150.94 156.96 151.44C157.1 152.42 156.08 152.6 155.08 152.56C155.033 152.55 154.984 152.548 154.936 152.557C154.888 152.565 154.843 152.583 154.802 152.609C154.761 152.635 154.726 152.669 154.698 152.708C154.67 152.748 154.651 152.793 154.64 152.84C154.63 152.887 154.628 152.936 154.637 152.984C154.645 153.032 154.663 153.077 154.689 153.118C154.715 153.159 154.749 153.194 154.788 153.222C154.828 153.25 154.873 153.27 154.92 153.28C155.417 153.551 155.974 153.694 156.54 153.694C157.106 153.694 157.663 153.551 158.16 153.28C158.428 153.096 158.634 152.835 158.752 152.532C158.87 152.229 158.893 151.897 158.82 151.58ZM161.62 146.48C161.869 146.48 162.108 146.381 162.285 146.205C162.461 146.028 162.56 145.789 162.56 145.54V144C162.56 143.751 162.461 143.512 162.285 143.335C162.108 143.159 161.869 143.06 161.62 143.06C161.371 143.06 161.132 143.159 160.955 143.335C160.779 143.512 160.68 143.751 160.68 144V145.56C160.685 145.806 160.787 146.04 160.962 146.212C161.138 146.384 161.374 146.48 161.62 146.48ZM155.56 159.82C154.325 159.386 153.133 158.837 152 158.18C151.989 158.125 151.965 158.072 151.93 158.027C151.896 157.982 151.852 157.945 151.802 157.92C151.751 157.894 151.696 157.879 151.639 157.878C151.583 157.876 151.526 157.887 151.475 157.91C151.423 157.933 151.377 157.967 151.34 158.01C151.303 158.053 151.276 158.103 151.261 158.158C151.246 158.213 151.244 158.27 151.254 158.326C151.264 158.381 151.287 158.434 151.32 158.48C151.325 158.996 151.488 159.497 151.789 159.916C152.09 160.335 152.513 160.651 153 160.82C153.45 161.053 153.957 161.15 154.462 161.101C154.966 161.051 155.444 160.856 155.84 160.54C155.936 160.503 156.012 160.429 156.054 160.336C156.095 160.242 156.097 160.136 156.06 160.04C156.023 159.945 155.949 159.868 155.856 159.827C155.762 159.785 155.656 159.783 155.56 159.82ZM250.9 115.66C251.76 116.5 252.24 116.24 257.18 112.6C257.82 113.08 265.4 118.74 266.2 118.6C266.378 118.662 266.573 118.656 266.747 118.582C266.921 118.508 267.061 118.372 267.14 118.2C268.024 113.589 268.36 108.89 268.14 104.2C273.62 99.9001 278.58 95.8401 279.44 94.9401C279.526 94.8694 279.59 94.7745 279.622 94.6676C279.654 94.5607 279.653 94.4466 279.62 94.3401C279.1 93.3201 233.48 88.0201 230.1 88.3401C229.924 88.3384 229.751 88.384 229.599 88.4722C229.447 88.5604 229.322 88.6878 229.236 88.8412C229.15 88.9946 229.107 89.1682 229.111 89.344C229.115 89.5197 229.167 89.6911 229.26 89.8401C230.38 92.0001 249.06 113.84 250.9 115.66ZM258.7 111.5C259.7 110.7 260.52 110.12 263.38 107.92C263.774 110.614 264.315 113.285 265 115.92L258.7 111.5ZM266.48 114.3C264.66 105.72 265.04 106.16 264.48 105.88L247.42 96.9001C265.74 102.9 267.62 104.24 267.32 104.02C267.39 107.466 267.109 110.911 266.48 114.3ZM278.48 94.7401C277.16 95.8601 272.48 99.4001 267.36 103.16C263.86 101.28 242.42 92.7201 239.64 92.8601C239.452 92.8666 239.27 92.9307 239.12 93.0437C238.969 93.1566 238.857 93.313 238.798 93.4918C238.739 93.6706 238.737 93.8631 238.791 94.0434C238.845 94.2237 238.953 94.3831 239.1 94.5001C239.9 95.2201 258.02 104.5 262.36 106.8C260.98 107.82 253.7 113.08 251.84 114.16C249.54 111.7 235.84 95.4201 231.84 90.2801C236.54 90.5601 274.38 94.0001 278.54 94.7401H278.48Z" fill="#194770"/>
</svg>
