<svg width="400" height="400" viewBox="0 0 400 400" fill="none" xmlns="http://www.w3.org/2000/svg">
<path d="M386 167.26C381.78 165.26 375.6 168.44 375.38 173.26C375.417 175.108 376.185 176.866 377.516 178.148C378.847 179.43 380.632 180.132 382.48 180.1C389.54 180.12 392.28 170.12 386 167.26ZM384 176.76C380.58 178.14 376.54 174.26 379.24 171.34C382.32 168.04 387.24 169.34 386.66 172.9C386.73 173.752 386.504 174.601 386.019 175.305C385.534 176.009 384.821 176.523 384 176.76ZM366.56 183.76C366.448 183.578 366.296 183.424 366.116 183.31C365.935 183.195 365.731 183.124 365.519 183.101C365.306 183.078 365.092 183.103 364.891 183.176C364.69 183.249 364.508 183.366 364.36 183.52C363.38 184.6 360.86 198.66 361.14 199.72C361.32 200.44 361.34 200.56 372.5 202.72C372.768 202.788 373.05 202.782 373.316 202.701C373.581 202.621 373.819 202.47 374.004 202.264C374.189 202.058 374.315 201.805 374.367 201.533C374.419 201.261 374.396 200.98 374.3 200.72C372.402 194.779 369.804 189.086 366.56 183.76ZM364.12 198C364.46 196.12 365.64 188.64 365.7 188.18C367.517 191.795 369.132 195.507 370.54 199.3C370 199.18 365.26 198.2 364.12 198ZM99.0199 56.36C104.9 53.24 104.56 46.78 99.7599 44.58C95.7599 42.7 89.7599 45.7 89.5199 50.38C89.5476 51.4907 89.8495 52.5773 90.3986 53.5431C90.9477 54.509 91.7271 55.3241 92.6673 55.916C93.6076 56.5078 94.6796 56.8581 95.7879 56.9356C96.8962 57.013 98.0065 56.8153 99.0199 56.36ZM98.2399 46.86C98.931 47.0097 99.5382 47.4188 99.9364 48.0031C100.335 48.5873 100.493 49.3021 100.38 50C98.4999 57.26 90.8 53.24 92.84 49.38C93.3599 48.4448 94.1619 47.6976 95.1316 47.2451C96.1013 46.7925 97.1891 46.6578 98.2399 46.86ZM119.02 29.48C121.521 30.1456 124.092 30.5148 126.68 30.58C126.18 31.12 126.28 31.46 126.32 34.42C126.32 39.92 126.2 39.92 126.64 40.42C126.785 40.5524 126.964 40.6412 127.157 40.6762C127.35 40.7111 127.548 40.6909 127.73 40.6177C127.912 40.5445 128.07 40.4214 128.185 40.2626C128.3 40.1037 128.367 39.9157 128.38 39.72C128.38 38.9 128.7 36.46 128.92 34.5C129.24 31.56 129.34 31.32 128.92 30.8C129.12 30.8 134.14 31.24 135.98 31.52C136.211 31.5056 136.432 31.4156 136.607 31.2638C136.783 31.1121 136.904 30.907 136.951 30.6799C136.999 30.4529 136.971 30.2165 136.871 30.0069C136.772 29.7974 136.606 29.6264 136.4 29.52C135.24 29.32 130.7 28.24 129.62 27.94C128.54 27.64 128.86 28.14 128.96 27.7C129.141 24.6227 129.141 21.5374 128.96 18.46C128.978 18.1763 128.89 17.8959 128.713 17.6739C128.535 17.4519 128.281 17.3043 128 17.26C127.719 17.26 127.449 17.3717 127.25 17.5705C127.052 17.7693 126.94 18.0389 126.94 18.32C126.94 19.08 126.16 26.32 126.2 27.24C126.204 27.4805 126.273 27.7154 126.4 27.92C125.46 27.74 119.68 27.36 119.64 27.36C119.359 27.2778 119.057 27.3106 118.8 27.4513C118.543 27.5919 118.352 27.8289 118.27 28.11C118.188 28.3911 118.221 28.6934 118.361 28.9503C118.502 29.2073 118.739 29.3978 119.02 29.48ZM44.9599 318.56C40.7799 316.56 34.6599 319.7 34.4399 324.56C34.4581 325.464 34.6542 326.355 35.0169 327.182C35.3795 328.01 35.9017 328.758 36.5536 329.384C37.2055 330.01 37.9744 330.502 38.8162 330.83C39.6581 331.159 40.5564 331.319 41.4599 331.3C48.5199 331.26 50.9399 321.3 44.9599 318.56ZM38.2999 322.56C40.7599 319.9 45.86 319.88 45.58 324.12C45.6715 324.966 45.4635 325.818 44.9921 326.527C44.5208 327.236 43.8158 327.757 43 328C39.06 329.32 35.8399 325.26 38.2999 322.6V322.56ZM70.3799 352.4C69.1999 352.18 64.4999 351.06 63.4199 350.74C63.1567 350.68 62.8832 350.68 62.6199 350.74C62.9047 347.494 62.9381 344.231 62.72 340.98C62.72 340.699 62.6083 340.429 62.4095 340.23C62.2107 340.032 61.9411 339.92 61.66 339.92C61.3788 339.92 61.1092 340.032 60.9104 340.23C60.7116 340.429 60.5999 340.699 60.5999 340.98C60.5999 341.3 60.4199 343.22 60.2599 344.98C59.7799 350.1 59.68 350.4 60.06 350.98C59.14 350.8 53.08 350.4 53.04 350.38C52.7673 350.331 52.4862 350.384 52.2508 350.53C52.0154 350.676 51.8425 350.904 51.7654 351.171C51.6883 351.437 51.7125 351.722 51.8334 351.971C51.9543 352.22 52.1633 352.416 52.4199 352.52C55.03 353.223 57.7172 353.599 60.4199 353.64C59.8399 354.2 59.96 354.64 60 357.64C60 363.32 59.9 363.32 60.34 363.74C60.4846 363.872 60.6637 363.961 60.8566 363.996C61.0495 364.031 61.2484 364.011 61.4303 363.938C61.6122 363.865 61.7697 363.741 61.8846 363.583C61.9996 363.424 62.0673 363.236 62.08 363.04C62.08 362.18 62.4199 359.68 62.6399 357.66C62.9599 354.7 63.0999 354.36 62.6399 353.8C62.9799 353.8 67.84 354.24 69.98 354.56C70.1218 354.586 70.2674 354.584 70.4085 354.554C70.5496 354.524 70.6833 354.467 70.8022 354.385C70.9211 354.303 71.0227 354.199 71.1012 354.078C71.1797 353.957 71.2337 353.822 71.26 353.68C71.2862 353.538 71.2843 353.393 71.2543 353.251C71.2243 353.11 71.1668 352.977 71.085 352.858C71.0033 352.739 70.899 352.637 70.778 352.559C70.657 352.48 70.5218 352.426 70.3799 352.4ZM70.82 142.38C71.72 139.46 73.56 133.9 73.76 133.44L78.98 137.44C79.1136 137.532 79.267 137.591 79.4277 137.613C79.5885 137.636 79.7522 137.62 79.9057 137.567C80.0593 137.515 80.1984 137.427 80.312 137.311C80.4256 137.195 80.5105 137.055 80.5599 136.9C83.3799 129.9 83.72 129.24 83.86 129.04C84.46 128.64 88.22 131.76 89.28 132.02C89.5396 132.086 89.8144 132.052 90.051 131.927C90.2875 131.801 90.4689 131.592 90.56 131.34C91.54 128.98 95.0599 120.78 96.1199 118.34C98.2599 120.34 98.4399 120.74 98.8799 120.54C99.3199 120.34 99.2 120.74 98.66 110.96C98.655 110.865 98.623 110.773 98.5678 110.696C98.5126 110.618 98.4364 110.558 98.3482 110.523C98.26 110.487 98.1635 110.477 98.0699 110.494C97.9763 110.512 97.8896 110.555 97.8199 110.62C91.1599 116.98 91.3199 116.62 91.4799 117.08C91.6399 117.54 91.8399 117.4 94.1799 117.54C93.2399 119.74 90.1799 126.78 89.0399 129.54C88.2132 129.111 87.4521 128.565 86.7799 127.92C86.3724 127.476 85.8616 127.14 85.2929 126.941C84.7242 126.742 84.1152 126.687 83.5199 126.78C81.9399 127.18 81.8599 128.06 79.0999 134.88C74.8599 131.78 74.2599 131.18 73.1999 131.44C72.1399 131.7 72.02 132.5 70.36 138.6C69.34 142.32 69.1999 142.36 69.5599 142.76C69.6544 142.858 69.774 142.928 69.9056 142.962C70.0372 142.996 70.1757 142.994 70.3059 142.954C70.4361 142.915 70.5529 142.841 70.6436 142.739C70.7343 142.638 70.7953 142.514 70.82 142.38ZM29.26 120.3C30.2 120.3 62.6399 118.88 65.0999 118.84C65.2962 118.84 65.4844 118.762 65.6232 118.623C65.762 118.484 65.8399 118.296 65.8399 118.1C65.8399 117.904 65.762 117.716 65.6232 117.577C65.4844 117.438 65.2962 117.36 65.0999 117.36C55.7599 117.36 30.4 117.86 29.1 118.08C27.8 118.3 28 120.2 29.26 120.3ZM25.54 132.74C26.86 133.1 61.9599 130.38 65.1399 130.2C65.2878 130.174 65.4216 130.096 65.518 129.981C65.6144 129.866 65.6673 129.72 65.6673 129.57C65.6673 129.42 65.6144 129.274 65.518 129.159C65.4216 129.044 65.2878 128.966 65.1399 128.94C59.5399 129.22 26.34 130.32 25.54 130.64C25.3162 130.71 25.1205 130.849 24.9816 131.038C24.8427 131.227 24.7678 131.456 24.7678 131.69C24.7678 131.924 24.8427 132.153 24.9816 132.342C25.1205 132.531 25.3162 132.67 25.54 132.74ZM29.84 142.3C29.5376 142.3 29.2476 142.42 29.0338 142.634C28.8201 142.848 28.7 143.138 28.7 143.44C28.7 143.742 28.8201 144.032 29.0338 144.246C29.2476 144.46 29.5376 144.58 29.84 144.58C34.22 144.78 61.6999 144.2 65.3799 144.18C65.5709 144.18 65.754 144.104 65.8891 143.969C66.0241 143.834 66.0999 143.651 66.0999 143.46C66.0999 143.269 66.0241 143.086 65.8891 142.951C65.754 142.816 65.5709 142.74 65.3799 142.74C60.3399 142.7 32.5 142.18 29.84 142.3Z" fill="#194770"/>
<path d="M300.44 50.4401H304.2C304.2 50.4401 304.7 50.4401 304.7 50.9401V73.7601C304.7 73.7601 304.7 74.2601 304.2 74.2601H300.44C300.44 74.2601 299.94 74.2601 299.94 73.7601V50.9401C299.94 50.9401 299.94 50.4401 300.44 50.4401Z" fill="#194770"/>
<path d="M308.94 47.94H312.7C312.7 47.94 313.2 47.94 313.2 48.44V73.76C313.2 73.76 313.2 74.26 312.7 74.26H308.94C308.94 74.26 308.44 74.26 308.44 73.76V48.44C308.44 48.44 308.44 47.94 308.94 47.94Z" fill="#194770"/>
<path d="M317.44 59.78H321.2C321.2 59.78 321.7 59.78 321.7 60.28V73.76C321.7 73.76 321.7 74.26 321.2 74.26H317.44C317.44 74.26 316.94 74.26 316.94 73.76V60.28C316.94 60.28 316.94 59.78 317.44 59.78Z" fill="#194770"/>
<path d="M329.7 45.78H326C325.28 45.78 325.5 44.1 325.5 73.78C325.5 73.9126 325.553 74.0398 325.646 74.1336C325.74 74.2273 325.867 74.28 326 74.28H329.74C330.48 74.28 330.24 75.96 330.24 46.28C330.24 46.2108 330.226 46.1424 330.198 46.079C330.171 46.0155 330.13 45.9585 330.08 45.9115C330.029 45.8645 329.969 45.8286 329.904 45.8059C329.838 45.7833 329.769 45.7745 329.7 45.78Z" fill="#194770"/>
<path d="M291.16 108.7C293.833 102.765 296.976 97.0537 300.56 91.62C303.32 87.62 308.7 87.4 313.64 87.76C316.74 87.92 375.64 89.34 378.82 89.08C386.04 88.5 389.4 87.08 389.78 79.6C389.88 77.7 390.06 42.92 389.78 41.02C389.14 36.4 385.1 35.7 381.44 35.02C376.34 34.16 304.36 34.16 301.1 34.36C293.22 34.82 288.54 36.8 287.6 44.36C287.42 45.86 288.64 105.7 288.9 108.36C288.906 108.633 289.009 108.895 289.19 109.1C289.37 109.305 289.617 109.439 289.887 109.48C290.157 109.52 290.433 109.465 290.666 109.322C290.899 109.179 291.074 108.959 291.16 108.7ZM387.66 41.32C387.94 42.82 387.78 76.76 387.66 78.72C387.66 82.86 386.86 85.24 383.1 86.44C379.7 87.52 320.7 85.86 314.24 85.52C308.82 85.16 303.24 85.14 299.58 89.14C296.333 93.6554 293.418 98.4013 290.86 103.34C290.76 95.34 289.6 50.06 289.6 49.6C289.46 42.4 290.06 38.64 296.88 37.22C302.6 36.02 364.36 36.6 371.82 36.64C375.04 36.64 384.8 36.74 386.98 39.5C387.311 40.0622 387.542 40.6782 387.66 41.32Z" fill="#194770"/>
<path d="M379.56 48.76C379.56 48.76 339.92 48.76 337.94 48.88C337.681 48.9155 337.444 49.0434 337.273 49.2401C337.101 49.4368 337.007 49.689 337.007 49.95C337.007 50.211 337.101 50.4632 337.273 50.66C337.444 50.8567 337.681 50.9846 337.94 51.02C342.7 51.18 377.06 50.22 379.54 50.18C379.708 50.1542 379.862 50.0695 379.974 49.9411C380.086 49.8127 380.148 49.6488 380.151 49.4785C380.153 49.3082 380.095 49.1426 379.987 49.011C379.879 48.8795 379.727 48.7906 379.56 48.76ZM377.82 60.5C373.18 60.5 382.12 60.7 345.18 60.64H338.26C337.966 60.6779 337.696 60.8216 337.5 61.0443C337.304 61.267 337.196 61.5534 337.196 61.85C337.196 62.1466 337.304 62.433 337.5 62.6557C337.696 62.8784 337.966 63.0221 338.26 63.06C343.24 63.26 373.84 62.08 377.86 61.9C378.046 61.8947 378.222 61.8159 378.349 61.6808C378.477 61.5458 378.545 61.3657 378.54 61.18C378.535 60.9944 378.456 60.8184 378.321 60.6909C378.186 60.5634 378.006 60.4947 377.82 60.5ZM374.94 72.2C373.32 72.2 338.94 71.7 337.08 71.84C336.783 71.84 336.498 71.958 336.288 72.168C336.078 72.3781 335.96 72.663 335.96 72.96C335.96 73.2571 336.078 73.5419 336.288 73.752C336.498 73.962 336.783 74.08 337.08 74.08C339.42 74.24 371.86 73.84 374.94 73.84C375.157 73.84 375.366 73.7536 375.52 73.5998C375.674 73.4461 375.76 73.2375 375.76 73.02C375.76 72.8025 375.674 72.594 375.52 72.4402C375.366 72.2864 375.157 72.2 374.94 72.2ZM312.58 337.66C309.036 337.903 305.655 339.243 302.907 341.493C300.158 343.744 298.178 346.794 297.24 350.22C296.646 352.581 296.605 355.046 297.119 357.426C297.632 359.805 298.687 362.034 300.202 363.94C301.717 365.845 303.65 367.376 305.852 368.413C308.055 369.45 310.466 369.966 312.9 369.92C315.29 369.919 317.65 369.392 319.814 368.377C321.977 367.361 323.89 365.881 325.418 364.043C326.945 362.205 328.049 360.053 328.65 357.74C329.252 355.427 329.337 353.01 328.9 350.66C328 342.52 320.82 337.2 312.58 337.66ZM312.16 355.66L326.9 355.98C324.9 369.56 304.9 372.2 299.82 359.02C299.044 356.991 298.763 354.805 298.999 352.646C299.236 350.486 299.983 348.413 301.18 346.6C302.331 344.753 303.863 343.173 305.674 341.965C307.484 340.758 309.532 339.952 311.68 339.6V355.16C311.694 355.279 311.75 355.388 311.839 355.469C311.927 355.55 312.041 355.596 312.16 355.6V355.66Z" fill="#194770"/>
<path d="M388.56 332C386.56 328.5 382.32 328.16 378.86 327.88C368.68 327.06 308.46 329.58 305.24 328.66C302.663 327.744 300.522 325.896 299.24 323.48C314.02 314.58 325.24 301.26 336.44 287.24C339.011 284.412 340.615 280.84 341.02 277.04C342.3 268.72 343.24 261.04 343.94 253.64C345.48 237.64 347.12 217.04 341.94 200.58C336.76 184.12 324.48 171.28 309.42 167.44C309.42 166.64 309.14 132.98 308.6 132.06C267.36 82.2401 163.7 85.5401 112.74 112C112.717 110.858 112.59 109.719 112.36 108.6C110.9 103.2 108.06 102.26 102.7 102.26C88.28 102.26 23.72 104.26 20.52 104.7C6.74002 106.7 9.32002 115.72 10.4 143.28C10.68 150.48 11.04 155 19.36 156.78C21.2 157.22 63.12 156.6 65.1 156.58C47.48 171.7 41.1 190.58 45.92 212.58C51.8 239.3 74.42 263.52 104.94 275.76C105.7 276.08 102.52 277.36 194.1 209.06C194.1 210 193.94 215.66 193.94 216.18C192.14 217.58 116.58 277.78 112.32 280.94C112.251 280.994 112.196 281.064 112.161 281.144C112.126 281.225 112.112 281.313 112.12 281.4C112.12 281.94 112.62 292.36 112.64 292.58C112.65 292.668 112.683 292.751 112.736 292.822C112.789 292.893 112.86 292.948 112.941 292.983C113.022 293.017 113.111 293.03 113.199 293.019C113.287 293.008 113.37 292.974 113.44 292.92L196.64 224.62C226.64 211.04 304.34 171.32 308.48 169.22C334.68 176.28 345.34 205.38 342.04 229.22C331.8 292 251.6 309.6 227.28 313.48C192.82 317.84 140.46 314.18 106.76 295.9C106.46 283.78 106.44 284.16 106.04 284C80.34 273.82 58.04 262.58 44.8 228.34C44.7555 228.235 44.6764 228.149 44.576 228.095C44.4755 228.041 44.3597 228.023 44.2476 228.044C44.1356 228.065 44.0341 228.124 43.96 228.21C43.8859 228.297 43.8435 228.406 43.84 228.52C43.84 241.44 43.46 245.58 43.84 251.62C44.74 267.52 44.92 277.62 50.12 288.28C76.6 340.28 193.32 379.64 288.12 329.56C287.7 346.56 287.52 366.8 287.52 367.1C287.32 373.96 287.88 380.26 296.66 381.88C302 382.46 320.88 382.74 339.54 382.74C383.42 382.74 388.74 382.74 389.92 375.82C391.2 367.84 390.4 335.14 388.56 332ZM135.14 309.24C173.32 318.98 210.84 320.2 243.66 312.72C275.24 305.08 329.3 285.34 342.66 238.4C341.942 251.981 340.493 265.514 338.32 278.94C337.924 280.677 337.183 282.316 336.14 283.76C325.72 297.98 313.58 312.1 298.14 321.76L297.8 321.2C290.06 309.2 291.8 307.2 289.9 307.38C289.63 307.407 289.378 307.528 289.188 307.722C288.998 307.916 288.882 308.17 288.86 308.44C288.5 311.76 288.22 318.92 288 327.12C260.352 341.363 229.901 349.326 198.82 350.439C167.739 351.552 136.796 345.789 108.2 333.56L106.78 298.44C115.42 303.62 125.5 306.7 135.14 309.24ZM387.64 375.64C387.28 377.42 386.96 378.04 384.92 378.7C382.835 379.361 380.681 379.784 378.5 379.96C374.2 380.38 304.7 380.38 301.26 380.2C291.86 379.66 290.14 376.72 289.76 371.02C289.76 369.74 290.58 323.76 290.88 313.4C293.06 317.64 297.64 325.14 298.74 326.64C302.2 331.3 307.2 331.68 312.96 331.42C315.3 331.32 374.96 329.42 378.38 329.76C381.22 330 386.56 330.42 386.9 333.1C390.1 357.54 388 373.7 387.64 375.64ZM112.96 141.44C127.48 149.78 189.6 186.96 193.9 189.44C193.9 191.34 194.04 205.44 194.06 206.7C177.7 197.16 126.94 166.96 112.88 158.44C112.86 154 112.9 147.58 112.96 141.44ZM196 189.64C202.46 186.38 297.78 138.84 306.98 134.3C306.86 145.4 306.68 156.62 307.22 167.52C297.9 172.16 226.12 206.44 196.12 220.1C196.1 215.58 196.12 193.82 196 189.64ZM194.88 187.64C189.7 184.28 123.14 144.8 112.88 139.06C112.88 129.52 112.98 120.26 112.88 114.42C150.22 96.9601 190.22 90.9201 234.74 98.1601C257.6 101.86 288.48 110.82 306.38 132.38C294.98 137.5 200.82 184.62 194.88 187.62V187.64ZM13 148.22C12.78 146.38 12 127.46 11.82 123.4C11.572 119.833 11.8415 116.25 12.62 112.76C12.9028 111.531 13.5162 110.402 14.3939 109.496C15.2717 108.59 16.3803 107.942 17.6 107.62C20.96 106.9 80.78 104.48 105.6 104.48C108.92 104.48 110.18 107.6 110.64 110.22C111.06 112.22 110.8 170.88 110.8 171.08C95.58 152.32 96.3 153.5 96.06 153.5C47.9 154.66 23.82 155.32 20.76 154.7C17 154 13.54 152.74 13 148.22Z" fill="#194770"/>
<path d="M336 341.42C338 341.54 361.42 341.42 373.28 341.42C373.458 341.391 373.62 341.299 373.736 341.162C373.853 341.025 373.917 340.85 373.917 340.67C373.917 340.49 373.853 340.315 373.736 340.178C373.62 340.041 373.458 339.949 373.28 339.92C368.52 339.78 338.76 339.02 335.98 339.24C335.735 339.3 335.518 339.441 335.363 339.641C335.208 339.84 335.125 340.086 335.127 340.338C335.13 340.59 335.217 340.834 335.376 341.031C335.534 341.227 335.754 341.364 336 341.42ZM335.04 355.64C335.04 355.64 373.04 353.2 374.38 353.14C374.492 353.158 374.606 353.152 374.715 353.121C374.823 353.091 374.924 353.037 375.01 352.964C375.096 352.891 375.165 352.8 375.213 352.697C375.26 352.595 375.285 352.483 375.285 352.37C375.285 352.257 375.26 352.145 375.213 352.043C375.165 351.94 375.096 351.849 375.01 351.776C374.924 351.703 374.823 351.649 374.715 351.619C374.606 351.588 374.492 351.582 374.38 351.6C350.38 352.5 337.06 353.1 335.08 353.34C333.62 353.52 333.58 355.64 335.04 355.64ZM374.94 364C374.94 364 335.88 364.8 332.74 365.04C332.443 365.04 332.158 365.158 331.948 365.368C331.738 365.578 331.62 365.863 331.62 366.16C331.62 366.457 331.738 366.742 331.948 366.952C332.158 367.162 332.443 367.28 332.74 367.28C332.74 367.28 373.56 365.76 374.92 365.74C375.129 365.711 375.32 365.608 375.459 365.45C375.598 365.292 375.676 365.089 375.678 364.879C375.681 364.668 375.607 364.464 375.472 364.302C375.337 364.141 375.148 364.034 374.94 364Z" fill="#194770"/>
</svg>
