<svg width="400" height="400" viewBox="0 0 400 400" fill="none" xmlns="http://www.w3.org/2000/svg">
<path fill-rule="evenodd" clip-rule="evenodd" d="M107.78 358.308C53.0818 365.108 -1.16745 374.254 11.994 374.254C12.0854 375.094 16.082 374.438 26.693 372.694C40.4734 370.428 65.4094 366.328 107.435 361.294C107.539 360.202 107.668 359.178 107.78 358.308ZM167.956 354.712C206.028 350.938 252.808 346.91 310.068 342.898C322.204 342.048 323.29 342.008 323.404 341.654C323.416 341.616 323.418 341.576 323.42 341.532C323.494 340.086 320.558 340.276 314.1 340.696C312.576 340.796 310.856 340.908 308.932 341.014C275.388 342.868 221.686 346.816 166.594 352.01C166.576 352.558 166.555 353.126 166.53 353.714C166.498 354.474 166.537 354.48 167.67 354.664C167.758 354.678 167.853 354.694 167.956 354.712Z" fill="#194770"/>
<path d="M352.698 155.394C351.972 155.314 351.638 154.764 352.026 154.158C352.548 153.344 352.97 153.022 356.584 151.226C356.626 151.206 382.906 138.224 384.51 138.23C384.878 138.23 384.82 138.636 384.748 138.718C383.92 139.668 356.61 155.826 352.698 155.394Z" fill="#194770"/>
<path d="M390 198.005C390.15 199.663 372.304 196.949 370.772 196.761C362.546 195.745 360.884 196.489 359.634 195.449C358.986 194.911 359.714 193.779 360.532 193.585C368.1 191.799 389.978 197.775 390 198.005Z" fill="#194770"/>
<path d="M350.02 101.692C350.984 100.51 351.072 100.28 351.42 100.552C351.816 100.862 351.814 100.794 336.59 125.626C335.808 126.9 334.768 128.032 333.866 126.838C331.69 123.96 347.676 104.568 350.02 101.694V101.692Z" fill="#194770"/>
<path d="M357.382 233.88C360.8 235.032 367.932 240.242 376.402 246.25C376.466 246.294 377.22 246.704 377.032 246.948C375.514 248.916 357.208 237.038 356.24 235.598C355.718 234.82 356.052 233.894 357.38 233.882L357.382 233.88Z" fill="#194770"/>
<path fill-rule="evenodd" clip-rule="evenodd" d="M68.3064 152.867C49.2326 154.397 40.236 155.707 35.414 157.197C29.24 159.105 23.862 164.921 24.218 173.331C25.062 193.327 41.83 298.69 45.866 320.614C46.1618 322.222 46.4088 323.728 46.6408 325.142C47.5984 330.98 48.3024 335.272 51.134 338.774C53.39 341.564 57.228 344.182 62.856 345.596C65.4694 346.252 67.4528 346.078 71.694 345.708C72.672 345.624 73.7706 345.528 75.024 345.428C75.045 345.426 82.0294 344.9 89.0184 344.374L89.033 344.372C96.027 343.844 103.021 343.316 103.042 343.314C103.657 343.252 104.221 343.194 104.739 343.14C110.193 342.574 110.475 342.544 110.314 343.188C109.14 347.92 108.514 352.634 107.854 357.738L107.827 357.948C107.302 361.992 106.251 370.086 109.404 371.744C113.119 373.7 116.24 375.41 118.94 376.892C126.171 380.856 130.38 383.162 134.872 384.066C141.127 385.324 147.929 383.858 164.206 380.352C166.098 379.944 168.119 379.508 170.282 379.046C195.284 373.706 195.632 373.512 195.802 370.954C195.833 370.482 195.898 369.97 195.965 369.444C196.258 367.116 196.59 364.488 194.278 363.584L194.245 363.57C193.723 363.332 187.068 360.304 173.578 356.102C170.394 355.112 168.635 354.824 167.67 354.666C166.537 354.482 166.498 354.476 166.53 353.716C166.856 346.038 166.534 341.798 166.046 338.594C165.946 337.932 166.152 337.93 166.945 337.928C167.261 337.926 167.67 337.924 168.19 337.88C168.98 337.814 170.069 337.724 171.399 337.614L171.423 337.612L171.424 337.61C182.207 336.714 208.734 334.508 220.266 333.076C222.2 332.838 224.074 332.606 225.894 332.38C266.406 327.368 278.932 325.82 282.142 319.522C283.578 316.704 283.148 312.936 282.528 307.48C282.448 306.786 282.366 306.064 282.284 305.312C280.81 291.806 274.758 253.516 268.642 218.862C265.278 217.544 261.686 216.778 257.778 216.814C263.686 251.72 269.096 287.052 269.098 287.078C262.524 287.588 249.532 288.92 231.598 290.758L231.596 290.76C194.266 294.588 135.52 300.612 68.66 305.972C67.9182 306.032 63.103 277.352 57.7508 245.472C52.8302 216.164 47.456 184.152 44.376 169.287C44.2194 168.53 44.3006 168.524 46.2368 168.389C46.525 168.369 46.8544 168.346 47.23 168.317C55.2052 167.706 63.047 167.131 70.734 166.59C69.7426 161.057 68.9476 156.617 68.3064 152.867ZM161.828 161.219C212.222 158.819 244.228 158.253 244.23 158.279V158.281C244.604 158.281 244.922 158.274 245.194 158.269C246.006 158.252 246.414 158.244 246.66 158.439C246.906 158.636 246.99 159.039 247.156 159.847C247.21 160.112 247.274 160.42 247.354 160.779C248.258 164.791 249.26 169.667 250.322 175.14C252.256 173.52 254.114 171.641 255.868 169.39C256.768 168.234 257.6 167.044 258.376 165.826C257.464 161.865 256.664 158.768 256.012 156.771C252.53 146.106 248.596 146.212 237.094 146.522C235.868 146.555 234.554 146.59 233.148 146.615V146.619C230.686 146.662 227.026 146.692 222.358 146.73C208.672 146.841 186.323 147.021 160.119 147.83C160.25 148.851 160.377 149.857 160.501 150.837C160.649 152.005 160.791 153.134 160.93 154.201C161.256 156.705 161.554 159.04 161.828 161.219ZM280.386 308.332C280.296 307.134 279.886 304.424 279.644 302.828C279.606 302.584 279.574 302.366 279.546 302.182C279.468 301.658 279.408 301.206 279.356 300.818C279.186 299.558 279.11 298.982 278.792 298.772C278.524 298.594 278.088 298.674 277.286 298.818C276.344 298.988 274.896 299.248 272.624 299.292C272.622 299.292 272.62 299.294 272.612 299.294C272.51 299.316 271.376 299.544 252.172 301.56C125.694 314.846 81.5208 317.83 66.2098 318.866C58.6036 319.38 58.1204 319.412 58.208 319.986C58.37 321.044 58.758 323.308 59.168 325.7C59.3256 326.62 59.4678 327.58 59.6126 328.556C60.6574 335.608 61.8346 343.55 69.924 343.764C74.378 343.882 197.448 332.452 210.916 330.998C218.19 330.214 224.716 329.53 230.57 328.916C266.162 325.184 276.896 324.058 279.756 318.716C280.992 316.408 280.758 313.314 280.424 308.882C280.41 308.702 280.396 308.518 280.382 308.332H280.386ZM164.258 338.966C164.253 338.006 163.802 338.102 163.224 338.226C163.058 338.262 162.883 338.3 162.704 338.314C141.072 340.198 128.729 341.182 121.677 341.744C113.096 342.428 112.352 342.488 112.244 342.782C112.234 342.81 112.229 342.84 112.224 342.872C111.174 349.786 110.989 352.146 110.295 360.998L110.126 363.15C110.045 364.188 109.96 365.06 109.889 365.8C109.57 369.106 109.509 369.736 111.108 370.46C112.922 371.286 112.944 371.296 114.128 371.908H114.129C114.899 372.306 116.16 372.956 118.724 374.248C122.593 376.2 125.552 377.734 127.86 378.928C133.718 381.962 135.375 382.82 137.04 382.834C137.697 382.838 138.355 382.712 139.273 382.536C139.8 382.436 140.414 382.318 141.162 382.198C145.518 381.506 177.408 375.78 191.6 372.506L191.747 372.474C192.852 372.22 194.284 371.894 194.336 370.886C194.386 369.906 194.449 369.104 194.501 368.452C194.619 366.952 194.674 366.248 194.367 366.008C194.095 365.794 193.539 365.944 192.493 366.224C191.959 366.368 191.297 366.546 190.48 366.726C151.748 375.314 145.222 376.478 139.118 376.338C137.304 376.296 136.674 375.164 138.266 374.876C192.192 365.098 192.241 365.072 192.786 364.782L192.806 364.77C191.433 363.598 179.058 359.94 173.84 358.398C172.643 358.046 171.823 357.802 171.598 357.726C170.571 357.382 169.688 357.136 168.93 356.922C167.413 356.498 166.392 356.21 165.704 355.568C164.288 354.246 164.283 351.412 164.268 342.742C164.266 341.59 164.264 340.336 164.258 338.966ZM28.07 164.515C25.5142 167.971 25.6496 170.824 25.7988 173.965C25.8164 174.339 25.8344 174.717 25.848 175.101C26.166 184.103 43.694 297.044 49.07 327.292C50.132 333.262 50.75 336.102 55.486 339.882C58.268 342.104 61.388 343.496 63.08 343.482C62.8556 342.896 62.5448 342.534 62.1662 342.092C61.1216 340.874 59.5602 339.054 57.866 330.248C51.524 297.282 34.718 192.957 32.346 169.513C31.858 164.683 33.064 161.855 33.838 160.485C34.966 158.487 30.76 160.873 28.068 164.513L28.07 164.515Z" fill="#194770"/>
<path d="M165.09 320.49C165.19 317.022 168.182 313.944 171.836 314.028C179.402 314.2 180.63 326.36 172.346 327.216C168.782 327.584 164.948 325.336 165.09 320.49ZM167.188 320.636C167.162 322.678 168.758 325.504 171.574 325.172C174.754 324.798 176.052 322.014 175.61 319.75C174.482 313.98 167.25 315.71 167.188 320.636Z" fill="#194770"/>
<path d="M118.29 347.416C117.924 366.224 115.984 365.684 117.484 366.214C122.48 367.982 132.818 373.47 133.132 373.992C135.02 377.132 119.158 369.256 116.698 368.04C115.516 367.456 115.086 366.59 115.194 365.374C115.274 364.492 114.796 354.386 116.414 344.528C116.488 344.072 116.77 343.516 117.3 343.558C118.374 343.644 118.33 345.376 118.29 347.414V347.416Z" fill="#194770"/>
<path d="M159.88 356.94C159.88 357.304 159.764 357.388 157.816 357.746C154.056 358.44 129.564 362.372 124.492 362.988C123.456 363.114 122.992 363.336 122.082 362.88C118.314 360.994 159.884 354.872 159.88 356.94Z" fill="#194770"/>
<path d="M242.184 63.5562C240.204 63.6682 239.422 62.0102 241.306 60.3482C243.098 58.7682 253.83 49.1822 253.872 49.1442C255.212 47.9402 256.634 49.2902 255.952 50.4522C254.126 53.5642 252.778 54.9142 254.74 54.1702C257.018 53.3062 296.306 35.2422 298.8 34.1802C300.972 33.2562 300.992 33.1322 301.098 32.4542C301.218 31.6862 302.67 25.9502 302.718 25.5702C302.802 24.9142 302.944 24.5302 303.804 23.9962C305.238 23.1042 320.692 16.5623 321.574 16.1643C323.24 15.4103 323.202 15.4303 323.524 15.5703C324.642 16.0623 324.488 16.3503 324.154 17.0483C323.956 17.4623 322.65 21.9822 322.35 23.0682C322 24.3342 321.172 25.0862 323.574 24.1162C325.446 23.3602 326.218 25.3362 326.708 27.2442C326.816 27.6662 326.328 28.5482 325.88 28.7982C324.002 29.8482 323.39 29.7022 326.018 31.0282C335.872 36.0062 336.236 33.4802 316.678 41.5182C311.28 43.7362 311.57 43.9902 310.152 43.1022C309.66 42.7922 307.81 41.7142 303.878 39.2842C302.796 38.6162 302.734 38.6622 301.81 39.0162C300.174 39.6442 255.574 57.1622 255.666 58.3962C255.704 58.9042 257.514 58.9302 259.292 59.9962C260.324 60.6142 259.96 62.0642 258.736 62.2182C255.156 62.6722 243.426 63.4842 242.18 63.5542L242.184 63.5562Z" fill="#194770"/>
<path d="M166.276 41.9424C170.53 36.4784 180.572 31.5944 186.842 30.3464C212.814 25.1724 241.824 74.0724 236.144 104.362C234.762 111.732 232.414 118.324 226.302 122.856C222.446 125.714 214.702 129.284 211.334 130.25C190.576 136.202 159.864 102.44 159.864 64.8184C160.102 64.8184 158.95 51.3544 166.276 41.9424ZM213.1 44.3704C199.344 29.8864 180.52 26.7004 174.008 45.8364C166.43 68.1104 180.396 103.278 198.78 116.828C236.63 144.722 247.382 80.4664 213.1 44.3704Z" fill="#194770"/>
<path d="M214.278 114.517C197.97 114.537 181.694 85.7092 180.106 69.3132C179.726 65.3912 179.048 66.7992 179.68 55.8252C180.084 48.8032 184.25 40.8612 191.444 40.0472C215.536 37.3172 242 98.7612 220.026 113.035C218.038 114.327 215.13 114.417 214.278 114.517ZM215.054 75.4992C203.826 46.1232 182.076 54.5372 195.912 83.1352C207.404 106.889 223.796 98.3752 215.054 75.4992Z" fill="#194770"/>
<path d="M209.776 84.8776C208.046 87.5056 204.438 84.6816 202.574 81.9916C196.19 72.7716 198.038 64.5336 202.508 66.2936C207.776 68.3676 212.63 80.5476 209.776 84.8796V84.8776Z" fill="#194770"/>
<path d="M93.042 47.4066C95.188 53.8146 93.632 53.0686 100.002 52.3826C106.978 51.6306 104.572 52.1446 109.64 51.7686C111.006 51.6666 112.318 52.0106 113.638 52.2246C114.57 52.3746 115.17 53.1366 115.576 53.9666C117.228 57.3466 113.424 58.1466 109.72 59.1766C100.358 61.7766 97.67 61.4066 97.822 62.2346C98.05 63.4586 97.932 62.9566 100.366 70.8326C101.72 75.2146 101.456 75.0346 102.63 74.8546C111.064 73.5666 114.594 73.5386 116.646 73.4586C120.292 73.3186 120.86 76.9886 120.38 78.0866C119.07 81.0886 104.782 83.9466 104.74 83.9606C104.108 84.1566 104.288 84.0526 105.472 88.5526C106.608 92.8726 109.28 104.027 109.536 106.979C109.864 110.743 103.59 111.887 101.494 108.417C98.46 103.393 96.292 95.2946 94.05 87.7546C93.74 86.7146 93.552 86.8986 93.148 86.9946C87.646 88.3046 90.794 87.5466 77.646 90.8126C76.618 91.0686 76.598 91.0466 76.732 91.7526C81.148 115.165 82.944 117.313 75.492 119.115C73.212 119.667 71.256 117.715 70.696 115.803C69.06 110.201 66.518 97.2046 65.696 94.2386C65.558 93.7406 65.484 93.8886 60.354 95.3666C50.374 98.2426 48.444 99.5786 46.356 97.0826C45.608 96.1886 44.602 93.4406 44.552 91.6526C44.44 87.6766 54.388 85.4046 62.712 83.3186C63.514 83.1166 63.2 83.1846 62.026 78.0726L60.138 69.7346C59.866 68.4266 45.116 72.8086 41.644 72.0026C39.304 71.4586 38.24 67.9546 37.922 65.5726C37.422 61.8386 41.014 61.3486 44.768 60.5386C54.108 58.5226 57.66 59.0386 57.392 57.7446C56.812 54.9446 53.524 38.4786 53.332 35.9546C53.02 31.8526 53.036 29.7186 57.676 29.8226C62.338 29.9266 63.712 38.2626 68.608 55.8106C68.976 57.1306 69 56.3046 80.264 54.8786C83.794 54.4326 83.944 54.5486 83.836 54.0146C83.608 52.8826 83.158 52.5526 81.092 44.7106C78.238 33.8866 74.57 27.9406 78.916 26.2466C86.262 23.3826 86.638 28.2766 93.048 47.4086L93.042 47.4066ZM90.786 76.6606C90.752 76.4986 87.39 64.8046 87.378 64.7626C87.04 63.6226 87.304 64.1046 76.704 65.9606C71.332 66.9026 71.338 66.7166 71.516 67.5346C71.594 67.8946 71.552 67.5306 74.018 78.5006C74.356 80.0086 74.298 80.4206 74.9 80.2726C77.898 79.5306 88.96 77.0986 90.432 76.9966C90.566 76.9866 90.686 76.7586 90.788 76.6586L90.786 76.6606Z" fill="#194770"/>
<path d="M330.938 246.328C298.806 263.064 287.492 215.942 257.194 216.822C254.014 216.914 250.798 217.188 244.636 218.636C242.594 219.116 243.058 223.21 238.17 225.62C232.756 228.29 232.438 227.274 232.952 228.632C234.202 231.936 233.964 232.11 234.622 232.258C235.942 232.552 236.362 233.486 237.292 237.17C237.618 238.464 236.916 238.708 237.372 239.58C242.46 249.328 246.29 252.744 250.468 257.15C254.636 261.546 246.228 266.838 240.3 268.082C237.588 268.65 236.758 268.294 234.724 268.148C229.832 267.798 228.336 266.822 226.974 266.472C224.498 265.836 223.066 264.428 221.806 262.302C219.272 258.022 217.486 251.92 216.316 247.088C212.882 232.906 214.958 232.556 212.356 233.056C201.442 235.15 203.63 230.988 199.762 230.162C195.752 229.306 192.702 226.364 191.214 223.366C189.564 220.036 188.124 215.066 188.32 211.326C188.71 203.836 191.262 204.638 192.526 199.988C193.044 198.084 194.226 195.956 195.99 195.076C210.928 187.616 220.624 185.254 223.74 184.406C230.594 182.544 231.31 185.944 233.11 185.054C241.204 181.048 249.276 177.852 255.868 169.388C268.972 152.564 267.666 128.424 286.572 119.698C335.908 96.9265 375.242 223.25 330.936 246.324L330.938 246.328ZM233.32 218.544C237.832 220.72 255.572 207.504 276.184 219.898C283.842 224.502 285.55 228.428 281.648 221.478C261.956 186.386 267.178 156.586 266.508 155.01C264.552 157.362 262.82 172.878 242.066 183.58C228.778 190.432 225.016 189.75 223.974 192.674C221.31 200.142 225.072 214.568 233.318 218.544H233.32ZM343.388 171.456C333.014 136.216 310.892 113.83 292.39 120.24C286.29 122.354 281.262 127.756 278.166 135.618C272.042 151.166 273.228 171.252 276.416 184.566C287.576 231.17 314.376 251.354 331.654 242.282C351.13 232.056 349.776 193.156 343.388 171.458V171.456ZM200.728 226.602C205.73 232.938 207.198 232.324 210.358 231.494C231.014 226.06 230.606 226.306 231.002 226.014C230.446 225.282 225.532 224.72 220.382 215.19C216.15 207.358 214.63 195.956 219.334 188.53C220.054 187.394 221.088 186.82 200.652 194.846C198.968 195.506 197.18 196.086 196.244 197.402C191.618 203.91 194.906 219.232 200.726 226.602H200.728ZM233.508 241.26C231.824 241.436 229.23 234.56 230.58 233.432C231.594 232.584 231.812 232.696 231.624 232.004C230.68 228.52 231.052 228.324 230.366 228.524C225.4 229.978 225.592 229.722 225.658 230.58C226.134 236.746 235.884 257.722 240.066 263.398C240.856 264.47 241.532 264.906 242.986 264.092C244.44 263.278 245.768 262.55 247 261.532C250.148 258.932 248.816 260.132 243.854 254.422C241.142 251.302 239.806 249.096 236.394 243.464C234.71 240.686 235.512 240.702 233.508 241.262V241.26Z" fill="#194770"/>
<path d="M307.306 231.484C268.894 196.347 272.996 110.011 308.902 126.705C323.44 133.463 333.45 153.703 338.274 168.993C354.904 221.704 331.13 253.278 307.306 231.484ZM282.058 166.929C282.202 169.435 282.268 169.567 282.844 169.411C282.894 169.397 304.534 164.969 311.818 164.967C323.206 164.963 327.338 190.229 319.952 195.191C314.122 199.107 297.766 206.342 294.356 207.686C293.584 207.99 292.928 207.878 293.248 208.476C294.25 210.34 296.518 215.172 300.842 220.95C305.166 226.728 311.704 233.198 318.672 235.086C340.408 240.976 344.154 204.416 339.23 180.807C335.512 162.977 324.098 135.941 307.486 128.493C298.534 124.479 288.5 128.163 284.376 142.609C282.376 149.619 281.45 156.307 282.058 166.931V166.929ZM308.484 167.041C305.928 167.337 285.692 171.125 282.984 171.649C282.596 171.725 282.456 171.955 282.492 172.313C283.876 186.453 288.284 196.911 291.92 205.772C292.196 206.444 292.216 206.162 298.482 203.216C313.906 195.965 314.628 196.221 314.748 195.805C314.994 194.961 310.042 194.937 307.158 184.179C306.212 180.653 305.922 176.109 306.69 172.591C307.89 167.097 309.924 167.193 308.482 167.043L308.484 167.041ZM321.322 184.695C321.82 174.269 313.728 163.875 310.474 168.937C309.698 170.145 309.678 170.109 308.832 172.923C308.746 173.211 308.97 173.391 309.262 173.295C315.392 171.273 319.208 181.511 317.754 187.799C316.998 191.073 315.61 191.231 314.55 191.755C313.748 192.151 314.446 192.745 315.214 193.205C319.356 195.687 321.534 189.399 321.322 184.695Z" fill="#194770"/>
<path d="M321.956 276.398C318.312 271.884 307.292 279.456 310.848 282.818C314.62 286.386 326.02 285.116 331.718 291.608C335.59 296.02 335.932 302.338 331.138 307.532C330.028 308.736 329.474 308.786 329.848 309.742C330.598 311.668 331.402 314.086 330.658 315.532C329.688 317.42 327.008 318.018 325.616 315.786C324.414 313.86 324.208 311.888 323.394 312.114C320.746 312.846 315.826 312.564 313.072 311.006C310.816 309.73 310.582 307.016 311.36 305.584C312.67 303.168 314.03 304.142 316.272 304.894C319.338 305.922 322.906 306.718 325.768 304.118C328.286 301.828 329.568 299.314 327.664 296.31C323.594 289.89 307.59 293.168 304.542 283.464C303.334 279.62 305.784 275.494 308.978 273.042C310.382 271.964 310.606 271.844 310.39 271.346C308.974 268.086 307.626 265.584 311.602 264.704C313.256 264.338 314.38 266.454 315.048 268.012C315.598 269.294 315.616 269.722 316.618 269.55C325.642 268.002 329.802 276.91 325.816 278.322C322.788 279.396 322.674 277.286 321.956 276.396V276.398Z" fill="#194770"/>
<path d="M182.844 255.444C175.642 200.782 172.404 196.296 166.122 192.452C164.538 191.484 165.908 192.478 160.93 154.2C160.094 147.772 159.112 139.074 157.776 133.162C157.062 130 156.54 131.306 124.268 131.306C124.226 131.306 74.614 132.698 67.384 134.088C66.132 134.33 65.896 134.652 65.956 135.42C66.674 144.812 68.278 152.71 72.802 178.164C75.634 194.098 75.864 188.952 72.166 193.988C66.26 202.034 66.808 198.738 71.126 228.248C72.74 239.276 76.768 264.788 80.288 275.362C81.296 278.39 83.518 278.708 85.288 279.046C93.872 280.682 126.532 277.06 135.254 276.556C154.934 275.418 159.378 274.826 171.318 273.574C186.436 271.988 185.242 273.65 182.844 255.444ZM73.228 163.95C72.618 160.392 69.114 139.758 68.256 136.292C68.056 135.486 68.54 135.468 72.972 135.152C79.456 134.688 140.752 132.56 154.996 132.73C156.006 132.742 155.868 133.87 158.492 153.458C159.324 159.662 165.084 205.158 164.772 205.792C164.442 206.458 163.268 207.778 149.398 222.568C140.876 231.656 141.348 232.318 140.454 231.676C130.948 224.84 130.958 224.168 125.074 229.524C122.604 231.772 122.526 232.106 121.936 231.65C112.534 224.386 91.152 212.406 80.818 207.142C79.144 206.288 80.378 205.732 73.228 163.95ZM178.812 270.212C162.396 272.406 88.57 277.286 88.57 277.326C83.702 277.326 82.86 277.398 82.604 276.228C76.828 249.634 72.358 219.288 70.264 206.352C69.976 204.58 69.736 204.3 71.53 205.3C110.316 226.756 95.584 218.932 117.658 231.396C124.034 234.996 121.216 228.748 93.93 262.326C92.996 263.476 85.708 273.17 86.23 275.018C86.364 275.49 86.832 275.644 87.2 275.326C88.762 273.98 89.018 271.296 107.586 250.968C130.258 226.146 129.634 226.438 132.462 228.572C159.118 248.684 173.354 261.92 179.282 266.766C180.068 267.408 180.682 266.784 180.498 266.398C178.242 261.668 153.808 241.852 149.682 238.618C142.248 232.792 142.138 233.146 142.768 232.552C163.99 212.604 166.7 207.002 170.852 202.212C173.856 208.094 181.602 260.566 181.608 260.608C183.114 269.058 184.026 269.514 178.81 270.212H178.812Z" fill="#194770"/>
<path d="M89.352 166.639C85.086 166.639 85.806 166.687 81.256 154.959C79.516 150.477 78.782 149.169 80.428 148.873C81.172 148.739 81.38 149.215 81.606 149.645C82.404 151.165 81.626 149.999 103.258 148.663C106.588 148.457 102.28 146.135 108.622 145.367C109.926 145.209 111.246 145.179 112.558 145.095C114.242 144.987 115.056 148.055 112.386 148.229C107.256 148.561 107.39 148.271 107.24 149.207C105.326 161.121 106.066 165.441 103.51 165.603C98.418 165.929 89.366 166.719 89.352 166.639ZM97.64 152.205C97.64 151.433 97.72 151.281 96.47 151.383C90.472 151.867 90.542 151.629 90.734 152.481C91.578 156.235 91.548 156.253 92.204 156.207C98.616 155.765 97.646 156.595 97.638 152.205H97.64ZM88.784 156.587C89.318 156.575 89.746 156.391 89.636 155.865C88.802 151.877 89.256 151.997 88.178 152.035C82.134 152.247 82.668 151.931 83.408 153.743C85.368 158.551 83.872 156.705 88.784 156.587ZM97.616 160.735C97.616 157.409 98.26 157.985 93.414 158.299C92.524 158.357 92.054 158.311 92.256 159.223C93.506 164.815 92.36 163.451 97.144 163.125C97.758 163.083 97.616 162.857 97.616 160.735ZM91.212 163.203C89.888 157.935 90.74 158.659 88.588 158.679C85.384 158.709 85.42 158.571 85.656 159.189C87.96 165.265 87.08 163.975 90.702 163.729C91.066 163.705 91.204 163.557 91.212 163.203ZM101.184 155.563C103.276 155.363 103.988 155.479 104.07 154.649C104.468 150.677 104.53 150.733 103.618 150.773C98.288 150.997 99.35 150.743 99.486 154.261C99.544 155.757 99.286 155.585 101.182 155.565L101.184 155.563ZM99.53 160.297C99.53 162.657 99.388 162.875 100.17 162.891C103.328 162.955 103.14 162.641 103.258 161.341C103.596 157.611 103.826 157.627 102.924 157.665C98.968 157.829 99.532 157.581 99.532 160.297H99.53Z" fill="#194770"/>
<path d="M88.158 184.399C85.994 184.399 85.23 184.617 84.654 183.521C83.506 181.341 87.9 181.083 90.11 180.855C98.76 179.963 120.488 178.223 123.446 177.997C127.482 177.689 128.392 177.829 128.51 178.887C128.644 180.095 127.988 180.333 125.042 180.825C110.872 183.195 88.164 184.451 88.16 184.397L88.158 184.399Z" fill="#194770"/>
<path d="M92.974 203.826C91.244 203.826 89.882 204.094 89.49 202.778C88.664 200.004 97.1441 200.212 119.174 197.848C121.932 197.552 131.672 197.114 131.714 197.112C133.194 197.086 133.306 198.95 132.136 199.288C125.398 201.238 92.998 204.226 92.972 203.824L92.974 203.826Z" fill="#194770"/>
<path d="M132.76 169.589C132.074 170.383 130.9 169.965 131.052 168.857C131.298 167.061 140.892 147.413 144.734 142.555C145.698 141.335 146.44 142.663 146.23 143.365C144.756 148.289 134.808 167.221 132.762 169.587L132.76 169.589Z" fill="#194770"/>
<path d="M89.1357 193.367C88.0617 193.289 87.4017 192.197 87.8117 191.199C88.5737 189.347 93.7677 190.259 102.066 189.161C102.984 189.039 112.838 188.109 112.874 190.039C112.902 191.577 107.786 191.833 106.976 191.923C103.614 192.297 92.5137 193.617 89.1377 193.369L89.1357 193.367Z" fill="#194770"/>
<path d="M118.912 208.096C122.534 208.426 122.508 208.304 123.31 208.928C126.25 211.21 103.388 212.694 100.134 212.8C98.3881 212.858 97.8581 210.458 99.5961 209.892C101.794 209.176 118.912 208.138 118.912 208.096Z" fill="#194770"/>
<path d="M146.024 166.844C141.942 167.22 139.278 160.03 143.518 157.88C146.476 156.38 149.744 158.866 149.98 162.22C150.178 165.032 148.058 166.92 146.024 166.844ZM147.674 162.52C147.686 159.722 144.57 158.352 143.814 160.502C142.596 163.966 146.93 166.196 147.674 162.52Z" fill="#194770"/>
<path d="M134.41 151.91C134.586 154.158 132.346 156.238 130.158 155.712C125.236 154.528 125.892 147.954 129.582 147.294C131.964 146.868 134.544 148.936 134.412 151.91H134.41ZM130.324 149.35C129.576 149.322 128.762 150.206 128.778 151.034C128.802 152.254 129.798 153.508 130.762 153.536C133.118 153.606 132.504 149.434 130.324 149.35Z" fill="#194770"/>
<path d="M92.0338 168.747C93.7958 170.803 91.4618 173.969 89.4478 172.159C87.1218 170.071 89.7858 166.123 92.0338 168.747Z" fill="#194770"/>
<path d="M99.04 169.201C98.924 167.659 100.92 166.181 102.256 168.099C103.56 169.971 101.81 172.547 99.938 171.249C99.312 170.815 99.032 170.193 99.04 169.203V169.201Z" fill="#194770"/>
</svg>
