<svg width="400" height="400" viewBox="0 0 400 400" fill="none" xmlns="http://www.w3.org/2000/svg">
<path d="M309.468 354.352C293.372 336.316 293.848 336.546 293.128 336.538C230.296 335.776 173.816 338.906 98.3478 335.96C97.7738 335.938 98.1958 335.784 77.4978 353.684C76.8038 354.284 77.2218 355.426 78.1378 355.44C123.176 356.066 283.92 356.272 308.732 356.018C309.592 356.01 310.038 354.99 309.468 354.352ZM98.7018 337.966C173.864 339.01 230.134 339.178 292.696 338.544L298.744 345.33C240.134 346.084 155.568 345.794 91.0218 344.62L98.7018 337.966ZM80.7918 353.478L88.7598 346.578C129.764 347.342 278.324 347.602 300.506 347.306L306.51 354.04C242.194 354.67 152.232 354.446 80.7918 353.478Z" fill="#194770"/>
<path d="M232.582 377.128C232.38 377.128 197.506 375.862 154.4 376.348C153.546 376.3 153.158 375.474 153.524 374.844L160.872 362.25C161.048 361.948 161.368 361.76 161.716 361.754C183.612 361.338 205.802 361.722 227.682 362.898C228.07 362.918 228.41 363.162 228.556 363.522L233.508 375.752C233.774 376.41 233.29 377.132 232.582 377.128ZM231.078 375.078L226.942 364.862C205.506 363.724 183.774 363.348 162.318 363.744L156.142 374.33C181.57 374.072 209.202 374.38 231.08 375.08L231.078 375.078Z" fill="#194770"/>
<path d="M203.852 192.767C204.634 189.481 205.64 186.261 206.87 183.129C193.252 183.123 179.602 183.295 165.856 183.661C169.14 187.103 171.922 190.175 174.262 193.125C184.184 192.897 194.04 192.781 203.852 192.767Z" fill="#194770"/>
<path d="M306.234 277.324C306.958 251.544 306.29 225.44 303.538 196.24C302.988 190.4 298.156 185.764 292.3 185.456C267.72 184.164 243.446 183.39 219.13 183.184C217.594 186.274 216.332 189.492 215.346 192.8C237.914 192.96 260.322 193.668 282.896 194.856C287.224 195.084 290.796 198.51 291.202 202.826C293.86 231.034 294.354 256.006 293.43 281.084C297.814 280.316 302.108 279.064 306.234 277.324Z" fill="#194770"/>
<path d="M308.378 330.68C305.492 327.65 301.436 325.912 297.254 325.912H294.61C299.51 324.276 303.942 319.506 304.304 314.562C304.918 306.152 305.42 297.848 305.79 289.554C301.598 290.926 297.29 291.89 292.92 292.454C292.634 297.866 292.286 303.306 291.886 308.806C291.57 313.156 288.048 316.658 283.696 316.954C223.75 321.016 168.308 321.178 112.126 318.148C107.804 317.914 104.24 314.49 103.832 310.182C102.35 294.568 101.502 279.22 101.234 264.018C99.714 262.938 98.13 261.352 96.35 259.186C93.394 255.588 90.528 251.924 87.76 248.19C87.606 270.492 88.558 292.914 90.734 315.862C91.188 320.65 94.078 324.246 97.822 325.91H96.764C93.088 325.91 89.528 327.232 86.742 329.628L34.554 374.544C31.05 377.558 32.608 390.998 37.95 390.998H346.726C351.764 390.998 353.554 378.114 350.496 374.9L308.378 330.68ZM346.726 381.696H37.95C34.978 381.696 33.606 378.002 35.86 376.064L88.048 331.148C90.472 329.064 93.568 327.914 96.764 327.914H297.254C300.892 327.914 304.42 329.426 306.93 332.06L349.048 376.282C350.99 378.32 349.54 381.696 346.726 381.696Z" fill="#194770"/>
<path d="M197.342 20.3058C199.092 17.6657 202.666 16.9437 205.304 18.6937L227.2 33.2158C229.838 34.9658 230.562 38.5398 228.812 41.1778L225.55 46.0958L243.452 57.9698C240.118 44.5998 234.584 29.0258 227.814 14.9017C225.186 9.41972 222.934 8.46372 217.544 9.26572C204.992 11.1277 192.84 13.5937 181.148 16.6457L194.08 25.2238L197.342 20.3058Z" fill="#194770"/>
<path d="M224.988 36.5478L203.092 22.0258C202.294 21.4958 201.206 21.7138 200.674 22.5158L197.412 27.4338L222.214 43.8838L225.476 38.9658C226.008 38.1658 225.788 37.0798 224.986 36.5478H224.988Z" fill="#194770"/>
<path d="M192.996 73.7652L183.028 67.1532C181.84 66.3652 180.23 66.6913 179.44 67.8793L174.612 75.1593L154.816 62.0312C155.562 63.2993 156.308 64.5712 157.044 65.8492L173.534 76.7873C169.63 82.6733 169.762 82.4453 169.636 82.7293L172.308 82.2553C181.954 67.6893 181.158 68.7252 181.6 68.7252C181.712 68.7252 181.824 68.7572 181.924 68.8232C192.732 76.0092 192.072 75.4632 192.142 75.8072C192.196 76.0752 192.626 75.3912 187.942 82.4452C188.436 82.8572 188.894 83.3592 189.34 83.9612L193.722 77.3553C194.514 76.1633 194.188 74.5552 192.996 73.7652Z" fill="#194770"/>
<path d="M192.338 89.2587L204.388 97.2527L206.992 96.6367L190.418 85.6447C190.884 86.4667 191.906 88.4207 192.338 89.2587Z" fill="#194770"/>
<path d="M247.456 59.4264L173.278 10.2263C170.928 8.67032 167.756 9.31232 166.198 11.6603L144.544 44.3064L145.66 46.2424L167.864 12.7663C168.814 11.3343 170.738 10.9463 172.172 11.8943L246.35 61.0944C247.778 62.0404 248.168 63.9724 247.222 65.4004L230.602 90.4624C231.602 90.1664 232.602 89.8664 233.602 89.5584L248.892 66.5064C250.448 64.1604 249.804 60.9824 247.456 59.4264Z" fill="#194770"/>
<path d="M245.832 69.3054L232.964 88.7054C225.954 90.8174 214.97 93.8034 197.596 97.7994C195.74 93.7254 193.746 89.7054 191.614 85.7414C187.26 77.6534 183.222 79.3994 165.934 82.3654C162.976 73.1954 158.576 66.5694 145.716 44.3474L159.86 23.0214C152.136 25.6494 144.652 28.5554 137.43 31.7354C137.228 31.8234 137.112 31.8914 136.97 32.0934C126.398 46.9394 116.76 63.5394 108.32 81.4274C102.628 93.4994 104.648 98.4734 113.42 104.985C139.804 124.563 168.618 140.757 199.06 153.117C207.132 156.393 211.742 156.501 217.872 149.637C229.006 137.161 233.48 119.561 246.386 86.0374C247.66 82.7254 246.408 72.8054 245.832 69.3054ZM110.13 82.2814C118.28 65.0034 127.552 48.9414 137.706 34.5154C140.298 38.9414 151.014 57.5334 153.878 62.4114C157.666 68.8594 161.576 75.5154 163.94 82.7074C144.978 85.9754 125.944 89.5214 107.162 93.2814C106.872 89.6154 108.502 85.7354 110.13 82.2814ZM199.812 151.263C169.526 138.967 140.86 122.855 114.612 103.377C111.658 101.187 108.55 98.7494 107.522 95.2494C130.932 90.5614 154.74 86.2074 178.304 82.3094C186.174 81.0034 187.736 82.7514 189.852 86.6894C200.49 106.457 208.082 128.461 211.588 152.317C207.762 154.287 203.91 152.927 199.812 151.263ZM216.38 148.305C215.55 149.235 214.566 150.257 213.434 151.131C210.732 133.309 205.702 116.059 198.432 99.6594C214.59 95.9414 229.272 92.3794 243.776 87.2634C231.786 118.743 227.054 136.347 216.38 148.305Z" fill="#194770"/>
<path d="M103.946 162.447L101.522 158.431C101.244 157.971 100.646 157.821 100.182 158.099L82.306 168.887C81.846 169.165 81.696 169.765 81.974 170.227L84.396 174.241L103.944 162.445L103.946 162.447Z" fill="#194770"/>
<path d="M80.974 176.311L78.55 172.295C77.132 169.945 77.89 166.881 80.24 165.463L98.116 154.675C100.476 153.253 103.528 154.011 104.948 156.365L107.37 160.381L118.978 153.377C109.522 151.855 98.842 150.967 88.584 151.037C83.598 151.061 82.11 152.483 80.848 156.643C78.462 164.499 76.454 172.301 74.826 180.023L80.974 176.311Z" fill="#194770"/>
<path d="M82.038 220.996L64.074 191.307C63.186 189.837 63.658 187.927 65.128 187.041L124.246 151.365C125.712 150.479 127.628 150.953 128.512 152.419L143.444 177.163C143.612 176.143 143.776 175.121 143.932 174.099L130.226 151.387C128.77 148.977 125.628 148.197 123.214 149.653L64.096 185.331C61.68 186.789 60.902 189.925 62.362 192.343L79.766 221.184L82.038 220.996Z" fill="#194770"/>
<path d="M92.3998 220.148C96.0378 217.962 101.876 214.436 111.334 208.722L113.774 212.764C114.262 213.572 115.114 214.016 115.994 214.016C116.556 214.016 116.704 214.016 118.354 213.038C118.64 212 118.906 211.058 119.162 210.204C115.858 212.208 116.1 212.06 115.848 211.996C115.506 211.912 116.056 212.694 108.692 200.47C108.524 200.192 108.612 199.831 108.892 199.663C117.038 194.741 116.528 195.005 116.774 195.005C117.21 195.005 116.802 194.447 122.326 203.642C122.822 203.198 123.386 202.874 124.052 202.64L123.342 201.464L140.864 190.881C140.864 190.881 141.23 189.093 141.408 188.215L122.304 199.745L118.992 194.257C118.254 193.035 116.658 192.641 115.438 193.379L107.858 197.953C106.628 198.695 106.244 200.286 106.98 201.506L110.292 206.994L87.8718 220.524L92.3998 220.148Z" fill="#194770"/>
<path d="M182.168 204.116C176.984 191.851 165.834 182.617 146.09 161.893C146.038 161.839 145.984 161.795 145.926 161.755C143.05 159.711 138.126 157.707 131.874 156.055L142.888 174.307C141.552 182.969 139.718 191.655 137.684 200.926C134.178 200.878 130.664 200.944 127.144 201.126C122.782 201.348 120.39 202.398 118.438 209.23C117.568 212.278 116.704 215.338 115.848 218.402C107.678 217.366 101.666 218.482 80.3117 220.15L70.9077 204.568C70.2817 210.422 69.8917 216.208 69.7357 221.918C69.7317 222.096 69.7717 222.274 69.8617 222.432C76.9377 235.088 85.5877 247.666 95.5757 259.816C102.24 267.924 106.516 268.464 114.484 264.216C137.534 251.916 158.978 236.716 178.22 219.044C183.356 214.326 185.058 210.958 182.168 204.116ZM146.146 164.843C163.114 182.497 178.388 196.079 181.262 207.592C167.712 203.554 153.796 201.336 139.724 200.964C142.492 188.341 144.88 176.781 146.146 164.843ZM97.1197 258.548C87.5637 246.922 79.2397 234.902 72.3677 222.806C76.3137 222.46 93.0997 221.104 97.5837 220.704C103.416 220.182 109.434 219.646 115.304 220.348C111.248 234.926 107.362 249.65 103.71 264.272C101.12 263.204 98.9757 260.808 97.1197 258.548ZM176.866 217.572C157.748 235.13 136.444 250.232 113.542 262.452C111.074 263.77 108.384 265.126 105.644 264.788C110.224 246.448 115.174 227.946 120.362 209.776C122.082 203.752 123.794 203.3 127.248 203.12C145.368 202.192 163.646 204.322 181.566 209.774C181.614 213.044 179.31 215.328 176.866 217.572Z" fill="#194770"/>
<path d="M231.278 231.152L217.872 224.606L215.6 229.094L229.152 235.588L231.278 231.152Z" fill="#194770"/>
<path d="M232.76 237.314L240.31 240.932C238.848 237.664 237.152 234.266 235.286 230.892C235.358 232.274 234.966 232.71 232.76 237.314Z" fill="#194770"/>
<path d="M219.602 220.996C233.45 227.636 233.072 227.426 233.448 227.676C232.286 225.704 231.074 223.758 229.824 221.874C227.006 217.624 225.206 218.646 218.76 220.702C219.044 220.77 219.326 220.864 219.602 220.996Z" fill="#194770"/>
<path d="M242.978 243.32C244.524 244.062 245.18 245.92 244.438 247.466L236.604 263.812C236.7 263.9 236.798 263.988 236.894 264.074C237.668 263.724 238.438 263.368 239.206 263.006L246.24 248.33C247.464 245.778 246.382 242.736 243.842 241.518L214.742 227.572C214.95 228.412 215.176 229.25 215.416 230.086L242.978 243.32Z" fill="#194770"/>
<path d="M222.882 264.83L215.132 261.116C216.962 257.298 216.846 257.576 216.932 257.266C216.13 256.122 215.36 254.966 214.624 253.796L210.728 251.928C209.438 251.31 207.892 251.854 207.274 253.144L205.634 256.564L188.838 248.516C187.292 247.776 186.638 245.916 187.378 244.37L196.828 224.652C197.362 223.538 198.476 222.888 199.636 222.888C200.08 222.888 200.186 222.844 203.078 224.19C202.934 223.392 202.806 222.594 202.688 221.796L201.84 221.39C199.296 220.172 196.246 221.244 195.026 223.79C184.978 244.774 185.32 243.848 185.148 244.856C186.854 247.046 188.556 249.234 190.272 251.424L204.766 258.38L203.642 260.724C203.118 261.822 203.432 263.104 204.334 263.844C205.358 263.514 206.254 263.232 207.046 263.008L205.722 262.374C205.43 262.234 205.306 261.882 205.446 261.588L209.078 254.012C209.214 253.724 209.562 253.592 209.864 253.736L214.692 256.05C214.984 256.19 215.108 256.542 214.97 256.836L212.138 262.744C212.698 263.014 213.204 263.446 213.728 264.056L214.26 262.944C219.924 265.666 223.636 267.452 226.104 268.622C226.562 268.442 226.536 268.984 222.884 264.834L222.882 264.83Z" fill="#194770"/>
<path d="M239.596 279.47C237.734 287.384 235.562 294.396 232.248 298.408C229.402 289.074 225.404 280.208 220.316 271.936C222.632 271.05 224.89 270.178 227.104 269.298C226.586 268.788 226.072 268.268 225.564 267.742C223.654 268.502 221.552 269.324 219.232 270.21C212.194 259.208 212.644 260.172 200.406 264.068C197.998 259.244 195.054 255.918 186.178 244.56L192.548 231.268C188.214 233.43 184.052 235.744 180.074 238.202C179.926 238.29 179.798 238.42 179.708 238.592C174.952 247.728 170.856 257.768 167.534 268.434C165.214 275.878 166.9 278.684 172.424 281.7C197.47 295.368 223.86 302.56 228.086 302.56C231.182 302.56 233.05 300.92 234.778 298.34C237.876 293.714 239.542 288.312 241.33 280.596C240.748 280.228 240.17 279.854 239.594 279.472L239.596 279.47ZM168.57 274.688C168.33 272.882 168.874 270.858 169.444 269.028C172.564 259.008 176.372 249.552 180.774 240.892C194.062 257.764 196.42 260.668 198.476 264.682C188.468 267.888 178.444 271.24 168.568 274.688H168.57ZM224.568 299.988C206.742 295.494 189.52 288.75 173.382 279.942C171.66 279.002 170.046 278.036 169.2 276.586C181.744 272.206 194.526 267.978 207.212 264.016C211.342 262.724 212.15 263.54 213.516 265.402C220.976 275.582 226.836 287.15 230.606 299.896C228.814 301 226.626 300.506 224.568 299.988Z" fill="#194770"/>
<path d="M243.768 269.52C245.652 260.88 245.818 260.546 245.836 260.25C245.972 257.92 245.314 254.55 244.054 250.584L238.462 262.25C237.754 262.58 236.964 262.94 236.082 263.334C236.622 263.834 237.168 264.322 237.72 264.8C239.626 263.93 241.51 263.026 243.378 262.074C242.916 264.114 242.472 266.19 242.032 268.27C242.606 268.696 243.184 269.114 243.768 269.52Z" fill="#194770"/>
<path d="M365.524 310.596L333.988 273.126C360.338 246.076 360.796 200.752 333.928 168.83C305.46 135.008 256.938 128.842 225.762 155.08C187.168 187.532 191.604 236.212 217.422 266.888C244.49 299.048 290.154 306.474 321.584 283.76L353.026 321.116C354.486 322.852 356.584 323.748 358.694 323.748C361.614 323.748 363.132 322.284 364.63 321.024C367.752 318.396 368.152 313.716 365.524 310.596ZM222.38 262.716C193.75 228.698 197.586 181.412 227.05 156.61C257.734 130.786 304.966 137.526 332.396 170.118C360.152 203.096 358.056 250.694 327.724 276.224C297.394 301.754 250.136 295.69 222.38 262.716ZM363.34 319.494L362.164 320.482C359.888 322.398 356.472 322.106 354.556 319.828L323.19 282.564C324.94 281.22 330.022 277.008 332.566 274.544L363.992 311.884C365.91 314.162 365.616 317.574 363.34 319.494Z" fill="#194770"/>
<path d="M325.896 175.59C301.476 146.58 259.852 141.292 233.106 163.802C206.36 186.312 204.466 228.23 228.884 257.24C253.048 285.954 294.666 291.756 321.672 269.028C348.416 246.516 350.312 204.6 325.896 175.59ZM230.414 255.954C207.232 228.41 208.426 188.928 232.708 166.81C258.382 146.864 297.516 151.934 320.936 179.764C344.118 207.306 342.924 246.788 318.64 268.908C292.702 289.058 253.596 283.496 230.414 255.954Z" fill="#194770"/>
<path d="M264.46 163.949C270.716 164.309 276.656 163.699 286.946 167.007C311.19 174.801 326.21 194.777 328.676 217.624C330.158 231.35 326.818 239.458 326.182 243.636C326.044 244.542 327.252 245.236 327.77 244.306C330.948 238.596 331.7 227.094 331.294 220.572C329.67 194.479 313.128 173.973 290.424 165.939C283.194 163.381 271.81 161.293 264.324 162.953C263.742 163.083 263.91 163.919 264.458 163.951L264.46 163.949Z" fill="#194770"/>
</svg>
