<svg width="1300" height="1300" viewBox="0 0 1300 1300" fill="none" xmlns="http://www.w3.org/2000/svg">
<g clip-path="url(#clip0_118_1027)">
<path d="M627.293 -0.203095C628.721 -0.210118 630.148 -0.217205 631.576 -0.224351C636.113 -0.243751 640.65 -0.248785 645.187 -0.24997C646.347 -0.250633 646.347 -0.250633 647.531 -0.251309C670.114 -0.258077 692.53 -0.055949 714.97 2.75003C717.108 3.01336 719.248 3.26018 721.389 3.50394C791.024 11.4936 859.141 30.7128 922.468 60.8037C924.795 61.9032 927.132 62.977 929.477 64.0391C958.361 77.1915 985.922 93.978 1012 112C1012.77 112.531 1013.54 113.062 1014.33 113.609C1037.41 129.568 1059.5 147.19 1080.07 166.285C1081.94 168.016 1083.82 169.733 1085.71 171.434C1092.45 177.486 1098.9 183.795 1105.31 190.188C1106.58 191.453 1106.58 191.453 1107.88 192.744C1112.23 197.104 1116.43 201.531 1120.45 206.202C1122.69 208.801 1125.03 211.299 1127.38 213.813C1132.49 219.357 1137.27 225.121 1142 231C1143.02 232.241 1144.04 233.48 1145.06 234.719C1150.62 241.468 1156.1 248.277 1161.38 255.25C1161.86 255.87 1162.34 256.489 1162.84 257.128C1166.02 261.408 1166.02 261.408 1165.92 264.344C1164.69 266.557 1163.32 267.103 1161 268C1157.37 264.459 1154.01 260.767 1150.75 256.875C1150.27 256.304 1149.79 255.734 1149.29 255.146C1146.38 251.677 1143.52 248.163 1140.69 244.625C1136.4 239.352 1131.81 234.406 1127.14 229.477C1124.3 226.483 1121.53 223.465 1118.85 220.328C1114.23 215.01 1109.22 210.069 1104.23 205.1C1102.57 203.441 1100.91 201.776 1099.25 200.111C1093.67 194.53 1088.01 189.124 1082 184C1080.22 182.38 1078.45 180.756 1076.69 179.125C1072.28 175.106 1067.76 171.271 1063.12 167.527C1060.79 165.65 1058.49 163.74 1056.2 161.816C1040.57 148.732 1024.18 137.006 1007.25 125.688C1006.56 125.223 1005.86 124.759 1005.15 124.281C930.618 74.4517 844.808 40.2085 732.187 22.25C731.423 22.1488 730.659 22.0476 729.872 21.9433C704.318 18.599 678.804 17.6194 653.062 17.6875C651.573 17.6898 650.083 17.6919 648.593 17.6941C627.368 17.7361 606.274 18.0399 585.194 20.7214C582.823 21.0225 580.451 21.3123 578.08 21.6021C510.167 30.0068 444.488 48.5533 382.581 77.7876C380.232 78.891 377.875 79.9722 375.512 81.043C329.678 101.926 286.637 130.802 248 163C247.227 163.644 247.227 163.644 246.437 164.301C239.73 169.895 233.152 175.594 226.73 181.516C224.607 183.448 222.46 185.332 220.287 187.206C216.266 190.722 212.453 194.402 208.684 198.184C208.023 198.843 207.363 199.502 206.683 200.181C205.3 201.564 203.917 202.948 202.536 204.333C200.443 206.432 198.344 208.526 196.244 210.619C194.89 211.974 193.537 213.328 192.184 214.684C191.258 215.606 191.258 215.606 190.314 216.547C186.014 220.87 181.972 225.375 178 230C177.05 231.094 176.099 232.188 175.148 233.281C157.892 253.263 141.62 274.001 127 296C126.557 296.665 126.115 297.331 125.659 298.016C114.286 315.188 103.807 332.892 94 351C93.5739 351.778 93.1479 352.557 92.7089 353.358C51.0562 429.66 28.6402 516.176 19.8125 648.188C19.8131 649.24 19.8137 650.293 19.8143 651.378C19.9104 713.375 29.4877 774.827 48 834C48.5757 835.851 48.5757 835.851 49.163 837.739C58.2701 866.732 69.8484 894.617 83 922C83.4505 922.945 83.901 923.89 84.3652 924.863C91.0367 938.791 98.528 952.141 106.447 965.394C107.755 967.589 109.047 969.792 110.328 972.004C124.015 995.493 139.953 1017.84 157 1039C157.423 1039.53 157.847 1040.06 158.283 1040.6C162.029 1045.26 165.745 1049.79 170 1054C170.36 1053.06 170.36 1053.06 170.727 1052.1C186.246 1011.86 200.975 978.984 240 958C241.039 957.436 242.079 956.872 243.149 956.291C292.652 929.536 344.643 914.692 399.305 902.986C400.45 902.737 400.45 902.737 401.618 902.482C403.308 902.14 405.006 901.842 406.709 901.575C411.819 900.862 411.819 900.862 416.002 898.127C416.353 897.376 416.705 896.625 417.066 895.852C417.485 895.016 417.903 894.181 418.334 893.321C418.739 892.431 419.145 891.542 419.562 890.625C420.474 888.8 421.394 886.978 422.32 885.16C422.767 884.275 423.213 883.389 423.673 882.477C426.499 877.202 430.218 872.621 434 868C434.648 867.144 435.297 866.288 435.965 865.406C445.843 853.727 459.666 851.352 474 850C476.426 835.381 478.249 820.806 479 806C479.037 805.29 479.074 804.58 479.112 803.849C479.352 799.06 479.523 794.274 479.626 789.48C479.667 787.884 479.722 786.288 479.794 784.693C480.343 775.487 480.343 775.487 477.097 767.113C474.843 764.866 472.527 762.929 470 761C466.847 757.455 463.924 753.735 461 750C460.52 749.392 460.041 748.783 459.547 748.156C450.862 737.103 442.792 725.697 435 714C434.534 713.305 434.068 712.609 433.587 711.893C388.213 644.019 351.009 561.443 367.254 478.359C374.646 442.695 386.707 408.012 402 375C402.416 374.086 402.832 373.172 403.261 372.23C411.37 354.409 420.56 336.934 432 321C433.098 319.457 433.098 319.457 434.219 317.883C443.439 305.254 454.664 294.562 467 285C468.506 283.786 468.506 283.786 470.043 282.547C477.934 276.236 486.199 270.949 495 266C495.693 265.603 496.385 265.206 497.099 264.797C580.171 217.513 687.453 224.309 849.207 251.934C879.905 260.63 911.71 271.501 934.638 294.627C935.839 295.838 937.068 297.021 938.301 298.199C950.243 310.373 955.982 328.236 956 345C955.001 369.628 944.02 387.1 927 404C927.436 405.128 927.871 406.256 928.32 407.418C932.895 419.439 936.759 431.552 940 444C940.404 445.535 940.404 445.535 940.816 447.102C943.426 458.891 942.804 471.548 940.316 483.281C940.14 484.136 939.964 484.991 939.782 485.871C937.879 494.905 935.593 503.837 933.282 512.773C928.819 530.083 924.751 547.325 922 565C921.878 565.775 921.757 566.55 921.631 567.348C919.63 580.4 918.869 593.444 918.754 606.637C918.723 609.245 918.691 611.854 918.659 614.462C918.643 615.82 918.628 617.178 918.612 618.536C917.633 702.183 907.086 783.421 841 892C839.769 893.436 838.54 894.874 837.312 896.312C829.636 904.962 821.172 912.008 812 919C811.242 919.602 810.484 920.204 809.703 920.824C808 922 808 922 806 922C806 922.66 806 923.32 806 924C806.558 924.089 807.116 924.179 807.691 924.271C815.443 925.653 822.727 928.097 830.125 930.75C830.794 930.989 831.464 931.228 832.153 931.474C869.306 944.799 905.378 962.363 939 983C939.837 983.507 940.674 984.014 941.537 984.536C995.142 1017.04 1020.4 1058.77 1043.12 1116.25C1043.6 1117.45 1044.07 1118.64 1044.56 1119.88C1045 1120.99 1045.43 1122.11 1045.88 1123.27C1046.46 1124.75 1046.46 1124.75 1047.05 1126.26C1047.94 1128.84 1048.54 1131.32 1049 1134C1055.69 1128.65 1062.14 1123.14 1068.44 1117.34C1070.66 1115.31 1072.91 1113.34 1075.19 1111.38C1078.54 1108.47 1081.67 1105.38 1084.75 1102.19C1086.7 1100.29 1088.7 1098.53 1090.77 1096.75C1095.02 1093.06 1098.86 1089.07 1102.69 1084.94C1103.38 1084.2 1104.06 1083.46 1104.77 1082.7C1106.18 1081.19 1107.58 1079.68 1108.98 1078.17C1110.85 1076.16 1112.73 1074.16 1114.61 1072.17C1120.23 1066.2 1125.65 1060.16 1130.77 1053.76C1132.78 1051.27 1134.84 1048.84 1136.93 1046.42C1143.68 1038.57 1149.88 1030.35 1156 1022C1156.54 1021.27 1157.08 1020.53 1157.63 1019.77C1165.03 1009.69 1172.21 999.498 1179 989C1179.69 987.932 1179.69 987.932 1180.4 986.842C1188.4 974.484 1195.86 961.87 1203 949C1203.58 947.968 1204.15 946.936 1204.75 945.873C1243.52 876.14 1268.53 798.302 1278.25 719.125C1278.4 717.905 1278.55 716.685 1278.71 715.428C1281.36 692.568 1282.38 669.756 1282.32 646.749C1282.31 644.649 1282.31 642.549 1282.31 640.448C1282.27 618.185 1281.59 596.127 1279 574C1278.87 572.881 1278.87 572.881 1278.74 571.739C1273.38 524.649 1262.98 478.936 1248 434C1247.68 433.041 1247.68 433.041 1247.35 432.063C1239.78 409.431 1230.89 387.191 1220.11 365.883C1218.89 362.724 1218.78 360.356 1219 357C1220.81 356.313 1220.81 356.313 1223 356C1225.41 357.987 1226.77 360.145 1228.17 362.91C1228.58 363.717 1228.99 364.523 1229.41 365.354C1229.85 366.248 1230.29 367.142 1230.75 368.063C1231.22 369.02 1231.7 369.978 1232.19 370.964C1264.16 436.422 1285.01 505.548 1293 578C1293.08 578.754 1293.17 579.508 1293.25 580.284C1298.17 625.423 1298.1 671.882 1293 717C1292.92 717.76 1292.83 718.52 1292.74 719.302C1283.4 802.153 1258.79 883.183 1143.4 1066.36C1141.98 1068.02 1140.57 1069.69 1139.17 1071.36C1127.31 1085.42 1114.54 1098.55 1101.56 1111.56C1101 1112.13 1100.44 1112.69 1099.86 1113.27C1093.75 1119.4 1087.59 1125.39 1081 1131C1079.39 1132.45 1077.79 1133.91 1076.19 1135.38C1071.92 1139.22 1067.55 1142.9 1063.09 1146.5C1060.85 1148.31 1058.63 1150.13 1056.41 1151.96C1030.14 1173.66 1001.59 1193.11 972 1210C970.944 1210.61 970.944 1210.61 969.866 1211.23C964.621 1214.23 959.323 1217.13 954 1220C953.054 1220.51 952.108 1221.03 951.133 1221.55C879.27 1260.31 799.141 1284.36 718 1293C717.314 1293.07 716.629 1293.15 715.923 1293.22C670.334 1298.1 623.572 1298.02 578 1293C577.24 1292.92 576.48 1292.83 575.697 1292.75C524.797 1287.17 475.216 1275.09 427 1258C426.359 1257.77 425.719 1257.55 425.059 1257.32C383.678 1242.73 344.361 1222.91 307 1200C306.095 1199.45 305.19 1198.89 304.258 1198.32C292.849 1191.32 281.833 1183.86 271 1176C270.232 1175.45 269.463 1174.89 268.671 1174.32C257.479 1166.23 246.605 1157.84 236 1149C235.415 1148.51 234.83 1148.03 234.227 1147.53C227.583 1142 221.086 1136.34 214.73 1130.48C212.625 1128.57 210.498 1126.7 208.341 1124.85C203.991 1121.04 199.888 1117.03 195.809 1112.94C195.06 1112.19 194.311 1111.45 193.539 1110.67C191.967 1109.1 190.397 1107.53 188.827 1105.96C186.444 1103.57 184.055 1101.19 181.666 1098.8C180.13 1097.27 178.594 1095.73 177.059 1094.19C176.354 1093.49 175.65 1092.79 174.924 1092.06C170.417 1087.53 166.161 1082.85 162 1078C160.955 1076.81 159.908 1075.62 158.859 1074.43C152.145 1066.77 145.694 1058.97 139.476 1050.9C137.885 1048.85 136.274 1046.82 134.66 1044.79C126.815 1034.88 119.495 1024.72 112.476 1014.21C111.11 1012.16 109.733 1010.13 108.352 1008.1C80.3824 966.846 57.164 921.77 40 875C39.7583 874.341 39.5166 873.683 39.2675 873.005C20.2464 820.966 8.48335 766.887 2.68745 711.812C2.56535 710.658 2.56538 710.658 2.44081 709.481C0.364433 689.561 -0.206248 669.775 -0.187547 649.75C-0.186943 648.553 -0.186338 647.357 -0.185716 646.124C-0.160888 627.996 0.162958 610.048 1.99995 592C2.19331 590.042 2.19331 590.042 2.39058 588.043C10.7943 504.275 35.084 423.697 124 266C124.577 265.194 125.155 264.389 125.75 263.559C134.065 251.995 142.803 240.873 152 230C152.529 229.372 153.057 228.744 153.602 228.098C160.091 220.403 166.749 212.89 173.598 205.515C175.051 203.945 176.493 202.366 177.934 200.785C186.44 191.467 195.063 182.212 204.687 174.031C207.296 171.74 209.817 169.367 212.342 166.984C218.08 161.571 223.854 156.31 230.023 151.387C232.303 149.559 234.552 147.71 236.789 145.832C253.109 132.164 270.309 119.825 288 108C288.789 107.471 289.579 106.941 290.393 106.396C359.996 59.8892 438.705 27.9292 627.293 -0.203095Z" fill="#194770"/>
<path d="M698.437 396.75C699.543 396.745 700.649 396.74 701.788 396.734C721.966 396.66 741.591 398.229 761.5 401.438C762.836 401.644 764.172 401.851 765.508 402.057C798.875 407.283 798.875 407.283 810 421C813.965 426.453 813.742 432.51 813 439C811.536 444.496 809.633 449.448 805 453C801.468 454.766 797.815 454.513 794 454C789.875 452.587 785.939 450.866 782 449C786.772 457.422 793.057 463.444 802.461 466.516C813.683 468.657 823.134 467.725 833.035 462.043C841.839 455.976 846.509 447.372 848.625 436.91C849.45 430.504 849.081 424.349 848 418C849.667 418.144 851.333 418.29 853 418.438C853.928 418.519 854.856 418.6 855.812 418.684C858.162 418.917 860.507 419.202 862.848 419.516C879.881 421.662 894.944 418.505 911 413C924.192 450.659 925.794 478.828 917 518C912.957 518 910.762 515.969 907.562 513.75C894.751 505.213 879.38 501.507 864 503C856.806 504.599 852.03 506.761 848 513C847.567 513.619 847.134 514.237 846.687 514.875C844.942 520.27 845.648 525.925 848 531C851.642 532.214 855.122 532.32 858.922 532.5C859.7 532.541 860.478 532.581 861.28 532.623C863.77 532.753 866.26 532.877 868.75 533C871.226 533.123 873.701 533.248 876.177 533.377C877.716 533.457 879.256 533.534 880.795 533.607C885.248 533.838 889.585 534.341 894 535C895.611 535.13 897.225 535.238 898.84 535.316C899.674 535.358 900.509 535.4 901.369 535.443C902.217 535.483 903.064 535.522 903.937 535.562C905.249 535.627 905.249 535.627 906.588 535.693C908.725 535.798 910.862 535.9 913 536C913.239 543.302 912.63 550.364 911.799 557.607C910.422 569.697 909.839 581.697 909.74 593.856C909.718 596.458 909.691 599.059 909.663 601.661C909.604 607.19 909.551 612.72 909.5 618.25C909.44 624.656 909.377 631.061 909.308 637.467C909.282 639.997 909.261 642.527 909.24 645.058C909.092 660.284 908.328 675.337 906.25 690.438C905.984 692.37 905.984 692.37 905.714 694.342C896.776 758.192 873.776 826.646 831 876C830.527 876.553 830.054 877.105 829.567 877.675C806.366 904.639 773.514 923.151 738 927C732.401 927.39 726.798 927.44 721.187 927.438C720.047 927.439 720.047 927.439 718.884 927.44C697.431 927.386 677.925 922.807 658 915C657.274 914.724 656.548 914.449 655.8 914.165C644.867 910.006 634.582 904.871 624.325 899.263C622.142 898.077 619.947 896.92 617.746 895.77C598.392 885.512 580.298 872.65 562.672 859.699C562.059 859.25 561.446 858.8 560.814 858.337C559.574 857.423 558.338 856.501 557.107 855.573C554.091 853.336 551.68 851.742 548 851C549.477 856.43 553.208 859.583 557.125 863.375C557.81 864.048 558.495 864.72 559.201 865.413C563.669 869.777 568.22 873.981 573 878C573.964 878.853 574.928 879.707 575.922 880.586C583.395 887.172 591.154 893.212 599.251 899.016C607.053 904.638 613.955 910.84 620.625 917.75C626.779 924.001 633.253 929.513 640.298 934.729C641.923 935.942 643.519 937.193 645.113 938.445C671.229 958.572 706.299 971.717 739.09 974.609C752.734 975.83 752.734 975.83 756.93 979.707C758.924 982.728 760.432 985.746 762 989C764.741 992.394 766.66 993.518 771 994C775.789 1011.27 777.061 1032.25 770 1049C769.626 1049.92 769.252 1050.83 768.867 1051.77C762.375 1066.09 750.332 1073.89 735.972 1079.29C723.717 1083.69 712.205 1084.63 699.312 1084.44C698.061 1084.43 698.061 1084.43 696.784 1084.42C683.991 1084.3 671.54 1083.71 659 1081C658.008 1080.79 657.015 1080.58 655.993 1080.37C643.374 1077.65 631.005 1074.47 618.974 1069.77C616.975 1068.99 614.967 1068.24 612.957 1067.49C590.026 1058.69 569.031 1045.41 550 1030C549.455 1029.56 548.911 1029.12 548.35 1028.67C534.311 1017.21 520.957 1004.46 510 990C509.049 988.767 508.099 987.534 507.148 986.301C492.365 966.986 480.602 946.349 469 925C467.68 925 466.36 925 465 925C463.852 928.387 463.945 929.854 465.23 933.25C465.867 934.508 466.52 935.758 467.187 937C467.545 937.688 467.904 938.376 468.272 939.084C469.493 941.402 470.742 943.702 472 946C472.451 946.827 472.903 947.655 473.368 948.507C502.702 1001.88 543.502 1046.67 599 1073C599.834 1073.4 600.669 1073.8 601.529 1074.21C625.095 1085.4 649.243 1093.68 675 1098C674.517 1102.25 671.845 1104.63 669 1107.56C665.248 1111.53 661.667 1115.55 658.25 1119.81C655.27 1123.51 652.203 1126.93 648.78 1130.22C647.015 1131.98 645.385 1133.81 643.758 1135.7C640.099 1139.91 636.322 1144 632.5 1148.06C631.875 1148.73 631.25 1149.4 630.605 1150.09C626.994 1153.94 623.325 1157.71 619.56 1161.41C617.957 1163.04 616.474 1164.75 615 1166.5C609.574 1172.81 603.531 1178.56 597.608 1184.4C596.314 1185.69 595.049 1187 593.793 1188.33C589.942 1191.92 586.072 1192.81 580.898 1192.69C574.563 1191.18 569.75 1186.24 565 1182C564.173 1181.27 564.173 1181.27 563.33 1180.53C552.95 1171.31 542.983 1161.59 534 1151C533.099 1149.96 532.196 1148.92 531.293 1147.89C524.262 1139.79 517.498 1131.53 511 1123C510.472 1122.31 509.944 1121.62 509.399 1120.9C495.944 1103.2 483.962 1084.59 472.648 1065.45C470.39 1061.64 468.053 1057.88 465.687 1054.12C462.42 1048.84 459.615 1043.41 456.898 1037.82C455.567 1035.1 454.17 1032.43 452.727 1029.77C443.651 1013.02 436.143 995.612 429.062 977.938C428.709 977.072 428.356 976.206 427.992 975.313C422.937 962.426 420.312 950.109 420.478 936.298C420.5 934.17 420.478 932.044 420.453 929.916C420.433 921.608 421.406 914.594 425 907C425.426 906.09 425.853 905.179 426.292 904.241C427.684 901.38 429.138 898.562 430.625 895.75C431.151 894.754 431.678 893.757 432.22 892.731C446.294 866.46 446.294 866.46 456 863C461.607 861.85 467.26 861 473 861C472.42 866.532 471.462 871.673 469.875 877C469.66 877.726 469.445 878.451 469.223 879.198C467.591 884.496 465.648 889.606 463.437 894.688C463.157 895.334 462.876 895.98 462.587 896.646C461.194 899.736 459.68 902.47 457.769 905.277C455.691 907.864 455.691 907.864 456.25 910.875C456.497 911.576 456.745 912.278 457 913C458.886 912.918 458.886 912.918 461 912C464.136 907.988 466.526 903.445 469 899C469.512 898.096 469.512 898.096 470.034 897.173C476.447 885.688 480.422 873.621 484 861C484.309 859.932 484.309 859.932 484.624 858.843C487.407 849.028 488.82 839.032 490.187 828.938C490.355 827.707 490.522 826.477 490.694 825.209C492.516 811.056 493.132 796.917 493.316 782.656C493.337 781.267 493.358 779.877 493.379 778.487C493.434 774.891 493.483 771.294 493.532 767.697C493.583 764.002 493.638 760.308 493.693 756.613C493.8 749.409 493.901 742.204 494 735C495.98 735 497.96 735 500 735C500.33 733.68 500.66 732.36 501 731C500.456 730.831 499.912 730.661 499.352 730.487C478.832 723.897 461.353 712.967 446 698C444.927 697.037 444.927 697.037 443.832 696.055C426.889 680.431 417.358 655.949 415.738 633.348C415.13 612.351 420.722 594.018 435.156 578.523C443.3 571.297 450.559 570.779 461.062 570.688C462.145 570.659 463.227 570.63 464.342 570.6C480.956 570.47 493.463 578.659 505 590C505.628 590.615 506.255 591.23 506.902 591.863C514.399 599.802 519.312 610.233 524 620C533.12 620.547 541.51 621.032 549 615C554.771 608.118 555.927 600.992 555.294 592.146C554.402 585.638 551.732 579.438 549.415 573.331C547.753 568.942 546.167 564.525 544.578 560.109C544.107 558.806 544.107 558.806 543.626 557.476C540.969 550.064 538.696 542.614 536.687 535C536.417 533.983 536.146 532.965 535.867 531.917C529.079 505.385 531.326 475.158 544.625 451.055C560.079 425.369 587.167 411.6 615.394 404.55C642.935 397.863 670.22 396.81 698.437 396.75Z" fill="white"/>
<path d="M403.309 921.949C404.912 921.96 404.912 921.96 406.549 921.971C407.357 921.981 408.166 921.99 409 922C408.979 922.678 408.958 923.355 408.936 924.054C408.242 950.109 412.509 970.183 423 994C423.465 995.064 423.929 996.128 424.408 997.225C448.672 1052.39 483.087 1102.03 523 1147C523.461 1147.52 523.923 1148.04 524.398 1148.58C531.202 1156.21 538.365 1163.49 545.562 1170.75C546.425 1171.63 547.287 1172.5 548.176 1173.4C563.647 1189.56 563.647 1189.56 583.75 1197.31C593.698 1197.08 599.871 1189.64 606.336 1182.98C607.305 1182 608.275 1181.02 609.247 1180.04C611.783 1177.48 614.308 1174.91 616.829 1172.33C620.883 1168.19 624.951 1164.06 629.026 1159.94C630.445 1158.5 631.858 1157.05 633.27 1155.61C634.125 1154.74 634.98 1153.87 635.861 1152.98C636.614 1152.21 637.367 1151.44 638.143 1150.64C640 1149 640 1149 642 1149C642 1148.34 642 1147.68 642 1147C642.66 1147 643.32 1147 644 1147C644.385 1147.93 644.385 1147.93 644.777 1148.87C650.976 1162.58 664.959 1173.7 679 1179C679.303 1195.49 678.437 1211.95 677.668 1228.42C677.527 1231.44 677.391 1234.47 677.255 1237.49C677.122 1240.46 676.987 1243.42 676.851 1246.38C676.788 1247.77 676.724 1249.16 676.661 1250.56C676.229 1260.05 675.666 1269.52 675 1279C588.319 1279.7 505.41 1269.82 225.93 1114.71C224.073 1112.99 222.205 1111.29 220.32 1109.6C213.395 1103.38 206.777 1096.88 200.187 1090.31C199.292 1089.42 198.396 1088.53 197.473 1087.61C192.97 1083.1 188.598 1078.54 184.466 1073.68C183.033 1071.96 183.033 1071.96 181.277 1070.52C180.855 1070.02 180.434 1069.52 180 1069C181.009 1061.43 183.915 1054.46 186.687 1047.38C187.137 1046.22 187.586 1045.07 188.049 1043.88C191.377 1035.41 194.899 1027.13 199 1019C199.338 1018.32 199.677 1017.63 200.026 1016.93C208.893 999.098 219.297 983.924 237.25 974.313C238.32 973.727 239.389 973.142 240.492 972.539C258.066 963.045 276.188 953.761 295 947C295.804 946.705 296.609 946.409 297.437 946.105C324.652 936.142 352.65 928.384 381.414 924.625C384.998 924.155 388.521 923.543 392.062 922.813C395.858 922.072 399.443 921.915 403.309 921.949Z" fill="white"/>
<path d="M814 948C821.7 948.548 828.667 950.962 835.937 953.438C836.597 953.66 837.257 953.883 837.936 954.113C861.436 962.067 883.84 971.896 906 983C907.77 983.883 907.77 983.883 909.575 984.784C976.787 1018.46 976.787 1018.46 994 1047C994.669 1048.07 995.338 1049.15 996.027 1050.25C998.422 1054.13 1000.72 1058.06 1003 1062C1003.63 1063.07 1003.63 1063.07 1004.27 1064.16C1015.91 1084.17 1025.03 1105.41 1033.31 1127C1033.79 1128.23 1034.26 1129.46 1034.75 1130.72C1035.18 1131.87 1035.61 1133.01 1036.05 1134.19C1036.62 1135.69 1036.62 1135.69 1037.2 1137.23C1038.02 1140.05 1038.4 1142.09 1038 1145C1036.71 1146.57 1036.71 1146.57 1034.88 1147.91C1034.2 1148.42 1033.52 1148.93 1032.82 1149.45C1032.07 1149.98 1031.33 1150.51 1030.56 1151.06C1029.8 1151.63 1029.03 1152.19 1028.24 1152.77C1025.84 1154.53 1023.42 1156.27 1021 1158C1020.26 1158.53 1019.53 1159.06 1018.77 1159.61C956.556 1204.47 887.103 1237.73 813.062 1257.81C811.188 1258.33 811.188 1258.33 809.276 1258.85C807.548 1259.31 807.548 1259.31 805.785 1259.77C804.784 1260.03 803.782 1260.3 802.75 1260.57C799.827 1261.03 797.858 1260.65 795 1260C792.382 1252.04 789.764 1244.07 787.148 1236.11C785.933 1232.41 784.717 1228.7 783.5 1225C780.956 1217.26 778.418 1209.52 775.892 1201.78C774.519 1197.57 773.125 1193.38 771.719 1189.18C771.064 1187.2 770.409 1185.21 769.754 1183.23C769.454 1182.35 769.153 1181.47 768.844 1180.56C766.401 1173.08 766.401 1173.08 768 1169C769.643 1167.31 771.315 1165.65 773 1164C776.999 1158.66 780.153 1153.02 783 1147C787.146 1149.23 789.981 1151.89 793.187 1155.31C799.233 1161.51 805.227 1167.18 814.25 1167.62C818.867 1167.28 821.612 1166.31 825 1163C829.185 1156.28 831.06 1149.64 832.187 1141.88C832.348 1140.83 832.508 1139.78 832.673 1138.7C833.147 1135.47 833.583 1132.24 834 1129C834.18 1127.6 834.18 1127.6 834.364 1126.18C837.957 1096.48 836.738 1065.72 834 1036C833.93 1035.23 833.861 1034.46 833.789 1033.67C832.603 1021.3 829.69 1009.11 827 997C826.768 995.949 826.535 994.897 826.296 993.814C823.536 981.465 820.397 969.398 816.184 957.458C815.899 956.65 815.614 955.841 815.32 955.008C814.938 953.95 814.938 953.95 814.547 952.872C814 951 814 951 814 948Z" fill="white"/>
<path d="M795 931C812.707 967.736 824.828 1007.34 829 1048C829.089 1048.78 829.177 1049.57 829.269 1050.37C838.119 1130.19 838.119 1130.19 824.125 1155.38C821.327 1158.83 819.692 1160.69 815.25 1161.5C806.458 1160.15 800.779 1152.99 794.867 1146.91C792.708 1144.69 790.494 1142.62 788.125 1140.62C783.535 1136.73 779.377 1132.4 775.144 1128.12C771.506 1124.46 767.797 1120.97 763.855 1117.64C760.835 1114.97 758.059 1112.07 755.234 1109.2C752.579 1106.59 749.792 1104.17 746.922 1101.8C744.35 1099.39 742.22 1096.74 740 1094C741.415 1093.31 741.415 1093.31 742.859 1092.6C760.442 1083.77 773.475 1072.3 780.07 1053.22C787.821 1026.36 782.143 996.934 770.552 972.103C768.096 966.654 766.502 961.106 765.062 955.312C764.745 954.037 764.745 954.037 764.422 952.736C763.473 948.712 762.901 945.155 763 941C763.777 940.733 764.554 940.465 765.355 940.19C768.862 938.982 772.369 937.772 775.875 936.562C777.71 935.931 777.71 935.931 779.582 935.287C780.749 934.884 781.915 934.481 783.117 934.066C784.196 933.695 785.275 933.323 786.386 932.94C791.781 931 791.781 931 795 931Z" fill="white"/>
<path d="M743 499C748.004 503.722 750.704 507.946 751.375 514.875C751.233 519.57 749.803 522.239 747 526C742.833 528.552 740.144 529.349 735.312 528.812C734.08 528.694 732.848 528.575 731.578 528.453C730.51 528.344 730.51 528.344 729.42 528.232C724.474 527.757 719.517 527.424 714.562 527.062C713.416 526.977 712.27 526.891 711.089 526.802C703.397 526.229 695.703 525.722 688.004 525.248C645.81 522.645 645.81 522.645 640 518C639.258 515.363 639.258 515.363 639 513C659.516 492.038 718.162 480.01 743 499Z" fill="#194770"/>
<path d="M830 572C830.99 572 831.98 572 833 572C833.506 573.748 834.005 575.499 834.5 577.25C834.778 578.225 835.057 579.199 835.344 580.203C836 583 836 583 836 587C837.052 586.959 838.104 586.917 839.187 586.875C842.799 586.866 846.136 587.328 849.687 587.969C858.049 589.296 866.366 589.453 874.812 589.625C876.391 589.663 877.97 589.702 879.549 589.742C883.366 589.837 887.183 589.921 891 590C888.184 596.062 883.451 598.557 877.512 601.136C873.404 602.549 869.502 602.679 865.187 602.625C864.317 602.621 863.446 602.617 862.549 602.613C854.778 602.372 849.53 600.258 843 596C841.672 595.322 840.34 594.654 839 594C845.4 613.238 852.91 631.302 862.232 649.303C868.342 661.241 871.411 671.861 867.437 685.188C865.196 691.171 862.028 696.068 858 701C857.5 701.625 857 702.25 856.484 702.895C848.046 712.335 833.483 719.268 820.965 720.234C818.625 720.248 816.331 720.189 814 720C813.34 718.68 812.68 717.36 812 716C814.928 713.5 817.976 712.086 821.533 710.655C833.899 705.675 844.132 698.592 850.316 686.406C853.398 678.933 855.119 671.478 852.114 663.709C850.114 659.193 847.9 654.791 845.676 650.383C839.145 637.432 834.812 624.209 832 610C831.82 609.191 831.641 608.382 831.456 607.549C829.874 599.933 829.766 592.57 829.875 584.812C829.884 583.574 829.893 582.336 829.902 581.061C829.926 578.04 829.958 575.02 830 572Z" fill="#194770"/>
<path d="M476.937 602.438C483.819 606.119 488.876 612.324 491.442 619.649C492.547 624.302 492.347 628.996 492.25 633.75C492.245 634.777 492.24 635.805 492.234 636.863C492.19 641.088 492.13 644.915 491 649C489.797 657.954 491.796 663.636 496.469 671.285C498 674 498 674 498 677C496 677.875 496 677.875 493 678C485.19 673.943 479.524 666.63 476.578 658.444C475.384 653.396 475.782 648.214 475.937 643.062C476.753 630.109 476.753 630.109 472.062 618.5C467.575 615.236 462.332 615.274 457 616C451.962 619.395 450.15 624.522 448 630C447.587 631.011 447.175 632.021 446.75 633.062C446.502 633.702 446.255 634.341 446 635C444.062 634.688 444.062 634.688 442 634C439.757 627.27 440.084 620.06 443.062 613.625C450.103 601.184 463.621 597.339 476.937 602.438Z" fill="#194770"/>
<path d="M704 742C707.375 742.409 709.219 743.141 712.125 745.012C716.352 747.483 720.13 747.558 724.937 747.562C733.4 747.613 739.535 749.459 746.875 753.688C752.046 756.293 756.28 756.996 762 756C763.682 755.373 765.348 754.703 767 754C774.656 750.883 782.88 751.484 791 752C791.99 752.495 791.99 752.495 793 753C795.037 753.229 797.08 753.41 799.125 753.562C800.768 753.688 800.768 753.688 802.445 753.816C803.288 753.877 804.131 753.938 805 754C805.495 756.475 805.495 756.475 806 759C801.457 762.732 798.251 763.038 792.415 763.088C783.383 763.243 776.546 765.322 768.488 769.309C760.121 773.366 752.785 774.528 743.875 771.5C736.974 768.745 730.361 765.346 723.775 761.918C722.302 761.156 720.817 760.419 719.328 759.688C713.242 756.58 707.214 752.421 703 747C703.227 744.219 703.227 744.219 704 742Z" fill="#194770"/>
<path d="M651 577C656.81 576.755 662.488 577.014 668.258 577.665C686.422 579.702 704.742 579.672 723 580C723.495 581.98 723.495 581.98 724 584C711.465 595.02 698.591 596.066 682.555 595.188C670.628 594.312 658.178 588.96 650 580C650.33 579.01 650.66 578.02 651 577Z" fill="#194770"/>
</g>
<defs>
<clipPath id="clip0_118_1027">
<rect width="1300" height="1300" fill="white"/>
</clipPath>
</defs>
</svg>
