<svg width="1300" height="1300" viewBox="0 0 1300 1300" fill="none" xmlns="http://www.w3.org/2000/svg">
<g clip-path="url(#clip0_118_1038)">
<path d="M627.293 -0.203095C628.721 -0.210118 630.148 -0.217205 631.576 -0.224351C636.113 -0.243751 640.65 -0.248785 645.187 -0.24997C646.347 -0.250633 646.347 -0.250633 647.531 -0.251309C670.114 -0.258077 692.53 -0.055949 714.97 2.75003C717.108 3.01336 719.248 3.26018 721.389 3.50394C791.024 11.4936 859.141 30.7128 922.468 60.8037C924.795 61.9032 927.132 62.977 929.477 64.0391C958.361 77.1915 985.922 93.978 1012 112C1012.77 112.531 1013.54 113.062 1014.33 113.609C1037.41 129.568 1059.5 147.19 1080.07 166.285C1081.94 168.016 1083.82 169.733 1085.71 171.434C1092.45 177.486 1098.9 183.795 1105.31 190.188C1106.58 191.453 1106.58 191.453 1107.88 192.744C1112.23 197.104 1116.43 201.531 1120.45 206.202C1122.69 208.801 1125.03 211.299 1127.38 213.813C1132.49 219.357 1137.27 225.121 1142 231C1143.02 232.241 1144.04 233.48 1145.06 234.719C1150.62 241.468 1156.1 248.277 1161.38 255.25C1161.86 255.87 1162.34 256.489 1162.84 257.128C1166.02 261.408 1166.02 261.408 1165.92 264.344C1164.69 266.557 1163.32 267.103 1161 268C1157.37 264.459 1154.01 260.767 1150.75 256.875C1150.27 256.304 1149.79 255.734 1149.29 255.146C1146.38 251.677 1143.52 248.163 1140.69 244.625C1136.4 239.352 1131.81 234.406 1127.14 229.477C1124.3 226.483 1121.53 223.465 1118.85 220.328C1114.23 215.01 1109.22 210.069 1104.23 205.1C1102.57 203.441 1100.91 201.776 1099.25 200.111C1093.67 194.53 1088.01 189.124 1082 184C1080.22 182.38 1078.45 180.756 1076.69 179.125C1072.28 175.106 1067.76 171.271 1063.12 167.527C1060.79 165.65 1058.49 163.74 1056.2 161.816C1040.57 148.732 1024.18 137.006 1007.25 125.688C1006.56 125.223 1005.86 124.759 1005.15 124.281C930.618 74.4517 844.808 40.2085 732.187 22.25C731.423 22.1488 730.659 22.0476 729.872 21.9433C704.318 18.599 678.804 17.6194 653.062 17.6875C651.573 17.6898 650.083 17.6919 648.593 17.6941C627.368 17.7361 606.274 18.0399 585.194 20.7214C582.823 21.0225 580.451 21.3123 578.08 21.6021C510.167 30.0068 444.488 48.5533 382.581 77.7876C380.232 78.891 377.875 79.9722 375.512 81.043C329.678 101.926 286.637 130.802 248 163C247.227 163.644 247.227 163.644 246.437 164.301C239.73 169.895 233.152 175.594 226.73 181.516C224.607 183.448 222.46 185.332 220.287 187.206C216.266 190.722 212.453 194.402 208.684 198.184C208.023 198.843 207.363 199.502 206.683 200.181C205.3 201.564 203.917 202.948 202.536 204.333C200.443 206.432 198.344 208.526 196.244 210.619C194.89 211.974 193.537 213.328 192.184 214.684C191.258 215.606 191.258 215.606 190.314 216.547C186.014 220.87 181.972 225.375 178 230C177.05 231.094 176.099 232.188 175.148 233.281C157.892 253.263 141.62 274.001 127 296C126.557 296.665 126.115 297.331 125.659 298.016C114.286 315.188 103.807 332.892 94 351C93.5739 351.778 93.1479 352.557 92.7089 353.358C51.0562 429.66 28.6402 516.176 19.8125 648.188C19.8131 649.24 19.8137 650.293 19.8143 651.378C19.9104 713.375 29.4877 774.827 48 834C48.5757 835.851 48.5757 835.851 49.163 837.739C58.2701 866.732 69.8484 894.617 83 922C83.4505 922.945 83.901 923.89 84.3652 924.863C91.0367 938.791 98.528 952.141 106.447 965.394C107.755 967.589 109.047 969.792 110.328 972.004C125.874 998.684 144.313 1023.64 163.918 1047.45C167.014 1051.24 170.016 1055.11 173 1059C174.679 1056.48 175.503 1054.83 176.41 1052.04C176.673 1051.25 176.936 1050.46 177.206 1049.64C177.489 1048.79 177.771 1047.94 178.062 1047.06C185.473 1025.42 195.254 1003.68 210 986C210.419 985.498 210.837 984.995 211.269 984.478C226.377 966.586 247.13 955.91 268 946C269.026 945.503 269.026 945.503 270.073 944.996C304.977 928.165 342.663 916.959 380 907C379.187 906.441 378.373 905.881 377.535 905.305C370.396 900.333 363.495 895.12 356.75 889.625C356.011 889.031 355.273 888.436 354.512 887.824C353.822 887.255 353.132 886.687 352.422 886.102C351.809 885.6 351.197 885.098 350.565 884.581C348.855 882.854 347.965 881.217 347 879C348.164 878.234 348.164 878.234 349.352 877.453C362.548 868.572 378.219 857.945 385 843C367.151 849.769 350.926 859.591 335 870C328.017 866.258 322.044 862.13 316 857C314.778 855.998 314.778 855.998 313.531 854.977C300.421 843.816 288.122 827.745 284.492 810.602C285.332 806.297 288.278 803.602 291.125 800.375C296.6 793.959 301.814 787.42 306.812 780.625C307.417 779.811 308.021 778.997 308.643 778.158C311.84 773.86 311.84 773.86 314 769C307.263 775.006 307.263 775.006 300.676 781.176C280.466 800.498 280.466 800.498 268.125 802.688C265.362 802.605 264.346 802.341 262.358 800.379C261.831 799.659 261.304 798.938 260.762 798.195C260.159 797.379 259.556 796.562 258.935 795.72C258.297 794.823 257.658 793.925 257 793C255.995 791.598 255.995 791.598 254.971 790.168C252.857 787.188 250.769 784.191 248.687 781.188C247.973 780.165 247.258 779.142 246.521 778.088C245.838 777.104 245.154 776.12 244.449 775.105C243.834 774.22 243.219 773.335 242.585 772.423C241.214 770.327 240.057 768.266 239 766C239.811 765.383 240.622 764.765 241.457 764.129C251.406 756.53 261.172 748.788 270.418 740.336C272.513 738.44 274.634 736.588 276.773 734.742C281.162 730.908 285.32 726.872 289.437 722.75C290.184 722.003 290.93 721.255 291.699 720.486C296.425 715.707 300.846 710.866 304.984 705.566C306.365 703.808 307.796 702.087 309.266 700.402C342.434 662.366 355.126 619.264 362.078 570.433C374.446 483.779 388.617 394.06 476 303C476.54 302.583 477.081 302.167 477.637 301.737C541.208 252.869 622.404 243.543 700.036 253.266C729.656 257.263 758.522 264.014 786.527 274.51C793.048 276.95 799.607 279.262 806.191 281.523C851.708 297.17 851.708 297.17 872.791 308.728C878.993 312.119 885.001 314.025 891.875 315.688C917.724 322.336 939.402 337.41 953.086 360.473C969.22 389.5 969.572 424.903 969.386 457.224C969.375 459.413 969.369 461.601 969.364 463.79C969.299 488.947 968.274 513.941 966 539C965.86 540.568 965.72 542.136 965.58 543.704C965.077 549.28 964.567 554.854 964.003 560.425C962.412 576.127 961.792 591.726 961.812 607.5C961.813 608.388 961.814 609.275 961.814 610.19C961.876 643.863 964.416 677.697 969.633 710.978C970.002 714.017 970.064 716.942 970 720C968.86 720.318 967.721 720.635 966.547 720.962C962.289 722.15 958.033 723.342 953.777 724.535C951.94 725.049 950.103 725.562 948.266 726.074C945.614 726.813 942.963 727.556 940.312 728.301C939.095 728.638 939.095 728.638 937.852 728.983C932.788 730.411 927.904 732.09 923 734C926.426 757.158 932.115 778.798 939.801 800.863C946.689 820.651 951.987 840.225 955 861C955.104 861.693 955.209 862.387 955.317 863.101C956.324 870.712 956.244 878.398 956.25 886.062C956.251 887.189 956.251 887.189 956.252 888.338C956.222 909.707 955.64 935.886 945 955C935.015 953.862 925.142 952.201 915.25 950.438C913.375 950.105 913.375 950.105 911.462 949.765C902.387 948.129 902.387 948.129 899 947C898.951 945.719 898.902 944.437 898.852 943.117C898.552 925.151 898.552 925.151 894 908C892.682 910.637 892.717 912.839 892.535 915.785C892.457 916.956 892.379 918.127 892.299 919.334C892.143 921.792 891.989 924.25 891.838 926.709C891.394 933.311 890.929 939.65 889 946C885.221 947.26 883.346 946.583 879.48 945.672C878.145 945.364 876.809 945.057 875.473 944.75C874.774 944.587 874.074 944.423 873.353 944.254C862.858 941.811 852.373 939.507 841.687 938.062C840.856 937.947 840.024 937.831 839.167 937.712C833.101 936.951 827.108 936.89 821 937C822.028 937.406 823.057 937.812 824.116 938.231C974.407 997.655 974.407 997.655 1006 1055C1006.55 1055.99 1007.1 1056.99 1007.67 1058.01C1021.72 1083.43 1035.45 1109.81 1043 1138C1047.15 1136.29 1050.29 1133.36 1053.62 1130.44C1054.24 1129.9 1054.86 1129.36 1055.5 1128.81C1059.97 1124.93 1064.39 1120.99 1068.77 1117.02C1070.86 1115.13 1072.99 1113.28 1075.12 1111.44C1078.5 1108.5 1081.65 1105.4 1084.75 1102.19C1086.7 1100.29 1088.7 1098.53 1090.77 1096.75C1095.02 1093.06 1098.86 1089.07 1102.69 1084.94C1103.38 1084.2 1104.06 1083.46 1104.77 1082.7C1106.18 1081.19 1107.58 1079.68 1108.98 1078.17C1110.85 1076.16 1112.73 1074.16 1114.61 1072.17C1120.23 1066.2 1125.65 1060.16 1130.77 1053.76C1132.78 1051.27 1134.84 1048.84 1136.93 1046.42C1143.68 1038.57 1149.88 1030.35 1156 1022C1156.54 1021.27 1157.08 1020.53 1157.63 1019.77C1165.03 1009.69 1172.21 999.498 1179 989C1179.69 987.932 1179.69 987.932 1180.4 986.842C1188.4 974.484 1195.86 961.87 1203 949C1203.58 947.968 1204.15 946.936 1204.75 945.873C1243.52 876.14 1268.53 798.302 1278.25 719.125C1278.4 717.905 1278.55 716.685 1278.71 715.428C1281.36 692.568 1282.38 669.756 1282.32 646.749C1282.31 644.649 1282.31 642.549 1282.31 640.448C1282.27 618.185 1281.59 596.127 1279 574C1278.87 572.881 1278.87 572.881 1278.74 571.739C1273.38 524.649 1262.98 478.936 1248 434C1247.68 433.041 1247.68 433.041 1247.35 432.063C1239.78 409.431 1230.89 387.191 1220.11 365.883C1218.89 362.724 1218.78 360.356 1219 357C1220.81 356.313 1220.81 356.313 1223 356C1225.41 357.987 1226.77 360.145 1228.17 362.91C1228.58 363.717 1228.99 364.523 1229.41 365.354C1229.85 366.248 1230.29 367.142 1230.75 368.063C1231.22 369.02 1231.7 369.978 1232.19 370.964C1264.16 436.422 1285.01 505.548 1293 578C1293.08 578.754 1293.17 579.508 1293.25 580.284C1298.17 625.423 1298.1 671.882 1293 717C1292.92 717.76 1292.83 718.52 1292.74 719.302C1283.4 802.153 1258.79 883.183 1143.4 1066.36C1141.98 1068.02 1140.57 1069.69 1139.17 1071.36C1127.31 1085.42 1114.54 1098.55 1101.56 1111.56C1101 1112.13 1100.44 1112.69 1099.86 1113.27C1093.75 1119.4 1087.59 1125.39 1081 1131C1079.39 1132.45 1077.79 1133.91 1076.19 1135.38C1071.92 1139.22 1067.55 1142.9 1063.09 1146.5C1060.85 1148.31 1058.63 1150.13 1056.41 1151.96C1030.14 1173.66 1001.59 1193.11 972 1210C970.944 1210.61 970.944 1210.61 969.866 1211.23C964.621 1214.23 959.323 1217.13 954 1220C953.054 1220.51 952.108 1221.03 951.133 1221.55C879.27 1260.31 799.141 1284.36 718 1293C717.314 1293.07 716.629 1293.15 715.923 1293.22C670.334 1298.1 623.572 1298.02 578 1293C577.24 1292.92 576.48 1292.83 575.697 1292.75C524.797 1287.17 475.216 1275.09 427 1258C426.359 1257.77 425.719 1257.55 425.059 1257.32C383.678 1242.73 344.361 1222.91 307 1200C306.095 1199.45 305.19 1198.89 304.258 1198.32C292.849 1191.32 281.833 1183.86 271 1176C270.232 1175.45 269.463 1174.89 268.671 1174.32C257.479 1166.23 246.605 1157.84 236 1149C235.415 1148.51 234.83 1148.03 234.227 1147.53C227.583 1142 221.086 1136.34 214.73 1130.48C212.625 1128.57 210.498 1126.7 208.341 1124.85C203.991 1121.04 199.888 1117.03 195.809 1112.94C195.06 1112.19 194.311 1111.45 193.539 1110.67C191.967 1109.1 190.397 1107.53 188.827 1105.96C186.444 1103.57 184.055 1101.19 181.666 1098.8C180.13 1097.27 178.594 1095.73 177.059 1094.19C176.354 1093.49 175.65 1092.79 174.924 1092.06C170.417 1087.53 166.161 1082.85 162 1078C160.955 1076.81 159.908 1075.62 158.859 1074.43C152.145 1066.77 145.694 1058.97 139.476 1050.9C137.885 1048.85 136.274 1046.82 134.66 1044.79C126.815 1034.88 119.495 1024.72 112.476 1014.21C111.11 1012.16 109.733 1010.13 108.352 1008.1C80.3824 966.846 57.164 921.77 40 875C39.7583 874.341 39.5166 873.683 39.2675 873.005C20.2464 820.966 8.48335 766.887 2.68745 711.812C2.56535 710.658 2.56538 710.658 2.44081 709.481C0.364433 689.561 -0.206248 669.775 -0.187547 649.75C-0.186943 648.553 -0.186338 647.357 -0.185716 646.124C-0.160888 627.996 0.162958 610.048 1.99995 592C2.19331 590.042 2.19331 590.042 2.39058 588.043C10.7943 504.275 35.084 423.697 124 266C124.577 265.194 125.155 264.389 125.75 263.559C134.065 251.995 142.803 240.873 152 230C152.529 229.372 153.057 228.744 153.602 228.098C160.091 220.403 166.749 212.89 173.598 205.515C175.051 203.945 176.493 202.366 177.934 200.785C186.44 191.467 195.063 182.212 204.687 174.031C207.296 171.74 209.817 169.367 212.342 166.984C218.08 161.571 223.854 156.31 230.023 151.387C232.303 149.559 234.552 147.71 236.789 145.832C253.109 132.164 270.309 119.825 288 108C288.789 107.471 289.579 106.941 290.393 106.396C359.996 59.8892 438.705 27.9292 627.293 -0.203095Z" fill="#194770"/>
<path d="M402 925C402.039 926.692 402.039 926.692 402.078 928.418C404.06 989.486 436.991 1049.22 475.455 1095.15C476.868 1096.84 478.258 1098.55 479.644 1100.27C486.306 1108.41 493.653 1115.86 501.062 1123.31C501.569 1123.82 502.076 1124.34 502.599 1124.86C509.396 1131.72 516.438 1137.99 524 1144C525.028 1144.86 526.051 1145.73 527.066 1146.61C550.25 1166.49 584.196 1192.82 616.211 1192.46C646.109 1188.82 674.75 1157.63 694.771 1137.44C696.954 1135.23 699.145 1133.04 701.338 1130.85C702.756 1129.42 704.173 1128 705.59 1126.58C706.232 1125.94 706.873 1125.29 707.535 1124.63C711.376 1120.75 714.936 1116.76 718.339 1112.48C720 1111 720 1111 724 1111C725.859 1112.5 725.859 1112.5 727.75 1114.56C730.384 1117.34 733.023 1119.96 735.937 1122.44C736.914 1123.32 736.914 1123.32 737.91 1124.21C739.995 1126.06 739.995 1126.06 742.434 1127.66C746.926 1131.16 749.096 1134.21 749.941 1139.84C750.443 1144.61 750.671 1149.39 750.863 1154.19C751.065 1158.34 751.515 1162.44 752 1166.56C752.083 1167.29 752.166 1168.03 752.252 1168.78C753.313 1177.99 754.64 1187.03 757 1196C757.165 1197.13 757.33 1198.27 757.5 1199.44C757.665 1200.28 757.83 1201.13 758 1202C758.66 1202.33 759.32 1202.66 760 1203C759.378 1199.04 758.752 1195.08 758.125 1191.12C757.951 1190.02 757.777 1188.91 757.598 1187.77C756.798 1182.73 755.97 1177.72 754.937 1172.73C754.01 1168.22 753.37 1163.71 752.875 1159.12C752.79 1158.36 752.705 1157.59 752.618 1156.79C751.967 1150.52 751.777 1144.31 752 1138C752.866 1138.76 753.732 1139.53 754.625 1140.31C774.438 1159.26 774.438 1159.26 798.773 1167.56C806.159 1165.7 810.581 1158.29 814.273 1152.16C821.473 1138.99 826.781 1125.55 829.687 1110.81C830.005 1109.27 830.005 1109.27 830.33 1107.7C832.076 1099.09 833.155 1090.81 833.168 1082.03C833.171 1081.19 833.175 1080.35 833.178 1079.49C833.183 1077.72 833.185 1075.95 833.185 1074.19C833.187 1071.54 833.206 1068.88 833.225 1066.23C833.363 1025.27 821.072 983.899 798 950C797.67 949.34 797.34 948.68 797 948C801.66 948.735 805.865 950.329 810.254 951.992C811.059 952.294 811.864 952.595 812.693 952.906C815.318 953.892 817.94 954.883 820.562 955.875C822.384 956.562 824.205 957.248 826.026 957.935C936.885 999.791 936.885 999.791 969.879 1031C971.852 1032.86 973.896 1034.55 976 1036.25C986.447 1045.44 993.331 1057.99 1000 1070C1000.64 1071.14 1000.64 1071.14 1001.3 1072.29C1032 1126.72 1032 1126.72 1032 1150C1030.7 1151.18 1030.7 1151.18 1028.84 1152.51C1028.14 1153.01 1027.44 1153.52 1026.72 1154.04C1025.56 1154.85 1025.56 1154.85 1024.37 1155.69C1023.57 1156.26 1022.77 1156.83 1021.94 1157.42C956.574 1203.77 885.888 1238.22 808.437 1259C807.599 1259.23 806.761 1259.45 805.898 1259.68C786.092 1264.99 766.307 1268.74 746 1271.56C744.922 1271.71 743.844 1271.86 742.733 1272.02C717.484 1275.56 692.527 1278.63 667 1279C666.26 1279.01 665.52 1279.02 664.757 1279.03C582.078 1280.2 501.408 1268.26 225.93 1114.71C224.073 1112.99 222.205 1111.29 220.32 1109.6C213.374 1103.36 206.734 1096.84 200.125 1090.25C199.221 1089.35 198.317 1088.45 197.385 1087.52C194.902 1085.04 192.442 1082.53 190 1080C189.343 1079.32 188.685 1078.64 188.008 1077.94C186.32 1076.1 186.32 1076.1 184 1073C184.671 1069.53 185.59 1067.19 187 1064C187.661 1062.07 188.32 1060.15 188.963 1058.22C202.134 1019.05 222.57 988.065 260 969C260.689 968.648 261.379 968.297 262.089 967.935C290.527 953.626 321.339 944.2 352 936C353.461 935.604 353.461 935.604 354.952 935.2C365.81 932.259 376.7 929.54 387.687 927.125C388.662 926.91 389.637 926.694 390.641 926.472C391.547 926.278 392.453 926.083 393.387 925.883C394.183 925.712 394.979 925.54 395.799 925.364C398 925 398 925 402 925Z" fill="white"/>
<path d="M828 570C827.994 570.794 827.987 571.587 827.981 572.405C827.941 589.232 829.071 603.92 835.184 619.81C836.239 622.641 837.025 625.522 837.812 628.438C841.341 640.056 846.587 651.619 852.281 662.336C855.735 669.161 854.734 676.588 852.437 683.688C850.165 689.229 847.04 693.608 843 698C842.45 698.605 841.899 699.209 841.332 699.832C833.976 707.026 823.515 711.36 814 715C814 716.32 814 717.64 814 719C828.598 720.186 842.239 714.113 853.25 704.812C864.972 693.706 868.287 681.674 869 666C877.514 664.781 885.985 664.887 894.562 664.938C896.063 664.943 897.564 664.947 899.064 664.951C902.71 664.962 906.355 664.979 910 665C910.401 678.396 909.198 691.31 907.449 704.588C907.156 706.816 906.87 709.045 906.594 711.275C900.532 759.983 885.516 803.154 858.187 843.938C857.752 844.589 857.316 845.241 856.867 845.912C846.768 861 836.223 875.542 824 889C823.533 889.535 823.066 890.07 822.586 890.622C819 894.524 815.387 896.503 810.312 898.062C809.556 898.305 808.8 898.548 808.021 898.798C789.793 904.326 770.504 907.096 751.484 907.238C750.403 907.248 749.321 907.258 748.207 907.268C725.198 907.433 702.641 907.584 680 903C678.899 902.78 677.799 902.561 676.664 902.334C649.89 896.817 626.89 886.429 603.54 872.514C601.808 871.481 600.073 870.454 598.335 869.432C586.633 862.527 575.903 855.333 566 846C565.297 845.403 564.593 844.806 563.868 844.191C561.518 841.435 561.467 839.965 561.391 836.379C561.358 835.277 561.326 834.176 561.293 833.041C561.279 831.893 561.265 830.745 561.25 829.562C561.22 828.449 561.191 827.336 561.16 826.189C561.078 822.793 561.032 819.398 561 816C560.987 814.968 560.974 813.936 560.96 812.873C560.773 786.969 561.573 760.413 571 736C571.408 734.929 571.408 734.929 571.824 733.836C575.93 723.915 581.492 714.088 588 705.562C598.715 691.376 604.724 675.06 609 658C609.918 658.543 610.836 659.085 611.781 659.645C623.392 666.442 632.901 670.189 646.562 670.086C648.086 670.08 648.086 670.08 649.639 670.074C652.703 670.059 655.768 670.039 658.832 670.016C661.166 669.999 663.5 669.984 665.834 669.969C676.215 669.902 686.595 669.816 696.976 669.712C702.023 669.662 707.07 669.616 712.117 669.578C717.073 669.541 722.028 669.495 726.983 669.442C728.852 669.424 730.721 669.408 732.59 669.397C735.192 669.38 737.793 669.351 740.394 669.319C741.151 669.317 741.907 669.315 742.687 669.312C756.48 669.097 769.806 663.159 780 654C794.331 638.544 793.77 620.967 793.812 601.125C793.836 598.587 793.861 596.049 793.889 593.512C793.951 587.341 793.986 581.171 794 575C797.765 573.458 801.405 572.291 805.375 571.375C806.455 571.115 807.535 570.854 808.648 570.586C814.98 569.452 821.588 569.897 828 570Z" fill="white"/>
<path d="M562 853C566.185 856.509 570.17 860.1 574 864C574.721 864.663 575.441 865.325 576.184 866.008C582.657 872.089 587.701 878.836 592.881 886.023C597.258 892.074 601.871 897.569 607 903C608.067 904.246 609.13 905.496 610.187 906.75C619.302 917.146 629.189 926.504 640.298 934.729C641.923 935.942 643.519 937.193 645.113 938.445C669.897 957.545 702.885 970.591 734.027 973.766C753.549 975.838 753.549 975.838 757.352 979.777C759.306 982.796 760.628 985.69 762 989C764.185 991.735 765.357 992.825 768.75 993.75C769.492 993.833 770.235 993.915 771 994C775.789 1011.27 777.061 1032.25 770 1049C769.626 1049.92 769.252 1050.83 768.867 1051.77C762.732 1065.3 751.509 1073.26 737.961 1078.64C713.613 1087.26 684.035 1086.27 659 1081C658.002 1080.79 657.003 1080.58 655.975 1080.37C643.363 1077.65 630.999 1074.47 618.974 1069.77C616.975 1068.99 614.967 1068.24 612.957 1067.49C590.026 1058.69 569.031 1045.41 550 1030C549.455 1029.56 548.911 1029.12 548.35 1028.67C534.311 1017.21 520.957 1004.46 510 990C509.049 988.767 508.099 987.534 507.148 986.301C482 953.429 482 953.429 482 947C485.147 948.09 487.85 949.477 490.637 951.27C497.707 956.017 497.707 956.017 505.742 958.203C508.443 957.457 510.559 956.382 513 955C514.185 954.428 515.369 953.855 516.59 953.266C536.82 943.334 548.855 928.241 556.16 907.047C559.994 893.138 561.03 878.73 561.562 864.375C561.627 862.726 561.627 862.726 561.693 861.043C561.798 858.362 561.9 855.681 562 853Z" fill="white"/>
<path d="M747.547 534.762C750.318 535.031 752.541 535.688 755 537C752.845 541.089 750.469 543.511 746.812 546.313C745.911 547.01 745.01 547.707 744.082 548.426C743.051 549.205 743.051 549.205 742 550C750.673 553.736 759.612 556.48 768.625 559.25C770.121 559.713 771.617 560.177 773.113 560.641C776.741 561.765 780.37 562.884 784 564C783.977 564.627 783.954 565.253 783.93 565.898C783.912 566.716 783.894 567.533 783.875 568.375C783.852 569.187 783.829 569.999 783.805 570.836C783.786 573.214 783.786 573.214 786 575C786.267 577.141 786.267 577.141 786.29 579.826C786.303 580.831 786.316 581.837 786.329 582.873C786.331 583.965 786.334 585.058 786.336 586.184C786.346 587.872 786.346 587.872 786.356 589.594C786.366 591.984 786.371 594.374 786.371 596.763C786.375 600.392 786.411 604.019 786.449 607.647C786.455 609.971 786.459 612.296 786.461 614.621C786.475 615.696 786.49 616.77 786.504 617.877C786.431 630.136 782.388 639.313 774 648.094C767.175 654.626 758.144 660.105 748.461 660.141C747.531 660.146 746.6 660.152 745.641 660.158C744.622 660.159 743.603 660.16 742.553 660.161C740.94 660.169 740.94 660.169 739.295 660.176C735.728 660.191 732.161 660.198 728.594 660.203C726.113 660.209 723.633 660.215 721.152 660.22C715.944 660.231 710.735 660.237 705.526 660.24C698.87 660.245 692.213 660.27 685.557 660.298C680.428 660.317 675.3 660.322 670.171 660.324C667.719 660.327 665.266 660.335 662.813 660.348C659.369 660.365 655.926 660.363 652.482 660.357C650.978 660.37 650.978 660.37 649.443 660.384C635.019 660.3 623.134 655.249 613 645C609.049 640.956 609.29 636.119 608.916 630.785C608.502 626.012 607.671 621.501 606.53 616.857C604.199 607.266 603.284 598.136 603.314 588.273C603.312 585.839 603.252 583.41 603.189 580.977C603.035 568.068 603.035 568.068 606.852 563.313C611.412 559.214 616.755 556.15 622.062 553.125C628.207 549.574 634.026 546.172 639.339 541.453C647.539 534.361 656.508 534.893 666.945 535.465C673.73 536 680.268 536.967 686.904 538.521C711.216 544.955 711.216 544.955 734.609 539.641C736.988 538.144 736.988 538.144 738.523 536.316C741.148 533.977 744.201 534.669 747.547 534.762Z" fill="white"/>
<path d="M793.227 383.492C794.826 383.968 796.416 384.476 798 385C799.12 385.368 800.24 385.735 801.393 386.114C806.082 387.669 810.771 389.227 815.44 390.837C826.942 394.999 826.942 394.999 839 395C839.99 394.34 840.98 393.68 842 393C860.782 396.309 877.399 410.038 888.367 425.078C906.458 451.268 914.796 485.439 914 517C911.011 515.573 908.283 513.916 905.5 512.125C892.798 504.478 875.568 500.429 860.906 503.688C854.878 505.632 851.442 507.67 848 513C847.35 513.928 847.35 513.928 846.687 514.875C845.184 519.522 845.705 524.359 847 529C846.276 529.583 845.551 530.165 844.805 530.766C835.974 538.254 831.563 545.9 828 557C826.438 557.039 826.438 557.039 824.844 557.078C815.57 557.411 807.129 558.653 798.195 561.16C795 562 795 562 792 562C792.232 558.281 793.416 556.366 795.75 553.625C802.565 544.752 804.437 534.666 804.5 523.75C804.506 522.967 804.513 522.183 804.519 521.376C804.144 503.072 799.017 485.168 794.5 467.563C793.912 465.246 793.325 462.929 792.738 460.611C791.659 456.351 790.575 452.092 789.486 447.834C782.605 420.884 782.605 420.884 782.625 408.563C782.626 407.554 782.627 406.544 782.628 405.505C782.739 398.54 783.25 392.07 787 386C787.375 385.376 787.75 384.752 788.137 384.109C790 383 790 383 793.227 383.492Z" fill="white"/>
<path d="M912 538C911.67 576.61 911.34 615.22 911 655C903.74 655 896.48 655 889 655C885.603 655.153 885.603 655.153 882.137 655.309C868.529 655.803 868.529 655.803 864.253 652.754C861.178 649.363 859.488 645.404 857.861 641.169C857.008 639.02 856.026 637.01 854.957 634.961C847.889 621.269 839.948 604.732 842 589C848.584 585.708 858.285 586.76 865.5 586.688C866.468 586.659 867.436 586.63 868.434 586.6C874.581 586.546 879.228 587.471 884.826 590.038C886.879 590.946 888.812 591.525 891 592C890.92 589.283 890.442 587.514 888.656 585.438C884.428 581.593 880.435 579.693 875 578C874.419 577.817 873.837 577.634 873.238 577.445C863.419 575.492 853.885 576.494 845 581C843.515 581.495 843.515 581.495 842 582C842 580.02 842 578.04 842 576C843.98 575.505 843.98 575.505 846 575C845.826 570.302 845.826 570.302 843.437 566.562C842 565 842 565 841.562 561.375C841.918 553.904 844.964 548.608 850.375 543.562C866.089 529.819 897.385 538 912 538Z" fill="white"/>
<path d="M763 376C763.33 376 763.66 376 764 376C763.993 376.939 763.993 376.939 763.986 377.898C763.942 384.502 763.912 391.106 763.89 397.71C763.88 400.165 763.867 402.619 763.849 405.074C763.72 423.656 764.709 441.023 768.562 459.25C768.784 460.324 769.005 461.398 769.232 462.504C769.638 464.472 770.047 466.44 770.459 468.407C770.638 469.263 770.816 470.118 771 471C771.274 472.246 771.274 472.246 771.553 473.518C774.881 491.995 771.742 512.874 762 529C756.991 528.385 751.994 527.728 747 527C747.287 526.346 747.575 525.693 747.871 525.02C749.262 521.298 750.168 517.554 751.062 513.688C751.236 512.966 751.409 512.245 751.588 511.502C753.878 501.718 754.182 492.342 754.187 482.313C754.2 481.027 754.212 479.741 754.225 478.416C754.236 471.17 753.687 464.375 752.465 457.241C748.698 430.993 752.663 400.466 763 376Z" fill="white"/>
<path d="M710 730C716.435 730.271 720.915 732.875 726.437 736C747.926 747.658 768.852 754.093 793.223 754.623C794.076 754.646 794.93 754.668 795.809 754.691C796.95 754.71 796.95 754.71 798.115 754.729C800 755 800 755 802 757C801.926 759.898 801.926 759.898 801 763C792.17 771.383 779.785 774.592 767.932 774.405C749.759 773.653 732.599 764.938 719.441 752.668C716.577 749.537 714.156 746.281 711.812 742.75C711.413 742.16 711.014 741.569 710.603 740.961C708.854 738.173 707.967 736.466 708.199 733.141C709 731 709 731 710 730Z" fill="#194770"/>
<path d="M715.855 573.297C718.671 575.549 721.095 577.931 723 581C723 581.66 723 582.32 723 583C718.982 582.404 715.12 581.518 711.193 580.488C690.942 575.403 671.272 578.347 651 582C650.67 580.35 650.34 578.7 650 577C669.465 563.596 695.368 558.977 715.855 573.297Z" fill="#194770"/>
<path d="M493 878C494.359 881.7 493.619 883.859 492.262 887.488C491.656 889.122 491.656 889.122 491.039 890.788C490.37 892.533 490.37 892.533 489.687 894.312C489.239 895.503 488.791 896.694 488.329 897.921C483.935 909.448 479.072 920.758 474 932C472.257 929.703 470.601 927.401 469 925C468.196 924.753 467.391 924.505 466.562 924.25C464 923 464 923 462.125 919.625C460.756 915.213 460.756 915.213 462 912C463.383 910.359 463.383 910.359 465.125 908.75C470.089 903.986 474.477 898.789 478.934 893.555C479.459 892.939 479.984 892.324 480.525 891.69C481.568 890.465 482.61 889.24 483.649 888.011C486.63 884.512 489.704 881.205 493 878Z" fill="white"/>
<path d="M725.035 1182.45C728.781 1183.5 730.416 1185.04 733 1188C734.194 1191.93 734.448 1193.96 732.812 1197.75C729.689 1201.63 728.174 1202.81 723.125 1203.62C719.539 1203.49 717.935 1202.48 715.5 1199.88C713.735 1197.46 712.986 1195.94 712.25 1193C713.888 1186.45 717.957 1181.76 725.035 1182.45Z" fill="#194770"/>
<path d="M724 1143C726.81 1144.79 728.509 1146.02 730 1149C730.579 1156.06 730.579 1156.06 728.187 1159.94C725.358 1162.61 723.467 1162.95 719.625 1163.38C716 1163 716 1163 713.125 1160.62C710.396 1157.25 709.801 1155.86 710.125 1151.62C710.563 1148.27 710.873 1147.16 713.062 1144.44C716.856 1142.58 719.853 1142.15 724 1143Z" fill="#194770"/>
</g>
<defs>
<clipPath id="clip0_118_1038">
<rect width="1300" height="1300" fill="white"/>
</clipPath>
</defs>
</svg>
