<svg width="1300" height="1300" viewBox="0 0 1300 1300" fill="none" xmlns="http://www.w3.org/2000/svg">
<g clip-path="url(#clip0_118_1052)">
<path d="M627.293 -0.203095C628.721 -0.210118 630.148 -0.217205 631.576 -0.224351C636.113 -0.243751 640.65 -0.248785 645.187 -0.24997C646.347 -0.250633 646.347 -0.250633 647.531 -0.251309C670.114 -0.258077 692.53 -0.055949 714.97 2.75003C717.108 3.01336 719.248 3.26018 721.389 3.50394C791.024 11.4936 859.141 30.7128 922.468 60.8037C924.795 61.9032 927.132 62.977 929.477 64.0391C958.361 77.1915 985.922 93.978 1012 112C1012.77 112.531 1013.54 113.062 1014.33 113.609C1037.41 129.568 1059.5 147.19 1080.07 166.285C1081.94 168.016 1083.82 169.733 1085.71 171.434C1092.45 177.486 1098.9 183.795 1105.31 190.188C1106.58 191.453 1106.58 191.453 1107.88 192.744C1112.23 197.104 1116.43 201.531 1120.45 206.202C1122.69 208.801 1125.03 211.299 1127.38 213.813C1132.49 219.357 1137.27 225.121 1142 231C1143.02 232.241 1144.04 233.48 1145.06 234.719C1150.62 241.468 1156.1 248.277 1161.38 255.25C1161.86 255.87 1162.34 256.489 1162.84 257.128C1166.02 261.408 1166.02 261.408 1165.92 264.344C1164.69 266.557 1163.32 267.103 1161 268C1157.37 264.459 1154.01 260.767 1150.75 256.875C1150.27 256.304 1149.79 255.734 1149.29 255.146C1146.38 251.677 1143.52 248.163 1140.69 244.625C1136.4 239.352 1131.81 234.406 1127.14 229.477C1124.3 226.483 1121.53 223.465 1118.85 220.328C1114.23 215.01 1109.22 210.069 1104.23 205.1C1102.57 203.441 1100.91 201.776 1099.25 200.111C1093.67 194.53 1088.01 189.124 1082 184C1080.22 182.38 1078.45 180.756 1076.69 179.125C1072.28 175.106 1067.76 171.271 1063.12 167.527C1060.79 165.65 1058.49 163.74 1056.2 161.816C1040.57 148.732 1024.18 137.006 1007.25 125.688C1006.56 125.223 1005.86 124.759 1005.15 124.281C930.618 74.4517 844.808 40.2085 732.187 22.25C731.423 22.1488 730.659 22.0476 729.872 21.9433C704.318 18.599 678.804 17.6194 653.062 17.6875C651.573 17.6898 650.083 17.6919 648.593 17.6941C627.368 17.7361 606.274 18.0399 585.194 20.7214C582.823 21.0225 580.451 21.3123 578.08 21.6021C510.167 30.0068 444.488 48.5533 382.581 77.7876C380.232 78.891 377.875 79.9722 375.512 81.043C329.678 101.926 286.637 130.802 248 163C247.227 163.644 247.227 163.644 246.437 164.301C239.73 169.895 233.152 175.594 226.73 181.516C224.607 183.448 222.46 185.332 220.287 187.206C216.266 190.722 212.453 194.402 208.684 198.184C208.023 198.843 207.363 199.502 206.683 200.181C205.3 201.564 203.917 202.948 202.536 204.333C200.443 206.432 198.344 208.526 196.244 210.619C194.89 211.974 193.537 213.328 192.184 214.684C191.258 215.606 191.258 215.606 190.314 216.547C186.014 220.87 181.972 225.375 178 230C177.05 231.094 176.099 232.188 175.148 233.281C157.892 253.263 141.62 274.001 127 296C126.557 296.665 126.115 297.331 125.659 298.016C114.286 315.188 103.807 332.892 94 351C93.5739 351.778 93.1479 352.557 92.7089 353.358C51.0562 429.66 28.6402 516.176 19.8125 648.188C19.8131 649.24 19.8137 650.293 19.8143 651.378C19.9104 713.375 29.4877 774.827 48 834C48.5757 835.851 48.5757 835.851 49.163 837.739C58.2701 866.732 69.8484 894.617 83 922C83.4505 922.945 83.901 923.89 84.3652 924.863C91.0367 938.791 98.528 952.141 106.447 965.394C107.755 967.589 109.047 969.792 110.328 972.004C127.935 1002.22 149.112 1030.59 172 1057C172.172 1056.47 172.345 1055.95 172.522 1055.41C179.45 1034.45 188.004 1014.65 198 995C198.412 994.187 198.823 993.373 199.248 992.535C211.57 968.528 235.961 952.852 259 940C259.811 939.547 260.622 939.093 261.458 938.626C313.79 909.686 373.558 895.867 432.437 888.125C433.224 888.021 434.01 887.918 434.821 887.811C455.17 885.161 455.17 885.161 464 885C464.33 885.33 464.66 885.66 465 886C472.276 868.08 474.641 849.069 477 830C477.121 829.044 477.243 828.087 477.368 827.102C479.16 812.354 479.178 797.585 479.187 782.75C479.189 781.755 479.19 780.759 479.191 779.734C479.19 776.88 479.181 774.026 479.168 771.172C479.167 770.306 479.165 769.441 479.164 768.549C479.158 767.745 479.152 766.941 479.145 766.112C479.141 765.412 479.138 764.712 479.134 763.99C478.776 758.66 476.923 756.643 473 753C472.375 752.306 472.375 752.306 471.738 751.598C469.777 749.795 467.641 748.473 465.368 747.096C457.94 742.587 451.623 737.472 445.429 731.398C444.021 730.021 442.591 728.666 441.16 727.312C434.343 720.734 428.496 713.683 423 706C422.6 705.444 422.199 704.888 421.787 704.315C393.029 663.953 378.849 615.885 374 567C373.868 565.746 373.737 564.491 373.602 563.199C371.876 542.98 372.741 522.523 374.562 502.352C374.932 498.209 375.094 494.157 375 490C373.993 489.804 372.986 489.608 371.949 489.406C343.707 483.548 316.817 468.993 300.211 444.864C293.212 434.092 288.957 422.443 286 410C285.631 408.457 285.631 408.457 285.254 406.883C278.346 370.963 289.514 331.728 309.414 301.734C327.034 275.991 350.191 254.407 381.827 248.47C397.169 246.2 413.27 247.231 428 252C429.097 252.351 430.194 252.701 431.324 253.063C453.264 260.834 470.911 274.432 487 291C489.653 289.713 492.167 288.325 494.66 286.75C567.86 240.957 652.743 235.831 735.687 254.25C779.09 264.266 831.8 278.544 867 307C867.798 307.61 868.596 308.219 869.418 308.848C880.528 317.449 890.459 326.823 899 338C899.714 338.887 900.428 339.774 901.164 340.688C910.589 352.677 917.822 365.7 923.375 379.875C926.799 388.473 930.988 393.831 937.793 399.977C957.705 418.082 969.748 449.964 971.124 476.385C971.675 494.116 969.396 510.245 964.778 527.313C959.22 547.921 959.03 570.207 964 591C964.188 591.796 964.376 592.592 964.57 593.413C969.825 614.932 979.263 634.724 988.945 654.537C1011.19 700.121 1011.19 700.121 1006.18 720.32C1004.77 724.229 1003.31 727.539 1001 731C998.906 731.328 998.906 731.328 996.5 731.25C995.706 731.235 994.912 731.219 994.094 731.203C992 731 992 731 990 730C990.021 729.396 990.042 728.793 990.063 728.171C990.715 711.646 990.715 711.646 986 696C985.661 695.267 985.322 694.533 984.973 693.777C982.856 689.627 980.248 685.94 977.484 682.195C976.842 681.325 976.842 681.325 976.187 680.438C975.758 679.856 975.329 679.275 974.887 678.676C970.019 671.914 966.503 664.534 963 657C966.744 667.51 970.496 677.985 974.875 688.25C979.79 699.966 982.644 712.904 978.5 725.375C978.005 726.571 977.51 727.768 977 729C967.273 729.112 957.696 728.93 948 728C948.144 727.224 948.289 726.448 948.437 725.648C952.25 703.463 948.299 684.529 940 664C939.414 662.525 938.83 661.05 938.246 659.574C937.23 657.013 936.202 654.459 935.164 651.906C934.384 649.96 933.663 647.989 933 646C933.273 647.947 933.273 647.947 933.551 649.934C934.238 654.874 934.904 659.818 935.563 664.762C935.849 666.879 936.14 668.994 936.436 671.109C938.591 686.49 939.409 701.471 939 717C935.15 716.396 932.139 715.232 928.687 713.438C927.804 712.982 926.921 712.527 926.012 712.059C925.348 711.709 924.684 711.36 924 711C923.873 712.143 923.873 712.143 923.744 713.31C920.774 739.346 915.604 764.516 906 789C905.668 789.856 905.335 790.713 904.993 791.595C897.828 809.83 888.356 825.822 876 841C875.261 841.919 874.523 842.838 873.762 843.785C868.432 850.364 862.961 856.824 857.472 863.269C855.937 865.073 854.408 866.882 852.879 868.691C848.272 874.124 843.702 879.496 838.562 884.438C836.829 886.171 835.268 888.002 833.687 889.875C829.513 894.698 824.822 898.837 820 903C819.013 903.864 818.025 904.727 817.008 905.617C811.336 910.512 805.724 914.672 799 918C805.143 920.524 811.329 922.852 817.599 925.042C846.253 935.085 876.347 946.867 898.781 967.957C903.612 972.405 908.062 975.112 914.062 977.625C958.551 996.927 994.294 1023.37 1017 1067C1017.37 1067.7 1017.74 1068.41 1018.12 1069.14C1026.89 1086.15 1033.52 1104.13 1040.42 1121.95C1042.25 1126.65 1044.11 1131.33 1046 1136C1057.82 1127.49 1068.59 1117.63 1079.2 1107.69C1081.18 1105.83 1083.18 1103.99 1085.17 1102.14C1093.29 1094.61 1101.07 1086.92 1108.47 1078.68C1110.73 1076.19 1113.05 1073.76 1115.36 1071.31C1120.73 1065.62 1125.91 1059.85 1130.8 1053.72C1132.8 1051.25 1134.85 1048.83 1136.93 1046.42C1143.68 1038.57 1149.88 1030.35 1156 1022C1156.54 1021.27 1157.08 1020.53 1157.63 1019.77C1165.03 1009.69 1172.21 999.498 1179 989C1179.69 987.932 1179.69 987.932 1180.4 986.842C1188.4 974.484 1195.86 961.87 1203 949C1203.58 947.968 1204.15 946.936 1204.75 945.873C1243.52 876.14 1268.53 798.302 1278.25 719.125C1278.4 717.905 1278.55 716.685 1278.71 715.428C1281.36 692.568 1282.38 669.756 1282.32 646.749C1282.31 644.649 1282.31 642.549 1282.31 640.448C1282.27 618.185 1281.59 596.127 1279 574C1278.87 572.881 1278.87 572.881 1278.74 571.739C1273.38 524.649 1262.98 478.936 1248 434C1247.68 433.041 1247.68 433.041 1247.35 432.063C1239.78 409.431 1230.89 387.191 1220.11 365.883C1218.89 362.724 1218.78 360.356 1219 357C1220.81 356.313 1220.81 356.313 1223 356C1225.41 357.987 1226.77 360.145 1228.17 362.91C1228.58 363.717 1228.99 364.523 1229.41 365.354C1229.85 366.248 1230.29 367.142 1230.75 368.063C1231.22 369.02 1231.7 369.978 1232.19 370.964C1264.16 436.422 1285.01 505.548 1293 578C1293.08 578.754 1293.17 579.508 1293.25 580.284C1298.17 625.423 1298.1 671.882 1293 717C1292.92 717.76 1292.83 718.52 1292.74 719.302C1283.4 802.153 1258.79 883.183 1143.4 1066.36C1141.98 1068.02 1140.57 1069.69 1139.17 1071.36C1127.31 1085.42 1114.54 1098.55 1101.56 1111.56C1101 1112.13 1100.44 1112.69 1099.86 1113.27C1093.75 1119.4 1087.59 1125.39 1081 1131C1079.39 1132.45 1077.79 1133.91 1076.19 1135.38C1071.92 1139.22 1067.55 1142.9 1063.09 1146.5C1060.85 1148.31 1058.63 1150.13 1056.41 1151.96C1030.14 1173.66 1001.59 1193.11 972 1210C970.944 1210.61 970.944 1210.61 969.866 1211.23C964.621 1214.23 959.323 1217.13 954 1220C953.054 1220.51 952.108 1221.03 951.133 1221.55C879.27 1260.31 799.141 1284.36 718 1293C717.314 1293.07 716.629 1293.15 715.923 1293.22C670.334 1298.1 623.572 1298.02 578 1293C577.24 1292.92 576.48 1292.83 575.697 1292.75C524.797 1287.17 475.216 1275.09 427 1258C426.359 1257.77 425.719 1257.55 425.059 1257.32C383.678 1242.73 344.361 1222.91 307 1200C306.095 1199.45 305.19 1198.89 304.258 1198.32C292.849 1191.32 281.833 1183.86 271 1176C270.232 1175.45 269.463 1174.89 268.671 1174.32C257.479 1166.23 246.605 1157.84 236 1149C235.415 1148.51 234.83 1148.03 234.227 1147.53C227.583 1142 221.086 1136.34 214.73 1130.48C212.625 1128.57 210.498 1126.7 208.341 1124.85C203.991 1121.04 199.888 1117.03 195.809 1112.94C195.06 1112.19 194.311 1111.45 193.539 1110.67C191.967 1109.1 190.397 1107.53 188.827 1105.96C186.444 1103.57 184.055 1101.19 181.666 1098.8C180.13 1097.27 178.594 1095.73 177.059 1094.19C176.354 1093.49 175.65 1092.79 174.924 1092.06C170.417 1087.53 166.161 1082.85 162 1078C160.955 1076.81 159.908 1075.62 158.859 1074.43C152.145 1066.77 145.694 1058.97 139.476 1050.9C137.885 1048.85 136.274 1046.82 134.66 1044.79C126.815 1034.88 119.495 1024.72 112.476 1014.21C111.11 1012.16 109.733 1010.13 108.352 1008.1C80.3824 966.846 57.164 921.77 40 875C39.7583 874.341 39.5166 873.683 39.2675 873.005C20.2464 820.966 8.48335 766.887 2.68745 711.812C2.56535 710.658 2.56538 710.658 2.44081 709.481C0.364433 689.561 -0.206248 669.775 -0.187547 649.75C-0.186943 648.553 -0.186338 647.357 -0.185716 646.124C-0.160888 627.996 0.162958 610.048 1.99995 592C2.19331 590.042 2.19331 590.042 2.39058 588.043C10.7943 504.275 35.084 423.697 124 266C124.577 265.194 125.155 264.389 125.75 263.559C134.065 251.995 142.803 240.873 152 230C152.529 229.372 153.057 228.744 153.602 228.098C160.091 220.403 166.749 212.89 173.598 205.515C175.051 203.945 176.493 202.366 177.934 200.785C186.44 191.467 195.063 182.212 204.687 174.031C207.296 171.74 209.817 169.367 212.342 166.984C218.08 161.571 223.854 156.31 230.023 151.387C232.303 149.559 234.552 147.71 236.789 145.832C253.109 132.164 270.309 119.825 288 108C288.789 107.471 289.579 106.941 290.393 106.396C359.996 59.8892 438.705 27.9292 627.293 -0.203095ZM931 639C932 641 932 641 932 641L931 639Z" fill="#194770"/>
<path d="M821 388.5C828.21 393.237 833.087 398.088 836.812 405.875C838.515 408.727 839.72 410.598 842.968 411.618C847.852 412.447 852.787 412.584 857.728 412.822C867.3 413.571 875.386 418.517 883 424C883.635 424.45 884.271 424.9 884.926 425.363C903.672 439.973 909.953 466.205 912.969 488.586C914.108 497.859 913.936 506.718 913 516C909.851 514.823 907.184 513.554 904.437 511.625C892.901 504.274 877.474 501.692 864 503C856.806 504.599 852.03 506.761 848 513C847.567 513.619 847.134 514.237 846.687 514.875C844.942 520.27 845.648 525.925 848 531C851.642 532.214 855.122 532.32 858.922 532.5C859.7 532.541 860.478 532.581 861.28 532.623C863.77 532.753 866.26 532.877 868.75 533C871.226 533.123 873.701 533.248 876.177 533.377C877.716 533.457 879.256 533.534 880.795 533.607C881.506 533.644 882.216 533.681 882.948 533.719C883.563 533.749 884.178 533.779 884.812 533.811C886.603 533.966 888.386 534.211 890.163 534.482C894.589 535.079 898.98 535.343 903.437 535.562C904.678 535.627 904.678 535.627 905.943 535.693C907.962 535.798 909.981 535.9 912 536C911.939 551.815 911.861 567.629 911.764 583.443C911.72 590.789 911.68 598.136 911.654 605.482C911.63 611.9 911.596 618.318 911.551 624.736C911.528 628.121 911.51 631.505 911.502 634.89C911.463 649.954 910.897 664.736 909.041 679.697C907.651 689.334 907.651 689.334 908 699C908.825 699.66 909.65 700.32 910.5 701C913 703 913 703 913.314 704.891C913.209 712.374 912.231 719.624 911 727C910.891 727.65 910.783 728.301 910.671 728.971C907.057 750.275 900.272 770.497 891 790C890.616 790.81 890.232 791.62 889.837 792.455C881.337 810.106 869.894 825.339 857 840C856.366 840.733 855.732 841.467 855.078 842.223C853.398 844.16 851.702 846.082 850 848C849.327 848.766 848.654 849.531 847.961 850.32C843.019 855.89 837.854 861.177 832.559 866.406C830.412 868.582 828.406 870.79 826.437 873.125C823.101 877.026 819.389 880.39 815.535 883.773C813.918 885.193 812.32 886.634 810.746 888.102C791.96 905.51 770.845 905.187 746.574 905.185C743.6 905.188 740.625 905.206 737.65 905.225C719.835 905.278 702.146 904.193 684.625 900.812C683.503 900.599 682.38 900.385 681.224 900.165C622.195 888.463 569.09 857.505 534.637 807.629C533 805 533 805 533 803C531.68 803.66 530.36 804.32 529 805C535.191 826.218 549.925 844.361 565 860C565.651 860.703 566.302 861.405 566.973 862.129C570.435 865.767 574.096 868.885 578.09 871.912C585.166 877.276 590.632 882.867 596 890C602.346 897.975 608.991 905.607 616 913C616.473 913.502 616.946 914.004 617.434 914.521C624.516 921.982 632.022 928.547 640.266 934.697C641.902 935.926 643.512 937.189 645.121 938.453C669.91 957.544 702.885 970.591 734.027 973.766C753.549 975.838 753.549 975.838 757.352 979.777C759.306 982.796 760.628 985.69 762 989C764.185 991.735 765.357 992.825 768.75 993.75C769.492 993.833 770.235 993.915 771 994C775.789 1011.27 777.061 1032.25 770 1049C769.626 1049.92 769.252 1050.83 768.867 1051.77C762.732 1065.3 751.509 1073.26 737.961 1078.64C713.613 1087.26 684.035 1086.27 659 1081C658.002 1080.79 657.003 1080.58 655.975 1080.37C643.363 1077.65 630.999 1074.47 618.974 1069.77C616.975 1068.99 614.967 1068.24 612.957 1067.49C590.026 1058.69 569.031 1045.41 550 1030C549.455 1029.56 548.911 1029.12 548.35 1028.67C534.311 1017.21 520.957 1004.46 510 990C509.049 988.767 508.099 987.534 507.148 986.301C496.222 972.026 486.83 957.283 478.078 941.578C477.568 940.666 477.058 939.754 476.533 938.814C475.472 936.867 474.447 934.901 473.451 932.92C472.946 931.931 472.442 930.941 471.922 929.922C471.258 928.578 471.258 928.578 470.581 927.206C468.657 924.522 467.075 924.042 464 923C461.563 919.924 460.398 916.903 460 913C461.233 910.226 462.866 908.234 464.789 905.887C471.817 896.71 476.295 884.839 480 874C480.351 872.998 480.351 872.998 480.71 871.975C490.132 844.694 492.829 815.475 493.16 786.77C493.174 785.779 493.188 784.788 493.202 783.767C493.27 778.765 493.313 773.766 493.308 768.763C493.325 766.909 493.344 765.054 493.363 763.199C493.348 761.918 493.348 761.918 493.332 760.611C493.405 756.211 493.51 754.571 496.477 751.113C497.726 750.067 497.726 750.067 499 749C500.187 745.439 500.351 742.027 500.562 738.312C500.627 737.26 500.627 737.26 500.693 736.186C500.799 734.457 500.9 732.729 501 731C500.456 730.831 499.912 730.661 499.352 730.487C478.832 723.897 461.353 712.967 446 698C444.927 697.037 444.927 697.037 443.832 696.055C426.889 680.431 417.358 655.949 415.738 633.348C415.13 612.351 420.722 594.018 435.156 578.523C443.338 571.264 451.089 570.784 461.625 570.688C462.655 570.659 463.685 570.63 464.746 570.6C481.132 570.466 493.649 578.841 505 590C505.628 590.615 506.255 591.23 506.902 591.863C513.296 598.634 518.122 607.272 521.598 615.875C522.638 619.137 522.638 619.137 525.187 619.938C525.786 619.958 526.384 619.979 527 620C526.835 618.886 526.67 617.773 526.5 616.625C525.879 611.745 525.909 606.911 526 602C530.549 602 532.833 603.406 536.562 605.688C553.303 615.573 569.804 620.14 589.25 616C608.395 610.202 623.89 597.693 638 584C638.824 583.216 639.647 582.432 640.496 581.625C645.278 576.984 649.542 572.057 653.703 566.855C655.981 564.024 658.328 561.264 660.687 558.5C666.342 551.739 671.514 544.637 676.703 537.516C677.255 536.767 677.807 536.017 678.376 535.246C679.465 533.739 680.525 532.212 681.556 530.665C685.284 525.226 685.284 525.226 688.699 524.148C689.685 524.223 690.671 524.298 691.687 524.375C692.898 524.446 694.108 524.517 695.355 524.59C696.065 524.653 696.774 524.716 697.505 524.781C700.477 525.042 703.45 525.241 706.426 525.441C724.358 526.684 724.358 526.684 731.609 527.496C738.626 528.332 738.626 528.332 745.25 526.375C749.408 522.784 749.845 520.578 750.375 515.188C750.191 509.086 747.534 504.731 743.562 500.25C733.718 493.013 719.691 492.938 708 492C709.524 487.626 711.843 483.986 714.437 480.188C714.878 479.535 715.319 478.883 715.774 478.211C716.708 476.832 717.644 475.455 718.582 474.079C719.956 472.065 721.32 470.045 722.684 468.023C731.827 454.529 741.52 441.489 752 429C752.906 427.906 753.813 426.813 754.719 425.719C767.551 410.297 797.859 375.628 821 388.5Z" fill="white"/>
<path d="M466 933C465.67 933.99 465.34 934.98 465 936C462.45 937.239 462.45 937.239 459.043 938.453C458.432 938.674 457.821 938.895 457.192 939.123C455.194 939.843 453.191 940.547 451.187 941.25C449.814 941.741 448.441 942.233 447.068 942.727C443.67 943.944 440.268 945.147 436.864 946.344C434.199 947.282 431.537 948.228 428.875 949.172C424.952 950.557 421.027 951.939 417.089 953.282C415.678 953.767 414.27 954.266 412.868 954.777C406.84 956.916 400.803 958.09 394.5 959.125C393.519 959.294 392.538 959.463 391.527 959.637C382.812 961.111 374.233 962.148 365.391 962.238C364.593 962.248 363.796 962.257 362.975 962.267C360.4 962.292 357.825 962.304 355.25 962.313C353.927 962.318 353.927 962.318 352.578 962.325C338.461 962.354 325.037 961.24 311.109 958.875C295.254 956.321 283.147 959.749 270 969C268.192 971.088 268.192 971.088 267 973C268.155 973.309 269.31 973.619 270.5 973.938C287.468 979.638 306.929 992.679 315.039 1008.89C318.126 1014.89 320.901 1019.67 327.586 1021.84C372.981 1032.45 419.364 1019.15 461.319 1002.86C468.283 1000.2 475.338 997.845 482.437 995.563C483.499 995.22 484.56 994.878 485.654 994.525C490.414 993.019 495.024 991.606 500 991C500.66 992.32 501.32 993.64 502 995C501.109 995.245 500.218 995.49 499.301 995.742C480.263 1001.1 461.614 1007.81 443.125 1014.81C406.045 1028.84 366.329 1034.02 327 1026C327.316 1026.58 327.633 1027.15 327.959 1027.75C353 1073.68 353 1073.68 353 1090C396.947 1094.77 433.631 1084.12 474.238 1069.27C489.57 1063.67 504.924 1058.97 521 1056C522.661 1055.69 522.661 1055.69 524.355 1055.38C537.435 1053.28 559.966 1049.81 571.437 1057.5C572.117 1057.94 572.796 1058.39 573.496 1058.84C573.992 1059.23 574.489 1059.61 575 1060C575 1060.33 575 1060.66 575 1061C573.312 1060.86 571.625 1060.71 569.937 1060.56C568.998 1060.48 568.058 1060.4 567.09 1060.32C564.964 1060.1 562.844 1059.82 560.734 1059.48C525.014 1054.88 490.53 1068.59 457.55 1080.38C420.775 1093.51 420.775 1093.51 404 1095C402.725 1095.13 401.45 1095.25 400.137 1095.38C391.954 1096.03 383.768 1096.09 375.562 1096.12C374.555 1096.13 373.548 1096.13 372.511 1096.14C366.593 1096.13 360.868 1095.76 355 1095C355.314 1096.19 355.629 1097.38 355.953 1098.61C358.65 1109.16 360.743 1119.72 362.312 1130.5C362.484 1131.64 362.655 1132.79 362.831 1133.96C363.904 1141.68 364.195 1149.21 364 1157C370.061 1157.08 376.121 1157.13 382.182 1157.16C384.235 1157.18 386.288 1157.2 388.341 1157.23C417.154 1157.59 441.779 1150.68 468.788 1141.16C483.873 1135.87 498.938 1130.83 514.5 1127.12C515.766 1126.82 517.031 1126.52 518.335 1126.21C530.433 1123.46 542.576 1121.61 555 1121.75C555.944 1121.76 556.889 1121.77 557.862 1121.77C565.694 1121.9 573.311 1122.44 581 1124C581.746 1124.15 582.492 1124.3 583.26 1124.46C599.12 1127.82 614.443 1132.95 629.844 1137.94C643.668 1142.41 657.426 1146.51 671.658 1149.5C673.214 1149.83 674.766 1150.18 676.315 1150.54C704.647 1157.21 733.935 1152.68 761.85 1146.48C765.273 1145.72 768.703 1144.99 772.133 1144.27C775.716 1143.51 779.297 1142.75 782.873 1141.95C798.865 1138.42 814.445 1136.81 830.829 1136.76C832.867 1136.75 834.904 1136.72 836.941 1136.69C849.587 1136.59 861.476 1138.94 873.562 1142.62C874.402 1142.88 875.242 1143.14 876.107 1143.4C891.485 1148.24 906.118 1155.04 920.827 1161.57C946.921 1173.2 946.921 1173.2 974.228 1181.46C976.166 1181.92 978.085 1182.45 980 1183C980.33 1183.66 980.66 1184.32 981 1185C977.59 1187.27 976.23 1187.1 972.303 1186.48C952.781 1182.43 934.447 1173.06 916.406 1164.89C902.64 1158.66 888.822 1152.72 874.437 1148.06C873.606 1147.79 872.774 1147.52 871.916 1147.24C859.492 1143.39 847.255 1141.43 834.25 1141.5C833.236 1141.5 833.236 1141.5 832.202 1141.51C805.562 1141.67 779.765 1147.29 753.91 1153.2C751.274 1153.8 748.637 1154.4 746 1155C745.059 1155.21 744.118 1155.43 743.148 1155.65C721.901 1160.32 696.326 1160.23 675.115 1155.47C672.963 1154.99 670.805 1154.57 668.641 1154.14C655.266 1151.37 642.355 1147 629.371 1142.82C617.763 1139.09 606.149 1135.48 594.375 1132.31C593.229 1132 592.083 1131.68 590.903 1131.36C579.232 1128.29 567.388 1126.61 555.312 1126.69C554.384 1126.69 553.455 1126.7 552.498 1126.7C542.828 1126.86 533.474 1128.11 524 1130C523.263 1130.15 522.526 1130.29 521.767 1130.44C505.775 1133.72 490.381 1139.43 474.948 1144.65C445.508 1154.62 419.391 1162.01 388.062 1162.12C386.83 1162.13 385.597 1162.13 384.327 1162.14C377.489 1162.13 370.787 1161.86 364 1161C364.01 1161.85 364.021 1162.7 364.032 1163.58C364.365 1194.79 364.365 1194.79 362 1209C358.003 1207.76 354.444 1206.3 350.789 1204.27C349.803 1203.72 348.818 1203.17 347.802 1202.61C346.754 1202.02 345.705 1201.42 344.625 1200.81C343.528 1200.19 342.431 1199.58 341.301 1198.94C324.011 1189.12 307.227 1178.49 291 1167C289.79 1166.15 288.581 1165.3 287.371 1164.45C265.865 1149.29 245.214 1132.62 225.93 1114.71C224.073 1112.99 222.205 1111.29 220.32 1109.6C213.352 1103.34 206.692 1096.8 200.062 1090.19C199.15 1089.28 198.237 1088.37 197.297 1087.44C195.582 1085.72 193.88 1083.99 192.192 1082.24C190.119 1080.06 190.119 1080.06 188.226 1078.45C185.934 1076.29 185.035 1074.48 184.807 1071.36C185.188 1064.19 187.032 1057.7 189.5 1051C189.857 1050.01 190.213 1049.02 190.581 1048C195.744 1033.93 202.01 1020.56 209.125 1007.38C209.604 1006.49 210.082 1005.6 210.575 1004.68C217.999 991.223 226.691 981.431 238.687 971.938C239.425 971.34 240.162 970.743 240.921 970.128C241.632 969.579 242.342 969.03 243.074 968.465C243.709 967.966 244.344 967.467 244.999 966.953C248.636 965.221 251.839 966.948 255.5 968.125C259.13 969.033 260.5 969.06 264 968C266.612 966.334 266.612 966.334 269.187 964.25C281.654 954.9 293.264 951.321 308.865 953.378C310.713 953.716 312.559 954.065 314.403 954.424C351.667 961.649 391.823 957.677 427.25 944.688C428.318 944.3 429.385 943.913 430.485 943.514C437.87 940.82 445.217 938.033 452.518 935.12C461.497 931.553 461.497 931.553 466 933Z" fill="white"/>
<path d="M765 951C807.879 950.475 838.951 960.082 876.076 981.333C891.732 990.258 907.659 998.402 924 1006C923.67 1005.01 923.34 1004.02 923 1003C923.33 1002.34 923.66 1001.68 924 1001C980.127 1032.94 1006.83 1079.92 1025 1141C1025.69 1144.56 1025.69 1144.56 1025 1148C1020.06 1154.09 1013.65 1158.82 1007.37 1163.44C1006.07 1164.41 1006.07 1164.41 1004.74 1165.39C984.924 1180 984.924 1180 982 1180C980.044 1169.76 978.167 1159.51 976.312 1149.25C976.086 1148.01 975.859 1146.77 975.626 1145.5C975.416 1144.33 975.205 1143.16 974.988 1141.95C974.798 1140.9 974.607 1139.85 974.411 1138.77C974 1136 974 1136 974 1132C972.863 1131.88 971.726 1131.77 970.555 1131.65C943.689 1128.24 917.883 1113.21 894.017 1101.26C879.159 1093.85 863.918 1086.43 847.562 1083.06C846.258 1082.77 846.258 1082.77 844.928 1082.47C842.622 1081.96 840.314 1081.47 838 1081C837.254 1080.82 836.508 1080.64 835.739 1080.45C832.091 1079.85 828.484 1079.84 824.797 1079.83C823.603 1079.83 823.603 1079.83 822.385 1079.82C820.697 1079.82 819.009 1079.81 817.321 1079.81C814.8 1079.81 812.279 1079.79 809.758 1079.78C794.591 1079.72 780.136 1081.37 765.293 1084.51C762.351 1084.95 760.737 1085.03 758 1084C766.09 1074.48 788.126 1075.34 799.74 1074.26C835.765 1071.39 866.201 1082.29 898.078 1097.96C933.852 1115.65 933.852 1115.65 972 1127C965.729 1102.25 965.729 1102.25 957.996 1077.94C957 1075 957 1075 957 1073C955.927 1072.92 954.855 1072.84 953.75 1072.75C947.891 1072.01 942.52 1069.96 937 1067.94C935.882 1067.53 934.764 1067.12 933.612 1066.7C925.6 1063.72 917.998 1060.35 910.466 1056.31C907.384 1054.67 904.281 1053.08 901.176 1051.48C880.55 1040.87 880.55 1040.87 874.055 1037.31C858.884 1029 842.079 1021.14 824.875 1018.38C824.103 1018.25 823.331 1018.13 822.536 1018C809.499 1016.13 796.148 1016.23 783 1016C783 1014.68 783 1013.36 783 1012C818.303 1011.37 818.303 1011.37 832 1015C833.263 1015.33 834.526 1015.66 835.828 1016C856.371 1021.73 875.29 1032.01 894 1042C913.965 1052.63 933.574 1061.6 955 1069C950.313 1057.04 945.32 1045.27 939.75 1033.69C939.255 1032.66 938.761 1031.63 938.251 1030.57C937.299 1028.61 936.329 1026.65 935.342 1024.71C934 1022 934 1022 932.986 1019.45C931.305 1015.6 930.013 1013.53 926.229 1011.54C923.998 1010.7 921.747 1009.91 919.483 1009.16C913.964 1007.32 908.874 1004.68 903.687 1002.06C902.569 1001.5 901.45 1000.94 900.297 1000.36C891.664 995.972 883.315 991.191 874.989 986.25C858.982 976.791 842.713 967.812 825 962C824.291 961.751 823.582 961.502 822.852 961.246C817.899 959.525 813.052 958.206 807.875 957.375C807.103 957.25 806.331 957.125 805.536 956.997C792.499 955.125 779.148 955.228 766 955C765.67 953.68 765.34 952.36 765 951Z" fill="white"/>
<path d="M719.984 729.73C727.661 732.429 734.263 736.457 741.124 740.763C752.482 747.871 763.925 753.736 777 757C777.742 757.196 778.485 757.392 779.25 757.594C783.434 758.212 787.59 758.103 791.812 758.062C792.696 758.058 793.58 758.053 794.49 758.049C796.66 758.037 798.83 758.019 801 758C800 761 800 761 798 762C796 762.04 793.999 762.043 792 762C791.959 763.073 791.917 764.145 791.875 765.25C790.68 774.608 785 783.806 778 790C766.587 798.403 754.996 801.585 740.965 799.562C726.257 796.462 714.699 788.249 705.937 776.152C699.339 765.586 693.646 752.332 696.512 739.754C697.973 735.15 699.843 732.665 704 730C708.813 727.593 714.923 728.492 719.984 729.73Z" fill="#194770"/>
<path d="M830 572C830.99 572 831.98 572 833 572C833.506 573.748 834.005 575.499 834.5 577.25C834.778 578.225 835.057 579.199 835.344 580.203C836 583 836 583 836 587C836.701 586.457 837.402 585.915 838.125 585.355C849.283 576.941 857.149 574.979 871 576C878.595 577.344 884.66 580.276 889.937 586C892 589 892 589 891.812 591.375C891.41 592.179 891.41 592.179 891 593C887.738 591.94 884.608 590.828 881.465 589.445C876.351 587.529 871.467 587.59 866.062 587.688C865.062 587.696 864.062 587.704 863.031 587.713C854.264 587.853 845.664 588.697 837 590C838.961 595.348 840.973 600.676 843 606C843.348 606.922 843.697 607.843 844.056 608.792C849.207 622.332 854.928 635.379 861.621 648.234C868.024 660.603 871.584 671.283 867.437 685.188C861.97 699.665 851.158 709.137 837.391 715.559C829.378 718.965 822.734 720.502 814 720C813.34 718.68 812.68 717.36 812 716C814.928 713.5 817.976 712.086 821.533 710.655C833.899 705.675 844.132 698.592 850.316 686.406C853.398 678.933 855.119 671.478 852.114 663.709C850.113 659.193 847.9 654.788 845.676 650.379C839.327 637.787 835.031 625.017 832.427 611.167C832.135 609.686 831.81 608.211 831.456 606.743C829.764 599.437 829.771 592.347 829.875 584.875C829.884 583.632 829.893 582.39 829.902 581.109C829.926 578.073 829.958 575.036 830 572Z" fill="#194770"/>
<path d="M630.259 1202.8C671.789 1216.15 708.669 1224.15 752 1216C752.854 1215.84 753.708 1215.68 754.588 1215.51C766.477 1213.23 778.223 1210.29 789.988 1207.45C791.992 1206.97 793.996 1206.48 796 1206C796.834 1205.8 797.669 1205.6 798.529 1205.39C842.072 1194.96 879.811 1199.19 921 1216C921 1216.66 921 1217.32 921 1218C914.865 1219.89 910.483 1217.64 904.812 1215.38C859.086 1197.96 817.882 1205.12 771.5 1216.9C741.295 1224.52 711.831 1227.98 681 1222C680.157 1221.84 679.315 1221.68 678.447 1221.51C660.14 1217.85 642.355 1211.95 624.561 1206.38C569.993 1189.34 527.316 1196.63 473.973 1213.92C473.214 1214.17 472.455 1214.41 471.673 1214.67C467.975 1215.87 464.278 1217.07 460.583 1218.28C442.915 1224.06 426.267 1227.96 407.625 1228.25C406.852 1228.27 406.078 1228.29 405.281 1228.31C400.69 1228.34 397.749 1227.96 394 1225C394 1224.67 394 1224.34 394 1224C394.794 1223.96 395.587 1223.92 396.405 1223.88C424.596 1222.41 449.147 1217.36 475.804 1208.13C484.149 1205.25 492.555 1202.58 501 1200C502.12 1199.65 503.24 1199.3 504.394 1198.93C511.89 1196.67 519.47 1194.95 527.125 1193.31C528.115 1193.1 529.104 1192.88 530.124 1192.66C564.961 1185.44 597.073 1192.09 630.259 1202.8Z" fill="white"/>
<path d="M649.75 520.812C650.735 521.025 651.72 521.238 652.734 521.457C653.482 521.636 654.23 521.815 655 522C650.108 528.931 644.515 535.101 638.678 541.234C637.555 542.415 636.438 543.602 635.326 544.793C622.807 558.167 609.287 567.72 592 574C591.237 574.277 590.474 574.555 589.689 574.841C583.332 576.96 577.49 577.506 570.812 577.438C569.317 577.43 569.317 577.43 567.79 577.423C559.515 577.259 551.692 576.203 544 573C543.67 572.34 543.34 571.68 543 571C544.493 570.797 544.493 570.797 546.016 570.59C580.989 565.385 610.834 546.604 637.844 524.727C638.555 524.157 639.267 523.587 640 523C640.634 522.413 641.268 521.827 641.922 521.223C644.837 519.508 646.505 520.078 649.75 520.812Z" fill="white"/>
<path d="M476.937 602.438C483.819 606.119 488.876 612.324 491.442 619.649C492.547 624.302 492.347 628.996 492.25 633.75C492.245 634.777 492.24 635.805 492.234 636.863C492.19 641.088 492.13 644.915 491 649C489.797 657.954 491.796 663.636 496.469 671.285C498 674 498 674 498 677C496 677.875 496 677.875 493 678C485.19 673.943 479.524 666.63 476.578 658.444C475.384 653.396 475.782 648.214 475.937 643.062C476.753 630.109 476.753 630.109 472.062 618.5C467.575 615.236 462.332 615.274 457 616C451.962 619.395 450.15 624.522 448 630C447.587 631.011 447.175 632.021 446.75 633.062C446.502 633.702 446.255 634.341 446 635C444.062 634.688 444.062 634.688 442 634C439.757 627.27 440.084 620.06 443.062 613.625C450.103 601.184 463.621 597.339 476.937 602.438Z" fill="#194770"/>
<path d="M766.523 783.035C769.612 784.781 771.692 786.343 774 789C764.047 795.862 755.192 798.331 743 797C730.623 794.198 718.861 788.313 711 778C710.316 775.793 710.316 775.793 710 774C728.543 766.648 749.721 774.829 766.523 783.035Z" fill="white"/>
<path d="M715.855 573.297C718.671 575.549 721.095 577.931 723 581C723 581.66 723 582.32 723 583C718.982 582.404 715.12 581.518 711.193 580.488C690.942 575.403 671.272 578.347 651 582C650.67 580.35 650.34 578.7 650 577C669.465 563.596 695.368 558.977 715.855 573.297Z" fill="#194770"/>
<path d="M650.577 1274.26C654.713 1275.52 658.857 1276.76 663 1278C663 1278.33 663 1278.66 663 1279C650.563 1280.09 640.225 1276.89 628.5 1273.19C624.95 1272.09 621.398 1271 617.844 1269.92C616.992 1269.66 616.141 1269.4 615.264 1269.13C608.242 1267.01 601.21 1265.37 594 1264C592.962 1263.79 591.924 1263.58 590.854 1263.36C573.096 1259.88 555.312 1261.97 537.735 1265.31C530.534 1266.63 524.239 1267.32 517 1266C517.33 1265.34 517.66 1264.68 518 1264C519.971 1263.35 519.971 1263.35 522.566 1262.78C523.518 1262.57 524.47 1262.36 525.45 1262.15C526.477 1261.93 527.504 1261.72 528.562 1261.5C530.143 1261.17 530.143 1261.17 531.755 1260.83C574.116 1252.15 610.176 1261.89 650.577 1274.26Z" fill="white"/>
<path d="M696 470C696 474.217 693.607 476.124 690.937 479.125C687.512 483.032 684.294 486.923 681.312 491.188C678.977 494.283 677.339 495.599 673.562 496.563C671.799 496.779 671.799 496.779 670 497C675.125 490.875 680.409 485.11 686.562 480C690.136 477.009 693.078 473.618 696 470Z" fill="white"/>
<path d="M771 790C771.66 790.33 772.32 790.66 773 791C772 794 772 794 769.348 795.387C768.263 795.816 767.179 796.245 766.062 796.688C764.981 797.125 763.899 797.561 762.785 798.012C760 799 760 799 758 799C759 796 759 796 761.652 794.359C762.736 793.828 763.82 793.297 764.937 792.75C766.019 792.209 767.1 791.667 768.215 791.109C769.593 790.56 769.593 790.56 771 790Z" fill="#194770"/>
<path d="M683 485C683.33 485.99 683.66 486.98 684 488C682.785 489.824 682.785 489.824 681.062 491.688C680.497 492.31 679.931 492.933 679.348 493.574C678.903 494.045 678.458 494.515 678 495C676.68 494.67 675.36 494.34 674 494C676.97 491.03 679.94 488.06 683 485Z" fill="white"/>
<path d="M796 758C797.65 758 799.3 758 801 758C800.67 758.99 800.34 759.98 800 761C798.02 761.33 796.04 761.66 794 762C794.66 760.68 795.32 759.36 796 758Z" fill="#194770"/>
</g>
<defs>
<clipPath id="clip0_118_1052">
<rect width="1300" height="1300" fill="white"/>
</clipPath>
</defs>
</svg>
