<svg width="400" height="400" viewBox="0 0 400 400" fill="none" xmlns="http://www.w3.org/2000/svg">
<path d="M88.9519 297.152C88.9859 296.736 88.8159 293.764 91.2239 293.152C99.8899 290.92 108.678 289.192 117.544 287.978C124.126 287.042 125.012 286.95 125.944 289.648C126.97 292.648 127.088 293.904 127.368 293.95C127.554 293.98 127.476 293.984 132.368 287.762C140.988 276.818 140.466 276.674 141.654 277.308C143.305 278.256 144.907 279.288 146.454 280.396C148.164 281.55 147.654 281.16 138.882 292.5C136.196 295.972 133.102 300.164 129.978 304.042C129.324 304.856 129.318 304.708 130.12 309.868C131.98 321.826 132.068 322.486 130.566 323.422C126.566 325.914 110.448 328.374 106.88 328.962C98.0299 330.422 95.6459 330.906 94.8799 328.208C92.1989 318.004 90.2181 307.628 88.9519 297.152ZM125.008 296.878C124.68 294.734 124.666 295.13 123.726 290.442C123.502 289.324 123.76 289.442 118.864 290.23C107.092 292.126 114.998 290.756 98.0379 293.906C90.9939 295.214 91.0959 294.88 91.2179 295.958C91.3759 297.348 94.8179 317.39 97.0779 326.942C97.2359 327.608 97.4539 328.088 98.0079 327.942C99.7299 327.486 98.0779 328.248 128.718 321.942C129.286 321.824 129.066 321.908 128.376 317.502C127.038 308.96 127.632 307.052 125.976 309.152C115.344 322.552 117.472 322.07 111.814 317.008C99.5659 306.05 99.7279 306.36 100.478 305.176C100.918 304.482 102.816 302.214 103.204 301.756C105.7 298.808 105.824 298.628 106.69 299.22C106.738 299.254 115.744 307.262 116.244 307.712C116.944 308.34 116.764 307.824 118.564 305.486C125.11 296.97 124.338 298.2 125 296.878H125.008Z" fill="#194770"/>
<path d="M76.764 240.954C76.764 236.808 76.004 236.396 110.298 231.194C113.564 230.698 113.898 234.086 114.92 237.454C115.12 238.12 114.446 239.278 127.896 221.6C128.786 220.43 128.464 220.492 134.078 224.12C135.978 225.348 135.164 225.438 129.14 233.196C125.65 237.69 120.092 244.996 117.852 247.656C116.98 248.688 117.238 249.628 117.852 253.578C119.766 265.718 119.796 266.496 118.252 267.322C113.172 270.046 97.738 272.338 92.036 273.158C84.512 274.238 85.178 274.042 83.474 273.392C81.624 272.682 76.122 241.052 76.764 240.954ZM116.642 265.012C116.642 264.964 115.224 252.114 114.656 252.114C114.298 252.114 114.356 252.236 112.056 255.174C109.847 258.232 107.433 261.136 104.832 263.866C103.75 265.066 102.98 263.922 93.926 255.824C93.876 255.78 89.746 252.024 88.726 251.048C87.448 249.824 87.572 249.628 90.762 245.912C93.422 242.814 93.66 242.428 94.6 243.25C102.026 249.736 101.512 249.372 103.69 251.356C104.674 252.252 104.346 251.988 108.38 246.696C112.438 241.37 113.05 241.418 112.58 239.426C111.206 233.67 111.796 233.26 110.592 233.464C79.512 238.764 80.47 238.824 79.534 238.938C78.598 239.052 78.782 239.026 81.096 252.056C82.0258 258.516 83.3448 264.914 85.046 271.214C85.296 272.154 85.36 271.792 88.246 271.302C101.546 269.04 91.762 270.808 104.988 268.14C118.214 265.472 116.902 266.108 116.642 265.012Z" fill="#194770"/>
<path d="M65.2461 182.035C65.9621 178.003 64.2461 177.947 99.1781 173.009C101.978 172.609 102.846 176.471 103.45 179.261C103.714 180.475 103.914 179.747 116.608 163.831C117.744 162.407 117.166 162.681 122.904 166.333C124.602 167.415 123.774 167.807 120.578 171.811C106.236 189.775 106.51 189.529 106.236 189.775C105.224 190.685 105.61 191.165 106.584 198.007C107.984 207.806 107.984 208.56 106.314 209.368C100.688 212.094 81.5901 214.688 76.6281 215.242C71.6661 215.796 71.0781 215.554 70.1561 211.6C67.9763 201.844 66.3371 191.973 65.2461 182.035ZM101.288 182.299C100.236 176.401 100.288 177.229 100.05 175.887C99.9281 175.193 99.6921 175.287 96.7401 175.697C76.3621 178.577 72.9201 179.665 68.0701 180.307C67.3761 180.399 67.4421 180.605 67.7921 182.873C70.7681 202.096 71.1241 203.95 73.1021 212.76C73.2681 213.498 73.6701 213.392 75.8101 213.028C84.1161 211.628 101.848 208.396 104.718 207.708C105.09 207.618 105.066 207.684 104.552 203.856C103.264 194.257 103.534 195.075 103.202 194.273C102.87 193.471 102.95 194.143 96.2761 202.172C92.3041 206.948 92.5201 206.288 90.7841 205.222C85.1401 200.096 82.1841 197.503 76.9461 192.339C75.7121 191.125 75.9461 191.381 81.4541 185.035C82.5001 183.835 82.3941 184.139 88.9721 190.165C92.9041 193.767 92.6141 194.001 93.4001 193.001C101.29 182.871 101.376 183.273 101.288 182.299Z" fill="#194770"/>
<path d="M80.0981 157.55C53.5181 158.95 36.9841 123.692 56.7141 103.06C83.5821 74.9682 125.75 107 109.134 139.582C102.742 152.112 90.1861 158.088 80.0981 157.55ZM107.44 137.536C110.312 131.421 111.052 124.521 109.542 117.936C108.032 111.352 104.359 105.463 99.1101 101.21C80.5581 86.1142 52.5101 98.6602 50.6301 122.504C48.0481 155.43 92.0821 168.658 107.44 137.536Z" fill="#194770"/>
<path d="M225.656 157.38C225.82 157.465 225.96 157.589 226.066 157.742C226.17 157.894 226.234 158.07 226.254 158.253C226.274 158.437 226.248 158.623 226.178 158.794C226.11 158.965 225.998 159.116 225.856 159.234C223.758 161.434 215.91 162.634 188.61 167.654C144.762 175.728 145.928 175.054 139.046 175.69C138.696 175.762 138.333 175.719 138.009 175.567C137.686 175.416 137.421 175.163 137.253 174.848C137.086 174.532 137.025 174.171 137.08 173.818C137.135 173.465 137.303 173.14 137.558 172.89C138.758 171.402 137.336 171.738 180.26 164.108C221.6 156.766 223.542 156.064 225.656 157.38Z" fill="#194770"/>
<path d="M156.53 231.922C154.842 231.922 153.634 232.152 153.182 230.922C152.752 229.738 154.048 228.644 155.302 228.284C158.404 227.394 222.142 216.504 225.876 218.554C226.84 219.082 226.92 219.822 226.16 220.618C223.216 223.702 156.55 232.182 156.53 231.922Z" fill="#194770"/>
<path d="M143.8 188.696C141.696 188.796 141.936 186.044 143.654 185.402C148.936 183.43 204.316 173.662 211.198 173.934C212.182 173.972 214.688 174.148 214.62 175.134C214.5 176.858 207.4 178.066 206.044 178.334C193.2 180.894 156.878 188.082 143.8 188.696Z" fill="#194770"/>
<path d="M210.762 236.27C215.45 236.202 216.654 239.808 209.44 241.184C193.08 244.302 161.352 248.844 161.304 248.864C158.798 249.88 155.768 245.296 161.554 244.18C172.18 242.13 199.982 237.278 210.762 236.27Z" fill="#194770"/>
<path d="M161.896 288.528C161.446 285.952 167.712 284.858 178.084 282.898C180.1 282.516 191.884 280.564 196.12 279.986C204.236 278.878 201.52 284.476 199.562 284.728C167.8 288.846 162.43 291.6 161.896 288.528Z" fill="#194770"/>
<path d="M125.474 31.5866C123.603 31.3086 121.693 31.5458 119.947 32.2728C118.201 32.9998 116.686 34.1892 115.566 35.7126C113.306 39.4966 116.34 43.5446 121.992 43.6566C124.714 43.2746 128.014 43.0706 130.334 39.7226C132.952 35.9426 129.966 32.1466 125.474 31.5866ZM125.434 40.5866C124.303 41.2564 122.998 41.5758 121.685 41.5046C120.373 41.4334 119.11 40.9748 118.058 40.1866C115.412 37.7366 118.502 34.4306 123.258 34.4606C124.03 34.3118 124.829 34.4446 125.511 34.8346C126.194 35.2246 126.713 35.8462 126.977 36.5868C127.24 37.3272 127.229 38.1374 126.946 38.8706C126.663 39.6036 126.127 40.2112 125.434 40.5826V40.5866Z" fill="#194770"/>
<path d="M89.6 128.642C95.2564 129.084 100.567 131.54 104.568 135.562C105.806 136.84 103.968 138.72 102.368 137.026C92.228 126.198 68.716 130.27 65.006 146.226C64.238 149.534 62.48 147.948 62.588 146.68C63.488 136.17 74.952 131.114 75.418 130.68C74.972 130.22 74.772 130.334 73.264 129.628C70.4564 128.332 68.2326 126.036 67.027 123.189C65.8214 120.341 65.7204 117.146 66.744 114.228C67.5242 112.128 68.791 110.243 70.4404 108.727C72.0898 107.211 74.075 106.108 76.2332 105.507C78.3914 104.906 80.6612 104.825 82.8566 105.271C85.0522 105.716 87.1108 106.676 88.864 108.07C91.2306 110.004 92.8206 112.725 93.342 115.736C94.484 126.904 84.91 128.446 89.6 128.642ZM91.214 117.54C91.2172 115.542 90.6306 113.587 89.5278 111.92C88.4248 110.253 86.8548 108.949 85.014 108.17C71.16 102 61.286 121.95 75.37 127.892C82.818 131.036 91.742 124.98 91.218 117.54H91.214Z" fill="#194770"/>
<path fill-rule="evenodd" clip-rule="evenodd" d="M230.41 32.1478C236.496 31.4086 236.862 31.3644 237.614 32.7724C239.508 36.8524 242.996 50.4366 247.356 69.7698C241.078 70.848 234.814 71.9288 228.644 72.9962C226.404 62.284 224.922 55.3502 224.554 53.7904C224.428 53.2528 224.406 53.256 222.242 53.5822C221.098 53.7546 219.356 54.0174 216.68 54.3384C207.938 55.3884 184.29 58.5284 184.368 59.4684C184.542 61.5294 184.751 62.7998 184.264 63.6898C183.035 65.9368 177.372 65.7584 155.508 69.7524C140.777 72.4438 138.187 72.733 136.164 72.959C133.894 73.2124 132.339 73.3862 115.136 76.7864C95.59 80.6504 78.41 82.5184 78.36 82.5184C75.4686 83.0216 75.052 80.2458 74.743 78.1884C74.5606 76.9742 74.416 76.01 73.822 76.1184C34.6624 83.2446 31.1648 83.1818 30.9714 83.9508C30.9528 84.024 30.9644 84.105 30.978 84.2004C35.35 114.92 47.424 184.32 52.686 214.32C65.532 287.57 80.454 349.72 81.454 352.12C82.032 353.492 198.042 337.422 272.5 321.92C274.058 321.596 274.806 321.586 275.098 321.216C275.486 320.72 275.058 319.582 274.658 316.19C273.448 305.904 270.946 290.284 267.676 271.684C272.932 267.93 278.554 263.888 284.274 259.748C291.974 304.934 296.702 338.908 294.158 339.488C225.896 355.128 156.122 364.864 72.812 375.488C66.7224 376.266 64.8462 376.842 64.0628 376.16C63.6862 375.832 63.5622 375.216 63.344 374.19C25.967 198.513 12.2406 87.3638 11.7064 83.0376C11.6954 82.9492 11.69 82.9054 11.69 82.9064C11.2664 79.8242 10.8977 77.4692 10.6143 75.6586C9.71215 69.8962 9.67323 69.6476 11.472 69.0144C20.1772 65.9538 38.9224 62.0302 52.468 59.1952C61.298 57.347 67.9186 55.9612 68.108 55.5784C68.3454 55.1528 68.4348 54.6604 68.362 54.1784C68.2618 53.4604 68.2964 52.7298 68.464 52.0244C68.612 50.1244 70.88 49.4004 91.042 45.9804C91.6872 45.8702 91.7022 45.594 91.7722 44.3038C91.8496 42.8822 91.9938 40.2288 93.122 35.2084C93.342 34.2144 94.39 32.0124 95.522 31.5904C104.592 28.2144 128.386 25.0904 135.224 24.4904C137.346 24.3022 139.112 24.0996 140.597 23.9294C145.862 23.3254 147.582 23.1282 149.056 25.4184C150.744 28.19 152.164 31.116 153.298 34.1564C153.446 34.5674 153.667 34.5338 154.581 34.3938C154.841 34.354 155.157 34.3056 155.544 34.2564L156.813 34.096C178.033 31.4104 178.679 31.3286 179.53 33.7904C180.018 35.205 180.25 36.1482 180.403 36.7726C180.689 37.9408 180.702 37.9936 181.614 37.9284C182.26 37.8818 183.841 37.677 186.548 37.3264C192.53 36.552 204.004 35.0664 223.014 33.0024C226.136 32.6668 228.542 32.3746 230.41 32.1478ZM278.704 227.966C272.588 193.908 265.506 156.844 258.89 124.18C252.338 125.288 245.984 126.377 239.848 127.438C246.976 162.568 255.364 204.808 262.208 241.56C267.504 237.168 273.048 232.598 278.704 227.966ZM99.9904 46.4906C94.561 47.411 86.996 48.6934 76.744 50.6124C72.7404 51.3616 71.2372 51.3094 70.9552 51.8708C70.668 52.4422 71.647 53.6498 72.542 56.9864C73.277 59.7158 74.0356 63.3848 74.8726 67.434C75.6002 70.954 76.3874 74.7614 77.27 78.4884C77.6258 79.9878 78.1082 79.896 81.384 79.273C82.1416 79.1288 83.0486 78.9562 84.138 78.7684C130.28 70.8802 154.682 66.9092 167.574 64.8114C182.011 62.462 182.014 62.4614 181.952 61.9384C181.614 59.1058 181.518 58.1386 181.385 57.1762C181.242 56.128 181.055 55.0854 180.468 51.6444C177.932 36.7948 177.699 34.646 176.787 34.3032C176.613 34.2378 176.414 34.238 176.17 34.2284C175.456 34.2024 150.456 37.0784 145.056 37.7124C141.394 38.1444 141.912 36.8044 144.312 36.2424C144.973 36.0888 145.923 35.8956 147.328 35.6096C148.154 35.4416 149.137 35.2414 150.312 34.9984C150.487 34.962 150.635 34.9772 150.708 34.9102C150.95 34.6874 150.355 33.5538 147.124 26.5644C147.021 26.2726 146.82 26.0254 146.555 25.8656C146.29 25.7058 145.978 25.643 145.672 25.6884C144.325 25.8522 142.621 26.0308 140.603 26.2422C132.292 27.113 118.655 28.5418 102.672 31.7924C98.4806 32.6446 96.7768 32.7126 96.016 33.5942C95.1608 34.5856 95.4978 36.6054 94.832 41.9244C94.5702 43.054 94.4454 44.211 94.46 45.3704C95.3962 45.2274 96.65 45.0222 98.0542 44.7926C102.323 44.0942 107.982 43.1684 110.348 43.0644C112.004 42.9904 112.762 43.8844 110.496 44.5204C108.808 44.9958 105.498 45.557 99.9904 46.4906Z" fill="#194770"/>
<path d="M389.674 169.958C389.126 167.398 387.954 165.014 386.26 163.018C384.566 161.022 382.406 159.477 379.968 158.52C377.532 157.563 374.898 157.224 372.298 157.534C369.698 157.844 367.218 158.793 365.074 160.296C346.746 171.748 233.31 264.014 219.422 278.6C216.29 281.89 213.78 285.698 214.268 290.2C214.622 293.474 208.038 296.2 204.938 302.276C204.744 302.568 204.658 302.916 204.69 303.264C204.722 303.612 204.87 303.938 205.114 304.19C206.748 305.934 210.914 302.82 218.962 297.856C220.42 296.956 221.092 298.494 225.746 297.866C230.058 297.284 237.236 293.012 244.842 287.778C259.934 277.392 294.842 252.344 318.798 234.378C372.324 194.226 368.828 195.694 368.662 197.49C368.042 204.19 361.212 209.89 350.39 218.576C328.474 236.176 311.438 247.672 310.946 252.116C310.992 252.726 311.252 253.3 311.68 253.738C312.108 254.174 312.678 254.446 313.286 254.506C320.442 254.812 363.698 217.798 369.356 212.282C382.374 199.596 376.64 190.524 377.8 189.614C384 184.754 391.686 180.658 389.674 169.958ZM230.752 293.78C222.376 297.816 216.402 293.75 216.978 288.752C217.458 284.582 220.742 280.626 224.31 277.734C224.754 281.972 226.83 285.868 230.1 288.6C234.736 292.344 237.134 290.704 230.752 293.78ZM335.57 217.654C313.622 235.786 237.948 289.18 237.898 289.218C236.91 289.976 236.204 289.794 234.282 288.018C230.576 285.186 228.066 281.068 227.248 276.476C227.36 274.062 226.848 275.992 284.448 227.444C306.236 209.084 301.736 213.62 320.138 198.402C324.748 194.588 320.02 198.476 328.116 208.274C334.6 216.128 337.632 215.952 335.57 217.654ZM340.47 213.576C339.648 214.214 339.394 214.218 338.546 213.612C332.922 209.394 328.626 203.652 326.168 197.066C325.242 194.124 326.714 193.644 328.816 191.956C333.332 188.328 365.388 163.556 370.816 161.516C372.462 160.806 374.26 160.519 376.046 160.682C377.832 160.845 379.55 161.453 381.04 162.45C393.386 171.216 384.876 187.638 373.116 175.98C368.138 171.046 368.804 169.96 367.532 170.042C366.39 170.116 366.418 171.642 367.242 173.272C372.532 183.708 379.866 183.052 380.688 183.498C379.932 184.688 344.864 210.17 340.47 213.576Z" fill="#194770"/>
<path d="M375.714 94.4464C375.206 84.6124 371.714 62.6904 367.176 54.1664C366.42 52.82 365.372 51.6586 364.112 50.7664C362.142 49.8212 359.97 49.376 357.788 49.4704C324.52 52.2784 171.436 77.9784 136.368 86.6004C127.102 88.8764 126.338 88.4804 128.092 104.892C128.938 112.806 132.978 138.856 137.254 144.702C139.306 147.502 142.224 147.042 146.6 146.39C150.436 145.8 341.076 114.838 368.968 108.6C375.686 107.094 376.068 101.322 375.714 94.4464ZM369.8 105.812C362.376 107.67 343.886 109.982 268.78 122.518C198.4 134.264 148.788 144.286 140.436 143.8C138.254 143.672 137.538 138.054 133.99 120.49C132.204 111.754 130.994 102.91 130.368 94.0144C130.594 89.9324 129.912 90.5984 141.65 88.2924C145.51 87.5344 340.574 52.9104 357.552 52.2384C362.352 52.0384 364.026 52.8204 365.2 57.4684C369.028 72.6384 372.25 85.6444 373.2 100.378C373.314 101.533 373.042 102.692 372.428 103.676C371.812 104.659 370.888 105.41 369.8 105.812Z" fill="#194770"/>
<path d="M319.682 92.7319C320.178 88.7679 320.524 89.1779 319.482 88.5139C316.546 86.6295 313.892 84.3365 311.602 81.7039C308.424 76.2739 322.662 75.8799 323.476 73.1279C324.148 70.8579 326.688 63.1159 328.46 61.5419C332.844 57.6459 337.598 72.3259 340.79 71.5619C344.408 70.7193 348.104 70.2669 351.818 70.2119C353.31 70.2399 354.904 71.8119 354.06 73.3339C351.924 77.3293 349.588 81.2143 347.06 84.9739C346.442 85.9139 346.986 85.9739 348.876 90.0059C353.09 98.9919 354.982 104.35 336.536 94.5719C334.892 93.7019 334.02 95.1499 332.702 96.4819C316.936 112.436 318.416 102.856 319.682 92.7319ZM321.41 100.408C321.41 105.934 332.252 90.6259 336.878 92.5179C346.37 96.3959 349.202 98.2399 349.036 96.7459C349.002 96.4339 345.78 89.4539 344.626 87.1579C343.538 84.9939 345.172 82.8839 346.536 80.6719C352.536 70.9219 354.508 71.5939 343.368 73.7739C341.122 74.2139 338.88 74.6699 337.554 72.8159C330.812 63.3979 329.97 62.2959 329.398 63.4759C328.56 65.2039 325.85 74.8359 325.816 75.0079C325.466 76.7079 324.948 76.3679 317.646 78.5379C312.08 80.1899 312.174 79.0999 320.846 86.4759C323.304 88.5659 322.966 88.8219 321.41 100.4V100.408Z" fill="#194770"/>
<path d="M187.094 101.382C184.628 107.104 179.262 113.884 179.694 114.622C181.218 117.266 183.494 122.548 184.242 124.28C185.192 126.506 184.306 128.73 182.084 128.264C179.794 127.995 177.57 127.324 175.514 126.282C168.494 123.034 168.642 122.018 166.89 123.756C154.446 136.11 150.09 138.494 152.572 121.132C153.08 117.584 153.448 117.784 152.416 117.148C150.288 115.84 144.9 111.612 144.188 109.718C143.2 107.096 146.018 106.164 148.68 105.18C155.88 102.514 156.008 102.938 156.224 102.058C157.273 98.3268 158.68 94.7054 160.424 91.244C164.624 83.922 170.408 100.872 173.424 100.266C182.948 98.354 182.068 98.96 184.804 98.822C186.15 98.754 187.09 100.34 187.094 101.382ZM154.314 128.8C154.314 132.168 155.984 129.64 163.58 123.7C169.336 119.198 167.202 120.352 181.158 125.844C184.216 127.044 176.112 115.752 177.246 113.378C182.41 102.566 186.678 100.67 182.812 101.082C178.984 101.482 172.398 104.304 170.476 101.482C168.223 98.119 165.759 94.9018 163.1 91.85C162.352 91.14 162.19 91.192 158.7 103.66C158.284 105.148 157.458 105.144 154.374 106.026C145.064 108.684 145.07 107.738 150.174 112.174C157.026 118.136 155.972 114.8 154.314 128.8Z" fill="#194770"/>
<path d="M264.4 99.5528C264.502 98.6848 265.4 98.0428 263.146 96.8348C260.778 95.1262 258.57 93.2078 256.546 91.1028C256.192 90.8218 255.918 90.4512 255.754 90.0292C255.592 89.6072 255.544 89.1492 255.618 88.7028C255.692 88.2564 255.882 87.8378 256.172 87.4902C256.462 87.1428 256.84 86.8792 257.266 86.7268C260.414 85.3706 263.634 84.1842 266.91 83.1728C268.454 82.6788 268.034 79.4428 272.216 71.1728C272.57 70.5186 273.162 70.0262 273.87 69.7988C277.748 68.4708 282.47 81.0108 285.182 80.4588C288.916 79.6988 297.056 77.5628 298.368 80.2868C298.916 81.4228 298.908 81.4388 298.3 82.6328C289.52 99.9028 289.564 88.9228 295.862 104.523C296.862 106.995 295.73 108.807 294.168 108.589C288.882 107.859 286.288 106.089 281.05 103.489C280.322 103.127 280.184 102.825 278.65 103.793C276.768 105.976 274.684 107.975 272.424 109.765C269.394 112.221 264.672 116.305 263.658 111.821C263.058 109.155 263.366 108.371 264.4 99.5528ZM266.446 110.507C267.968 111.285 277.684 99.9188 280.984 101.275C290.156 105.045 294.472 107.547 293.344 105.117C292.344 102.975 289.926 97.5848 289.144 96.0908C288.016 93.9228 289.302 92.0908 292.756 86.7128C296.864 80.3308 297.5 80.7368 291.264 81.9648C281.734 83.8408 283.822 83.9188 278.572 76.8928C273.488 70.0928 274.31 70.3588 272.204 77.4928C270.062 84.7468 270.204 84.9888 269.164 85.3088C260.764 87.8968 257.244 88.2328 258.564 89.4748C266.708 97.1648 267.438 95.3148 267.026 100.493C266.506 107.125 265.118 109.827 266.45 110.507H266.446Z" fill="#194770"/>
<path d="M227.306 89.712C228.922 91.778 231.036 88.912 240.082 89.046C240.568 89.0432 241.044 89.1822 241.452 89.4458C241.858 89.7094 242.182 90.0862 242.378 90.53C242.822 91.362 242.886 91.73 240.178 96.32C239.44 97.568 236.42 102.562 235.254 104.108C234.654 104.908 235.312 104.094 239.586 114.064C240.692 116.644 239.9 118.964 238.02 118.616C225.356 116.276 225.542 111.016 222.122 114.294C214.044 122.048 206.394 129.802 207.402 117.334C208.562 102.988 211.116 111.734 200.892 101.69C196.354 97.232 203.374 95.734 209.37 93.69C211.068 93.114 211.534 93.128 211.998 91.596C217.892 72.17 219.866 80.2 227.306 89.712ZM209.866 118.842C209.866 124.392 216.498 114.322 223.048 111.406C224.202 110.892 224.34 110.806 231.818 114.24C233.472 114.984 235.168 115.626 236.9 116.164C236.982 116.163 237.062 116.145 237.134 116.11C237.208 116.075 237.272 116.025 237.324 115.962C237.376 115.9 237.414 115.827 237.434 115.748C237.454 115.67 237.458 115.588 237.444 115.508C237.394 115.354 237.328 115.206 237.244 115.068C232.404 104.912 231.802 104.966 233.244 102.38C240.988 88.604 244.27 90.546 229.222 93.104C226.652 93.542 225.622 91.244 224.434 89.644C218.718 81.946 218.204 80.51 217.39 83.134C216.954 84.534 215.024 91 214.224 93.78C213.704 95.58 213.122 95.318 205.368 97.602C200.734 98.968 201.158 98.584 206.71 103.37C212.262 108.156 211.4 105.646 209.866 118.842Z" fill="#194770"/>
</svg>
