<svg width="1200" height="240" viewBox="0 0 1200 240" fill="none" xmlns="http://www.w3.org/2000/svg">
<path d="M51.0618 240C39.9049 240 30.523 235.481 22.916 226.443C15.3724 217.297 9.66719 203.847 5.80032 186.093C1.93344 168.339 0 146.389 0 120.242V119.919C0 93.9879 1.93344 72.1453 5.80032 54.3914C9.66719 36.5299 15.3724 23.0262 22.916 13.8803C30.523 4.62677 39.9049 0 51.0618 0C62.2187 0 71.5689 4.57297 79.1125 13.7189C86.7195 22.8648 92.4564 36.3685 96.3233 54.23C100.19 72.0915 102.124 93.9879 102.124 119.919V120.242C102.124 146.389 100.19 168.393 96.3233 186.254C92.4564 204.008 86.7195 217.404 79.1125 226.443C71.5689 235.481 62.2187 240 51.0618 240ZM51.0618 187.545C54.2948 187.545 56.9572 185.286 59.0491 180.767C61.2044 176.247 62.7892 169.038 63.8035 159.139C64.8177 149.24 65.3249 136.274 65.3249 120.242V119.919C65.3249 103.995 64.8177 91.0827 63.8035 81.1836C62.7892 71.2845 61.2044 64.0215 59.0491 59.3948C56.9572 54.768 54.2948 52.4546 51.0618 52.4546C47.8922 52.4546 45.2298 54.768 43.0745 59.3948C40.9826 64.0215 39.3978 71.2845 38.3201 81.1836C37.3059 91.0827 36.7987 103.995 36.7987 119.919V120.242C36.7987 136.382 37.3059 149.401 38.3201 159.301C39.3978 169.092 40.9826 176.247 43.0745 180.767C45.1664 185.286 47.8288 187.545 51.0618 187.545Z" fill="white"/>
<path d="M112.583 236.449V3.55077H158.225C169.762 3.55077 179.493 7.63954 187.417 15.8171C195.404 23.9946 201.426 36.5837 205.483 53.5844C209.604 70.4775 211.664 92.1049 211.664 118.467V118.79C211.664 145.044 209.604 166.886 205.483 184.317C201.363 201.748 195.341 214.822 187.417 223.537C179.493 232.145 169.762 236.449 158.225 236.449H112.583ZM148.716 185.286H153.471C158.035 185.286 161.902 183.295 165.071 179.314C168.304 175.225 170.745 168.339 172.393 158.655C174.105 148.863 174.96 135.575 174.96 118.79V118.467C174.96 102.434 174.105 89.7915 172.393 80.538C170.681 71.1769 168.209 64.5595 164.976 60.6859C161.807 56.7048 157.971 54.7142 153.471 54.7142H148.716V185.286Z" fill="white"/>
<path d="M222.979 236.449V3.55077H259.017V236.449H222.979Z" fill="white"/>
<path d="M271.664 236.449V3.55077H307.797L343.55 152.36L330.143 133.961H338.891V3.55077H370.46V236.449H335.087L298.574 87.8009L311.981 106.2H303.233V236.449H271.664Z" fill="white"/>
<path d="M431.981 170.599V122.986H455.658C460.412 122.986 463.899 120.135 466.117 114.432C468.336 108.729 469.445 99.7445 469.445 87.4781V87.1553C469.445 74.5662 468.336 65.5817 466.117 60.2018C463.899 54.7142 460.475 51.9704 455.848 51.9704H431.981V3.55077H462.314C471.569 3.55077 479.429 6.94015 485.895 13.7189C492.425 20.39 497.369 29.9664 500.729 42.4479C504.152 54.9294 505.864 69.8319 505.864 87.1553V87.4781C505.864 104.694 504.152 119.543 500.729 132.024C497.369 144.398 492.425 153.921 485.895 160.592C479.429 167.263 471.569 170.599 462.314 170.599H431.981ZM413.914 236.449V3.55077H449.952V236.449H413.914Z" fill="white"/>
<path d="M515.658 236.449V3.55077H564.247C574.136 3.55077 582.345 6.40215 588.875 12.1049C595.467 17.7001 600.38 25.9852 603.613 36.9603C606.91 47.9354 608.558 61.3853 608.558 77.31V77.6328C608.558 92.9119 607.036 106.039 603.994 117.014C601.014 127.882 596.925 136.113 591.727 141.708L611.03 236.449H573.28L557.971 155.104C557.591 155.104 557.211 155.104 556.83 155.104C556.513 155.104 556.196 155.104 555.88 155.104H551.696V236.449H515.658ZM551.696 112.011H558.827C563.201 112.011 566.434 109.536 568.526 104.586C570.681 99.6369 571.759 91.9973 571.759 81.6678V81.345C571.759 71.1231 570.681 63.5373 568.526 58.5878C566.434 53.5306 563.201 51.002 558.827 51.002H551.696V112.011Z" fill="white"/>
<path d="M667.987 240C656.83 240 647.448 235.481 639.841 226.443C632.298 217.297 626.593 203.847 622.726 186.093C618.859 168.339 616.925 146.389 616.925 120.242V119.919C616.925 93.9879 618.859 72.1453 622.726 54.3914C626.593 36.5299 632.298 23.0262 639.841 13.8803C647.448 4.62677 656.83 0 667.987 0C679.144 0 688.494 4.57297 696.038 13.7189C703.645 22.8648 709.382 36.3685 713.249 54.23C717.116 72.0915 719.049 93.9879 719.049 119.919V120.242C719.049 146.389 717.116 168.393 713.249 186.254C709.382 204.008 703.645 217.404 696.038 226.443C688.494 235.481 679.144 240 667.987 240ZM667.987 187.545C671.22 187.545 673.883 185.286 675.975 180.767C678.13 176.247 679.715 169.038 680.729 159.139C681.743 149.24 682.25 136.274 682.25 120.242V119.919C682.25 103.995 681.743 91.0827 680.729 81.1836C679.715 71.2845 678.13 64.0215 675.975 59.3948C673.883 54.768 671.22 52.4546 667.987 52.4546C664.818 52.4546 662.155 54.768 660 59.3948C657.908 64.0215 656.323 71.2845 655.246 81.1836C654.231 91.0827 653.724 103.995 653.724 119.919V120.242C653.724 136.382 654.231 149.401 655.246 159.301C656.323 169.092 657.908 176.247 660 180.767C662.092 185.286 664.754 187.545 667.987 187.545Z" fill="white"/>
<path d="M768.875 240C762.092 240 756.006 238.278 750.618 234.835C745.23 231.284 740.634 226.174 736.83 219.502C733.027 212.831 730.079 204.761 727.987 195.293C725.895 185.716 724.786 174.849 724.659 162.69V154.136H759.271L759.461 164.788C759.461 169.307 759.778 173.181 760.412 176.409C761.109 179.637 762.092 182.112 763.36 183.833C764.628 185.447 766.212 186.254 768.114 186.254C770.903 186.254 772.995 184.371 774.39 180.605C775.848 176.839 776.577 171.513 776.577 164.627V3.55077H812.615V162.367C812.615 178.292 810.903 192.065 807.48 203.685C804.057 215.306 799.081 224.291 792.551 230.639C786.022 236.88 778.13 240 768.875 240Z" fill="white"/>
<path d="M825.071 236.449V3.55077H900.38V54.5528H861.109V96.5165H898.383V142.999H861.109V185.447H900.38V236.449H825.071Z" fill="white"/>
<path d="M961.712 240C950.555 240 941.204 235.588 933.661 226.765C926.181 217.942 920.539 204.654 916.735 186.9C912.932 169.146 911.03 146.873 911.03 120.081V119.758C911.03 93.0733 912.9 70.8541 916.64 53.1002C920.444 35.3463 926.054 22.0578 933.471 13.2347C940.951 4.41157 950.174 0 961.141 0C971.854 0 980.697 3.81977 987.67 11.4593C994.707 18.9913 999.937 29.6436 1003.36 43.4163C1006.78 57.0814 1008.56 73.1675 1008.68 91.6745V100.39H973.978V92.8043C973.851 83.6584 973.312 76.1264 972.361 70.2085C971.41 64.1829 970.048 59.7176 968.273 56.8124C966.498 53.9072 964.279 52.4546 961.616 52.4546C958.637 52.4546 956.101 54.6066 954.009 58.9106C951.981 63.1069 950.428 70.1009 949.35 79.8924C948.336 89.6839 947.829 102.919 947.829 119.597V119.919C947.829 136.382 948.336 149.563 949.35 159.462C950.428 169.361 951.981 176.516 954.009 180.928C956.101 185.34 958.669 187.545 961.712 187.545C964.311 187.545 966.466 186.147 968.177 183.349C969.952 180.444 971.315 176.032 972.266 170.114C973.217 164.196 973.788 156.557 973.978 147.196L974.073 139.61H1008.68V148.487C1008.56 168.285 1006.69 185.017 1003.07 198.682C999.461 212.239 994.168 222.515 987.195 229.509C980.285 236.503 971.791 240 961.712 240Z" fill="white"/>
<path d="M1040.16 236.449V54.5528H1014.39V3.55077H1101.87V54.5528H1076.2V236.449H1040.16Z" fill="white"/>
<path d="M1154.17 240C1143.96 240 1135.5 237.202 1128.78 231.607C1122.06 225.905 1117.02 217.942 1113.66 207.72C1110.3 197.391 1108.56 185.232 1108.43 171.244V164.304H1141.81L1141.9 170.76C1142.03 175.279 1142.57 178.991 1143.52 181.896C1144.53 184.802 1145.9 187.007 1147.61 188.514C1149.32 189.913 1151.32 190.612 1153.6 190.612C1155.82 190.612 1157.69 189.913 1159.21 188.514C1160.79 187.115 1162 185.286 1162.82 183.026C1163.71 180.659 1164.15 178.077 1164.15 175.279V174.956C1164.15 169.146 1162.95 164.143 1160.54 159.946C1158.13 155.75 1153.95 151.231 1147.99 146.389L1138.1 138.157C1128.59 130.303 1121.36 121.049 1116.42 110.397C1111.54 99.6369 1109.1 86.0256 1109.1 69.5629V69.2401C1109.1 55.4674 1110.93 43.4163 1114.61 33.0868C1118.29 22.6496 1123.49 14.5259 1130.21 8.71553C1136.93 2.90518 1144.88 0 1154.07 0C1164.09 0 1172.3 3.01278 1178.7 9.03833C1185.17 15.0639 1189.95 23.2952 1193.06 33.7323C1196.23 44.0619 1197.84 55.7364 1197.91 68.7559L1198 75.696H1164.63V69.2401C1164.5 64.9361 1164.03 61.3315 1163.2 58.4264C1162.44 55.4136 1161.33 53.154 1159.87 51.6476C1158.42 50.1412 1156.61 49.388 1154.45 49.388C1152.42 49.388 1150.68 50.1412 1149.22 51.6476C1147.83 53.154 1146.75 55.1984 1145.99 57.7808C1145.29 60.2556 1144.94 63.0531 1144.94 66.1735V66.4963C1144.94 71.9839 1145.93 76.503 1147.89 80.0538C1149.92 83.6046 1153.34 87.2629 1158.16 91.0289L1168.15 99.2603C1175.75 105.716 1181.9 112.334 1186.59 119.112C1191.28 125.891 1194.68 133.369 1196.77 141.547C1198.92 149.617 1200 158.87 1200 169.307V169.63C1200 183.833 1198.13 196.207 1194.39 206.752C1190.71 217.297 1185.45 225.474 1178.61 231.284C1171.76 237.095 1163.61 240 1154.17 240Z" fill="white"/>
</svg>