<svg width="15rem" height="15rem" viewBox="0 0 325 334" fill="none" xmlns="http://www.w3.org/2000/svg">
<path d="M103.933 3.06669C94.6001 13.3334 95.6667 30.5334 107.267 60.2667C110.333 67.8667 112.467 74.2667 112.2 74.4C111.933 74.6667 103.933 79.7334 94.3334 85.7334C60.0667 107.067 43.8001 121.2 44.6001 129.2C44.8667 132.267 45.8001 133.467 48.0667 133.733C49.6667 134 51.0001 134.533 51.0001 135.067C51.0001 135.6 42.4667 141.333 32.0667 148C7.00007 163.867 3.1334 166.8 1.66673 170.8C-0.866601 177.467 2.86673 182.133 21.1334 195.733L38.2001 208.4L45.6667 200.8C55.0001 191.067 63.4001 187.2 76.3334 186.267C85.4001 185.6 85.8001 185.467 81.0001 184.533C69.4001 182.533 52.2001 188.533 41.9334 198.133L37.6667 202.133L29.1334 197.467C17.4001 190.933 17.1334 190.4 20.4667 182.667C22.2001 178.667 23.0001 174.667 22.6001 172.133C22.0667 168.267 22.7334 167.333 32.0667 160C55.0001 141.6 61.4001 135.733 60.2001 133.867C56.3334 127.733 64.3334 119.2 82.3334 109.733C96.2001 102.533 123 92.2667 137.267 88.6667C142.733 87.3334 147.533 85.8667 147.933 85.6C149.667 83.7334 139.133 67.2 131.4 59.6C126.6 54.9334 122.467 51.3334 122.2 51.7334C121.933 52 122.6 54.4 123.667 57.0667C125.8 62.1334 126.333 68.6667 124.733 68.6667C124.067 68.6667 120.733 64.5334 117.267 59.3334C106.467 43.6 101.933 27.2 105.667 17.4667C106.333 15.6001 107.533 14 108.333 14C109.133 14 113.267 16.4 117.533 19.2C133.533 30.1334 149.933 51.8667 158.6 73.6C160.6 78.8 162.733 83.2 163.4 83.3334C163.933 83.4667 167.8 82.8 171.933 82C181.667 79.8667 192.867 80.8 207 84.6667C216.867 87.4667 217.8 87.8667 215 89.0667C207.933 91.7334 196.067 97.3334 195.533 98.2667C195.133 98.8 199.267 100.533 204.6 102.133C228.867 109.2 256.2 123.2 265.667 133.333L269 136.8L265.667 139.333C263.8 140.8 255.267 145.6 246.733 150C238.067 154.533 231 158.4 231 158.667C231 159.067 232.867 160.133 235 161.333C237.267 162.533 239 163.867 239 164.533C239 165.067 235.267 166.533 230.733 167.867C220.067 170.8 201.4 180.533 190.733 188.533C186.067 192.133 178.333 199.2 173.4 204.4L164.467 213.867L163.667 209.867C162.467 204.8 161.133 205.867 152.867 218.4C141 236.267 134.867 259.2 134.867 285.333C134.867 302.8 138.867 336.4 140.6 333.733C141.133 332.8 141.667 330.133 141.667 328C141.8 321.067 146.733 303.867 151.8 293.067C165.4 264.133 187.667 240 220.333 218.667C248.333 200.533 287.133 184.133 314.733 179.2C319.933 178.267 324.333 176.8 324.333 176.133C324.333 172.8 308.2 159.467 298.333 154.533L287.8 149.333L299.667 148.933C306.067 148.667 313.267 149.2 315.4 150C317.667 150.667 319.667 151.067 319.933 150.8C320.2 150.533 317.933 147.333 315 143.467C300.867 125.467 272.6 110.133 239 102.133L223.667 98.4L231.667 96.6667C236.067 95.7334 243.4 94.9334 247.933 94.8C252.6 94.8 256.333 94.2667 256.333 93.8667C256.333 92.5334 242.867 82.6667 237 79.6C234.067 78.1334 226.333 75.4667 219.667 73.4667C213.133 71.6 203.533 68.8 198.333 67.3334C189 64.6667 189 64.6667 183.933 55.8667C177.267 44.4 163.667 30.1334 152.067 22.5334C147 19.2 135.933 13.3334 127.267 9.73338C118.733 6.00005 111.133 2.53338 110.467 1.86671C108.467 4.58956e-05 106.333 0.400028 103.933 3.06669ZM120.067 68.6667L124.333 73.3334L127 70.1334C128.467 68.4 129.667 66.1334 129.667 65.0667C129.667 64 130.2 63.4667 130.867 64C132.467 64.9334 143 80.6667 143 82C143 82.5334 139.8 83.7334 136.067 84.6667C115.8 89.3334 77.2667 106.267 65.4001 115.6C58.6001 120.933 54.4667 127.867 55.5334 132.133L56.4667 135.6L52.4667 132.533C50.3334 130.8 48.4667 128.533 48.4667 127.6C48.2001 122.933 74.8667 102 101.533 86C115.4 77.6 116.6 75.4667 113.267 65.8667C110.467 58 110.467 56.4 113.4 60.6667C114.6 62.5334 117.667 66.1334 120.067 68.6667ZM36.2001 151.733C35.9334 152 31.9334 155.2 27.5334 159.067C19.6667 165.733 19.2667 166.267 18.7334 173.067C18.4667 176.933 17.2667 181.467 16.2001 183.067L14.2001 185.867L9.9334 182.533C6.60007 179.867 5.66673 178.133 5.66673 174.533C5.66673 170.667 6.46673 169.467 11.4001 166.4C14.4667 164.267 17.2667 162.267 17.4001 161.6C17.6667 161.067 18.6001 160.667 19.4001 160.667C20.3334 160.533 24.3334 158.267 28.3334 155.467C32.3334 152.533 35.9334 150.533 36.2001 150.8C36.4667 151.067 36.4667 151.467 36.2001 151.733Z" fill="#f6f6f6"/>
<path d="M155.8 1.73335C155.4 2.40002 155.933 2.93335 157 2.93335C158.067 2.93335 158.6 2.40002 158.2 1.73335C157.8 1.20002 157.267 0.666687 157 0.666687C156.733 0.666687 156.2 1.20002 155.8 1.73335Z" fill="#f6f6f6"/>
<path d="M61.6667 22.8C61.6667 23.2 63.4001 25.8667 65.4001 28.5333C75.4001 41.4667 90.2001 68.8 91.8001 77.6C92.3334 80.1333 93.0001 81.8667 93.5334 81.7333C93.9334 81.4667 97.6667 79.6 101.8 77.4667L109.267 73.6L104.2 60.6667C101.4 53.6 98.2001 44.2667 97.0001 40.1333C95.0001 33.4667 93.9334 32 88.6001 28.5333C85.2667 26.4 80.7334 24.4 78.4667 24.1333C68.6001 22.6667 61.6667 22.1333 61.6667 22.8ZM79.9334 29.3333C83.5334 30.4 87.6667 32.5333 89.0001 34C90.8667 36.1333 104.2 68.5333 104.333 71.4667C104.333 72.2667 98.2001 75.3333 96.3334 75.3333C95.6667 75.3333 94.7334 74 94.3334 72.2667C92.7334 67.2 81.5334 45.7333 76.3334 38C69.4001 27.6 69.2667 27.3333 71.4001 27.3333C72.3334 27.3333 76.2001 28.2667 79.9334 29.3333Z" fill="#f6f6f6"/>
<path d="M149.667 92.5334L138.333 94.8L147.667 97.0667C173.933 103.733 200.067 114.8 210.6 123.867C215.133 127.867 216.467 130 217.667 136C218.733 141.333 218.733 144.533 217.8 147.733C215.4 154.667 205.4 166.267 194.467 174.533C184.6 181.867 180.6 186.133 188.067 181.2C203 171.333 217.133 164.667 223.267 164.667C226.067 164.667 226.067 164.533 222.6 160.933L219.133 157.333L239.667 146.667C251 140.8 259.8 135.6 259.267 135.067C257.667 133.6 244.467 126.4 229.267 118.667C211.933 109.733 198.2 104.267 188.067 102C183.8 101.067 180.333 99.7334 180.333 99.2C180.333 98.6667 183.4 96.8 187.133 94.9334L193.933 91.7334L187.667 90.9334C177.267 89.4667 161.667 90.1334 149.667 92.5334ZM177 92.6667C176.6 93.3334 175.4 93.6 174.333 93.0667C171.533 92.1334 171.8 91.3334 175.133 91.3334C176.6 91.3334 177.533 91.8667 177 92.6667ZM173.4 96.9334C179.267 100 175.533 101.067 168.333 98.4C167.267 98 165.533 97.4667 164.6 97.2C161 96.5334 161.667 95.7334 165.933 95.6C168.333 95.4667 171.667 96.1334 173.4 96.9334ZM179.933 96.1334C179.533 96.5334 178.333 96.6667 177.4 96.2667C176.333 95.8667 176.733 95.4667 178.2 95.4667C179.667 95.3334 180.467 95.7334 179.933 96.1334ZM227.667 122.8C237.267 127.467 246.333 132.4 248.067 133.733L251.133 136.133L236.6 143.733C228.6 147.867 221.8 151.333 221.533 151.333C221.267 151.333 221.133 147.333 221.4 142.4C221.8 134.267 221.4 132.667 217.8 126.933C215.133 122.933 210.733 118.667 205.4 115.333C200.867 112.4 196.867 109.6 196.467 109.2C194.6 107.333 211.8 114.8 227.667 122.8ZM216.333 160.667C216.333 161.333 215.667 162 214.867 162C214.2 162 213.933 161.333 214.333 160.667C214.733 159.867 215.4 159.333 215.8 159.333C216.067 159.333 216.333 159.867 216.333 160.667Z" fill="#f6f6f6"/>
<path d="M106.333 116C103.4 116.933 99.2667 118.4 97.2667 119.2L93.5334 120.667L96.8667 125.067C98.8667 127.6 100.333 130.933 100.333 132.4C100.333 135.733 101.4 136 106.067 133.867C109 132.533 109.267 132 108.067 127.867C107.133 124 107.4 122.667 109.8 119.2C111.267 117.067 112.467 114.933 112.2 114.8C111.933 114.533 109.267 115.067 106.333 116ZM103 124.133C103 125.2 102.467 125.733 101.667 125.333C101 124.933 100.333 124 100.333 123.2C100.333 122.533 101 122 101.667 122C102.467 122 103 122.933 103 124.133Z" fill="#f6f6f6"/>
<path d="M73.2667 135.867L77.8001 137.067C80.3334 137.733 86.0667 137.867 90.7334 137.333C98.7334 136.533 98.8667 136.4 96.3334 134.267C94.8667 133.067 93.2667 129.733 92.7334 126.933L91.6667 121.733L73.2667 135.867ZM89.6667 131.333C89.6667 133.067 85.9334 134.667 84.6001 133.467C84.2001 132.933 84.6001 132 85.6667 131.333C88.3334 129.6 89.6667 129.733 89.6667 131.333Z" fill="#f6f6f6"/>
<path d="M147.667 154.4C147.533 169.6 145.533 176.267 137.8 185.067C129.4 194.533 125.667 196 109 195.6C89.5334 195.067 76.7334 197.6 63.6667 204.533C56.6001 208.267 51.8001 210 48.2001 210C45.0001 210 43.1334 210.533 43.6667 211.333C45.0001 213.6 52.7334 212.8 67.9334 209.067C94.7334 202.533 112.2 204.667 117.133 215.2C119 219.067 119.4 223.2 119.133 236.933C118.867 251.333 119.4 256.133 122.467 268.933C124.333 277.2 126.467 284.533 127.133 285.333C127.933 286 127.933 284.667 127.4 282C125.667 274.133 126.2 236.533 128.067 231.067C129 228.4 132.867 221.2 136.6 215.067C155.8 183.467 160.6 163.867 153 147.6C151.267 143.867 149.267 140.667 148.733 140.667C148.2 140.667 147.667 146.8 147.667 154.4ZM150.333 177.733C147.667 186.667 140.2 202.133 133.133 213.333C130.2 217.733 126.867 223.733 125.533 226.667L123.133 232V225.6C122.867 214.133 117.8 206.533 107.667 202.8L102.333 200.8H112.6C124.867 200.667 130.867 198 139 189.2C144.867 182.8 150.867 171.467 151.133 166C151.4 162.8 151.4 162.8 151.933 166.4C152.2 168.4 151.533 173.467 150.333 177.733Z" fill="#f6f6f6"/>
</svg>
